%TF.GenerationSoftware,KiCad,Pcbnew,9.0.7*%
%TF.CreationDate,2026-02-16T08:00:12+01:00*%
%TF.ProjectId,misfits,6d697366-6974-4732-9e6b-696361645f70,1*%
%TF.SameCoordinates,Original*%
%TF.FileFunction,Legend,Bot*%
%TF.FilePolarity,Positive*%
%FSLAX46Y46*%
G04 Gerber Fmt 4.6, Leading zero omitted, Abs format (unit mm)*
G04 Created by KiCad (PCBNEW 9.0.7) date 2026-02-16 08:00:12*
%MOMM*%
%LPD*%
G01*
G04 APERTURE LIST*
%ADD10C,0.000000*%
%ADD11C,0.200000*%
%ADD12C,0.127000*%
%ADD13C,0.400000*%
%ADD14C,0.152400*%
G04 APERTURE END LIST*
D10*
G36*
X159604005Y-83951194D02*
G01*
X160011939Y-82091282D01*
X160081547Y-83222737D01*
X160544593Y-82086761D01*
X160275178Y-83896417D01*
X161178172Y-82199234D01*
X160836358Y-83500653D01*
X161832912Y-82477253D01*
X161209229Y-83802934D01*
X162135323Y-82765013D01*
X161466941Y-83968041D01*
X162457372Y-82956293D01*
X161834490Y-84334348D01*
X163130535Y-83607416D01*
X162508971Y-84401424D01*
X163585494Y-84202806D01*
X162451249Y-85045985D01*
X163781530Y-84958884D01*
X162466649Y-85731757D01*
X163704403Y-85505931D01*
X162652323Y-86057629D01*
X163811942Y-86461583D01*
X162720949Y-86522639D01*
X163400856Y-87114153D01*
X163222159Y-87357162D01*
X162723456Y-87158699D01*
X162416730Y-88356248D01*
X161968204Y-87989088D01*
X160679084Y-89506230D01*
X160407861Y-89040186D01*
X158934023Y-89637359D01*
X159186127Y-88742375D01*
X159159928Y-88353355D01*
X158919917Y-88566366D01*
X158545081Y-88748654D01*
X158045835Y-88711783D01*
X157781846Y-88382836D01*
X157506979Y-88321264D01*
X157543177Y-88166492D01*
X157608213Y-88166492D01*
X157815875Y-88210287D01*
X158298843Y-88027482D01*
X158612751Y-87553738D01*
X158406872Y-87334009D01*
X158239362Y-87632699D01*
X158165518Y-87898910D01*
X157798589Y-88182330D01*
X157608213Y-88166492D01*
X157543177Y-88166492D01*
X157586379Y-87981776D01*
X157806935Y-88022135D01*
X158081155Y-87788686D01*
X158073533Y-87585546D01*
X158249000Y-87307760D01*
X157970051Y-87130820D01*
X157516357Y-87073665D01*
X157510182Y-87111880D01*
X157687560Y-87437441D01*
X157437162Y-87578026D01*
X157146766Y-87297863D01*
X157014887Y-87437079D01*
X156625015Y-87103972D01*
X156518717Y-86613692D01*
X156143469Y-86333942D01*
X156147719Y-86312755D01*
X156530661Y-86312755D01*
X156562132Y-86477835D01*
X156710650Y-86656946D01*
X156842451Y-86794173D01*
X156733051Y-86761203D01*
X156801832Y-87062502D01*
X157062979Y-87305537D01*
X156908129Y-87021368D01*
X156924203Y-86916748D01*
X157182658Y-86916748D01*
X157251438Y-87218048D01*
X157512559Y-87461082D01*
X157357737Y-87176913D01*
X157388175Y-86978683D01*
X157182658Y-86916748D01*
X156924203Y-86916748D01*
X156935957Y-86840242D01*
X157416238Y-86925741D01*
X158061056Y-87009379D01*
X158434986Y-87253292D01*
X158658977Y-87602289D01*
X158420956Y-88038929D01*
X158020101Y-88448464D01*
X158179498Y-88575873D01*
X158551981Y-88589205D01*
X158845814Y-88434744D01*
X159145512Y-88210443D01*
X159318008Y-88224447D01*
X159368935Y-88773922D01*
X159199824Y-89409335D01*
X160464837Y-88866913D01*
X160701540Y-89227383D01*
X161967586Y-87786747D01*
X162342473Y-88090707D01*
X162627649Y-87006510D01*
X163204616Y-87218384D01*
X161727575Y-85629954D01*
X161217683Y-85255971D01*
X161132598Y-85470428D01*
X160649949Y-85512598D01*
X161035601Y-85361158D01*
X161115829Y-85154530D01*
X161115855Y-85154556D01*
X161194274Y-84952552D01*
X161445705Y-85012264D01*
X161494410Y-84789203D01*
X161198304Y-84774759D01*
X161200008Y-84640943D01*
X161494408Y-84647506D01*
X161448623Y-84443798D01*
X161191740Y-84486767D01*
X161129574Y-84249236D01*
X160965061Y-84131155D01*
X160635064Y-84195107D01*
X160190000Y-84450000D01*
X159961925Y-84710967D01*
X159066631Y-84776777D01*
X158367345Y-85000458D01*
X158111263Y-85291629D01*
X158044859Y-85515207D01*
X158141055Y-85597864D01*
X158178623Y-85611920D01*
X159406817Y-85082055D01*
X159468233Y-85202436D01*
X158958213Y-85416556D01*
X159624064Y-85352633D01*
X159435393Y-85503631D01*
X160662424Y-85673311D01*
X160475898Y-85733436D01*
X161138906Y-86326087D01*
X161582160Y-86931554D01*
X161362794Y-86945946D01*
X161549062Y-87399252D01*
X161134721Y-87350780D01*
X161171358Y-87771632D01*
X160606071Y-87476947D01*
X160229118Y-87906766D01*
X159853378Y-87429999D01*
X159809194Y-87588981D01*
X159472109Y-86972249D01*
X159387954Y-87077592D01*
X158817524Y-86324330D01*
X158822459Y-86530804D01*
X158050697Y-86090365D01*
X158099583Y-86348050D01*
X157597184Y-85871283D01*
X157525639Y-85879680D01*
X156768011Y-86122276D01*
X156563217Y-86185140D01*
X156530661Y-86312755D01*
X156147719Y-86312755D01*
X156260594Y-85750153D01*
X156737179Y-85743564D01*
X156859059Y-85881695D01*
X156925935Y-85862032D01*
X158130949Y-85862032D01*
X158392818Y-85998794D01*
X158737681Y-86009878D01*
X159131791Y-85860017D01*
X159021900Y-85716253D01*
X158761217Y-85530993D01*
X158370133Y-85645095D01*
X158130949Y-85862032D01*
X156925935Y-85862032D01*
X157619761Y-85658039D01*
X157897677Y-85266642D01*
X158163578Y-84961777D01*
X157469229Y-83683715D01*
X158283933Y-84598414D01*
X157915997Y-82339379D01*
X158606316Y-84180920D01*
X158631353Y-82086759D01*
X159090034Y-84160043D01*
X159487684Y-82010768D01*
X159604005Y-83951194D01*
G37*
G36*
X157228726Y-88093652D02*
G01*
X156421205Y-89409334D01*
X155907644Y-88927504D01*
X157045533Y-87981877D01*
X157228726Y-88093652D01*
G37*
G36*
X156733047Y-87551825D02*
G01*
X155146116Y-88093652D01*
X155082219Y-87461082D01*
X156645533Y-87326439D01*
X156733047Y-87551825D01*
G37*
G36*
X156934945Y-87925162D02*
G01*
X155743519Y-88683824D01*
X155415632Y-88289223D01*
X156779684Y-87772148D01*
X156934945Y-87925162D01*
G37*
G36*
X160973437Y-84216216D02*
G01*
X161132600Y-84452791D01*
X161129679Y-84497155D01*
X160976122Y-84522838D01*
X160974702Y-84635906D01*
X161120351Y-84639161D01*
X161111721Y-84770549D01*
X160974702Y-84763857D01*
X160974702Y-84900412D01*
X161097459Y-84929557D01*
X160965658Y-85071125D01*
X160829749Y-85217111D01*
X160516486Y-85369246D01*
X160253995Y-85270001D01*
X160276139Y-84918834D01*
X160304328Y-84802743D01*
X160363471Y-84559011D01*
X160481577Y-84355638D01*
X160481603Y-84355638D01*
X160762568Y-84209161D01*
X160973437Y-84216216D01*
G37*
D11*
X163717945Y-89787331D02*
X163717945Y-89977807D01*
X163336993Y-89787331D02*
X163336993Y-89977807D01*
X162908421Y-90787331D02*
X162908421Y-89787331D01*
X162908421Y-89787331D02*
X162575088Y-90501616D01*
X162575088Y-90501616D02*
X162241755Y-89787331D01*
X162241755Y-89787331D02*
X162241755Y-90787331D01*
X161765564Y-90787331D02*
X161765564Y-90120664D01*
X161765564Y-89787331D02*
X161813183Y-89834950D01*
X161813183Y-89834950D02*
X161765564Y-89882569D01*
X161765564Y-89882569D02*
X161717945Y-89834950D01*
X161717945Y-89834950D02*
X161765564Y-89787331D01*
X161765564Y-89787331D02*
X161765564Y-89882569D01*
X161336993Y-90739712D02*
X161241755Y-90787331D01*
X161241755Y-90787331D02*
X161051279Y-90787331D01*
X161051279Y-90787331D02*
X160956041Y-90739712D01*
X160956041Y-90739712D02*
X160908422Y-90644473D01*
X160908422Y-90644473D02*
X160908422Y-90596854D01*
X160908422Y-90596854D02*
X160956041Y-90501616D01*
X160956041Y-90501616D02*
X161051279Y-90453997D01*
X161051279Y-90453997D02*
X161194136Y-90453997D01*
X161194136Y-90453997D02*
X161289374Y-90406378D01*
X161289374Y-90406378D02*
X161336993Y-90311140D01*
X161336993Y-90311140D02*
X161336993Y-90263521D01*
X161336993Y-90263521D02*
X161289374Y-90168283D01*
X161289374Y-90168283D02*
X161194136Y-90120664D01*
X161194136Y-90120664D02*
X161051279Y-90120664D01*
X161051279Y-90120664D02*
X160956041Y-90168283D01*
X160622707Y-90120664D02*
X160241755Y-90120664D01*
X160479850Y-90787331D02*
X160479850Y-89930188D01*
X160479850Y-89930188D02*
X160432231Y-89834950D01*
X160432231Y-89834950D02*
X160336993Y-89787331D01*
X160336993Y-89787331D02*
X160241755Y-89787331D01*
X159908421Y-90787331D02*
X159908421Y-90120664D01*
X159908421Y-89787331D02*
X159956040Y-89834950D01*
X159956040Y-89834950D02*
X159908421Y-89882569D01*
X159908421Y-89882569D02*
X159860802Y-89834950D01*
X159860802Y-89834950D02*
X159908421Y-89787331D01*
X159908421Y-89787331D02*
X159908421Y-89882569D01*
X159575088Y-90120664D02*
X159194136Y-90120664D01*
X159432231Y-89787331D02*
X159432231Y-90644473D01*
X159432231Y-90644473D02*
X159384612Y-90739712D01*
X159384612Y-90739712D02*
X159289374Y-90787331D01*
X159289374Y-90787331D02*
X159194136Y-90787331D01*
X158908421Y-90739712D02*
X158813183Y-90787331D01*
X158813183Y-90787331D02*
X158622707Y-90787331D01*
X158622707Y-90787331D02*
X158527469Y-90739712D01*
X158527469Y-90739712D02*
X158479850Y-90644473D01*
X158479850Y-90644473D02*
X158479850Y-90596854D01*
X158479850Y-90596854D02*
X158527469Y-90501616D01*
X158527469Y-90501616D02*
X158622707Y-90453997D01*
X158622707Y-90453997D02*
X158765564Y-90453997D01*
X158765564Y-90453997D02*
X158860802Y-90406378D01*
X158860802Y-90406378D02*
X158908421Y-90311140D01*
X158908421Y-90311140D02*
X158908421Y-90263521D01*
X158908421Y-90263521D02*
X158860802Y-90168283D01*
X158860802Y-90168283D02*
X158765564Y-90120664D01*
X158765564Y-90120664D02*
X158622707Y-90120664D01*
X158622707Y-90120664D02*
X158527469Y-90168283D01*
X158098897Y-89787331D02*
X158098897Y-89977807D01*
X157717945Y-89787331D02*
X157717945Y-89977807D01*
X163098898Y-92397275D02*
X163432231Y-91921084D01*
X163670326Y-92397275D02*
X163670326Y-91397275D01*
X163670326Y-91397275D02*
X163289374Y-91397275D01*
X163289374Y-91397275D02*
X163194136Y-91444894D01*
X163194136Y-91444894D02*
X163146517Y-91492513D01*
X163146517Y-91492513D02*
X163098898Y-91587751D01*
X163098898Y-91587751D02*
X163098898Y-91730608D01*
X163098898Y-91730608D02*
X163146517Y-91825846D01*
X163146517Y-91825846D02*
X163194136Y-91873465D01*
X163194136Y-91873465D02*
X163289374Y-91921084D01*
X163289374Y-91921084D02*
X163670326Y-91921084D01*
X162289374Y-92349656D02*
X162384612Y-92397275D01*
X162384612Y-92397275D02*
X162575088Y-92397275D01*
X162575088Y-92397275D02*
X162670326Y-92349656D01*
X162670326Y-92349656D02*
X162717945Y-92254417D01*
X162717945Y-92254417D02*
X162717945Y-91873465D01*
X162717945Y-91873465D02*
X162670326Y-91778227D01*
X162670326Y-91778227D02*
X162575088Y-91730608D01*
X162575088Y-91730608D02*
X162384612Y-91730608D01*
X162384612Y-91730608D02*
X162289374Y-91778227D01*
X162289374Y-91778227D02*
X162241755Y-91873465D01*
X162241755Y-91873465D02*
X162241755Y-91968703D01*
X162241755Y-91968703D02*
X162717945Y-92063941D01*
X161908421Y-91730608D02*
X161670326Y-92397275D01*
X161670326Y-92397275D02*
X161432231Y-91730608D01*
X159765564Y-92397275D02*
X160336992Y-92397275D01*
X160051278Y-92397275D02*
X160051278Y-91397275D01*
X160051278Y-91397275D02*
X160146516Y-91540132D01*
X160146516Y-91540132D02*
X160241754Y-91635370D01*
X160241754Y-91635370D02*
X160336992Y-91682989D01*
X163146517Y-94007219D02*
X163717945Y-94007219D01*
X163432231Y-94007219D02*
X163432231Y-93007219D01*
X163432231Y-93007219D02*
X163527469Y-93150076D01*
X163527469Y-93150076D02*
X163622707Y-93245314D01*
X163622707Y-93245314D02*
X163717945Y-93292933D01*
X162241755Y-93007219D02*
X162717945Y-93007219D01*
X162717945Y-93007219D02*
X162765564Y-93483409D01*
X162765564Y-93483409D02*
X162717945Y-93435790D01*
X162717945Y-93435790D02*
X162622707Y-93388171D01*
X162622707Y-93388171D02*
X162384612Y-93388171D01*
X162384612Y-93388171D02*
X162289374Y-93435790D01*
X162289374Y-93435790D02*
X162241755Y-93483409D01*
X162241755Y-93483409D02*
X162194136Y-93578647D01*
X162194136Y-93578647D02*
X162194136Y-93816742D01*
X162194136Y-93816742D02*
X162241755Y-93911980D01*
X162241755Y-93911980D02*
X162289374Y-93959600D01*
X162289374Y-93959600D02*
X162384612Y-94007219D01*
X162384612Y-94007219D02*
X162622707Y-94007219D01*
X162622707Y-94007219D02*
X162717945Y-93959600D01*
X162717945Y-93959600D02*
X162765564Y-93911980D01*
X161765564Y-93911980D02*
X161717945Y-93959600D01*
X161717945Y-93959600D02*
X161765564Y-94007219D01*
X161765564Y-94007219D02*
X161813183Y-93959600D01*
X161813183Y-93959600D02*
X161765564Y-93911980D01*
X161765564Y-93911980D02*
X161765564Y-94007219D01*
X161098898Y-93007219D02*
X161003660Y-93007219D01*
X161003660Y-93007219D02*
X160908422Y-93054838D01*
X160908422Y-93054838D02*
X160860803Y-93102457D01*
X160860803Y-93102457D02*
X160813184Y-93197695D01*
X160813184Y-93197695D02*
X160765565Y-93388171D01*
X160765565Y-93388171D02*
X160765565Y-93626266D01*
X160765565Y-93626266D02*
X160813184Y-93816742D01*
X160813184Y-93816742D02*
X160860803Y-93911980D01*
X160860803Y-93911980D02*
X160908422Y-93959600D01*
X160908422Y-93959600D02*
X161003660Y-94007219D01*
X161003660Y-94007219D02*
X161098898Y-94007219D01*
X161098898Y-94007219D02*
X161194136Y-93959600D01*
X161194136Y-93959600D02*
X161241755Y-93911980D01*
X161241755Y-93911980D02*
X161289374Y-93816742D01*
X161289374Y-93816742D02*
X161336993Y-93626266D01*
X161336993Y-93626266D02*
X161336993Y-93388171D01*
X161336993Y-93388171D02*
X161289374Y-93197695D01*
X161289374Y-93197695D02*
X161241755Y-93102457D01*
X161241755Y-93102457D02*
X161194136Y-93054838D01*
X161194136Y-93054838D02*
X161098898Y-93007219D01*
X160384612Y-93102457D02*
X160336993Y-93054838D01*
X160336993Y-93054838D02*
X160241755Y-93007219D01*
X160241755Y-93007219D02*
X160003660Y-93007219D01*
X160003660Y-93007219D02*
X159908422Y-93054838D01*
X159908422Y-93054838D02*
X159860803Y-93102457D01*
X159860803Y-93102457D02*
X159813184Y-93197695D01*
X159813184Y-93197695D02*
X159813184Y-93292933D01*
X159813184Y-93292933D02*
X159860803Y-93435790D01*
X159860803Y-93435790D02*
X160432231Y-94007219D01*
X160432231Y-94007219D02*
X159813184Y-94007219D01*
X159384612Y-93911980D02*
X159336993Y-93959600D01*
X159336993Y-93959600D02*
X159384612Y-94007219D01*
X159384612Y-94007219D02*
X159432231Y-93959600D01*
X159432231Y-93959600D02*
X159384612Y-93911980D01*
X159384612Y-93911980D02*
X159384612Y-94007219D01*
X158956041Y-93102457D02*
X158908422Y-93054838D01*
X158908422Y-93054838D02*
X158813184Y-93007219D01*
X158813184Y-93007219D02*
X158575089Y-93007219D01*
X158575089Y-93007219D02*
X158479851Y-93054838D01*
X158479851Y-93054838D02*
X158432232Y-93102457D01*
X158432232Y-93102457D02*
X158384613Y-93197695D01*
X158384613Y-93197695D02*
X158384613Y-93292933D01*
X158384613Y-93292933D02*
X158432232Y-93435790D01*
X158432232Y-93435790D02*
X159003660Y-94007219D01*
X159003660Y-94007219D02*
X158384613Y-94007219D01*
X157765565Y-93007219D02*
X157670327Y-93007219D01*
X157670327Y-93007219D02*
X157575089Y-93054838D01*
X157575089Y-93054838D02*
X157527470Y-93102457D01*
X157527470Y-93102457D02*
X157479851Y-93197695D01*
X157479851Y-93197695D02*
X157432232Y-93388171D01*
X157432232Y-93388171D02*
X157432232Y-93626266D01*
X157432232Y-93626266D02*
X157479851Y-93816742D01*
X157479851Y-93816742D02*
X157527470Y-93911980D01*
X157527470Y-93911980D02*
X157575089Y-93959600D01*
X157575089Y-93959600D02*
X157670327Y-94007219D01*
X157670327Y-94007219D02*
X157765565Y-94007219D01*
X157765565Y-94007219D02*
X157860803Y-93959600D01*
X157860803Y-93959600D02*
X157908422Y-93911980D01*
X157908422Y-93911980D02*
X157956041Y-93816742D01*
X157956041Y-93816742D02*
X158003660Y-93626266D01*
X158003660Y-93626266D02*
X158003660Y-93388171D01*
X158003660Y-93388171D02*
X157956041Y-93197695D01*
X157956041Y-93197695D02*
X157908422Y-93102457D01*
X157908422Y-93102457D02*
X157860803Y-93054838D01*
X157860803Y-93054838D02*
X157765565Y-93007219D01*
X157051279Y-93102457D02*
X157003660Y-93054838D01*
X157003660Y-93054838D02*
X156908422Y-93007219D01*
X156908422Y-93007219D02*
X156670327Y-93007219D01*
X156670327Y-93007219D02*
X156575089Y-93054838D01*
X156575089Y-93054838D02*
X156527470Y-93102457D01*
X156527470Y-93102457D02*
X156479851Y-93197695D01*
X156479851Y-93197695D02*
X156479851Y-93292933D01*
X156479851Y-93292933D02*
X156527470Y-93435790D01*
X156527470Y-93435790D02*
X157098898Y-94007219D01*
X157098898Y-94007219D02*
X156479851Y-94007219D01*
X155622708Y-93007219D02*
X155813184Y-93007219D01*
X155813184Y-93007219D02*
X155908422Y-93054838D01*
X155908422Y-93054838D02*
X155956041Y-93102457D01*
X155956041Y-93102457D02*
X156051279Y-93245314D01*
X156051279Y-93245314D02*
X156098898Y-93435790D01*
X156098898Y-93435790D02*
X156098898Y-93816742D01*
X156098898Y-93816742D02*
X156051279Y-93911980D01*
X156051279Y-93911980D02*
X156003660Y-93959600D01*
X156003660Y-93959600D02*
X155908422Y-94007219D01*
X155908422Y-94007219D02*
X155717946Y-94007219D01*
X155717946Y-94007219D02*
X155622708Y-93959600D01*
X155622708Y-93959600D02*
X155575089Y-93911980D01*
X155575089Y-93911980D02*
X155527470Y-93816742D01*
X155527470Y-93816742D02*
X155527470Y-93578647D01*
X155527470Y-93578647D02*
X155575089Y-93483409D01*
X155575089Y-93483409D02*
X155622708Y-93435790D01*
X155622708Y-93435790D02*
X155717946Y-93388171D01*
X155717946Y-93388171D02*
X155908422Y-93388171D01*
X155908422Y-93388171D02*
X156003660Y-93435790D01*
X156003660Y-93435790D02*
X156051279Y-93483409D01*
X156051279Y-93483409D02*
X156098898Y-93578647D01*
X157816666Y-98002219D02*
X158149999Y-97526028D01*
X158388094Y-98002219D02*
X158388094Y-97002219D01*
X158388094Y-97002219D02*
X158007142Y-97002219D01*
X158007142Y-97002219D02*
X157911904Y-97049838D01*
X157911904Y-97049838D02*
X157864285Y-97097457D01*
X157864285Y-97097457D02*
X157816666Y-97192695D01*
X157816666Y-97192695D02*
X157816666Y-97335552D01*
X157816666Y-97335552D02*
X157864285Y-97430790D01*
X157864285Y-97430790D02*
X157911904Y-97478409D01*
X157911904Y-97478409D02*
X158007142Y-97526028D01*
X158007142Y-97526028D02*
X158388094Y-97526028D01*
X156959523Y-97335552D02*
X156959523Y-98002219D01*
X157197618Y-96954600D02*
X157435713Y-97668885D01*
X157435713Y-97668885D02*
X156816666Y-97668885D01*
X154766980Y-81573333D02*
X154814600Y-81525714D01*
X154814600Y-81525714D02*
X154862219Y-81382857D01*
X154862219Y-81382857D02*
X154862219Y-81287619D01*
X154862219Y-81287619D02*
X154814600Y-81144762D01*
X154814600Y-81144762D02*
X154719361Y-81049524D01*
X154719361Y-81049524D02*
X154624123Y-81001905D01*
X154624123Y-81001905D02*
X154433647Y-80954286D01*
X154433647Y-80954286D02*
X154290790Y-80954286D01*
X154290790Y-80954286D02*
X154100314Y-81001905D01*
X154100314Y-81001905D02*
X154005076Y-81049524D01*
X154005076Y-81049524D02*
X153909838Y-81144762D01*
X153909838Y-81144762D02*
X153862219Y-81287619D01*
X153862219Y-81287619D02*
X153862219Y-81382857D01*
X153862219Y-81382857D02*
X153909838Y-81525714D01*
X153909838Y-81525714D02*
X153957457Y-81573333D01*
X153862219Y-82478095D02*
X153862219Y-82001905D01*
X153862219Y-82001905D02*
X154338409Y-81954286D01*
X154338409Y-81954286D02*
X154290790Y-82001905D01*
X154290790Y-82001905D02*
X154243171Y-82097143D01*
X154243171Y-82097143D02*
X154243171Y-82335238D01*
X154243171Y-82335238D02*
X154290790Y-82430476D01*
X154290790Y-82430476D02*
X154338409Y-82478095D01*
X154338409Y-82478095D02*
X154433647Y-82525714D01*
X154433647Y-82525714D02*
X154671742Y-82525714D01*
X154671742Y-82525714D02*
X154766980Y-82478095D01*
X154766980Y-82478095D02*
X154814600Y-82430476D01*
X154814600Y-82430476D02*
X154862219Y-82335238D01*
X154862219Y-82335238D02*
X154862219Y-82097143D01*
X154862219Y-82097143D02*
X154814600Y-82001905D01*
X154814600Y-82001905D02*
X154766980Y-81954286D01*
X148998094Y-92562219D02*
X148998094Y-91562219D01*
X148998094Y-91562219D02*
X148759999Y-91562219D01*
X148759999Y-91562219D02*
X148617142Y-91609838D01*
X148617142Y-91609838D02*
X148521904Y-91705076D01*
X148521904Y-91705076D02*
X148474285Y-91800314D01*
X148474285Y-91800314D02*
X148426666Y-91990790D01*
X148426666Y-91990790D02*
X148426666Y-92133647D01*
X148426666Y-92133647D02*
X148474285Y-92324123D01*
X148474285Y-92324123D02*
X148521904Y-92419361D01*
X148521904Y-92419361D02*
X148617142Y-92514600D01*
X148617142Y-92514600D02*
X148759999Y-92562219D01*
X148759999Y-92562219D02*
X148998094Y-92562219D01*
X148093332Y-91562219D02*
X147474285Y-91562219D01*
X147474285Y-91562219D02*
X147807618Y-91943171D01*
X147807618Y-91943171D02*
X147664761Y-91943171D01*
X147664761Y-91943171D02*
X147569523Y-91990790D01*
X147569523Y-91990790D02*
X147521904Y-92038409D01*
X147521904Y-92038409D02*
X147474285Y-92133647D01*
X147474285Y-92133647D02*
X147474285Y-92371742D01*
X147474285Y-92371742D02*
X147521904Y-92466980D01*
X147521904Y-92466980D02*
X147569523Y-92514600D01*
X147569523Y-92514600D02*
X147664761Y-92562219D01*
X147664761Y-92562219D02*
X147950475Y-92562219D01*
X147950475Y-92562219D02*
X148045713Y-92514600D01*
X148045713Y-92514600D02*
X148093332Y-92466980D01*
X146860951Y-92271266D02*
X146099047Y-92271266D01*
X146479999Y-92652219D02*
X146479999Y-91890314D01*
X166236666Y-92596980D02*
X166284285Y-92644600D01*
X166284285Y-92644600D02*
X166427142Y-92692219D01*
X166427142Y-92692219D02*
X166522380Y-92692219D01*
X166522380Y-92692219D02*
X166665237Y-92644600D01*
X166665237Y-92644600D02*
X166760475Y-92549361D01*
X166760475Y-92549361D02*
X166808094Y-92454123D01*
X166808094Y-92454123D02*
X166855713Y-92263647D01*
X166855713Y-92263647D02*
X166855713Y-92120790D01*
X166855713Y-92120790D02*
X166808094Y-91930314D01*
X166808094Y-91930314D02*
X166760475Y-91835076D01*
X166760475Y-91835076D02*
X166665237Y-91739838D01*
X166665237Y-91739838D02*
X166522380Y-91692219D01*
X166522380Y-91692219D02*
X166427142Y-91692219D01*
X166427142Y-91692219D02*
X166284285Y-91739838D01*
X166284285Y-91739838D02*
X166236666Y-91787457D01*
X165665237Y-92120790D02*
X165760475Y-92073171D01*
X165760475Y-92073171D02*
X165808094Y-92025552D01*
X165808094Y-92025552D02*
X165855713Y-91930314D01*
X165855713Y-91930314D02*
X165855713Y-91882695D01*
X165855713Y-91882695D02*
X165808094Y-91787457D01*
X165808094Y-91787457D02*
X165760475Y-91739838D01*
X165760475Y-91739838D02*
X165665237Y-91692219D01*
X165665237Y-91692219D02*
X165474761Y-91692219D01*
X165474761Y-91692219D02*
X165379523Y-91739838D01*
X165379523Y-91739838D02*
X165331904Y-91787457D01*
X165331904Y-91787457D02*
X165284285Y-91882695D01*
X165284285Y-91882695D02*
X165284285Y-91930314D01*
X165284285Y-91930314D02*
X165331904Y-92025552D01*
X165331904Y-92025552D02*
X165379523Y-92073171D01*
X165379523Y-92073171D02*
X165474761Y-92120790D01*
X165474761Y-92120790D02*
X165665237Y-92120790D01*
X165665237Y-92120790D02*
X165760475Y-92168409D01*
X165760475Y-92168409D02*
X165808094Y-92216028D01*
X165808094Y-92216028D02*
X165855713Y-92311266D01*
X165855713Y-92311266D02*
X165855713Y-92501742D01*
X165855713Y-92501742D02*
X165808094Y-92596980D01*
X165808094Y-92596980D02*
X165760475Y-92644600D01*
X165760475Y-92644600D02*
X165665237Y-92692219D01*
X165665237Y-92692219D02*
X165474761Y-92692219D01*
X165474761Y-92692219D02*
X165379523Y-92644600D01*
X165379523Y-92644600D02*
X165331904Y-92596980D01*
X165331904Y-92596980D02*
X165284285Y-92501742D01*
X165284285Y-92501742D02*
X165284285Y-92311266D01*
X165284285Y-92311266D02*
X165331904Y-92216028D01*
X165331904Y-92216028D02*
X165379523Y-92168409D01*
X165379523Y-92168409D02*
X165474761Y-92120790D01*
X152046666Y-100916980D02*
X152094285Y-100964600D01*
X152094285Y-100964600D02*
X152237142Y-101012219D01*
X152237142Y-101012219D02*
X152332380Y-101012219D01*
X152332380Y-101012219D02*
X152475237Y-100964600D01*
X152475237Y-100964600D02*
X152570475Y-100869361D01*
X152570475Y-100869361D02*
X152618094Y-100774123D01*
X152618094Y-100774123D02*
X152665713Y-100583647D01*
X152665713Y-100583647D02*
X152665713Y-100440790D01*
X152665713Y-100440790D02*
X152618094Y-100250314D01*
X152618094Y-100250314D02*
X152570475Y-100155076D01*
X152570475Y-100155076D02*
X152475237Y-100059838D01*
X152475237Y-100059838D02*
X152332380Y-100012219D01*
X152332380Y-100012219D02*
X152237142Y-100012219D01*
X152237142Y-100012219D02*
X152094285Y-100059838D01*
X152094285Y-100059838D02*
X152046666Y-100107457D01*
X151665713Y-100107457D02*
X151618094Y-100059838D01*
X151618094Y-100059838D02*
X151522856Y-100012219D01*
X151522856Y-100012219D02*
X151284761Y-100012219D01*
X151284761Y-100012219D02*
X151189523Y-100059838D01*
X151189523Y-100059838D02*
X151141904Y-100107457D01*
X151141904Y-100107457D02*
X151094285Y-100202695D01*
X151094285Y-100202695D02*
X151094285Y-100297933D01*
X151094285Y-100297933D02*
X151141904Y-100440790D01*
X151141904Y-100440790D02*
X151713332Y-101012219D01*
X151713332Y-101012219D02*
X151094285Y-101012219D01*
X164476980Y-107173333D02*
X164524600Y-107125714D01*
X164524600Y-107125714D02*
X164572219Y-106982857D01*
X164572219Y-106982857D02*
X164572219Y-106887619D01*
X164572219Y-106887619D02*
X164524600Y-106744762D01*
X164524600Y-106744762D02*
X164429361Y-106649524D01*
X164429361Y-106649524D02*
X164334123Y-106601905D01*
X164334123Y-106601905D02*
X164143647Y-106554286D01*
X164143647Y-106554286D02*
X164000790Y-106554286D01*
X164000790Y-106554286D02*
X163810314Y-106601905D01*
X163810314Y-106601905D02*
X163715076Y-106649524D01*
X163715076Y-106649524D02*
X163619838Y-106744762D01*
X163619838Y-106744762D02*
X163572219Y-106887619D01*
X163572219Y-106887619D02*
X163572219Y-106982857D01*
X163572219Y-106982857D02*
X163619838Y-107125714D01*
X163619838Y-107125714D02*
X163667457Y-107173333D01*
X163572219Y-107506667D02*
X163572219Y-108125714D01*
X163572219Y-108125714D02*
X163953171Y-107792381D01*
X163953171Y-107792381D02*
X163953171Y-107935238D01*
X163953171Y-107935238D02*
X164000790Y-108030476D01*
X164000790Y-108030476D02*
X164048409Y-108078095D01*
X164048409Y-108078095D02*
X164143647Y-108125714D01*
X164143647Y-108125714D02*
X164381742Y-108125714D01*
X164381742Y-108125714D02*
X164476980Y-108078095D01*
X164476980Y-108078095D02*
X164524600Y-108030476D01*
X164524600Y-108030476D02*
X164572219Y-107935238D01*
X164572219Y-107935238D02*
X164572219Y-107649524D01*
X164572219Y-107649524D02*
X164524600Y-107554286D01*
X164524600Y-107554286D02*
X164476980Y-107506667D01*
X146566666Y-81132219D02*
X147042856Y-81132219D01*
X147042856Y-81132219D02*
X147042856Y-80132219D01*
X145709523Y-81132219D02*
X146280951Y-81132219D01*
X145995237Y-81132219D02*
X145995237Y-80132219D01*
X145995237Y-80132219D02*
X146090475Y-80275076D01*
X146090475Y-80275076D02*
X146185713Y-80370314D01*
X146185713Y-80370314D02*
X146280951Y-80417933D01*
X135563333Y-85612219D02*
X135563333Y-86326504D01*
X135563333Y-86326504D02*
X135610952Y-86469361D01*
X135610952Y-86469361D02*
X135706190Y-86564600D01*
X135706190Y-86564600D02*
X135849047Y-86612219D01*
X135849047Y-86612219D02*
X135944285Y-86612219D01*
X135182380Y-85612219D02*
X134563333Y-85612219D01*
X134563333Y-85612219D02*
X134896666Y-85993171D01*
X134896666Y-85993171D02*
X134753809Y-85993171D01*
X134753809Y-85993171D02*
X134658571Y-86040790D01*
X134658571Y-86040790D02*
X134610952Y-86088409D01*
X134610952Y-86088409D02*
X134563333Y-86183647D01*
X134563333Y-86183647D02*
X134563333Y-86421742D01*
X134563333Y-86421742D02*
X134610952Y-86516980D01*
X134610952Y-86516980D02*
X134658571Y-86564600D01*
X134658571Y-86564600D02*
X134753809Y-86612219D01*
X134753809Y-86612219D02*
X135039523Y-86612219D01*
X135039523Y-86612219D02*
X135134761Y-86564600D01*
X135134761Y-86564600D02*
X135182380Y-86516980D01*
X149261904Y-106122219D02*
X149261904Y-106931742D01*
X149261904Y-106931742D02*
X149214285Y-107026980D01*
X149214285Y-107026980D02*
X149166666Y-107074600D01*
X149166666Y-107074600D02*
X149071428Y-107122219D01*
X149071428Y-107122219D02*
X148880952Y-107122219D01*
X148880952Y-107122219D02*
X148785714Y-107074600D01*
X148785714Y-107074600D02*
X148738095Y-107026980D01*
X148738095Y-107026980D02*
X148690476Y-106931742D01*
X148690476Y-106931742D02*
X148690476Y-106122219D01*
X147785714Y-106455552D02*
X147785714Y-107122219D01*
X148023809Y-106074600D02*
X148261904Y-106788885D01*
X148261904Y-106788885D02*
X147642857Y-106788885D01*
X151116980Y-86823333D02*
X151164600Y-86775714D01*
X151164600Y-86775714D02*
X151212219Y-86632857D01*
X151212219Y-86632857D02*
X151212219Y-86537619D01*
X151212219Y-86537619D02*
X151164600Y-86394762D01*
X151164600Y-86394762D02*
X151069361Y-86299524D01*
X151069361Y-86299524D02*
X150974123Y-86251905D01*
X150974123Y-86251905D02*
X150783647Y-86204286D01*
X150783647Y-86204286D02*
X150640790Y-86204286D01*
X150640790Y-86204286D02*
X150450314Y-86251905D01*
X150450314Y-86251905D02*
X150355076Y-86299524D01*
X150355076Y-86299524D02*
X150259838Y-86394762D01*
X150259838Y-86394762D02*
X150212219Y-86537619D01*
X150212219Y-86537619D02*
X150212219Y-86632857D01*
X150212219Y-86632857D02*
X150259838Y-86775714D01*
X150259838Y-86775714D02*
X150307457Y-86823333D01*
X151212219Y-87299524D02*
X151212219Y-87490000D01*
X151212219Y-87490000D02*
X151164600Y-87585238D01*
X151164600Y-87585238D02*
X151116980Y-87632857D01*
X151116980Y-87632857D02*
X150974123Y-87728095D01*
X150974123Y-87728095D02*
X150783647Y-87775714D01*
X150783647Y-87775714D02*
X150402695Y-87775714D01*
X150402695Y-87775714D02*
X150307457Y-87728095D01*
X150307457Y-87728095D02*
X150259838Y-87680476D01*
X150259838Y-87680476D02*
X150212219Y-87585238D01*
X150212219Y-87585238D02*
X150212219Y-87394762D01*
X150212219Y-87394762D02*
X150259838Y-87299524D01*
X150259838Y-87299524D02*
X150307457Y-87251905D01*
X150307457Y-87251905D02*
X150402695Y-87204286D01*
X150402695Y-87204286D02*
X150640790Y-87204286D01*
X150640790Y-87204286D02*
X150736028Y-87251905D01*
X150736028Y-87251905D02*
X150783647Y-87299524D01*
X150783647Y-87299524D02*
X150831266Y-87394762D01*
X150831266Y-87394762D02*
X150831266Y-87585238D01*
X150831266Y-87585238D02*
X150783647Y-87680476D01*
X150783647Y-87680476D02*
X150736028Y-87728095D01*
X150736028Y-87728095D02*
X150640790Y-87775714D01*
X140492219Y-89753333D02*
X140016028Y-89420000D01*
X140492219Y-89181905D02*
X139492219Y-89181905D01*
X139492219Y-89181905D02*
X139492219Y-89562857D01*
X139492219Y-89562857D02*
X139539838Y-89658095D01*
X139539838Y-89658095D02*
X139587457Y-89705714D01*
X139587457Y-89705714D02*
X139682695Y-89753333D01*
X139682695Y-89753333D02*
X139825552Y-89753333D01*
X139825552Y-89753333D02*
X139920790Y-89705714D01*
X139920790Y-89705714D02*
X139968409Y-89658095D01*
X139968409Y-89658095D02*
X140016028Y-89562857D01*
X140016028Y-89562857D02*
X140016028Y-89181905D01*
X139920790Y-90324762D02*
X139873171Y-90229524D01*
X139873171Y-90229524D02*
X139825552Y-90181905D01*
X139825552Y-90181905D02*
X139730314Y-90134286D01*
X139730314Y-90134286D02*
X139682695Y-90134286D01*
X139682695Y-90134286D02*
X139587457Y-90181905D01*
X139587457Y-90181905D02*
X139539838Y-90229524D01*
X139539838Y-90229524D02*
X139492219Y-90324762D01*
X139492219Y-90324762D02*
X139492219Y-90515238D01*
X139492219Y-90515238D02*
X139539838Y-90610476D01*
X139539838Y-90610476D02*
X139587457Y-90658095D01*
X139587457Y-90658095D02*
X139682695Y-90705714D01*
X139682695Y-90705714D02*
X139730314Y-90705714D01*
X139730314Y-90705714D02*
X139825552Y-90658095D01*
X139825552Y-90658095D02*
X139873171Y-90610476D01*
X139873171Y-90610476D02*
X139920790Y-90515238D01*
X139920790Y-90515238D02*
X139920790Y-90324762D01*
X139920790Y-90324762D02*
X139968409Y-90229524D01*
X139968409Y-90229524D02*
X140016028Y-90181905D01*
X140016028Y-90181905D02*
X140111266Y-90134286D01*
X140111266Y-90134286D02*
X140301742Y-90134286D01*
X140301742Y-90134286D02*
X140396980Y-90181905D01*
X140396980Y-90181905D02*
X140444600Y-90229524D01*
X140444600Y-90229524D02*
X140492219Y-90324762D01*
X140492219Y-90324762D02*
X140492219Y-90515238D01*
X140492219Y-90515238D02*
X140444600Y-90610476D01*
X140444600Y-90610476D02*
X140396980Y-90658095D01*
X140396980Y-90658095D02*
X140301742Y-90705714D01*
X140301742Y-90705714D02*
X140111266Y-90705714D01*
X140111266Y-90705714D02*
X140016028Y-90658095D01*
X140016028Y-90658095D02*
X139968409Y-90610476D01*
X139968409Y-90610476D02*
X139920790Y-90515238D01*
X141278094Y-97992219D02*
X141278094Y-96992219D01*
X141278094Y-96992219D02*
X141039999Y-96992219D01*
X141039999Y-96992219D02*
X140897142Y-97039838D01*
X140897142Y-97039838D02*
X140801904Y-97135076D01*
X140801904Y-97135076D02*
X140754285Y-97230314D01*
X140754285Y-97230314D02*
X140706666Y-97420790D01*
X140706666Y-97420790D02*
X140706666Y-97563647D01*
X140706666Y-97563647D02*
X140754285Y-97754123D01*
X140754285Y-97754123D02*
X140801904Y-97849361D01*
X140801904Y-97849361D02*
X140897142Y-97944600D01*
X140897142Y-97944600D02*
X141039999Y-97992219D01*
X141039999Y-97992219D02*
X141278094Y-97992219D01*
X139849523Y-97325552D02*
X139849523Y-97992219D01*
X140087618Y-96944600D02*
X140325713Y-97658885D01*
X140325713Y-97658885D02*
X139706666Y-97658885D01*
X138970951Y-97671266D02*
X138209047Y-97671266D01*
X138589999Y-98052219D02*
X138589999Y-97290314D01*
X153422857Y-95636980D02*
X153470476Y-95684600D01*
X153470476Y-95684600D02*
X153613333Y-95732219D01*
X153613333Y-95732219D02*
X153708571Y-95732219D01*
X153708571Y-95732219D02*
X153851428Y-95684600D01*
X153851428Y-95684600D02*
X153946666Y-95589361D01*
X153946666Y-95589361D02*
X153994285Y-95494123D01*
X153994285Y-95494123D02*
X154041904Y-95303647D01*
X154041904Y-95303647D02*
X154041904Y-95160790D01*
X154041904Y-95160790D02*
X153994285Y-94970314D01*
X153994285Y-94970314D02*
X153946666Y-94875076D01*
X153946666Y-94875076D02*
X153851428Y-94779838D01*
X153851428Y-94779838D02*
X153708571Y-94732219D01*
X153708571Y-94732219D02*
X153613333Y-94732219D01*
X153613333Y-94732219D02*
X153470476Y-94779838D01*
X153470476Y-94779838D02*
X153422857Y-94827457D01*
X152470476Y-95732219D02*
X153041904Y-95732219D01*
X152756190Y-95732219D02*
X152756190Y-94732219D01*
X152756190Y-94732219D02*
X152851428Y-94875076D01*
X152851428Y-94875076D02*
X152946666Y-94970314D01*
X152946666Y-94970314D02*
X153041904Y-95017933D01*
X151851428Y-94732219D02*
X151756190Y-94732219D01*
X151756190Y-94732219D02*
X151660952Y-94779838D01*
X151660952Y-94779838D02*
X151613333Y-94827457D01*
X151613333Y-94827457D02*
X151565714Y-94922695D01*
X151565714Y-94922695D02*
X151518095Y-95113171D01*
X151518095Y-95113171D02*
X151518095Y-95351266D01*
X151518095Y-95351266D02*
X151565714Y-95541742D01*
X151565714Y-95541742D02*
X151613333Y-95636980D01*
X151613333Y-95636980D02*
X151660952Y-95684600D01*
X151660952Y-95684600D02*
X151756190Y-95732219D01*
X151756190Y-95732219D02*
X151851428Y-95732219D01*
X151851428Y-95732219D02*
X151946666Y-95684600D01*
X151946666Y-95684600D02*
X151994285Y-95636980D01*
X151994285Y-95636980D02*
X152041904Y-95541742D01*
X152041904Y-95541742D02*
X152089523Y-95351266D01*
X152089523Y-95351266D02*
X152089523Y-95113171D01*
X152089523Y-95113171D02*
X152041904Y-94922695D01*
X152041904Y-94922695D02*
X151994285Y-94827457D01*
X151994285Y-94827457D02*
X151946666Y-94779838D01*
X151946666Y-94779838D02*
X151851428Y-94732219D01*
X165731904Y-98942219D02*
X165731904Y-99751742D01*
X165731904Y-99751742D02*
X165684285Y-99846980D01*
X165684285Y-99846980D02*
X165636666Y-99894600D01*
X165636666Y-99894600D02*
X165541428Y-99942219D01*
X165541428Y-99942219D02*
X165350952Y-99942219D01*
X165350952Y-99942219D02*
X165255714Y-99894600D01*
X165255714Y-99894600D02*
X165208095Y-99846980D01*
X165208095Y-99846980D02*
X165160476Y-99751742D01*
X165160476Y-99751742D02*
X165160476Y-98942219D01*
X164779523Y-98942219D02*
X164160476Y-98942219D01*
X164160476Y-98942219D02*
X164493809Y-99323171D01*
X164493809Y-99323171D02*
X164350952Y-99323171D01*
X164350952Y-99323171D02*
X164255714Y-99370790D01*
X164255714Y-99370790D02*
X164208095Y-99418409D01*
X164208095Y-99418409D02*
X164160476Y-99513647D01*
X164160476Y-99513647D02*
X164160476Y-99751742D01*
X164160476Y-99751742D02*
X164208095Y-99846980D01*
X164208095Y-99846980D02*
X164255714Y-99894600D01*
X164255714Y-99894600D02*
X164350952Y-99942219D01*
X164350952Y-99942219D02*
X164636666Y-99942219D01*
X164636666Y-99942219D02*
X164731904Y-99894600D01*
X164731904Y-99894600D02*
X164779523Y-99846980D01*
X152068094Y-90322219D02*
X152068094Y-89322219D01*
X152068094Y-89322219D02*
X151829999Y-89322219D01*
X151829999Y-89322219D02*
X151687142Y-89369838D01*
X151687142Y-89369838D02*
X151591904Y-89465076D01*
X151591904Y-89465076D02*
X151544285Y-89560314D01*
X151544285Y-89560314D02*
X151496666Y-89750790D01*
X151496666Y-89750790D02*
X151496666Y-89893647D01*
X151496666Y-89893647D02*
X151544285Y-90084123D01*
X151544285Y-90084123D02*
X151591904Y-90179361D01*
X151591904Y-90179361D02*
X151687142Y-90274600D01*
X151687142Y-90274600D02*
X151829999Y-90322219D01*
X151829999Y-90322219D02*
X152068094Y-90322219D01*
X151115713Y-89417457D02*
X151068094Y-89369838D01*
X151068094Y-89369838D02*
X150972856Y-89322219D01*
X150972856Y-89322219D02*
X150734761Y-89322219D01*
X150734761Y-89322219D02*
X150639523Y-89369838D01*
X150639523Y-89369838D02*
X150591904Y-89417457D01*
X150591904Y-89417457D02*
X150544285Y-89512695D01*
X150544285Y-89512695D02*
X150544285Y-89607933D01*
X150544285Y-89607933D02*
X150591904Y-89750790D01*
X150591904Y-89750790D02*
X151163332Y-90322219D01*
X151163332Y-90322219D02*
X150544285Y-90322219D01*
X153541266Y-86259048D02*
X153541266Y-87020953D01*
X153922219Y-86640000D02*
X153160314Y-86640000D01*
X147776666Y-100616980D02*
X147824285Y-100664600D01*
X147824285Y-100664600D02*
X147967142Y-100712219D01*
X147967142Y-100712219D02*
X148062380Y-100712219D01*
X148062380Y-100712219D02*
X148205237Y-100664600D01*
X148205237Y-100664600D02*
X148300475Y-100569361D01*
X148300475Y-100569361D02*
X148348094Y-100474123D01*
X148348094Y-100474123D02*
X148395713Y-100283647D01*
X148395713Y-100283647D02*
X148395713Y-100140790D01*
X148395713Y-100140790D02*
X148348094Y-99950314D01*
X148348094Y-99950314D02*
X148300475Y-99855076D01*
X148300475Y-99855076D02*
X148205237Y-99759838D01*
X148205237Y-99759838D02*
X148062380Y-99712219D01*
X148062380Y-99712219D02*
X147967142Y-99712219D01*
X147967142Y-99712219D02*
X147824285Y-99759838D01*
X147824285Y-99759838D02*
X147776666Y-99807457D01*
X146824285Y-100712219D02*
X147395713Y-100712219D01*
X147109999Y-100712219D02*
X147109999Y-99712219D01*
X147109999Y-99712219D02*
X147205237Y-99855076D01*
X147205237Y-99855076D02*
X147300475Y-99950314D01*
X147300475Y-99950314D02*
X147395713Y-99997933D01*
X167506666Y-95872219D02*
X167839999Y-95396028D01*
X168078094Y-95872219D02*
X168078094Y-94872219D01*
X168078094Y-94872219D02*
X167697142Y-94872219D01*
X167697142Y-94872219D02*
X167601904Y-94919838D01*
X167601904Y-94919838D02*
X167554285Y-94967457D01*
X167554285Y-94967457D02*
X167506666Y-95062695D01*
X167506666Y-95062695D02*
X167506666Y-95205552D01*
X167506666Y-95205552D02*
X167554285Y-95300790D01*
X167554285Y-95300790D02*
X167601904Y-95348409D01*
X167601904Y-95348409D02*
X167697142Y-95396028D01*
X167697142Y-95396028D02*
X168078094Y-95396028D01*
X166649523Y-94872219D02*
X166839999Y-94872219D01*
X166839999Y-94872219D02*
X166935237Y-94919838D01*
X166935237Y-94919838D02*
X166982856Y-94967457D01*
X166982856Y-94967457D02*
X167078094Y-95110314D01*
X167078094Y-95110314D02*
X167125713Y-95300790D01*
X167125713Y-95300790D02*
X167125713Y-95681742D01*
X167125713Y-95681742D02*
X167078094Y-95776980D01*
X167078094Y-95776980D02*
X167030475Y-95824600D01*
X167030475Y-95824600D02*
X166935237Y-95872219D01*
X166935237Y-95872219D02*
X166744761Y-95872219D01*
X166744761Y-95872219D02*
X166649523Y-95824600D01*
X166649523Y-95824600D02*
X166601904Y-95776980D01*
X166601904Y-95776980D02*
X166554285Y-95681742D01*
X166554285Y-95681742D02*
X166554285Y-95443647D01*
X166554285Y-95443647D02*
X166601904Y-95348409D01*
X166601904Y-95348409D02*
X166649523Y-95300790D01*
X166649523Y-95300790D02*
X166744761Y-95253171D01*
X166744761Y-95253171D02*
X166935237Y-95253171D01*
X166935237Y-95253171D02*
X167030475Y-95300790D01*
X167030475Y-95300790D02*
X167078094Y-95348409D01*
X167078094Y-95348409D02*
X167125713Y-95443647D01*
X160968094Y-96562219D02*
X160968094Y-95562219D01*
X160968094Y-95562219D02*
X160729999Y-95562219D01*
X160729999Y-95562219D02*
X160587142Y-95609838D01*
X160587142Y-95609838D02*
X160491904Y-95705076D01*
X160491904Y-95705076D02*
X160444285Y-95800314D01*
X160444285Y-95800314D02*
X160396666Y-95990790D01*
X160396666Y-95990790D02*
X160396666Y-96133647D01*
X160396666Y-96133647D02*
X160444285Y-96324123D01*
X160444285Y-96324123D02*
X160491904Y-96419361D01*
X160491904Y-96419361D02*
X160587142Y-96514600D01*
X160587142Y-96514600D02*
X160729999Y-96562219D01*
X160729999Y-96562219D02*
X160968094Y-96562219D01*
X159444285Y-96562219D02*
X160015713Y-96562219D01*
X159729999Y-96562219D02*
X159729999Y-95562219D01*
X159729999Y-95562219D02*
X159825237Y-95705076D01*
X159825237Y-95705076D02*
X159920475Y-95800314D01*
X159920475Y-95800314D02*
X160015713Y-95847933D01*
X147586666Y-98912219D02*
X147919999Y-98436028D01*
X148158094Y-98912219D02*
X148158094Y-97912219D01*
X148158094Y-97912219D02*
X147777142Y-97912219D01*
X147777142Y-97912219D02*
X147681904Y-97959838D01*
X147681904Y-97959838D02*
X147634285Y-98007457D01*
X147634285Y-98007457D02*
X147586666Y-98102695D01*
X147586666Y-98102695D02*
X147586666Y-98245552D01*
X147586666Y-98245552D02*
X147634285Y-98340790D01*
X147634285Y-98340790D02*
X147681904Y-98388409D01*
X147681904Y-98388409D02*
X147777142Y-98436028D01*
X147777142Y-98436028D02*
X148158094Y-98436028D01*
X146634285Y-98912219D02*
X147205713Y-98912219D01*
X146919999Y-98912219D02*
X146919999Y-97912219D01*
X146919999Y-97912219D02*
X147015237Y-98055076D01*
X147015237Y-98055076D02*
X147110475Y-98150314D01*
X147110475Y-98150314D02*
X147205713Y-98197933D01*
X147915238Y-90087457D02*
X148010476Y-90039838D01*
X148010476Y-90039838D02*
X148105714Y-89944600D01*
X148105714Y-89944600D02*
X148248571Y-89801742D01*
X148248571Y-89801742D02*
X148343809Y-89754123D01*
X148343809Y-89754123D02*
X148439047Y-89754123D01*
X148391428Y-89992219D02*
X148486666Y-89944600D01*
X148486666Y-89944600D02*
X148581904Y-89849361D01*
X148581904Y-89849361D02*
X148629523Y-89658885D01*
X148629523Y-89658885D02*
X148629523Y-89325552D01*
X148629523Y-89325552D02*
X148581904Y-89135076D01*
X148581904Y-89135076D02*
X148486666Y-89039838D01*
X148486666Y-89039838D02*
X148391428Y-88992219D01*
X148391428Y-88992219D02*
X148200952Y-88992219D01*
X148200952Y-88992219D02*
X148105714Y-89039838D01*
X148105714Y-89039838D02*
X148010476Y-89135076D01*
X148010476Y-89135076D02*
X147962857Y-89325552D01*
X147962857Y-89325552D02*
X147962857Y-89658885D01*
X147962857Y-89658885D02*
X148010476Y-89849361D01*
X148010476Y-89849361D02*
X148105714Y-89944600D01*
X148105714Y-89944600D02*
X148200952Y-89992219D01*
X148200952Y-89992219D02*
X148391428Y-89992219D01*
X147010476Y-89992219D02*
X147581904Y-89992219D01*
X147296190Y-89992219D02*
X147296190Y-88992219D01*
X147296190Y-88992219D02*
X147391428Y-89135076D01*
X147391428Y-89135076D02*
X147486666Y-89230314D01*
X147486666Y-89230314D02*
X147581904Y-89277933D01*
X150871904Y-96032219D02*
X150871904Y-96841742D01*
X150871904Y-96841742D02*
X150824285Y-96936980D01*
X150824285Y-96936980D02*
X150776666Y-96984600D01*
X150776666Y-96984600D02*
X150681428Y-97032219D01*
X150681428Y-97032219D02*
X150490952Y-97032219D01*
X150490952Y-97032219D02*
X150395714Y-96984600D01*
X150395714Y-96984600D02*
X150348095Y-96936980D01*
X150348095Y-96936980D02*
X150300476Y-96841742D01*
X150300476Y-96841742D02*
X150300476Y-96032219D01*
X149871904Y-96127457D02*
X149824285Y-96079838D01*
X149824285Y-96079838D02*
X149729047Y-96032219D01*
X149729047Y-96032219D02*
X149490952Y-96032219D01*
X149490952Y-96032219D02*
X149395714Y-96079838D01*
X149395714Y-96079838D02*
X149348095Y-96127457D01*
X149348095Y-96127457D02*
X149300476Y-96222695D01*
X149300476Y-96222695D02*
X149300476Y-96317933D01*
X149300476Y-96317933D02*
X149348095Y-96460790D01*
X149348095Y-96460790D02*
X149919523Y-97032219D01*
X149919523Y-97032219D02*
X149300476Y-97032219D01*
X159823333Y-107372219D02*
X159823333Y-108086504D01*
X159823333Y-108086504D02*
X159870952Y-108229361D01*
X159870952Y-108229361D02*
X159966190Y-108324600D01*
X159966190Y-108324600D02*
X160109047Y-108372219D01*
X160109047Y-108372219D02*
X160204285Y-108372219D01*
X159394761Y-107467457D02*
X159347142Y-107419838D01*
X159347142Y-107419838D02*
X159251904Y-107372219D01*
X159251904Y-107372219D02*
X159013809Y-107372219D01*
X159013809Y-107372219D02*
X158918571Y-107419838D01*
X158918571Y-107419838D02*
X158870952Y-107467457D01*
X158870952Y-107467457D02*
X158823333Y-107562695D01*
X158823333Y-107562695D02*
X158823333Y-107657933D01*
X158823333Y-107657933D02*
X158870952Y-107800790D01*
X158870952Y-107800790D02*
X159442380Y-108372219D01*
X159442380Y-108372219D02*
X158823333Y-108372219D01*
X139072219Y-84313333D02*
X138596028Y-83980000D01*
X139072219Y-83741905D02*
X138072219Y-83741905D01*
X138072219Y-83741905D02*
X138072219Y-84122857D01*
X138072219Y-84122857D02*
X138119838Y-84218095D01*
X138119838Y-84218095D02*
X138167457Y-84265714D01*
X138167457Y-84265714D02*
X138262695Y-84313333D01*
X138262695Y-84313333D02*
X138405552Y-84313333D01*
X138405552Y-84313333D02*
X138500790Y-84265714D01*
X138500790Y-84265714D02*
X138548409Y-84218095D01*
X138548409Y-84218095D02*
X138596028Y-84122857D01*
X138596028Y-84122857D02*
X138596028Y-83741905D01*
X138072219Y-84646667D02*
X138072219Y-85313333D01*
X138072219Y-85313333D02*
X139072219Y-84884762D01*
X144472857Y-95916980D02*
X144520476Y-95964600D01*
X144520476Y-95964600D02*
X144663333Y-96012219D01*
X144663333Y-96012219D02*
X144758571Y-96012219D01*
X144758571Y-96012219D02*
X144901428Y-95964600D01*
X144901428Y-95964600D02*
X144996666Y-95869361D01*
X144996666Y-95869361D02*
X145044285Y-95774123D01*
X145044285Y-95774123D02*
X145091904Y-95583647D01*
X145091904Y-95583647D02*
X145091904Y-95440790D01*
X145091904Y-95440790D02*
X145044285Y-95250314D01*
X145044285Y-95250314D02*
X144996666Y-95155076D01*
X144996666Y-95155076D02*
X144901428Y-95059838D01*
X144901428Y-95059838D02*
X144758571Y-95012219D01*
X144758571Y-95012219D02*
X144663333Y-95012219D01*
X144663333Y-95012219D02*
X144520476Y-95059838D01*
X144520476Y-95059838D02*
X144472857Y-95107457D01*
X143520476Y-96012219D02*
X144091904Y-96012219D01*
X143806190Y-96012219D02*
X143806190Y-95012219D01*
X143806190Y-95012219D02*
X143901428Y-95155076D01*
X143901428Y-95155076D02*
X143996666Y-95250314D01*
X143996666Y-95250314D02*
X144091904Y-95297933D01*
X142568095Y-96012219D02*
X143139523Y-96012219D01*
X142853809Y-96012219D02*
X142853809Y-95012219D01*
X142853809Y-95012219D02*
X142949047Y-95155076D01*
X142949047Y-95155076D02*
X143044285Y-95250314D01*
X143044285Y-95250314D02*
X143139523Y-95297933D01*
X147726666Y-97452219D02*
X148059999Y-96976028D01*
X148298094Y-97452219D02*
X148298094Y-96452219D01*
X148298094Y-96452219D02*
X147917142Y-96452219D01*
X147917142Y-96452219D02*
X147821904Y-96499838D01*
X147821904Y-96499838D02*
X147774285Y-96547457D01*
X147774285Y-96547457D02*
X147726666Y-96642695D01*
X147726666Y-96642695D02*
X147726666Y-96785552D01*
X147726666Y-96785552D02*
X147774285Y-96880790D01*
X147774285Y-96880790D02*
X147821904Y-96928409D01*
X147821904Y-96928409D02*
X147917142Y-96976028D01*
X147917142Y-96976028D02*
X148298094Y-96976028D01*
X147345713Y-96547457D02*
X147298094Y-96499838D01*
X147298094Y-96499838D02*
X147202856Y-96452219D01*
X147202856Y-96452219D02*
X146964761Y-96452219D01*
X146964761Y-96452219D02*
X146869523Y-96499838D01*
X146869523Y-96499838D02*
X146821904Y-96547457D01*
X146821904Y-96547457D02*
X146774285Y-96642695D01*
X146774285Y-96642695D02*
X146774285Y-96737933D01*
X146774285Y-96737933D02*
X146821904Y-96880790D01*
X146821904Y-96880790D02*
X147393332Y-97452219D01*
X147393332Y-97452219D02*
X146774285Y-97452219D01*
X161216666Y-98342219D02*
X161549999Y-97866028D01*
X161788094Y-98342219D02*
X161788094Y-97342219D01*
X161788094Y-97342219D02*
X161407142Y-97342219D01*
X161407142Y-97342219D02*
X161311904Y-97389838D01*
X161311904Y-97389838D02*
X161264285Y-97437457D01*
X161264285Y-97437457D02*
X161216666Y-97532695D01*
X161216666Y-97532695D02*
X161216666Y-97675552D01*
X161216666Y-97675552D02*
X161264285Y-97770790D01*
X161264285Y-97770790D02*
X161311904Y-97818409D01*
X161311904Y-97818409D02*
X161407142Y-97866028D01*
X161407142Y-97866028D02*
X161788094Y-97866028D01*
X160883332Y-97342219D02*
X160264285Y-97342219D01*
X160264285Y-97342219D02*
X160597618Y-97723171D01*
X160597618Y-97723171D02*
X160454761Y-97723171D01*
X160454761Y-97723171D02*
X160359523Y-97770790D01*
X160359523Y-97770790D02*
X160311904Y-97818409D01*
X160311904Y-97818409D02*
X160264285Y-97913647D01*
X160264285Y-97913647D02*
X160264285Y-98151742D01*
X160264285Y-98151742D02*
X160311904Y-98246980D01*
X160311904Y-98246980D02*
X160359523Y-98294600D01*
X160359523Y-98294600D02*
X160454761Y-98342219D01*
X160454761Y-98342219D02*
X160740475Y-98342219D01*
X160740475Y-98342219D02*
X160835713Y-98294600D01*
X160835713Y-98294600D02*
X160883332Y-98246980D01*
X167546666Y-100212219D02*
X167879999Y-99736028D01*
X168118094Y-100212219D02*
X168118094Y-99212219D01*
X168118094Y-99212219D02*
X167737142Y-99212219D01*
X167737142Y-99212219D02*
X167641904Y-99259838D01*
X167641904Y-99259838D02*
X167594285Y-99307457D01*
X167594285Y-99307457D02*
X167546666Y-99402695D01*
X167546666Y-99402695D02*
X167546666Y-99545552D01*
X167546666Y-99545552D02*
X167594285Y-99640790D01*
X167594285Y-99640790D02*
X167641904Y-99688409D01*
X167641904Y-99688409D02*
X167737142Y-99736028D01*
X167737142Y-99736028D02*
X168118094Y-99736028D01*
X166641904Y-99212219D02*
X167118094Y-99212219D01*
X167118094Y-99212219D02*
X167165713Y-99688409D01*
X167165713Y-99688409D02*
X167118094Y-99640790D01*
X167118094Y-99640790D02*
X167022856Y-99593171D01*
X167022856Y-99593171D02*
X166784761Y-99593171D01*
X166784761Y-99593171D02*
X166689523Y-99640790D01*
X166689523Y-99640790D02*
X166641904Y-99688409D01*
X166641904Y-99688409D02*
X166594285Y-99783647D01*
X166594285Y-99783647D02*
X166594285Y-100021742D01*
X166594285Y-100021742D02*
X166641904Y-100116980D01*
X166641904Y-100116980D02*
X166689523Y-100164600D01*
X166689523Y-100164600D02*
X166784761Y-100212219D01*
X166784761Y-100212219D02*
X167022856Y-100212219D01*
X167022856Y-100212219D02*
X167118094Y-100164600D01*
X167118094Y-100164600D02*
X167165713Y-100116980D01*
X152946980Y-81643333D02*
X152994600Y-81595714D01*
X152994600Y-81595714D02*
X153042219Y-81452857D01*
X153042219Y-81452857D02*
X153042219Y-81357619D01*
X153042219Y-81357619D02*
X152994600Y-81214762D01*
X152994600Y-81214762D02*
X152899361Y-81119524D01*
X152899361Y-81119524D02*
X152804123Y-81071905D01*
X152804123Y-81071905D02*
X152613647Y-81024286D01*
X152613647Y-81024286D02*
X152470790Y-81024286D01*
X152470790Y-81024286D02*
X152280314Y-81071905D01*
X152280314Y-81071905D02*
X152185076Y-81119524D01*
X152185076Y-81119524D02*
X152089838Y-81214762D01*
X152089838Y-81214762D02*
X152042219Y-81357619D01*
X152042219Y-81357619D02*
X152042219Y-81452857D01*
X152042219Y-81452857D02*
X152089838Y-81595714D01*
X152089838Y-81595714D02*
X152137457Y-81643333D01*
X152375552Y-82500476D02*
X153042219Y-82500476D01*
X151994600Y-82262381D02*
X152708885Y-82024286D01*
X152708885Y-82024286D02*
X152708885Y-82643333D01*
D12*
%TO.C,D3*%
X146920000Y-94730000D02*
X149620000Y-94730000D01*
X149620000Y-93030000D02*
X146920000Y-93030000D01*
D11*
%TO.C,L1*%
X143910000Y-84070000D02*
X143910000Y-84870000D01*
X148910000Y-84070000D02*
X148910000Y-84870000D01*
D13*
X150110000Y-82170000D02*
G75*
G02*
X149710000Y-82170000I-200000J0D01*
G01*
X149710000Y-82170000D02*
G75*
G02*
X150110000Y-82170000I200000J0D01*
G01*
D12*
%TO.C,J3*%
X133520000Y-100270000D02*
X133520000Y-87810000D01*
X136420000Y-87040000D02*
X134790000Y-87040000D01*
X136420000Y-87820000D02*
X136420000Y-87040000D01*
X136420000Y-100260000D02*
X136420000Y-101040000D01*
X136420000Y-101040000D02*
X134790000Y-101040000D01*
D11*
X137420000Y-86540000D02*
G75*
G02*
X137220000Y-86540000I-100000J0D01*
G01*
X137220000Y-86540000D02*
G75*
G02*
X137420000Y-86540000I100000J0D01*
G01*
D12*
%TO.C,U4*%
X149745000Y-104892500D02*
X149745000Y-105892500D01*
X152635000Y-105892500D02*
X152635000Y-104892500D01*
D11*
X150290000Y-104242500D02*
G75*
G02*
X150090000Y-104242500I-100000J0D01*
G01*
X150090000Y-104242500D02*
G75*
G02*
X150290000Y-104242500I100000J0D01*
G01*
D12*
%TO.C,R8*%
X138140000Y-90200000D02*
X138140000Y-89980000D01*
X139040000Y-90200000D02*
X139040000Y-89980000D01*
%TO.C,D4*%
X139310000Y-100250000D02*
X142010000Y-100250000D01*
X142010000Y-98550000D02*
X139310000Y-98550000D01*
%TO.C,U3*%
X166115000Y-100240000D02*
X164115000Y-100240000D01*
X166115000Y-102500000D02*
X164115000Y-102500000D01*
D11*
X167125000Y-100720000D02*
G75*
G02*
X166925000Y-100720000I-100000J0D01*
G01*
X166925000Y-100720000D02*
G75*
G02*
X167125000Y-100720000I100000J0D01*
G01*
D12*
%TO.C,D2*%
X152620000Y-88520000D02*
X152620000Y-91220000D01*
X154320000Y-91220000D02*
X154320000Y-88520000D01*
D14*
%TO.C,R6*%
X167153000Y-96117400D02*
X167407000Y-96117400D01*
X167407000Y-97082600D02*
X167153000Y-97082600D01*
D11*
%TO.C,D1*%
X161850000Y-96190000D02*
G75*
G02*
X161650000Y-96190000I-100000J0D01*
G01*
X161650000Y-96190000D02*
G75*
G02*
X161850000Y-96190000I100000J0D01*
G01*
D12*
%TO.C,Q1*%
X144290000Y-88000000D02*
X145142400Y-88000000D01*
X144290000Y-88880000D02*
X144290000Y-88000000D01*
X144290000Y-91000000D02*
X144290000Y-90120000D01*
X145142400Y-91000000D02*
X144290000Y-91000000D01*
D11*
X147581419Y-88350000D02*
G75*
G02*
X147298581Y-88350000I-141419J0D01*
G01*
X147298581Y-88350000D02*
G75*
G02*
X147581419Y-88350000I141419J0D01*
G01*
D12*
%TO.C,U2*%
X149775000Y-97310000D02*
X151775000Y-97310000D01*
X149775000Y-99770000D02*
X151775000Y-99770000D01*
D11*
X148975000Y-99440000D02*
G75*
G02*
X148775000Y-99440000I-100000J0D01*
G01*
X148775000Y-99440000D02*
G75*
G02*
X148975000Y-99440000I100000J0D01*
G01*
D12*
%TO.C,J2*%
X156500000Y-99217500D02*
X156500000Y-106817500D01*
X156500000Y-106817500D02*
X162400000Y-106817500D01*
X162400000Y-99217500D02*
X156500000Y-99217500D01*
X162400000Y-106817500D02*
X162400000Y-99217500D01*
D11*
X160550000Y-98667500D02*
G75*
G02*
X160350000Y-98667500I-100000J0D01*
G01*
X160350000Y-98667500D02*
G75*
G02*
X160550000Y-98667500I100000J0D01*
G01*
%TD*%
M02*
