%TF.GenerationSoftware,KiCad,Pcbnew,9.0.7*%
%TF.CreationDate,2026-02-16T08:00:12+01:00*%
%TF.ProjectId,misfits,6d697366-6974-4732-9e6b-696361645f70,1*%
%TF.SameCoordinates,Original*%
%TF.FileFunction,Paste,Bot*%
%TF.FilePolarity,Positive*%
%FSLAX46Y46*%
G04 Gerber Fmt 4.6, Leading zero omitted, Abs format (unit mm)*
G04 Created by KiCad (PCBNEW 9.0.7) date 2026-02-16 08:00:12*
%MOMM*%
%LPD*%
G01*
G04 APERTURE LIST*
G04 Aperture macros list*
%AMRoundRect*
0 Rectangle with rounded corners*
0 $1 Rounding radius*
0 $2 $3 $4 $5 $6 $7 $8 $9 X,Y pos of 4 corners*
0 Add a 4 corners polygon primitive as box body*
4,1,4,$2,$3,$4,$5,$6,$7,$8,$9,$2,$3,0*
0 Add four circle primitives for the rounded corners*
1,1,$1+$1,$2,$3*
1,1,$1+$1,$4,$5*
1,1,$1+$1,$6,$7*
1,1,$1+$1,$8,$9*
0 Add four rect primitives between the rounded corners*
20,1,$1+$1,$2,$3,$4,$5,0*
20,1,$1+$1,$4,$5,$6,$7,0*
20,1,$1+$1,$6,$7,$8,$9,0*
20,1,$1+$1,$8,$9,$2,$3,0*%
G04 Aperture macros list end*
%ADD10C,0.001000*%
%ADD11C,0.010000*%
%ADD12R,1.040000X1.020000*%
%ADD13RoundRect,0.108750X-0.356250X0.326250X-0.356250X-0.326250X0.356250X-0.326250X0.356250X0.326250X0*%
%ADD14R,1.210000X0.720000*%
%ADD15RoundRect,0.108750X-0.326250X-0.356250X0.326250X-0.356250X0.326250X0.356250X-0.326250X0.356250X0*%
%ADD16R,0.800000X0.400000*%
%ADD17R,0.250000X0.500000*%
%ADD18R,0.450000X0.500000*%
%ADD19R,0.930000X0.790000*%
%ADD20RoundRect,0.108750X0.326250X0.356250X-0.326250X0.356250X-0.326250X-0.356250X0.326250X-0.356250X0*%
%ADD21R,0.660000X0.320000*%
%ADD22R,0.720000X1.210000*%
%ADD23R,0.762000X0.939800*%
%ADD24R,0.800000X0.800000*%
%ADD25RoundRect,0.152500X0.437500X0.152500X-0.437500X0.152500X-0.437500X-0.152500X0.437500X-0.152500X0*%
%ADD26R,0.760000X0.220000*%
%ADD27R,1.020000X1.040000*%
%ADD28RoundRect,0.108750X0.356250X-0.326250X0.356250X0.326250X-0.356250X0.326250X-0.356250X-0.326250X0*%
%ADD29RoundRect,0.111125X0.333375X-0.333375X0.333375X0.333375X-0.333375X0.333375X-0.333375X-0.333375X0*%
G04 APERTURE END LIST*
D10*
%TO.C,L1*%
X144907000Y-85465000D02*
X144947000Y-85515000D01*
X144997000Y-85585000D01*
X145047000Y-85645000D01*
X145117000Y-85725000D01*
X145177000Y-85785000D01*
X145247000Y-85845000D01*
X145307000Y-85895000D01*
X145387000Y-85955000D01*
X145468000Y-86006000D01*
X145538000Y-86046000D01*
X145620000Y-86090000D01*
X145767000Y-86155000D01*
X145874000Y-86191000D01*
X145984000Y-86221000D01*
X145987000Y-86222000D01*
X145991000Y-86223000D01*
X145995000Y-86224000D01*
X145998000Y-86225000D01*
X146002000Y-86226000D01*
X146006000Y-86227000D01*
X146010000Y-86228000D01*
X146013000Y-86229000D01*
X146017000Y-86230000D01*
X146021000Y-86231000D01*
X146025000Y-86232000D01*
X146028000Y-86233000D01*
X146032000Y-86234000D01*
X146036000Y-86235000D01*
X146040000Y-86235000D01*
X146044000Y-86236000D01*
X146048000Y-86237000D01*
X146051000Y-86238000D01*
X146055000Y-86238000D01*
X146059000Y-86239000D01*
X146063000Y-86240000D01*
X146067000Y-86241000D01*
X146070000Y-86241000D01*
X146074000Y-86242000D01*
X146078000Y-86242000D01*
X146082000Y-86243000D01*
X146086000Y-86244000D01*
X146090000Y-86244000D01*
X146094000Y-86245000D01*
X146097000Y-86245000D01*
X146192000Y-86257000D01*
X146283000Y-86268000D01*
X146455000Y-86270000D01*
X146551000Y-86267000D01*
X146746000Y-86240000D01*
X146891000Y-86208000D01*
X147023000Y-86166000D01*
X147101000Y-86134000D01*
X147196000Y-86092000D01*
X147268000Y-86052000D01*
X147308000Y-86032000D01*
X147382000Y-85986000D01*
X147443000Y-85945000D01*
X147527000Y-85882000D01*
X147633000Y-85792000D01*
X147720000Y-85705000D01*
X147826000Y-85583000D01*
X147876000Y-85515000D01*
X147934000Y-85427000D01*
X147984000Y-85347000D01*
X148050000Y-85220000D01*
X149060000Y-85220000D01*
X149060000Y-87220000D01*
X143760000Y-87220000D01*
X143760000Y-85220000D01*
X144770000Y-85220000D01*
X144907000Y-85465000D01*
G36*
X144907000Y-85465000D02*
G01*
X144947000Y-85515000D01*
X144997000Y-85585000D01*
X145047000Y-85645000D01*
X145117000Y-85725000D01*
X145177000Y-85785000D01*
X145247000Y-85845000D01*
X145307000Y-85895000D01*
X145387000Y-85955000D01*
X145468000Y-86006000D01*
X145538000Y-86046000D01*
X145620000Y-86090000D01*
X145767000Y-86155000D01*
X145874000Y-86191000D01*
X145984000Y-86221000D01*
X145987000Y-86222000D01*
X145991000Y-86223000D01*
X145995000Y-86224000D01*
X145998000Y-86225000D01*
X146002000Y-86226000D01*
X146006000Y-86227000D01*
X146010000Y-86228000D01*
X146013000Y-86229000D01*
X146017000Y-86230000D01*
X146021000Y-86231000D01*
X146025000Y-86232000D01*
X146028000Y-86233000D01*
X146032000Y-86234000D01*
X146036000Y-86235000D01*
X146040000Y-86235000D01*
X146044000Y-86236000D01*
X146048000Y-86237000D01*
X146051000Y-86238000D01*
X146055000Y-86238000D01*
X146059000Y-86239000D01*
X146063000Y-86240000D01*
X146067000Y-86241000D01*
X146070000Y-86241000D01*
X146074000Y-86242000D01*
X146078000Y-86242000D01*
X146082000Y-86243000D01*
X146086000Y-86244000D01*
X146090000Y-86244000D01*
X146094000Y-86245000D01*
X146097000Y-86245000D01*
X146192000Y-86257000D01*
X146283000Y-86268000D01*
X146455000Y-86270000D01*
X146551000Y-86267000D01*
X146746000Y-86240000D01*
X146891000Y-86208000D01*
X147023000Y-86166000D01*
X147101000Y-86134000D01*
X147196000Y-86092000D01*
X147268000Y-86052000D01*
X147308000Y-86032000D01*
X147382000Y-85986000D01*
X147443000Y-85945000D01*
X147527000Y-85882000D01*
X147633000Y-85792000D01*
X147720000Y-85705000D01*
X147826000Y-85583000D01*
X147876000Y-85515000D01*
X147934000Y-85427000D01*
X147984000Y-85347000D01*
X148050000Y-85220000D01*
X149060000Y-85220000D01*
X149060000Y-87220000D01*
X143760000Y-87220000D01*
X143760000Y-85220000D01*
X144770000Y-85220000D01*
X144907000Y-85465000D01*
G37*
X149060000Y-83720000D02*
X148050000Y-83720000D01*
X147913000Y-83475000D01*
X147873000Y-83425000D01*
X147823000Y-83355000D01*
X147773000Y-83295000D01*
X147703000Y-83215000D01*
X147643000Y-83155000D01*
X147573000Y-83095000D01*
X147513000Y-83045000D01*
X147433000Y-82985000D01*
X147352000Y-82934000D01*
X147282000Y-82894000D01*
X147200000Y-82850000D01*
X147053000Y-82785000D01*
X146946000Y-82749000D01*
X146836000Y-82719000D01*
X146833000Y-82718000D01*
X146829000Y-82717000D01*
X146825000Y-82716000D01*
X146822000Y-82715000D01*
X146818000Y-82714000D01*
X146814000Y-82713000D01*
X146810000Y-82712000D01*
X146807000Y-82711000D01*
X146803000Y-82710000D01*
X146799000Y-82709000D01*
X146795000Y-82708000D01*
X146792000Y-82707000D01*
X146788000Y-82706000D01*
X146784000Y-82705000D01*
X146780000Y-82705000D01*
X146776000Y-82704000D01*
X146772000Y-82703000D01*
X146769000Y-82702000D01*
X146765000Y-82702000D01*
X146761000Y-82701000D01*
X146757000Y-82700000D01*
X146753000Y-82699000D01*
X146750000Y-82699000D01*
X146746000Y-82698000D01*
X146742000Y-82698000D01*
X146738000Y-82697000D01*
X146734000Y-82696000D01*
X146730000Y-82696000D01*
X146726000Y-82695000D01*
X146723000Y-82695000D01*
X146628000Y-82683000D01*
X146537000Y-82672000D01*
X146365000Y-82670000D01*
X146269000Y-82673000D01*
X146074000Y-82700000D01*
X145929000Y-82732000D01*
X145797000Y-82774000D01*
X145719000Y-82806000D01*
X145624000Y-82848000D01*
X145552000Y-82888000D01*
X145512000Y-82908000D01*
X145438000Y-82954000D01*
X145377000Y-82995000D01*
X145293000Y-83058000D01*
X145187000Y-83148000D01*
X145100000Y-83235000D01*
X144994000Y-83357000D01*
X144944000Y-83425000D01*
X144886000Y-83513000D01*
X144836000Y-83593000D01*
X144770000Y-83720000D01*
X143760000Y-83720000D01*
X143760000Y-81720000D01*
X149060000Y-81720000D01*
X149060000Y-83720000D01*
G36*
X149060000Y-83720000D02*
G01*
X148050000Y-83720000D01*
X147913000Y-83475000D01*
X147873000Y-83425000D01*
X147823000Y-83355000D01*
X147773000Y-83295000D01*
X147703000Y-83215000D01*
X147643000Y-83155000D01*
X147573000Y-83095000D01*
X147513000Y-83045000D01*
X147433000Y-82985000D01*
X147352000Y-82934000D01*
X147282000Y-82894000D01*
X147200000Y-82850000D01*
X147053000Y-82785000D01*
X146946000Y-82749000D01*
X146836000Y-82719000D01*
X146833000Y-82718000D01*
X146829000Y-82717000D01*
X146825000Y-82716000D01*
X146822000Y-82715000D01*
X146818000Y-82714000D01*
X146814000Y-82713000D01*
X146810000Y-82712000D01*
X146807000Y-82711000D01*
X146803000Y-82710000D01*
X146799000Y-82709000D01*
X146795000Y-82708000D01*
X146792000Y-82707000D01*
X146788000Y-82706000D01*
X146784000Y-82705000D01*
X146780000Y-82705000D01*
X146776000Y-82704000D01*
X146772000Y-82703000D01*
X146769000Y-82702000D01*
X146765000Y-82702000D01*
X146761000Y-82701000D01*
X146757000Y-82700000D01*
X146753000Y-82699000D01*
X146750000Y-82699000D01*
X146746000Y-82698000D01*
X146742000Y-82698000D01*
X146738000Y-82697000D01*
X146734000Y-82696000D01*
X146730000Y-82696000D01*
X146726000Y-82695000D01*
X146723000Y-82695000D01*
X146628000Y-82683000D01*
X146537000Y-82672000D01*
X146365000Y-82670000D01*
X146269000Y-82673000D01*
X146074000Y-82700000D01*
X145929000Y-82732000D01*
X145797000Y-82774000D01*
X145719000Y-82806000D01*
X145624000Y-82848000D01*
X145552000Y-82888000D01*
X145512000Y-82908000D01*
X145438000Y-82954000D01*
X145377000Y-82995000D01*
X145293000Y-83058000D01*
X145187000Y-83148000D01*
X145100000Y-83235000D01*
X144994000Y-83357000D01*
X144944000Y-83425000D01*
X144886000Y-83513000D01*
X144836000Y-83593000D01*
X144770000Y-83720000D01*
X143760000Y-83720000D01*
X143760000Y-81720000D01*
X149060000Y-81720000D01*
X149060000Y-83720000D01*
G37*
D11*
%TO.C,J3*%
X136970000Y-88415000D02*
X136320000Y-88415000D01*
X136320000Y-88165000D01*
X136970000Y-88165000D01*
X136970000Y-88415000D01*
G36*
X136970000Y-88415000D02*
G01*
X136320000Y-88415000D01*
X136320000Y-88165000D01*
X136970000Y-88165000D01*
X136970000Y-88415000D01*
G37*
X136970000Y-88915000D02*
X136320000Y-88915000D01*
X136320000Y-88665000D01*
X136970000Y-88665000D01*
X136970000Y-88915000D01*
G36*
X136970000Y-88915000D02*
G01*
X136320000Y-88915000D01*
X136320000Y-88665000D01*
X136970000Y-88665000D01*
X136970000Y-88915000D01*
G37*
X136970000Y-89415000D02*
X136320000Y-89415000D01*
X136320000Y-89165000D01*
X136970000Y-89165000D01*
X136970000Y-89415000D01*
G36*
X136970000Y-89415000D02*
G01*
X136320000Y-89415000D01*
X136320000Y-89165000D01*
X136970000Y-89165000D01*
X136970000Y-89415000D01*
G37*
X136970000Y-89915000D02*
X136320000Y-89915000D01*
X136320000Y-89665000D01*
X136970000Y-89665000D01*
X136970000Y-89915000D01*
G36*
X136970000Y-89915000D02*
G01*
X136320000Y-89915000D01*
X136320000Y-89665000D01*
X136970000Y-89665000D01*
X136970000Y-89915000D01*
G37*
X136970000Y-90415000D02*
X136320000Y-90415000D01*
X136320000Y-90165000D01*
X136970000Y-90165000D01*
X136970000Y-90415000D01*
G36*
X136970000Y-90415000D02*
G01*
X136320000Y-90415000D01*
X136320000Y-90165000D01*
X136970000Y-90165000D01*
X136970000Y-90415000D01*
G37*
X136970000Y-90915000D02*
X136320000Y-90915000D01*
X136320000Y-90665000D01*
X136970000Y-90665000D01*
X136970000Y-90915000D01*
G36*
X136970000Y-90915000D02*
G01*
X136320000Y-90915000D01*
X136320000Y-90665000D01*
X136970000Y-90665000D01*
X136970000Y-90915000D01*
G37*
X136970000Y-91415000D02*
X136320000Y-91415000D01*
X136320000Y-91165000D01*
X136970000Y-91165000D01*
X136970000Y-91415000D01*
G36*
X136970000Y-91415000D02*
G01*
X136320000Y-91415000D01*
X136320000Y-91165000D01*
X136970000Y-91165000D01*
X136970000Y-91415000D01*
G37*
X136970000Y-91915000D02*
X136320000Y-91915000D01*
X136320000Y-91665000D01*
X136970000Y-91665000D01*
X136970000Y-91915000D01*
G36*
X136970000Y-91915000D02*
G01*
X136320000Y-91915000D01*
X136320000Y-91665000D01*
X136970000Y-91665000D01*
X136970000Y-91915000D01*
G37*
X136970000Y-92415000D02*
X136320000Y-92415000D01*
X136320000Y-92165000D01*
X136970000Y-92165000D01*
X136970000Y-92415000D01*
G36*
X136970000Y-92415000D02*
G01*
X136320000Y-92415000D01*
X136320000Y-92165000D01*
X136970000Y-92165000D01*
X136970000Y-92415000D01*
G37*
X136970000Y-92915000D02*
X136320000Y-92915000D01*
X136320000Y-92665000D01*
X136970000Y-92665000D01*
X136970000Y-92915000D01*
G36*
X136970000Y-92915000D02*
G01*
X136320000Y-92915000D01*
X136320000Y-92665000D01*
X136970000Y-92665000D01*
X136970000Y-92915000D01*
G37*
X136970000Y-93415000D02*
X136320000Y-93415000D01*
X136320000Y-93165000D01*
X136970000Y-93165000D01*
X136970000Y-93415000D01*
G36*
X136970000Y-93415000D02*
G01*
X136320000Y-93415000D01*
X136320000Y-93165000D01*
X136970000Y-93165000D01*
X136970000Y-93415000D01*
G37*
X136970000Y-93915000D02*
X136320000Y-93915000D01*
X136320000Y-93665000D01*
X136970000Y-93665000D01*
X136970000Y-93915000D01*
G36*
X136970000Y-93915000D02*
G01*
X136320000Y-93915000D01*
X136320000Y-93665000D01*
X136970000Y-93665000D01*
X136970000Y-93915000D01*
G37*
X136970000Y-94415000D02*
X136320000Y-94415000D01*
X136320000Y-94165000D01*
X136970000Y-94165000D01*
X136970000Y-94415000D01*
G36*
X136970000Y-94415000D02*
G01*
X136320000Y-94415000D01*
X136320000Y-94165000D01*
X136970000Y-94165000D01*
X136970000Y-94415000D01*
G37*
X136970000Y-94915000D02*
X136320000Y-94915000D01*
X136320000Y-94665000D01*
X136970000Y-94665000D01*
X136970000Y-94915000D01*
G36*
X136970000Y-94915000D02*
G01*
X136320000Y-94915000D01*
X136320000Y-94665000D01*
X136970000Y-94665000D01*
X136970000Y-94915000D01*
G37*
X136970000Y-95415000D02*
X136320000Y-95415000D01*
X136320000Y-95165000D01*
X136970000Y-95165000D01*
X136970000Y-95415000D01*
G36*
X136970000Y-95415000D02*
G01*
X136320000Y-95415000D01*
X136320000Y-95165000D01*
X136970000Y-95165000D01*
X136970000Y-95415000D01*
G37*
X136970000Y-95915000D02*
X136320000Y-95915000D01*
X136320000Y-95665000D01*
X136970000Y-95665000D01*
X136970000Y-95915000D01*
G36*
X136970000Y-95915000D02*
G01*
X136320000Y-95915000D01*
X136320000Y-95665000D01*
X136970000Y-95665000D01*
X136970000Y-95915000D01*
G37*
X136970000Y-96415000D02*
X136320000Y-96415000D01*
X136320000Y-96165000D01*
X136970000Y-96165000D01*
X136970000Y-96415000D01*
G36*
X136970000Y-96415000D02*
G01*
X136320000Y-96415000D01*
X136320000Y-96165000D01*
X136970000Y-96165000D01*
X136970000Y-96415000D01*
G37*
X136970000Y-96915000D02*
X136320000Y-96915000D01*
X136320000Y-96665000D01*
X136970000Y-96665000D01*
X136970000Y-96915000D01*
G36*
X136970000Y-96915000D02*
G01*
X136320000Y-96915000D01*
X136320000Y-96665000D01*
X136970000Y-96665000D01*
X136970000Y-96915000D01*
G37*
X136970000Y-97415000D02*
X136320000Y-97415000D01*
X136320000Y-97165000D01*
X136970000Y-97165000D01*
X136970000Y-97415000D01*
G36*
X136970000Y-97415000D02*
G01*
X136320000Y-97415000D01*
X136320000Y-97165000D01*
X136970000Y-97165000D01*
X136970000Y-97415000D01*
G37*
X136970000Y-97915000D02*
X136320000Y-97915000D01*
X136320000Y-97665000D01*
X136970000Y-97665000D01*
X136970000Y-97915000D01*
G36*
X136970000Y-97915000D02*
G01*
X136320000Y-97915000D01*
X136320000Y-97665000D01*
X136970000Y-97665000D01*
X136970000Y-97915000D01*
G37*
X136970000Y-98415000D02*
X136320000Y-98415000D01*
X136320000Y-98165000D01*
X136970000Y-98165000D01*
X136970000Y-98415000D01*
G36*
X136970000Y-98415000D02*
G01*
X136320000Y-98415000D01*
X136320000Y-98165000D01*
X136970000Y-98165000D01*
X136970000Y-98415000D01*
G37*
X136970000Y-98915000D02*
X136320000Y-98915000D01*
X136320000Y-98665000D01*
X136970000Y-98665000D01*
X136970000Y-98915000D01*
G36*
X136970000Y-98915000D02*
G01*
X136320000Y-98915000D01*
X136320000Y-98665000D01*
X136970000Y-98665000D01*
X136970000Y-98915000D01*
G37*
X136970000Y-99415000D02*
X136320000Y-99415000D01*
X136320000Y-99165000D01*
X136970000Y-99165000D01*
X136970000Y-99415000D01*
G36*
X136970000Y-99415000D02*
G01*
X136320000Y-99415000D01*
X136320000Y-99165000D01*
X136970000Y-99165000D01*
X136970000Y-99415000D01*
G37*
X136970000Y-99915000D02*
X136320000Y-99915000D01*
X136320000Y-99665000D01*
X136970000Y-99665000D01*
X136970000Y-99915000D01*
G36*
X136970000Y-99915000D02*
G01*
X136320000Y-99915000D01*
X136320000Y-99665000D01*
X136970000Y-99665000D01*
X136970000Y-99915000D01*
G37*
%TO.C,U3*%
X165431000Y-101876000D02*
X164799000Y-101876000D01*
X164799000Y-100864000D01*
X165431000Y-100864000D01*
X165431000Y-101876000D01*
G36*
X165431000Y-101876000D02*
G01*
X164799000Y-101876000D01*
X164799000Y-100864000D01*
X165431000Y-100864000D01*
X165431000Y-101876000D01*
G37*
%TO.C,U2*%
X151060000Y-99015000D02*
X150490000Y-99015000D01*
X150490000Y-98065000D01*
X151060000Y-98065000D01*
X151060000Y-99015000D01*
G36*
X151060000Y-99015000D02*
G01*
X150490000Y-99015000D01*
X150490000Y-98065000D01*
X151060000Y-98065000D01*
X151060000Y-99015000D01*
G37*
%TD*%
D12*
%TO.C,R4*%
X155795000Y-97530000D03*
X154325000Y-97530000D03*
%TD*%
D13*
%TO.C,C5*%
X154430000Y-83510000D03*
X154430000Y-85070000D03*
%TD*%
D14*
%TO.C,D3*%
X146590000Y-93880000D03*
X149950000Y-93880000D03*
%TD*%
D15*
%TO.C,C8*%
X165140000Y-93610000D03*
X166700000Y-93610000D03*
%TD*%
%TO.C,C2*%
X153730000Y-100440000D03*
X155290000Y-100440000D03*
%TD*%
D13*
%TO.C,C3*%
X164090000Y-104090000D03*
X164090000Y-105650000D03*
%TD*%
D16*
%TO.C,J3*%
X134070000Y-87290000D03*
X134070000Y-100790000D03*
%TD*%
D17*
%TO.C,U4*%
X150190000Y-104992500D03*
X150690000Y-104992500D03*
D18*
X151190000Y-104992500D03*
D17*
X151690000Y-104992500D03*
X152190000Y-104992500D03*
X152190000Y-105792500D03*
X151690000Y-105792500D03*
D18*
X151190000Y-105792500D03*
D17*
X150690000Y-105792500D03*
X150190000Y-105792500D03*
%TD*%
D13*
%TO.C,C9*%
X150720000Y-83510000D03*
X150720000Y-85070000D03*
%TD*%
D19*
%TO.C,R8*%
X138590000Y-90910000D03*
X138590000Y-89270000D03*
%TD*%
D14*
%TO.C,D4*%
X138980000Y-99400000D03*
X142340000Y-99400000D03*
%TD*%
D20*
%TO.C,C10*%
X153470000Y-93750000D03*
X151910000Y-93750000D03*
%TD*%
D21*
%TO.C,U3*%
X166140000Y-100720000D03*
X166140000Y-101370000D03*
X166140000Y-102020000D03*
X164090000Y-102020000D03*
X164090000Y-101370000D03*
X164090000Y-100720000D03*
%TD*%
D22*
%TO.C,D2*%
X153470000Y-88190000D03*
X153470000Y-91550000D03*
%TD*%
D20*
%TO.C,C1*%
X145950000Y-100320000D03*
X144390000Y-100320000D03*
%TD*%
D23*
%TO.C,R6*%
X168118200Y-96600000D03*
X166441800Y-96600000D03*
%TD*%
D24*
%TO.C,D1*%
X164300000Y-96190000D03*
X162800000Y-96190000D03*
%TD*%
D12*
%TO.C,R1*%
X145855000Y-98480000D03*
X144385000Y-98480000D03*
%TD*%
D25*
%TO.C,Q1*%
X146015000Y-88585000D03*
X146015000Y-90415000D03*
X143965000Y-89500000D03*
%TD*%
D26*
%TO.C,U2*%
X149790000Y-99340000D03*
X149790000Y-98940000D03*
X149790000Y-98540000D03*
X149790000Y-98140000D03*
X149790000Y-97740000D03*
X151760000Y-97740000D03*
X151760000Y-98140000D03*
X151760000Y-98540000D03*
X151760000Y-98940000D03*
X151760000Y-99340000D03*
%TD*%
D27*
%TO.C,R7*%
X138580000Y-87705000D03*
X138580000Y-86235000D03*
%TD*%
D28*
%TO.C,C11*%
X143960000Y-93930000D03*
X143960000Y-92370000D03*
%TD*%
D29*
%TO.C,R2*%
X145722000Y-96950000D03*
X144198000Y-96950000D03*
%TD*%
D12*
%TO.C,R3*%
X162875000Y-97890000D03*
X164345000Y-97890000D03*
%TD*%
%TO.C,R5*%
X166645000Y-98300000D03*
X168115000Y-98300000D03*
%TD*%
D13*
%TO.C,C4*%
X152750000Y-83510000D03*
X152750000Y-85070000D03*
%TD*%
M02*
