%TF.GenerationSoftware,KiCad,Pcbnew,9.0.7*%
%TF.CreationDate,2026-02-16T08:00:11+01:00*%
%TF.ProjectId,misfits,6d697366-6974-4732-9e6b-696361645f70,1*%
%TF.SameCoordinates,Original*%
%TF.FileFunction,Copper,L1,Top*%
%TF.FilePolarity,Positive*%
%FSLAX46Y46*%
G04 Gerber Fmt 4.6, Leading zero omitted, Abs format (unit mm)*
G04 Created by KiCad (PCBNEW 9.0.7) date 2026-02-16 08:00:11*
%MOMM*%
%LPD*%
G01*
G04 APERTURE LIST*
G04 Aperture macros list*
%AMRoundRect*
0 Rectangle with rounded corners*
0 $1 Rounding radius*
0 $2 $3 $4 $5 $6 $7 $8 $9 X,Y pos of 4 corners*
0 Add a 4 corners polygon primitive as box body*
4,1,4,$2,$3,$4,$5,$6,$7,$8,$9,$2,$3,0*
0 Add four circle primitives for the rounded corners*
1,1,$1+$1,$2,$3*
1,1,$1+$1,$4,$5*
1,1,$1+$1,$6,$7*
1,1,$1+$1,$8,$9*
0 Add four rect primitives between the rounded corners*
20,1,$1+$1,$2,$3,$4,$5,0*
20,1,$1+$1,$4,$5,$6,$7,0*
20,1,$1+$1,$6,$7,$8,$9,0*
20,1,$1+$1,$8,$9,$2,$3,0*%
%AMFreePoly0*
4,1,14,0.603536,0.603536,0.605000,0.600000,0.605000,-0.600000,0.603536,-0.603536,0.600000,-0.605000,-0.600000,-0.605000,-0.603536,-0.603536,-0.605000,-0.600000,-0.605000,0.000000,-0.603536,0.003536,-0.003536,0.603536,0.000000,0.605000,0.600000,0.605000,0.603536,0.603536,0.603536,0.603536,$1*%
G04 Aperture macros list end*
%TA.AperFunction,SMDPad,CuDef*%
%ADD10R,1.350000X0.800000*%
%TD*%
%TA.AperFunction,SMDPad,CuDef*%
%ADD11R,0.700000X0.700000*%
%TD*%
%TA.AperFunction,SMDPad,CuDef*%
%ADD12RoundRect,0.108750X0.326250X0.356250X-0.326250X0.356250X-0.326250X-0.356250X0.326250X-0.356250X0*%
%TD*%
%TA.AperFunction,SMDPad,CuDef*%
%ADD13R,0.400000X0.800000*%
%TD*%
%TA.AperFunction,SMDPad,CuDef*%
%ADD14R,0.800000X0.400000*%
%TD*%
%TA.AperFunction,SMDPad,CuDef*%
%ADD15R,1.200000X1.200000*%
%TD*%
%TA.AperFunction,SMDPad,CuDef*%
%ADD16FreePoly0,270.000000*%
%TD*%
%TA.AperFunction,SMDPad,CuDef*%
%ADD17R,0.800000X0.800000*%
%TD*%
%TA.AperFunction,SMDPad,CuDef*%
%ADD18RoundRect,0.108750X0.356250X-0.326250X0.356250X0.326250X-0.356250X0.326250X-0.356250X-0.326250X0*%
%TD*%
%TA.AperFunction,SMDPad,CuDef*%
%ADD19R,0.600000X1.150000*%
%TD*%
%TA.AperFunction,SMDPad,CuDef*%
%ADD20R,0.300000X1.150000*%
%TD*%
%TA.AperFunction,ComponentPad*%
%ADD21O,1.050000X1.850000*%
%TD*%
%TA.AperFunction,ComponentPad*%
%ADD22O,1.050000X2.250000*%
%TD*%
%TA.AperFunction,SMDPad,CuDef*%
%ADD23RoundRect,0.108750X-0.356250X0.326250X-0.356250X-0.326250X0.356250X-0.326250X0.356250X0.326250X0*%
%TD*%
%TA.AperFunction,SMDPad,CuDef*%
%ADD24RoundRect,0.108750X-0.326250X-0.356250X0.326250X-0.356250X0.326250X0.356250X-0.326250X0.356250X0*%
%TD*%
%TA.AperFunction,ComponentPad*%
%ADD25R,1.308000X1.308000*%
%TD*%
%TA.AperFunction,ComponentPad*%
%ADD26C,1.308000*%
%TD*%
%TA.AperFunction,ViaPad*%
%ADD27C,0.685800*%
%TD*%
%TA.AperFunction,Conductor*%
%ADD28C,0.254000*%
%TD*%
%TA.AperFunction,Conductor*%
%ADD29C,0.526200*%
%TD*%
G04 APERTURE END LIST*
D10*
%TO.P,S4,1*%
%TO.N,Net-(U1-IO35)*%
X167665000Y-104610000D03*
%TO.P,S4,1_1*%
X167665000Y-102310000D03*
%TO.P,S4,2*%
%TO.N,Net-(U1-IO36)*%
X167665000Y-103460000D03*
D11*
%TO.P,S4,P1*%
%TO.N,N/C*%
X169340000Y-105910000D03*
%TO.P,S4,P2*%
X169340000Y-101010000D03*
%TD*%
D10*
%TO.P,S3,1*%
%TO.N,Net-(U1-IO33)*%
X132315000Y-102290000D03*
%TO.P,S3,1_1*%
X132315000Y-104590000D03*
%TO.P,S3,2*%
%TO.N,Net-(U1-IO34)*%
X132315000Y-103440000D03*
D11*
%TO.P,S3,P1*%
%TO.N,N/C*%
X130640000Y-100990000D03*
%TO.P,S3,P2*%
X130640000Y-105890000D03*
%TD*%
D12*
%TO.P,C14,1*%
%TO.N,Net-(C14-Pad1)*%
X134230000Y-93920000D03*
%TO.P,C14,2*%
%TO.N,GND*%
X132670000Y-93920000D03*
%TD*%
%TO.P,C17,1*%
%TO.N,/PREVGL*%
X134180000Y-98700000D03*
%TO.P,C17,2*%
%TO.N,GND*%
X132620000Y-98700000D03*
%TD*%
D13*
%TO.P,U1,1,GND*%
%TO.N,GND*%
X155100000Y-81760000D03*
%TO.P,U1,2,GND*%
X154250000Y-81760000D03*
%TO.P,U1,3,3V3*%
%TO.N,/3V3*%
X153400000Y-81760000D03*
%TO.P,U1,4,IO0*%
%TO.N,Net-(U1-IO0)*%
X152550000Y-81760000D03*
%TO.P,U1,5,IO1*%
%TO.N,unconnected-(U1-IO1-Pad5)*%
X151700000Y-81760000D03*
%TO.P,U1,6,IO2*%
%TO.N,unconnected-(U1-IO2-Pad6)*%
X150850000Y-81760000D03*
%TO.P,U1,7,IO3*%
%TO.N,unconnected-(U1-IO3-Pad7)*%
X150000000Y-81760000D03*
%TO.P,U1,8,IO4*%
%TO.N,unconnected-(U1-IO4-Pad8)*%
X149150000Y-81760000D03*
%TO.P,U1,9,IO5*%
%TO.N,unconnected-(U1-IO5-Pad9)*%
X148300000Y-81760000D03*
%TO.P,U1,10,IO6*%
%TO.N,unconnected-(U1-IO6-Pad10)*%
X147450000Y-81760000D03*
%TO.P,U1,11,IO7*%
%TO.N,unconnected-(U1-IO7-Pad11)*%
X146600000Y-81760000D03*
%TO.P,U1,12,IO8*%
%TO.N,/RES*%
X145750000Y-81760000D03*
%TO.P,U1,13,IO9*%
%TO.N,/DC*%
X144900000Y-81760000D03*
%TO.P,U1,14,IO10*%
%TO.N,/CS*%
X144050000Y-81760000D03*
%TO.P,U1,15,IO11*%
%TO.N,/SDI*%
X143200000Y-81760000D03*
D14*
%TO.P,U1,16,IO12*%
%TO.N,/SCLK*%
X142150000Y-82810000D03*
%TO.P,U1,17,IO13*%
%TO.N,unconnected-(U1-IO13-Pad17)*%
X142150000Y-83660000D03*
%TO.P,U1,18,IO14*%
%TO.N,unconnected-(U1-IO14-Pad18)*%
X142150000Y-84510000D03*
%TO.P,U1,19,IO15*%
%TO.N,unconnected-(U1-IO15-Pad19)*%
X142150000Y-85360000D03*
%TO.P,U1,20,IO16*%
%TO.N,unconnected-(U1-IO16-Pad20)*%
X142150000Y-86210000D03*
%TO.P,U1,21,IO17*%
%TO.N,unconnected-(U1-IO17-Pad21)*%
X142150000Y-87060000D03*
%TO.P,U1,22,IO18*%
%TO.N,/BUSY*%
X142150000Y-87910000D03*
%TO.P,U1,23,IO19*%
%TO.N,/USB_D_N*%
X142150000Y-88760000D03*
%TO.P,U1,24,IO20*%
%TO.N,/USB_D_P*%
X142150000Y-89610000D03*
%TO.P,U1,25,IO21*%
%TO.N,unconnected-(U1-IO21-Pad25)*%
X142150000Y-90460000D03*
%TO.P,U1,26,IO26*%
%TO.N,unconnected-(U1-IO26-Pad26)*%
X142150000Y-91310000D03*
%TO.P,U1,27,IO47*%
%TO.N,unconnected-(U1-IO47-Pad27)*%
X142150000Y-92160000D03*
%TO.P,U1,28,IO33*%
%TO.N,Net-(U1-IO33)*%
X142150000Y-93010000D03*
%TO.P,U1,29,IO34*%
%TO.N,Net-(U1-IO34)*%
X142150000Y-93860000D03*
%TO.P,U1,30,IO48*%
%TO.N,unconnected-(U1-IO48-Pad30)*%
X142150000Y-94710000D03*
D13*
%TO.P,U1,31,IO35*%
%TO.N,Net-(U1-IO35)*%
X143200000Y-95760000D03*
%TO.P,U1,32,IO36*%
%TO.N,Net-(U1-IO36)*%
X144050000Y-95760000D03*
%TO.P,U1,33,IO37*%
%TO.N,unconnected-(U1-IO37-Pad33)*%
X144900000Y-95760000D03*
%TO.P,U1,34,IO38*%
%TO.N,unconnected-(U1-IO38-Pad34)*%
X145750000Y-95760000D03*
%TO.P,U1,35,IO39*%
%TO.N,unconnected-(U1-IO39-Pad35)*%
X146600000Y-95760000D03*
%TO.P,U1,36,IO40*%
%TO.N,unconnected-(U1-IO40-Pad36)*%
X147450000Y-95760000D03*
%TO.P,U1,37,IO41*%
%TO.N,unconnected-(U1-IO41-Pad37)*%
X148300000Y-95760000D03*
%TO.P,U1,38,IO42*%
%TO.N,unconnected-(U1-IO42-Pad38)*%
X149150000Y-95760000D03*
%TO.P,U1,39,TXD0*%
%TO.N,unconnected-(U1-TXD0-Pad39)*%
X150000000Y-95760000D03*
%TO.P,U1,40,RXD0*%
%TO.N,unconnected-(U1-RXD0-Pad40)*%
X150850000Y-95760000D03*
%TO.P,U1,41,IO45*%
%TO.N,unconnected-(U1-IO45-Pad41)*%
X151700000Y-95760000D03*
%TO.P,U1,42,GND*%
%TO.N,GND*%
X152550000Y-95760000D03*
%TO.P,U1,43,GND*%
X153400000Y-95760000D03*
%TO.P,U1,44,IO46*%
%TO.N,unconnected-(U1-IO46-Pad44)*%
X154250000Y-95760000D03*
%TO.P,U1,45,EN*%
%TO.N,Net-(U1-EN)*%
X155100000Y-95760000D03*
D14*
%TO.P,U1,46,GND*%
%TO.N,GND*%
X156150000Y-94710000D03*
%TO.P,U1,47,GND*%
X156150000Y-93860000D03*
%TO.P,U1,48,GND*%
X156150000Y-93010000D03*
%TO.P,U1,49,GND*%
X156150000Y-92160000D03*
%TO.P,U1,50,GND*%
X156150000Y-91310000D03*
%TO.P,U1,51,GND*%
X156150000Y-90460000D03*
%TO.P,U1,52,GND*%
X156150000Y-89610000D03*
%TO.P,U1,53,GND*%
X156150000Y-88760000D03*
%TO.P,U1,54,GND*%
X156150000Y-87910000D03*
%TO.P,U1,55,GND*%
X156150000Y-87060000D03*
%TO.P,U1,56,GND*%
X156150000Y-86210000D03*
%TO.P,U1,57,GND*%
X156150000Y-85360000D03*
%TO.P,U1,58,GND*%
X156150000Y-84510000D03*
%TO.P,U1,59,GND*%
X156150000Y-83660000D03*
%TO.P,U1,60,GND*%
X156150000Y-82810000D03*
D15*
%TO.P,U1,61,GND*%
X149150000Y-88760000D03*
D16*
%TO.P,U1,61_1,GND*%
X150800000Y-87110000D03*
D15*
%TO.P,U1,61_2,GND*%
X150800000Y-88760000D03*
%TO.P,U1,61_3,GND*%
X150800000Y-90410000D03*
%TO.P,U1,61_4,GND*%
X149150000Y-90410000D03*
%TO.P,U1,61_5,GND*%
X147500000Y-90410000D03*
%TO.P,U1,61_6,GND*%
X147500000Y-88760000D03*
%TO.P,U1,61_7,GND*%
X147500000Y-87110000D03*
%TO.P,U1,61_8,GND*%
X149150000Y-87110000D03*
D17*
%TO.P,U1,62,GND*%
X156150000Y-81760000D03*
%TO.P,U1,63,GND*%
X142150000Y-81760000D03*
%TO.P,U1,64,GND*%
X142150000Y-95760000D03*
%TO.P,U1,65,GND*%
X156150000Y-95760000D03*
%TD*%
D12*
%TO.P,C15,1*%
%TO.N,Net-(C15-Pad1)*%
X134220000Y-95490000D03*
%TO.P,C15,2*%
%TO.N,GND*%
X132660000Y-95490000D03*
%TD*%
%TO.P,C12,1*%
%TO.N,Net-(C12-Pad1)*%
X134360000Y-90290000D03*
%TO.P,C12,2*%
%TO.N,GND*%
X132800000Y-90290000D03*
%TD*%
D10*
%TO.P,S2,1*%
%TO.N,GND*%
X132325000Y-84520000D03*
%TO.P,S2,1_1*%
X132325000Y-86820000D03*
%TO.P,S2,2*%
%TO.N,Net-(U1-IO0)*%
X132325000Y-85670000D03*
D11*
%TO.P,S2,P1*%
%TO.N,N/C*%
X130650000Y-83220000D03*
%TO.P,S2,P2*%
X130650000Y-88120000D03*
%TD*%
D12*
%TO.P,C16,1*%
%TO.N,Net-(C16-Pad1)*%
X134190000Y-97100000D03*
%TO.P,C16,2*%
%TO.N,GND*%
X132630000Y-97100000D03*
%TD*%
D18*
%TO.P,C7,1*%
%TO.N,Net-(U1-IO0)*%
X135020000Y-85680000D03*
%TO.P,C7,2*%
%TO.N,GND*%
X135020000Y-84120000D03*
%TD*%
D10*
%TO.P,S1,1*%
%TO.N,GND*%
X167675000Y-86850000D03*
%TO.P,S1,1_1*%
X167675000Y-84550000D03*
%TO.P,S1,2*%
%TO.N,Net-(U1-EN)*%
X167675000Y-85700000D03*
D11*
%TO.P,S1,P1*%
%TO.N,N/C*%
X169350000Y-88150000D03*
%TO.P,S1,P2*%
X169350000Y-83250000D03*
%TD*%
D12*
%TO.P,C13,1*%
%TO.N,Net-(C13-Pad1)*%
X134220000Y-92320000D03*
%TO.P,C13,2*%
%TO.N,GND*%
X132660000Y-92320000D03*
%TD*%
D19*
%TO.P,J1,A1_B12,GND_A*%
%TO.N,GND*%
X146780000Y-102845000D03*
%TO.P,J1,A4_B9,VBUS_A*%
%TO.N,/5V_IN*%
X147580000Y-102845000D03*
D20*
%TO.P,J1,A5,CC1*%
%TO.N,unconnected-(J1-CC1-PadA5)*%
X148730000Y-102845000D03*
%TO.P,J1,A6,D1+*%
%TO.N,/USB_D_P*%
X149730000Y-102845000D03*
%TO.P,J1,A7,D1-*%
%TO.N,/USB_D_N*%
X150230000Y-102845000D03*
%TO.P,J1,A8,SBU1*%
%TO.N,unconnected-(J1-SBU1-PadA8)*%
X151230000Y-102845000D03*
D19*
%TO.P,J1,B1_A12,GND_B*%
%TO.N,GND*%
X153180000Y-102845000D03*
%TO.P,J1,B4_A9,VBUS_B*%
%TO.N,/5V_IN*%
X152380000Y-102845000D03*
D20*
%TO.P,J1,B5,CC2*%
%TO.N,unconnected-(J1-CC2-PadB5)*%
X151730000Y-102845000D03*
%TO.P,J1,B6,D2+*%
%TO.N,/USB_D_P*%
X150730000Y-102845000D03*
%TO.P,J1,B7,D2-*%
%TO.N,/USB_D_N*%
X149230000Y-102845000D03*
%TO.P,J1,B8,SBU2*%
%TO.N,unconnected-(J1-SBU2-PadB8)*%
X148230000Y-102845000D03*
D21*
%TO.P,J1,SH1,SHIELD*%
%TO.N,GND*%
X145660000Y-103410000D03*
%TO.P,J1,SH2,SHIELD*%
X154300000Y-103410000D03*
D22*
%TO.P,J1,SH3,SHIELD*%
X145660000Y-107410000D03*
%TO.P,J1,SH4,SHIELD*%
X154300000Y-107410000D03*
%TD*%
D23*
%TO.P,C6,1*%
%TO.N,Net-(U1-EN)*%
X165310000Y-85670000D03*
%TO.P,C6,2*%
%TO.N,GND*%
X165310000Y-87230000D03*
%TD*%
D24*
%TO.P,C18,1*%
%TO.N,/VCOM*%
X136570000Y-102190000D03*
%TO.P,C18,2*%
%TO.N,GND*%
X138130000Y-102190000D03*
%TD*%
D25*
%TO.P,J2,1,1*%
%TO.N,Net-(U2-OUT)*%
X160450000Y-100567500D03*
D26*
%TO.P,J2,2,2*%
%TO.N,GND*%
X158450000Y-100567500D03*
%TD*%
D27*
%TO.N,GND*%
X165600000Y-81750000D03*
X137000000Y-81500000D03*
X165200000Y-107600000D03*
X151000000Y-92000000D03*
X167420000Y-90480000D03*
X134100000Y-107200000D03*
%TO.N,/5V_IN*%
X145950000Y-100320000D03*
X152380000Y-102845000D03*
%TO.N,/3V3*%
X152750000Y-83510000D03*
%TO.N,Net-(U1-EN)*%
X154325000Y-97530000D03*
%TO.N,Net-(C12-Pad1)*%
X134360000Y-90290000D03*
%TO.N,Net-(C13-Pad1)*%
X134220000Y-92320000D03*
%TO.N,Net-(C14-Pad1)*%
X134230000Y-93920000D03*
%TO.N,Net-(C15-Pad1)*%
X134220000Y-95490000D03*
%TO.N,Net-(C16-Pad1)*%
X134190000Y-97100000D03*
%TO.N,/PREVGL*%
X134180000Y-98700000D03*
%TO.N,/VCOM*%
X136570000Y-102190000D03*
%TO.N,/USB_D_N*%
X149220000Y-104300000D03*
%TO.N,/USB_D_P*%
X150920000Y-104040000D03*
%TO.N,/RES*%
X135420000Y-91270000D03*
X145750000Y-83510000D03*
X140210000Y-84230000D03*
%TO.N,/CS*%
X145340000Y-94780000D03*
%TO.N,/SCLK*%
X140800000Y-91170000D03*
X140990000Y-87160000D03*
X140694229Y-96005771D03*
%TO.N,/SDI*%
X143470000Y-91090000D03*
%TO.N,/DC*%
X138220000Y-93050000D03*
X144900000Y-84610000D03*
X140310000Y-85420000D03*
%TO.N,/BUSY*%
X140290000Y-87910000D03*
%TO.N,Net-(U1-IO33)*%
X138341252Y-93895946D03*
X142150000Y-93010000D03*
X132315000Y-102290000D03*
X132310000Y-104590000D03*
%TO.N,Net-(U1-IO34)*%
X138383919Y-94696081D03*
X141050000Y-93850000D03*
%TO.N,Net-(U1-IO35)*%
X167665000Y-102310000D03*
X167665000Y-104610000D03*
%TD*%
D28*
%TO.N,/5V_IN*%
X151140000Y-105430000D02*
X152380000Y-104190000D01*
X147580000Y-102845000D02*
X147580000Y-104350000D01*
X148660000Y-105430000D02*
X151140000Y-105430000D01*
X147580000Y-102845000D02*
X147580000Y-101950000D01*
X152380000Y-104190000D02*
X152380000Y-102845000D01*
X147580000Y-104350000D02*
X148660000Y-105430000D01*
X147580000Y-101950000D02*
X145950000Y-100320000D01*
%TO.N,/3V3*%
X153400000Y-81760000D02*
X153400000Y-82860000D01*
X153400000Y-82860000D02*
X152750000Y-83510000D01*
%TO.N,Net-(U1-EN)*%
X165310000Y-85670000D02*
X163790000Y-87190000D01*
X167675000Y-85700000D02*
X165340000Y-85700000D01*
X165340000Y-85700000D02*
X165310000Y-85670000D01*
X163000000Y-97490000D02*
X155835000Y-97490000D01*
X163790000Y-87190000D02*
X163790000Y-96700000D01*
X155835000Y-97490000D02*
X155100000Y-96755000D01*
X155100000Y-95760000D02*
X155100000Y-96755000D01*
X155100000Y-96755000D02*
X154325000Y-97530000D01*
X163790000Y-96700000D02*
X163000000Y-97490000D01*
%TO.N,Net-(U1-IO0)*%
X152550000Y-81523062D02*
X151376938Y-80350000D01*
X135010000Y-85670000D02*
X135020000Y-85680000D01*
X140350000Y-80350000D02*
X135020000Y-85680000D01*
X152550000Y-81760000D02*
X152550000Y-81523062D01*
X132325000Y-85670000D02*
X135010000Y-85670000D01*
X151376938Y-80350000D02*
X140350000Y-80350000D01*
D29*
%TO.N,/USB_D_N*%
X141463099Y-88846900D02*
X140594954Y-88846900D01*
X149162935Y-100631081D02*
X149162935Y-101252438D01*
D28*
X149230000Y-102845000D02*
X149230000Y-102110000D01*
D29*
X142150000Y-88760000D02*
X141549999Y-88760000D01*
X141589954Y-98878100D02*
X147409954Y-98878100D01*
X139151900Y-90289954D02*
X139151900Y-96440046D01*
D28*
X150230000Y-103556938D02*
X150123469Y-103663469D01*
X149336531Y-103663469D02*
X149230000Y-103556938D01*
X149230000Y-102110000D02*
X149160000Y-102040000D01*
X150123469Y-103663469D02*
X149336531Y-103663469D01*
X149160000Y-102040000D02*
X149162935Y-102037065D01*
D29*
X147409954Y-98878100D02*
X149162935Y-100631081D01*
D28*
X149230000Y-103556938D02*
X149230000Y-102845000D01*
D29*
X140594954Y-88846900D02*
X139151900Y-90289954D01*
X141549999Y-88760000D02*
X141463099Y-88846900D01*
D28*
X149162935Y-102037065D02*
X149162935Y-101252438D01*
X149230000Y-104290000D02*
X149220000Y-104300000D01*
D29*
X139151900Y-96440046D02*
X141589954Y-98878100D01*
D28*
X149230000Y-103556938D02*
X149230000Y-104290000D01*
X150230000Y-102845000D02*
X150230000Y-103556938D01*
%TO.N,/USB_D_P*%
X149740000Y-102835000D02*
X149730000Y-102845000D01*
X150730000Y-102133062D02*
X150623469Y-102026531D01*
X149730000Y-102133062D02*
X149730000Y-101840000D01*
X150730000Y-103560000D02*
X150730000Y-103850000D01*
D29*
X141463099Y-89523100D02*
X140875046Y-89523100D01*
D28*
X150730000Y-103850000D02*
X150920000Y-104040000D01*
D29*
X139828100Y-96159954D02*
X141870046Y-98201900D01*
D28*
X149840000Y-101730000D02*
X149839135Y-101729135D01*
D29*
X147690046Y-98201900D02*
X149839135Y-100350989D01*
D28*
X149730000Y-102133062D02*
X149730000Y-102845000D01*
X149730000Y-101840000D02*
X149840000Y-101730000D01*
X150730000Y-102845000D02*
X150730000Y-102133062D01*
D29*
X141549999Y-89610000D02*
X141463099Y-89523100D01*
X142150000Y-89610000D02*
X141549999Y-89610000D01*
X141870046Y-98201900D02*
X147690046Y-98201900D01*
X149839135Y-100350989D02*
X149839135Y-101252438D01*
D28*
X149839135Y-101729135D02*
X149839135Y-101252438D01*
D29*
X139828100Y-90570046D02*
X139828100Y-96159954D01*
D28*
X149836531Y-102026531D02*
X149730000Y-102133062D01*
X150623469Y-102026531D02*
X149836531Y-102026531D01*
X150730000Y-102845000D02*
X150730000Y-103560000D01*
D29*
X140875046Y-89523100D02*
X139828100Y-90570046D01*
D28*
%TO.N,/RES*%
X135420000Y-89020000D02*
X140210000Y-84230000D01*
X145750000Y-83510000D02*
X145750000Y-81760000D01*
X135420000Y-91270000D02*
X135420000Y-89020000D01*
%TO.N,/CS*%
X144056369Y-81766369D02*
X144050000Y-81760000D01*
X144056369Y-93496369D02*
X144056369Y-81766369D01*
X145340000Y-94780000D02*
X144056369Y-93496369D01*
%TO.N,/SCLK*%
X141510000Y-82810000D02*
X142150000Y-82810000D01*
X140430000Y-94640431D02*
X140430000Y-91540000D01*
X140430000Y-91540000D02*
X140800000Y-91170000D01*
X140990000Y-87160000D02*
X140990000Y-83330000D01*
X140694229Y-96005771D02*
X140694229Y-94904660D01*
X140694229Y-94904660D02*
X140430000Y-94640431D01*
X140990000Y-83330000D02*
X141510000Y-82810000D01*
%TO.N,/SDI*%
X143470000Y-91090000D02*
X143200000Y-90820000D01*
X143200000Y-90820000D02*
X143200000Y-81760000D01*
%TO.N,/DC*%
X144900000Y-84610000D02*
X144900000Y-81760000D01*
X138645331Y-92624669D02*
X138645331Y-90490000D01*
X138645331Y-90024669D02*
X139750000Y-88920000D01*
X138220000Y-93050000D02*
X138645331Y-92624669D01*
X139703631Y-86026369D02*
X140310000Y-85420000D01*
X138645331Y-90490000D02*
X138645331Y-90024669D01*
X139750000Y-88920000D02*
X139703631Y-88873631D01*
X139703631Y-88873631D02*
X139703631Y-86026369D01*
%TO.N,/BUSY*%
X140290000Y-87910000D02*
X142150000Y-87910000D01*
%TO.N,Net-(U1-IO33)*%
X132840000Y-102290000D02*
X132315000Y-102290000D01*
X136140000Y-98990000D02*
X132840000Y-102290000D01*
X136140000Y-95000000D02*
X136140000Y-98990000D01*
X137244054Y-93895946D02*
X136140000Y-95000000D01*
X132315000Y-104590000D02*
X132310000Y-104590000D01*
X138341252Y-93895946D02*
X137244054Y-93895946D01*
%TO.N,Net-(U1-IO34)*%
X141050000Y-93850000D02*
X142140000Y-93850000D01*
X136850000Y-95330000D02*
X136850000Y-99840000D01*
X136850000Y-99840000D02*
X133250000Y-103440000D01*
X133250000Y-103440000D02*
X132315000Y-103440000D01*
X142140000Y-93850000D02*
X142150000Y-93860000D01*
X138383919Y-94696081D02*
X137483919Y-94696081D01*
X137483919Y-94696081D02*
X136850000Y-95330000D01*
%TO.N,Net-(U1-IO36)*%
X144050000Y-95760000D02*
X144050000Y-95996938D01*
X157590000Y-103460000D02*
X167665000Y-103460000D01*
X150820000Y-96690000D02*
X157590000Y-103460000D01*
X144050000Y-95996938D02*
X144743062Y-96690000D01*
X144743062Y-96690000D02*
X150820000Y-96690000D01*
%TO.N,Net-(U1-IO35)*%
X143520000Y-97060000D02*
X143200000Y-96740000D01*
X150540000Y-97060000D02*
X143520000Y-97060000D01*
X167665000Y-104610000D02*
X158090000Y-104610000D01*
X143200000Y-96740000D02*
X143200000Y-95760000D01*
X158090000Y-104610000D02*
X150540000Y-97060000D01*
%TD*%
%TA.AperFunction,Conductor*%
%TO.N,GND*%
G36*
X137827375Y-95342556D02*
G01*
X137852927Y-95355632D01*
X137984419Y-95443493D01*
X137984421Y-95443494D01*
X137984425Y-95443496D01*
X138137903Y-95507068D01*
X138137908Y-95507070D01*
X138288493Y-95537023D01*
X138350402Y-95569406D01*
X138384976Y-95630121D01*
X138388300Y-95658639D01*
X138388300Y-96515258D01*
X138417642Y-96662772D01*
X138417644Y-96662780D01*
X138440936Y-96719011D01*
X138440936Y-96719012D01*
X138475202Y-96801740D01*
X138475209Y-96801753D01*
X138558772Y-96926812D01*
X138558775Y-96926816D01*
X141103183Y-99471224D01*
X141103187Y-99471227D01*
X141228253Y-99554794D01*
X141231044Y-99555949D01*
X141231052Y-99555956D01*
X141231054Y-99555954D01*
X141367220Y-99612356D01*
X141514741Y-99641699D01*
X141514745Y-99641700D01*
X141514746Y-99641700D01*
X141665162Y-99641700D01*
X145156888Y-99641700D01*
X145223927Y-99661385D01*
X145269682Y-99714189D01*
X145279626Y-99783347D01*
X145259990Y-99834591D01*
X145202591Y-99920493D01*
X145202584Y-99920506D01*
X145139012Y-100073984D01*
X145139011Y-100073989D01*
X145106600Y-100236927D01*
X145106600Y-100403072D01*
X145139009Y-100566003D01*
X145139012Y-100566015D01*
X145202584Y-100719493D01*
X145202591Y-100719506D01*
X145294887Y-100857635D01*
X145294890Y-100857639D01*
X145412360Y-100975109D01*
X145412364Y-100975112D01*
X145550493Y-101067408D01*
X145550506Y-101067415D01*
X145655265Y-101110807D01*
X145703989Y-101130989D01*
X145777242Y-101145559D01*
X145872907Y-101164589D01*
X145872634Y-101165960D01*
X145930873Y-101189472D01*
X145941620Y-101199039D01*
X146342788Y-101600207D01*
X146376273Y-101661530D01*
X146371289Y-101731222D01*
X146329417Y-101787155D01*
X146298441Y-101804070D01*
X146237912Y-101826646D01*
X146237906Y-101826649D01*
X146122812Y-101912809D01*
X146075699Y-101975743D01*
X146019764Y-102017614D01*
X145952240Y-102023048D01*
X145910000Y-102014645D01*
X145910000Y-102800382D01*
X145859554Y-102749936D01*
X145785445Y-102707149D01*
X145702787Y-102685000D01*
X145617213Y-102685000D01*
X145534555Y-102707149D01*
X145460446Y-102749936D01*
X145410000Y-102800382D01*
X145410000Y-102014646D01*
X145409999Y-102014645D01*
X145361022Y-102024388D01*
X145361015Y-102024390D01*
X145174486Y-102101652D01*
X145174473Y-102101659D01*
X145006600Y-102213829D01*
X145006596Y-102213832D01*
X144863832Y-102356596D01*
X144863829Y-102356600D01*
X144751659Y-102524473D01*
X144751652Y-102524486D01*
X144674390Y-102711016D01*
X144674387Y-102711025D01*
X144635000Y-102909041D01*
X144635000Y-103160000D01*
X145335000Y-103160000D01*
X145335000Y-103660000D01*
X144635000Y-103660000D01*
X144635000Y-103910958D01*
X144674387Y-104108974D01*
X144674390Y-104108983D01*
X144751652Y-104295513D01*
X144751659Y-104295526D01*
X144863829Y-104463399D01*
X144863832Y-104463403D01*
X145006596Y-104606167D01*
X145006600Y-104606170D01*
X145174473Y-104718340D01*
X145174486Y-104718347D01*
X145361016Y-104795609D01*
X145361025Y-104795612D01*
X145410000Y-104805353D01*
X145410000Y-104019618D01*
X145460446Y-104070064D01*
X145534555Y-104112851D01*
X145617213Y-104135000D01*
X145702787Y-104135000D01*
X145785445Y-104112851D01*
X145859554Y-104070064D01*
X145910000Y-104019618D01*
X145910000Y-104805352D01*
X145958974Y-104795612D01*
X145958983Y-104795609D01*
X146145513Y-104718347D01*
X146145526Y-104718340D01*
X146313399Y-104606170D01*
X146313403Y-104606167D01*
X146456167Y-104463403D01*
X146456170Y-104463399D01*
X146568340Y-104295526D01*
X146568347Y-104295513D01*
X146645608Y-104108985D01*
X146645611Y-104108973D01*
X146657342Y-104050000D01*
X146654000Y-104050000D01*
X146586961Y-104030315D01*
X146541206Y-103977511D01*
X146530000Y-103926000D01*
X146530000Y-102969000D01*
X146532550Y-102960314D01*
X146531262Y-102951353D01*
X146542240Y-102927312D01*
X146549685Y-102901961D01*
X146556525Y-102896033D01*
X146560287Y-102887797D01*
X146582521Y-102873507D01*
X146602489Y-102856206D01*
X146613003Y-102853918D01*
X146619065Y-102850023D01*
X146654000Y-102845000D01*
X146655501Y-102845000D01*
X146722540Y-102864685D01*
X146768295Y-102917489D01*
X146779501Y-102969000D01*
X146779501Y-103467876D01*
X146785908Y-103527483D01*
X146836202Y-103662328D01*
X146836203Y-103662330D01*
X146927767Y-103784643D01*
X146952184Y-103850107D01*
X146952500Y-103858954D01*
X146952500Y-104411807D01*
X146976612Y-104533028D01*
X146976613Y-104533034D01*
X146976614Y-104533035D01*
X146995089Y-104577636D01*
X147023917Y-104647233D01*
X147054543Y-104693068D01*
X147058366Y-104698790D01*
X147058368Y-104698793D01*
X147092590Y-104750010D01*
X147092591Y-104750011D01*
X148172589Y-105830008D01*
X148244233Y-105901652D01*
X148259994Y-105917413D01*
X148259996Y-105917414D01*
X148362756Y-105986076D01*
X148362758Y-105986077D01*
X148362767Y-105986083D01*
X148387772Y-105996440D01*
X148410071Y-106005677D01*
X148452254Y-106023149D01*
X148476966Y-106033386D01*
X148598192Y-106057499D01*
X148598196Y-106057500D01*
X148598197Y-106057500D01*
X151201804Y-106057500D01*
X151201805Y-106057499D01*
X151323035Y-106033386D01*
X151403784Y-105999937D01*
X151437233Y-105986083D01*
X151540008Y-105917411D01*
X151627411Y-105830008D01*
X152867411Y-104590008D01*
X152905479Y-104533035D01*
X152936083Y-104487233D01*
X152973934Y-104395852D01*
X152983386Y-104373034D01*
X153007500Y-104251803D01*
X153007500Y-104128197D01*
X153007500Y-103858954D01*
X153027185Y-103791915D01*
X153032233Y-103784643D01*
X153037546Y-103777546D01*
X153123796Y-103662331D01*
X153174091Y-103527483D01*
X153180500Y-103467873D01*
X153180499Y-103140999D01*
X153182125Y-103132824D01*
X153181209Y-103127748D01*
X153189937Y-103093550D01*
X153191438Y-103089926D01*
X153235277Y-103035522D01*
X153301571Y-103013455D01*
X153369271Y-103030733D01*
X153416882Y-103081869D01*
X153430000Y-103137376D01*
X153430000Y-103926000D01*
X153410315Y-103993039D01*
X153357511Y-104038794D01*
X153306000Y-104050000D01*
X153302658Y-104050000D01*
X153314388Y-104108973D01*
X153314391Y-104108985D01*
X153391652Y-104295513D01*
X153391659Y-104295526D01*
X153503829Y-104463399D01*
X153503832Y-104463403D01*
X153646596Y-104606167D01*
X153646600Y-104606170D01*
X153814473Y-104718340D01*
X153814486Y-104718347D01*
X154001016Y-104795609D01*
X154001025Y-104795612D01*
X154050000Y-104805353D01*
X154050000Y-104019618D01*
X154100446Y-104070064D01*
X154174555Y-104112851D01*
X154257213Y-104135000D01*
X154342787Y-104135000D01*
X154425445Y-104112851D01*
X154499554Y-104070064D01*
X154550000Y-104019618D01*
X154550000Y-104805352D01*
X154598974Y-104795612D01*
X154598983Y-104795609D01*
X154785513Y-104718347D01*
X154785526Y-104718340D01*
X154953399Y-104606170D01*
X154953403Y-104606167D01*
X155096167Y-104463403D01*
X155096170Y-104463399D01*
X155208340Y-104295526D01*
X155208347Y-104295513D01*
X155285609Y-104108983D01*
X155285612Y-104108974D01*
X155324999Y-103910958D01*
X155325000Y-103910955D01*
X155325000Y-103660000D01*
X154625000Y-103660000D01*
X154625000Y-103160000D01*
X155325000Y-103160000D01*
X155325000Y-103031781D01*
X155344685Y-102964742D01*
X155397489Y-102918987D01*
X155466647Y-102909043D01*
X155530203Y-102938068D01*
X155536681Y-102944100D01*
X157689988Y-105097408D01*
X157689992Y-105097411D01*
X157792760Y-105166079D01*
X157792773Y-105166086D01*
X157906960Y-105213383D01*
X157906965Y-105213385D01*
X157906969Y-105213385D01*
X157906970Y-105213386D01*
X158028193Y-105237500D01*
X158028196Y-105237500D01*
X158028197Y-105237500D01*
X166473032Y-105237500D01*
X166540071Y-105257185D01*
X166572298Y-105287189D01*
X166632452Y-105367544D01*
X166632455Y-105367547D01*
X166747664Y-105453793D01*
X166747671Y-105453797D01*
X166882517Y-105504091D01*
X166882516Y-105504091D01*
X166889444Y-105504835D01*
X166942127Y-105510500D01*
X168211981Y-105510499D01*
X168279020Y-105530184D01*
X168299662Y-105546817D01*
X168308297Y-105555452D01*
X168318211Y-105570289D01*
X168429711Y-105681789D01*
X168444549Y-105691703D01*
X168453181Y-105700335D01*
X168464306Y-105720710D01*
X168479193Y-105738521D01*
X168482374Y-105753799D01*
X168486666Y-105761659D01*
X168485987Y-105771148D01*
X168489500Y-105788017D01*
X168489500Y-106307870D01*
X168489501Y-106307876D01*
X168495908Y-106367483D01*
X168546202Y-106502328D01*
X168546206Y-106502335D01*
X168632452Y-106617544D01*
X168632455Y-106617547D01*
X168747664Y-106703793D01*
X168747671Y-106703797D01*
X168761742Y-106709045D01*
X168882517Y-106754091D01*
X168942127Y-106760500D01*
X169372615Y-106760499D01*
X169439654Y-106780183D01*
X169485409Y-106832987D01*
X169496614Y-106883920D01*
X169499471Y-107495363D01*
X169499156Y-107504788D01*
X169484869Y-107704556D01*
X169482351Y-107722068D01*
X169440646Y-107913787D01*
X169435662Y-107930763D01*
X169367091Y-108114607D01*
X169359740Y-108130701D01*
X169356788Y-108136107D01*
X169335638Y-108164360D01*
X168664361Y-108835637D01*
X168636107Y-108856788D01*
X168630701Y-108859740D01*
X168614607Y-108867091D01*
X168430763Y-108935662D01*
X168413787Y-108940646D01*
X168222068Y-108982351D01*
X168204557Y-108984869D01*
X168023779Y-108997799D01*
X168004417Y-108999184D01*
X167995572Y-108999500D01*
X155059433Y-108999500D01*
X154992394Y-108979815D01*
X154946639Y-108927011D01*
X154936695Y-108857853D01*
X154965720Y-108794297D01*
X154971752Y-108787819D01*
X155096167Y-108663403D01*
X155096170Y-108663399D01*
X155208340Y-108495526D01*
X155208347Y-108495513D01*
X155285609Y-108308983D01*
X155285612Y-108308974D01*
X155324999Y-108110958D01*
X155325000Y-108110955D01*
X155325000Y-107660000D01*
X154625000Y-107660000D01*
X154625000Y-107160000D01*
X155325000Y-107160000D01*
X155325000Y-106709045D01*
X155324999Y-106709041D01*
X155285612Y-106511025D01*
X155285609Y-106511016D01*
X155208347Y-106324486D01*
X155208340Y-106324473D01*
X155096170Y-106156600D01*
X155096167Y-106156596D01*
X154953403Y-106013832D01*
X154953399Y-106013829D01*
X154785526Y-105901659D01*
X154785513Y-105901652D01*
X154598984Y-105824390D01*
X154598977Y-105824388D01*
X154550000Y-105814645D01*
X154550000Y-106600382D01*
X154499554Y-106549936D01*
X154425445Y-106507149D01*
X154342787Y-106485000D01*
X154257213Y-106485000D01*
X154174555Y-106507149D01*
X154100446Y-106549936D01*
X154050000Y-106600382D01*
X154050000Y-105814646D01*
X154049999Y-105814645D01*
X154001022Y-105824388D01*
X154001015Y-105824390D01*
X153814486Y-105901652D01*
X153814473Y-105901659D01*
X153646600Y-106013829D01*
X153646596Y-106013832D01*
X153503832Y-106156596D01*
X153503829Y-106156600D01*
X153391659Y-106324473D01*
X153391652Y-106324486D01*
X153314390Y-106511016D01*
X153314387Y-106511025D01*
X153275000Y-106709041D01*
X153275000Y-107160000D01*
X153975000Y-107160000D01*
X153975000Y-107660000D01*
X153275000Y-107660000D01*
X153275000Y-108110958D01*
X153314387Y-108308974D01*
X153314390Y-108308983D01*
X153391652Y-108495513D01*
X153391659Y-108495526D01*
X153503829Y-108663399D01*
X153503832Y-108663403D01*
X153628248Y-108787819D01*
X153661733Y-108849142D01*
X153656749Y-108918834D01*
X153614877Y-108974767D01*
X153549413Y-108999184D01*
X153540567Y-108999500D01*
X146419433Y-108999500D01*
X146352394Y-108979815D01*
X146306639Y-108927011D01*
X146296695Y-108857853D01*
X146325720Y-108794297D01*
X146331752Y-108787819D01*
X146456167Y-108663403D01*
X146456170Y-108663399D01*
X146568340Y-108495526D01*
X146568347Y-108495513D01*
X146645609Y-108308983D01*
X146645612Y-108308974D01*
X146684999Y-108110958D01*
X146685000Y-108110955D01*
X146685000Y-107660000D01*
X145985000Y-107660000D01*
X145985000Y-107160000D01*
X146685000Y-107160000D01*
X146685000Y-106709045D01*
X146684999Y-106709041D01*
X146645612Y-106511025D01*
X146645609Y-106511016D01*
X146568347Y-106324486D01*
X146568340Y-106324473D01*
X146456170Y-106156600D01*
X146456167Y-106156596D01*
X146313403Y-106013832D01*
X146313399Y-106013829D01*
X146145526Y-105901659D01*
X146145513Y-105901652D01*
X145958984Y-105824390D01*
X145958977Y-105824388D01*
X145910000Y-105814645D01*
X145910000Y-106600382D01*
X145859554Y-106549936D01*
X145785445Y-106507149D01*
X145702787Y-106485000D01*
X145617213Y-106485000D01*
X145534555Y-106507149D01*
X145460446Y-106549936D01*
X145410000Y-106600382D01*
X145410000Y-105814646D01*
X145409999Y-105814645D01*
X145361022Y-105824388D01*
X145361015Y-105824390D01*
X145174486Y-105901652D01*
X145174473Y-105901659D01*
X145006600Y-106013829D01*
X145006596Y-106013832D01*
X144863832Y-106156596D01*
X144863829Y-106156600D01*
X144751659Y-106324473D01*
X144751652Y-106324486D01*
X144674390Y-106511016D01*
X144674387Y-106511025D01*
X144635000Y-106709041D01*
X144635000Y-107160000D01*
X145335000Y-107160000D01*
X145335000Y-107660000D01*
X144635000Y-107660000D01*
X144635000Y-108110958D01*
X144674387Y-108308974D01*
X144674390Y-108308983D01*
X144751652Y-108495513D01*
X144751659Y-108495526D01*
X144863829Y-108663399D01*
X144863832Y-108663403D01*
X144988248Y-108787819D01*
X145021733Y-108849142D01*
X145016749Y-108918834D01*
X144974877Y-108974767D01*
X144909413Y-108999184D01*
X144900567Y-108999500D01*
X132004428Y-108999500D01*
X131995582Y-108999184D01*
X131973622Y-108997613D01*
X131795442Y-108984869D01*
X131777931Y-108982351D01*
X131586212Y-108940646D01*
X131569236Y-108935662D01*
X131430510Y-108883919D01*
X131384051Y-108853254D01*
X131327901Y-108794297D01*
X130619734Y-108050721D01*
X130614893Y-108042982D01*
X130610261Y-108039515D01*
X130593348Y-108008543D01*
X130564334Y-107930755D01*
X130559355Y-107913797D01*
X130517647Y-107722063D01*
X130515130Y-107704556D01*
X130511943Y-107660000D01*
X130500816Y-107504418D01*
X130500500Y-107495572D01*
X130500500Y-107429010D01*
X130500153Y-107423905D01*
X130497566Y-106865073D01*
X130516940Y-106797943D01*
X130569532Y-106751944D01*
X130621565Y-106740499D01*
X131037871Y-106740499D01*
X131037872Y-106740499D01*
X131097483Y-106734091D01*
X131232331Y-106683796D01*
X131347546Y-106597546D01*
X131433796Y-106482331D01*
X131484091Y-106347483D01*
X131490500Y-106287873D01*
X131490499Y-105768017D01*
X131510183Y-105700979D01*
X131526818Y-105680336D01*
X131535450Y-105671703D01*
X131550289Y-105661789D01*
X131661789Y-105550289D01*
X131671701Y-105535453D01*
X131680338Y-105526817D01*
X131700715Y-105515690D01*
X131718526Y-105500805D01*
X131733802Y-105497623D01*
X131741661Y-105493333D01*
X131751150Y-105494011D01*
X131768019Y-105490499D01*
X133037871Y-105490499D01*
X133037872Y-105490499D01*
X133097483Y-105484091D01*
X133232331Y-105433796D01*
X133347546Y-105347546D01*
X133433796Y-105232331D01*
X133484091Y-105097483D01*
X133490500Y-105037873D01*
X133490499Y-104142128D01*
X133490498Y-104142126D01*
X133490498Y-104142112D01*
X133487677Y-104115874D01*
X133500082Y-104047114D01*
X133543118Y-104000889D01*
X133542168Y-103999468D01*
X133637984Y-103935445D01*
X133650008Y-103927411D01*
X133737411Y-103840008D01*
X135422821Y-102154596D01*
X135484142Y-102121113D01*
X135553833Y-102126097D01*
X135609767Y-102167968D01*
X135634184Y-102233433D01*
X135634500Y-102242279D01*
X135634500Y-102607764D01*
X135634501Y-102607789D01*
X135637218Y-102642315D01*
X135680162Y-102790130D01*
X135680163Y-102790133D01*
X135758519Y-102922627D01*
X135758526Y-102922636D01*
X135867363Y-103031473D01*
X135867372Y-103031480D01*
X135867881Y-103031781D01*
X135999865Y-103109836D01*
X136022231Y-103116334D01*
X136147680Y-103152781D01*
X136147683Y-103152781D01*
X136147685Y-103152782D01*
X136182223Y-103155500D01*
X136957776Y-103155499D01*
X136992315Y-103152782D01*
X137140135Y-103109836D01*
X137272631Y-103031478D01*
X137272637Y-103031471D01*
X137278337Y-103027050D01*
X137343370Y-103001509D01*
X137411889Y-103015182D01*
X137429834Y-103026647D01*
X137496747Y-103077992D01*
X137644830Y-103139329D01*
X137644834Y-103139330D01*
X137763842Y-103154999D01*
X137763857Y-103155000D01*
X137880000Y-103155000D01*
X138380000Y-103155000D01*
X138496143Y-103155000D01*
X138496157Y-103154999D01*
X138615165Y-103139330D01*
X138615169Y-103139329D01*
X138763251Y-103077992D01*
X138890415Y-102980415D01*
X138987990Y-102853253D01*
X139049330Y-102705166D01*
X139049330Y-102705165D01*
X139064999Y-102586157D01*
X139065000Y-102586143D01*
X139065000Y-102440000D01*
X138380000Y-102440000D01*
X138380000Y-103155000D01*
X137880000Y-103155000D01*
X137880000Y-101940000D01*
X138380000Y-101940000D01*
X139065000Y-101940000D01*
X139065000Y-101793856D01*
X139064999Y-101793842D01*
X139049330Y-101674834D01*
X139049329Y-101674830D01*
X138987992Y-101526748D01*
X138890415Y-101399584D01*
X138763251Y-101302007D01*
X138763252Y-101302007D01*
X138615169Y-101240670D01*
X138615165Y-101240669D01*
X138496157Y-101225000D01*
X138380000Y-101225000D01*
X138380000Y-101940000D01*
X137880000Y-101940000D01*
X137880000Y-101225000D01*
X137763842Y-101225000D01*
X137644834Y-101240669D01*
X137644830Y-101240670D01*
X137496748Y-101302007D01*
X137429832Y-101353353D01*
X137364663Y-101378546D01*
X137296218Y-101364507D01*
X137278347Y-101352956D01*
X137272628Y-101348520D01*
X137199407Y-101305217D01*
X137140135Y-101270164D01*
X137140134Y-101270163D01*
X137140133Y-101270163D01*
X137140130Y-101270162D01*
X136992319Y-101227218D01*
X136992313Y-101227217D01*
X136957784Y-101224500D01*
X136957777Y-101224500D01*
X136652280Y-101224500D01*
X136585241Y-101204815D01*
X136539486Y-101152011D01*
X136529542Y-101082853D01*
X136558567Y-101019297D01*
X136564599Y-101012819D01*
X136855525Y-100721894D01*
X137337411Y-100240008D01*
X137386922Y-100165909D01*
X137406083Y-100137233D01*
X137432279Y-100073989D01*
X137453386Y-100023034D01*
X137477500Y-99901803D01*
X137477500Y-99778197D01*
X137477500Y-95641281D01*
X137497185Y-95574242D01*
X137513819Y-95553600D01*
X137599284Y-95468135D01*
X137696363Y-95371055D01*
X137757684Y-95337572D01*
X137827375Y-95342556D01*
G37*
%TD.AperFunction*%
%TA.AperFunction,Conductor*%
G36*
X168004418Y-80000816D02*
G01*
X168204561Y-80015130D01*
X168222063Y-80017647D01*
X168413797Y-80059355D01*
X168430755Y-80064334D01*
X168527059Y-80100254D01*
X168575476Y-80133024D01*
X169417865Y-81059653D01*
X169447278Y-81116706D01*
X169482351Y-81277932D01*
X169484869Y-81295443D01*
X169499184Y-81495580D01*
X169499500Y-81504427D01*
X169499500Y-82275500D01*
X169479815Y-82342539D01*
X169427011Y-82388294D01*
X169375500Y-82399500D01*
X168952129Y-82399500D01*
X168952123Y-82399501D01*
X168892516Y-82405908D01*
X168757671Y-82456202D01*
X168757664Y-82456206D01*
X168642455Y-82542452D01*
X168642452Y-82542455D01*
X168556206Y-82657664D01*
X168556202Y-82657671D01*
X168505908Y-82792517D01*
X168499501Y-82852116D01*
X168499500Y-82852135D01*
X168499500Y-83371981D01*
X168479815Y-83439020D01*
X168463229Y-83459615D01*
X168454573Y-83468279D01*
X168439711Y-83478211D01*
X168328211Y-83589711D01*
X168317982Y-83605019D01*
X168309377Y-83613634D01*
X168288978Y-83624786D01*
X168271142Y-83639694D01*
X168255912Y-83642865D01*
X168248072Y-83647152D01*
X168238565Y-83646477D01*
X168221648Y-83650000D01*
X167925000Y-83650000D01*
X167925000Y-84426000D01*
X167905315Y-84493039D01*
X167852511Y-84538794D01*
X167801000Y-84550000D01*
X167675000Y-84550000D01*
X167675000Y-84675500D01*
X167655315Y-84742539D01*
X167602511Y-84788294D01*
X167551000Y-84799500D01*
X166952129Y-84799500D01*
X166948805Y-84799679D01*
X166948799Y-84799573D01*
X166940837Y-84800000D01*
X166500000Y-84800000D01*
X166500000Y-84948500D01*
X166497449Y-84957185D01*
X166498738Y-84966147D01*
X166487759Y-84990187D01*
X166480315Y-85015539D01*
X166473474Y-85021466D01*
X166469713Y-85029703D01*
X166447478Y-85043992D01*
X166427511Y-85061294D01*
X166416996Y-85063581D01*
X166410935Y-85067477D01*
X166376000Y-85072500D01*
X166284381Y-85072500D01*
X166217342Y-85052815D01*
X166177649Y-85011621D01*
X166151480Y-84967372D01*
X166151473Y-84967363D01*
X166042636Y-84858526D01*
X166042627Y-84858519D01*
X165910133Y-84780163D01*
X165910130Y-84780162D01*
X165762319Y-84737218D01*
X165762313Y-84737217D01*
X165727777Y-84734500D01*
X164892235Y-84734500D01*
X164892210Y-84734501D01*
X164857684Y-84737218D01*
X164709869Y-84780162D01*
X164709866Y-84780163D01*
X164577372Y-84858519D01*
X164577363Y-84858526D01*
X164468526Y-84967363D01*
X164468519Y-84967372D01*
X164390163Y-85099866D01*
X164390162Y-85099869D01*
X164347218Y-85247680D01*
X164347217Y-85247686D01*
X164344500Y-85282215D01*
X164344500Y-85696718D01*
X164324815Y-85763757D01*
X164308180Y-85784399D01*
X163389992Y-86702589D01*
X163342658Y-86749923D01*
X163302589Y-86789992D01*
X163233915Y-86892770D01*
X163226572Y-86910499D01*
X163186614Y-87006964D01*
X163186612Y-87006972D01*
X163166752Y-87106811D01*
X163166753Y-87106812D01*
X163162500Y-87128196D01*
X163162500Y-96388719D01*
X163142815Y-96455758D01*
X163126181Y-96476400D01*
X162776400Y-96826181D01*
X162715077Y-96859666D01*
X162688719Y-96862500D01*
X156784575Y-96862500D01*
X156717536Y-96842815D01*
X156671781Y-96790011D01*
X156661837Y-96720853D01*
X156690862Y-96657297D01*
X156741242Y-96622318D01*
X156792086Y-96603354D01*
X156792093Y-96603350D01*
X156907185Y-96517191D01*
X156907191Y-96517185D01*
X156912802Y-96509691D01*
X156968734Y-96467819D01*
X157012070Y-96460000D01*
X161925000Y-96460000D01*
X161925000Y-84102155D01*
X166500000Y-84102155D01*
X166500000Y-84300000D01*
X167425000Y-84300000D01*
X167425000Y-83650000D01*
X166952155Y-83650000D01*
X166892627Y-83656401D01*
X166892620Y-83656403D01*
X166757913Y-83706645D01*
X166757906Y-83706649D01*
X166642812Y-83792809D01*
X166642809Y-83792812D01*
X166556649Y-83907906D01*
X166556645Y-83907913D01*
X166506403Y-84042620D01*
X166506401Y-84042627D01*
X166500000Y-84102155D01*
X161925000Y-84102155D01*
X161925000Y-81060000D01*
X157012070Y-81060000D01*
X156945031Y-81040315D01*
X156912802Y-81010309D01*
X156907191Y-81002814D01*
X156907185Y-81002808D01*
X156792093Y-80916649D01*
X156792086Y-80916645D01*
X156657379Y-80866403D01*
X156657372Y-80866401D01*
X156597844Y-80860000D01*
X156400000Y-80860000D01*
X156400000Y-82688638D01*
X156380315Y-82755677D01*
X156363681Y-82776319D01*
X156350000Y-82790000D01*
X156350000Y-94730000D01*
X156363681Y-94743681D01*
X156397166Y-94805004D01*
X156400000Y-94831362D01*
X156400000Y-95636000D01*
X156380315Y-95703039D01*
X156327511Y-95748794D01*
X156276000Y-95760000D01*
X156024000Y-95760000D01*
X155956961Y-95740315D01*
X155911206Y-95687511D01*
X155900000Y-95636000D01*
X155900000Y-94910000D01*
X155548069Y-94910000D01*
X155504736Y-94902182D01*
X155407486Y-94865910D01*
X155407485Y-94865909D01*
X155407483Y-94865909D01*
X155347873Y-94859500D01*
X155347863Y-94859500D01*
X154852129Y-94859500D01*
X154852123Y-94859501D01*
X154792516Y-94865908D01*
X154718332Y-94893577D01*
X154648640Y-94898561D01*
X154631668Y-94893577D01*
X154557488Y-94865910D01*
X154557484Y-94865909D01*
X154557483Y-94865909D01*
X154497873Y-94859500D01*
X154497863Y-94859500D01*
X154002129Y-94859500D01*
X154002123Y-94859501D01*
X153942516Y-94865908D01*
X153867617Y-94893844D01*
X153797926Y-94898828D01*
X153780952Y-94893844D01*
X153707379Y-94866403D01*
X153707372Y-94866401D01*
X153647844Y-94860000D01*
X153600000Y-94860000D01*
X153600000Y-95111930D01*
X153592182Y-95155263D01*
X153560578Y-95240000D01*
X153555909Y-95252517D01*
X153549500Y-95312127D01*
X153549500Y-95759760D01*
X153549501Y-95760000D01*
X153549501Y-96207876D01*
X153555908Y-96267481D01*
X153564997Y-96291850D01*
X153592182Y-96364737D01*
X153600000Y-96408068D01*
X153600000Y-96660000D01*
X153647828Y-96660000D01*
X153647839Y-96659999D01*
X153696653Y-96654750D01*
X153765412Y-96667154D01*
X153816551Y-96714763D01*
X153833832Y-96782461D01*
X153811769Y-96848756D01*
X153791651Y-96870560D01*
X153791671Y-96870580D01*
X153791183Y-96871067D01*
X153788583Y-96873886D01*
X153787366Y-96874884D01*
X153669890Y-96992360D01*
X153669887Y-96992364D01*
X153577591Y-97130493D01*
X153577584Y-97130506D01*
X153514012Y-97283984D01*
X153514009Y-97283996D01*
X153481600Y-97446927D01*
X153481600Y-97613072D01*
X153514009Y-97776003D01*
X153514012Y-97776015D01*
X153577584Y-97929493D01*
X153577591Y-97929506D01*
X153669887Y-98067635D01*
X153669890Y-98067639D01*
X153787360Y-98185109D01*
X153787364Y-98185112D01*
X153925493Y-98277408D01*
X153925506Y-98277415D01*
X154078984Y-98340987D01*
X154078989Y-98340989D01*
X154241927Y-98373399D01*
X154241931Y-98373400D01*
X154241932Y-98373400D01*
X154408069Y-98373400D01*
X154408070Y-98373399D01*
X154571011Y-98340989D01*
X154724500Y-98277412D01*
X154862636Y-98185112D01*
X154980112Y-98067636D01*
X155072412Y-97929500D01*
X155093558Y-97878446D01*
X155114149Y-97852894D01*
X155133809Y-97826633D01*
X155135957Y-97825831D01*
X155137397Y-97824045D01*
X155168536Y-97813680D01*
X155199273Y-97802216D01*
X155201514Y-97802703D01*
X155203691Y-97801979D01*
X155235490Y-97810094D01*
X155267546Y-97817068D01*
X155269993Y-97818900D01*
X155271391Y-97819257D01*
X155295800Y-97838219D01*
X155347589Y-97890008D01*
X155409192Y-97951611D01*
X155434994Y-97977413D01*
X155434997Y-97977414D01*
X155537767Y-98046083D01*
X155571215Y-98059937D01*
X155651965Y-98093386D01*
X155773192Y-98117499D01*
X155773196Y-98117500D01*
X155773197Y-98117500D01*
X163061804Y-98117500D01*
X163061805Y-98117499D01*
X163183035Y-98093386D01*
X163263784Y-98059937D01*
X163297233Y-98046083D01*
X163400008Y-97977411D01*
X163487411Y-97890008D01*
X164277411Y-97100008D01*
X164309334Y-97052232D01*
X164346083Y-96997233D01*
X164369726Y-96940153D01*
X164393386Y-96883034D01*
X164417500Y-96761803D01*
X164417500Y-96638197D01*
X164417500Y-88163531D01*
X164437185Y-88096492D01*
X164489989Y-88050737D01*
X164559147Y-88040793D01*
X164616987Y-88065155D01*
X164646750Y-88087993D01*
X164794830Y-88149329D01*
X164794834Y-88149330D01*
X164913842Y-88164999D01*
X164913857Y-88165000D01*
X165060000Y-88165000D01*
X165060000Y-87354000D01*
X165079685Y-87286961D01*
X165132489Y-87241206D01*
X165184000Y-87230000D01*
X165436000Y-87230000D01*
X165503039Y-87249685D01*
X165548794Y-87302489D01*
X165560000Y-87354000D01*
X165560000Y-88165000D01*
X165706143Y-88165000D01*
X165706157Y-88164999D01*
X165825165Y-88149330D01*
X165825169Y-88149329D01*
X165973251Y-88087992D01*
X166100415Y-87990415D01*
X166197992Y-87863251D01*
X166259329Y-87715169D01*
X166259330Y-87715165D01*
X166274999Y-87596157D01*
X166275000Y-87596143D01*
X166275000Y-87424249D01*
X166294685Y-87357210D01*
X166347489Y-87311455D01*
X166416647Y-87301511D01*
X166480203Y-87330536D01*
X166515182Y-87380916D01*
X166556645Y-87492086D01*
X166556649Y-87492093D01*
X166642809Y-87607187D01*
X166642812Y-87607190D01*
X166757906Y-87693350D01*
X166757913Y-87693354D01*
X166892620Y-87743596D01*
X166892627Y-87743598D01*
X166952155Y-87749999D01*
X166952172Y-87750000D01*
X167425000Y-87750000D01*
X167425000Y-86974000D01*
X167444685Y-86906961D01*
X167497489Y-86861206D01*
X167549000Y-86850000D01*
X167801000Y-86850000D01*
X167868039Y-86869685D01*
X167913794Y-86922489D01*
X167925000Y-86974000D01*
X167925000Y-87750000D01*
X168221648Y-87750000D01*
X168288687Y-87769685D01*
X168309376Y-87786366D01*
X168317984Y-87794983D01*
X168328211Y-87810289D01*
X168439711Y-87921789D01*
X168454574Y-87931720D01*
X168463228Y-87940383D01*
X168474326Y-87960733D01*
X168489193Y-87978521D01*
X168492384Y-87993847D01*
X168496680Y-88001724D01*
X168495997Y-88011197D01*
X168499500Y-88028017D01*
X168499500Y-88547870D01*
X168499501Y-88547876D01*
X168505908Y-88607483D01*
X168556202Y-88742328D01*
X168556206Y-88742335D01*
X168642452Y-88857544D01*
X168642455Y-88857547D01*
X168757664Y-88943793D01*
X168757671Y-88943797D01*
X168796267Y-88958192D01*
X168892517Y-88994091D01*
X168952127Y-89000500D01*
X169374407Y-89000499D01*
X169441446Y-89020183D01*
X169487201Y-89072987D01*
X169498407Y-89124588D01*
X169490591Y-100035589D01*
X169470858Y-100102614D01*
X169418022Y-100148331D01*
X169366591Y-100159500D01*
X168942129Y-100159500D01*
X168942123Y-100159501D01*
X168882516Y-100165908D01*
X168747671Y-100216202D01*
X168747664Y-100216206D01*
X168632455Y-100302452D01*
X168632452Y-100302455D01*
X168546206Y-100417664D01*
X168546202Y-100417671D01*
X168495908Y-100552517D01*
X168489501Y-100612116D01*
X168489500Y-100612135D01*
X168489500Y-101131981D01*
X168469815Y-101199020D01*
X168453181Y-101219662D01*
X168444542Y-101228300D01*
X168429711Y-101238211D01*
X168318211Y-101349711D01*
X168308301Y-101364541D01*
X168299662Y-101373181D01*
X168279283Y-101384308D01*
X168261466Y-101399198D01*
X168246192Y-101402377D01*
X168238339Y-101406666D01*
X168228852Y-101405987D01*
X168211981Y-101409500D01*
X166942129Y-101409500D01*
X166942123Y-101409501D01*
X166882516Y-101415908D01*
X166747671Y-101466202D01*
X166747664Y-101466206D01*
X166632455Y-101552452D01*
X166632452Y-101552455D01*
X166546206Y-101667664D01*
X166546202Y-101667671D01*
X166495908Y-101802517D01*
X166489501Y-101862116D01*
X166489500Y-101862135D01*
X166489501Y-102708500D01*
X166469817Y-102775539D01*
X166417013Y-102821294D01*
X166365501Y-102832500D01*
X157901281Y-102832500D01*
X157834242Y-102812815D01*
X157813600Y-102796181D01*
X155494097Y-100476678D01*
X157296000Y-100476678D01*
X157296000Y-100658321D01*
X157324415Y-100837725D01*
X157380548Y-101010484D01*
X157463012Y-101172330D01*
X157463014Y-101172334D01*
X157475048Y-101188895D01*
X157475049Y-101188896D01*
X158050000Y-100613945D01*
X158050000Y-100620161D01*
X158077259Y-100721894D01*
X158129920Y-100813106D01*
X158204394Y-100887580D01*
X158295606Y-100940241D01*
X158397339Y-100967500D01*
X158403554Y-100967500D01*
X157828602Y-101542449D01*
X157828603Y-101542450D01*
X157845165Y-101554485D01*
X157845179Y-101554493D01*
X158007012Y-101636950D01*
X158179774Y-101693084D01*
X158359179Y-101721500D01*
X158540821Y-101721500D01*
X158720225Y-101693084D01*
X158892984Y-101636951D01*
X159054831Y-101554486D01*
X159071396Y-101542449D01*
X158496447Y-100967500D01*
X158502661Y-100967500D01*
X158604394Y-100940241D01*
X158695606Y-100887580D01*
X158770080Y-100813106D01*
X158822741Y-100721894D01*
X158850000Y-100620161D01*
X158850000Y-100613946D01*
X159259181Y-101023127D01*
X159292666Y-101084450D01*
X159295500Y-101110807D01*
X159295500Y-101269369D01*
X159295501Y-101269376D01*
X159301908Y-101328983D01*
X159352202Y-101463828D01*
X159352206Y-101463835D01*
X159438452Y-101579044D01*
X159438455Y-101579047D01*
X159553664Y-101665293D01*
X159553671Y-101665297D01*
X159688517Y-101715591D01*
X159688516Y-101715591D01*
X159695444Y-101716335D01*
X159748127Y-101722000D01*
X161151872Y-101721999D01*
X161211483Y-101715591D01*
X161346331Y-101665296D01*
X161461546Y-101579046D01*
X161547796Y-101463831D01*
X161598091Y-101328983D01*
X161604500Y-101269373D01*
X161604499Y-99865628D01*
X161598091Y-99806017D01*
X161572717Y-99737987D01*
X161547797Y-99671171D01*
X161547793Y-99671164D01*
X161461546Y-99555954D01*
X161461544Y-99555952D01*
X161346335Y-99469706D01*
X161346328Y-99469702D01*
X161211482Y-99419408D01*
X161211483Y-99419408D01*
X161151883Y-99413001D01*
X161151881Y-99413000D01*
X161151873Y-99413000D01*
X161151864Y-99413000D01*
X159748129Y-99413000D01*
X159748123Y-99413001D01*
X159688516Y-99419408D01*
X159553671Y-99469702D01*
X159553664Y-99469706D01*
X159438455Y-99555952D01*
X159438454Y-99555954D01*
X159352206Y-99671164D01*
X159352202Y-99671171D01*
X159301908Y-99806017D01*
X159295651Y-99864218D01*
X159295501Y-99865623D01*
X159295500Y-99865635D01*
X159295500Y-100024191D01*
X159275815Y-100091230D01*
X159259181Y-100111872D01*
X158850000Y-100521053D01*
X158850000Y-100514839D01*
X158822741Y-100413106D01*
X158770080Y-100321894D01*
X158695606Y-100247420D01*
X158604394Y-100194759D01*
X158502661Y-100167500D01*
X158496447Y-100167500D01*
X159071396Y-99592549D01*
X159071395Y-99592548D01*
X159054834Y-99580514D01*
X159054830Y-99580512D01*
X158892984Y-99498048D01*
X158720225Y-99441915D01*
X158540821Y-99413500D01*
X158359179Y-99413500D01*
X158179774Y-99441915D01*
X158007015Y-99498048D01*
X157845170Y-99580512D01*
X157845161Y-99580518D01*
X157828603Y-99592548D01*
X157828602Y-99592549D01*
X158403554Y-100167500D01*
X158397339Y-100167500D01*
X158295606Y-100194759D01*
X158204394Y-100247420D01*
X158129920Y-100321894D01*
X158077259Y-100413106D01*
X158050000Y-100514839D01*
X158050000Y-100521053D01*
X157475049Y-99946102D01*
X157475048Y-99946103D01*
X157463018Y-99962661D01*
X157463012Y-99962670D01*
X157380548Y-100124515D01*
X157324415Y-100297274D01*
X157296000Y-100476678D01*
X155494097Y-100476678D01*
X151887389Y-96869970D01*
X151853904Y-96808647D01*
X151858888Y-96738955D01*
X151900760Y-96683022D01*
X151943283Y-96662432D01*
X151952411Y-96660010D01*
X152007483Y-96654091D01*
X152088076Y-96624031D01*
X152093927Y-96622480D01*
X152123037Y-96623247D01*
X152152071Y-96621171D01*
X152162707Y-96624293D01*
X152163772Y-96624322D01*
X152164507Y-96624822D01*
X152169049Y-96626156D01*
X152242621Y-96653597D01*
X152302155Y-96659999D01*
X152302172Y-96660000D01*
X152350000Y-96660000D01*
X152750000Y-96660000D01*
X152797828Y-96660000D01*
X152797844Y-96659999D01*
X152857371Y-96653598D01*
X152931666Y-96625888D01*
X153001358Y-96620904D01*
X153018334Y-96625888D01*
X153092628Y-96653598D01*
X153092627Y-96653598D01*
X153152155Y-96659999D01*
X153152172Y-96660000D01*
X153200000Y-96660000D01*
X153200000Y-95960000D01*
X152750000Y-95960000D01*
X152750000Y-96660000D01*
X152350000Y-96660000D01*
X152350000Y-96408068D01*
X152357817Y-96364737D01*
X152394091Y-96267483D01*
X152400500Y-96207873D01*
X152400499Y-95560000D01*
X152750000Y-95560000D01*
X153200000Y-95560000D01*
X153200000Y-94860000D01*
X153152155Y-94860000D01*
X153092627Y-94866401D01*
X153092617Y-94866403D01*
X153018332Y-94894110D01*
X152948641Y-94899094D01*
X152931668Y-94894110D01*
X152857382Y-94866403D01*
X152857372Y-94866401D01*
X152797844Y-94860000D01*
X152750000Y-94860000D01*
X152750000Y-95560000D01*
X152400499Y-95560000D01*
X152400499Y-95312128D01*
X152394091Y-95252517D01*
X152389422Y-95240000D01*
X152357818Y-95155263D01*
X152350000Y-95111930D01*
X152350000Y-94860000D01*
X152302155Y-94860000D01*
X152242627Y-94866401D01*
X152242623Y-94866402D01*
X152169046Y-94893844D01*
X152099354Y-94898827D01*
X152082382Y-94893843D01*
X152007488Y-94865910D01*
X152007484Y-94865909D01*
X152007483Y-94865909D01*
X151947873Y-94859500D01*
X151947863Y-94859500D01*
X151452129Y-94859500D01*
X151452123Y-94859501D01*
X151392516Y-94865908D01*
X151318332Y-94893577D01*
X151248640Y-94898561D01*
X151231668Y-94893577D01*
X151157488Y-94865910D01*
X151157484Y-94865909D01*
X151157483Y-94865909D01*
X151097873Y-94859500D01*
X151097863Y-94859500D01*
X150602129Y-94859500D01*
X150602123Y-94859501D01*
X150542516Y-94865908D01*
X150468332Y-94893577D01*
X150398640Y-94898561D01*
X150381668Y-94893577D01*
X150307488Y-94865910D01*
X150307484Y-94865909D01*
X150307483Y-94865909D01*
X150247873Y-94859500D01*
X150247863Y-94859500D01*
X149752129Y-94859500D01*
X149752123Y-94859501D01*
X149692516Y-94865908D01*
X149618332Y-94893577D01*
X149548640Y-94898561D01*
X149531668Y-94893577D01*
X149457488Y-94865910D01*
X149457484Y-94865909D01*
X149457483Y-94865909D01*
X149397873Y-94859500D01*
X149397863Y-94859500D01*
X148902129Y-94859500D01*
X148902123Y-94859501D01*
X148842516Y-94865908D01*
X148768332Y-94893577D01*
X148698640Y-94898561D01*
X148681668Y-94893577D01*
X148607488Y-94865910D01*
X148607484Y-94865909D01*
X148607483Y-94865909D01*
X148547873Y-94859500D01*
X148547863Y-94859500D01*
X148052129Y-94859500D01*
X148052123Y-94859501D01*
X147992516Y-94865908D01*
X147918332Y-94893577D01*
X147848640Y-94898561D01*
X147831668Y-94893577D01*
X147757488Y-94865910D01*
X147757484Y-94865909D01*
X147757483Y-94865909D01*
X147697873Y-94859500D01*
X147697863Y-94859500D01*
X147202129Y-94859500D01*
X147202123Y-94859501D01*
X147142516Y-94865908D01*
X147068332Y-94893577D01*
X146998640Y-94898561D01*
X146981668Y-94893577D01*
X146907488Y-94865910D01*
X146907484Y-94865909D01*
X146907483Y-94865909D01*
X146847873Y-94859500D01*
X146847863Y-94859500D01*
X146352129Y-94859500D01*
X146352120Y-94859501D01*
X146320652Y-94862884D01*
X146251893Y-94850477D01*
X146200757Y-94802865D01*
X146183400Y-94739594D01*
X146183400Y-94696931D01*
X146183399Y-94696927D01*
X146173631Y-94647819D01*
X146150989Y-94533989D01*
X146142125Y-94512589D01*
X146087415Y-94380506D01*
X146087408Y-94380493D01*
X145995112Y-94242364D01*
X145995109Y-94242360D01*
X145877639Y-94124890D01*
X145877631Y-94124884D01*
X145858009Y-94111773D01*
X145857959Y-94111740D01*
X145852128Y-94107844D01*
X155250000Y-94107844D01*
X155256401Y-94167372D01*
X155256403Y-94167382D01*
X155284110Y-94241668D01*
X155289094Y-94311359D01*
X155284110Y-94328332D01*
X155256403Y-94402617D01*
X155256401Y-94402627D01*
X155250000Y-94462155D01*
X155250000Y-94510000D01*
X155950000Y-94510000D01*
X155950000Y-94060000D01*
X155250000Y-94060000D01*
X155250000Y-94107844D01*
X145852128Y-94107844D01*
X145739505Y-94032591D01*
X145739493Y-94032584D01*
X145586015Y-93969012D01*
X145586003Y-93969009D01*
X145417093Y-93935411D01*
X145417365Y-93934043D01*
X145359110Y-93910514D01*
X145348379Y-93900960D01*
X144720188Y-93272769D01*
X144712038Y-93257844D01*
X155250000Y-93257844D01*
X155256401Y-93317372D01*
X155256403Y-93317382D01*
X155284110Y-93391668D01*
X155289094Y-93461359D01*
X155284110Y-93478332D01*
X155256403Y-93552617D01*
X155256401Y-93552627D01*
X155250000Y-93612155D01*
X155250000Y-93660000D01*
X155950000Y-93660000D01*
X155950000Y-93210000D01*
X155250000Y-93210000D01*
X155250000Y-93257844D01*
X144712038Y-93257844D01*
X144705484Y-93245841D01*
X144688892Y-93220023D01*
X144688000Y-93213822D01*
X144686703Y-93211446D01*
X144683869Y-93185088D01*
X144683869Y-92407844D01*
X155250000Y-92407844D01*
X155256401Y-92467372D01*
X155256403Y-92467382D01*
X155284110Y-92541668D01*
X155289094Y-92611359D01*
X155284110Y-92628332D01*
X155256403Y-92702617D01*
X155256401Y-92702627D01*
X155250000Y-92762155D01*
X155250000Y-92810000D01*
X155950000Y-92810000D01*
X155950000Y-92360000D01*
X155250000Y-92360000D01*
X155250000Y-92407844D01*
X144683869Y-92407844D01*
X144683869Y-91557836D01*
X155250000Y-91557836D01*
X155256401Y-91617372D01*
X155256403Y-91617382D01*
X155284110Y-91691668D01*
X155289094Y-91761359D01*
X155284110Y-91778332D01*
X155256403Y-91852617D01*
X155256401Y-91852627D01*
X155250000Y-91912155D01*
X155250000Y-91960000D01*
X155950000Y-91960000D01*
X155950000Y-91510000D01*
X155250000Y-91510000D01*
X155250000Y-91557836D01*
X144683869Y-91557836D01*
X144683869Y-91057844D01*
X146400000Y-91057844D01*
X146406401Y-91117372D01*
X146406403Y-91117379D01*
X146456645Y-91252086D01*
X146456649Y-91252093D01*
X146542809Y-91367187D01*
X146542812Y-91367190D01*
X146657906Y-91453350D01*
X146657913Y-91453354D01*
X146792620Y-91503596D01*
X146792627Y-91503598D01*
X146852155Y-91509999D01*
X146852172Y-91510000D01*
X147250000Y-91510000D01*
X147750000Y-91510000D01*
X148147828Y-91510000D01*
X148147844Y-91509999D01*
X148207371Y-91503598D01*
X148281666Y-91475888D01*
X148351358Y-91470904D01*
X148368334Y-91475888D01*
X148442628Y-91503598D01*
X148442627Y-91503598D01*
X148502155Y-91509999D01*
X148502172Y-91510000D01*
X148900000Y-91510000D01*
X149400000Y-91510000D01*
X149797828Y-91510000D01*
X149797844Y-91509999D01*
X149857371Y-91503598D01*
X149931666Y-91475888D01*
X150001358Y-91470904D01*
X150018334Y-91475888D01*
X150092628Y-91503598D01*
X150092627Y-91503598D01*
X150152155Y-91509999D01*
X150152172Y-91510000D01*
X150550000Y-91510000D01*
X151050000Y-91510000D01*
X151447828Y-91510000D01*
X151447844Y-91509999D01*
X151507372Y-91503598D01*
X151507379Y-91503596D01*
X151642086Y-91453354D01*
X151642093Y-91453350D01*
X151757187Y-91367190D01*
X151757190Y-91367187D01*
X151843350Y-91252093D01*
X151843354Y-91252086D01*
X151893596Y-91117379D01*
X151893598Y-91117372D01*
X151899999Y-91057844D01*
X151900000Y-91057827D01*
X151900000Y-90707844D01*
X155250000Y-90707844D01*
X155256401Y-90767372D01*
X155256403Y-90767382D01*
X155284110Y-90841668D01*
X155289094Y-90911359D01*
X155284110Y-90928332D01*
X155256403Y-91002617D01*
X155256401Y-91002627D01*
X155250000Y-91062155D01*
X155250000Y-91110000D01*
X155950000Y-91110000D01*
X155950000Y-90660000D01*
X155250000Y-90660000D01*
X155250000Y-90707844D01*
X151900000Y-90707844D01*
X151900000Y-90660000D01*
X151050000Y-90660000D01*
X151050000Y-91510000D01*
X150550000Y-91510000D01*
X150550000Y-90660000D01*
X149400000Y-90660000D01*
X149400000Y-91510000D01*
X148900000Y-91510000D01*
X148900000Y-90660000D01*
X147750000Y-90660000D01*
X147750000Y-91510000D01*
X147250000Y-91510000D01*
X147250000Y-90660000D01*
X146400000Y-90660000D01*
X146400000Y-91057844D01*
X144683869Y-91057844D01*
X144683869Y-89407844D01*
X146400000Y-89407844D01*
X146406401Y-89467372D01*
X146406403Y-89467382D01*
X146434110Y-89541668D01*
X146439094Y-89611359D01*
X146434110Y-89628332D01*
X146406403Y-89702617D01*
X146406401Y-89702627D01*
X146400000Y-89762155D01*
X146400000Y-90160000D01*
X147250000Y-90160000D01*
X147750000Y-90160000D01*
X148900000Y-90160000D01*
X149400000Y-90160000D01*
X150550000Y-90160000D01*
X151050000Y-90160000D01*
X151900000Y-90160000D01*
X151900000Y-89857844D01*
X155250000Y-89857844D01*
X155256401Y-89917372D01*
X155256403Y-89917382D01*
X155284110Y-89991668D01*
X155289094Y-90061359D01*
X155284110Y-90078332D01*
X155256403Y-90152617D01*
X155256401Y-90152627D01*
X155250000Y-90212155D01*
X155250000Y-90260000D01*
X155950000Y-90260000D01*
X155950000Y-89810000D01*
X155250000Y-89810000D01*
X155250000Y-89857844D01*
X151900000Y-89857844D01*
X151900000Y-89773439D01*
X151861533Y-89614100D01*
X151862885Y-89586351D01*
X151860904Y-89558642D01*
X151864899Y-89545031D01*
X151864935Y-89544313D01*
X151865233Y-89543894D01*
X151865888Y-89541666D01*
X151893598Y-89467371D01*
X151899999Y-89407844D01*
X151900000Y-89407827D01*
X151900000Y-89010000D01*
X151050000Y-89010000D01*
X151050000Y-90160000D01*
X150550000Y-90160000D01*
X150550000Y-89010000D01*
X149400000Y-89010000D01*
X149400000Y-90160000D01*
X148900000Y-90160000D01*
X148900000Y-89010000D01*
X147750000Y-89010000D01*
X147750000Y-90160000D01*
X147250000Y-90160000D01*
X147250000Y-89010000D01*
X146400000Y-89010000D01*
X146400000Y-89407844D01*
X144683869Y-89407844D01*
X144683869Y-89007844D01*
X155250000Y-89007844D01*
X155256401Y-89067372D01*
X155256403Y-89067382D01*
X155284110Y-89141668D01*
X155289094Y-89211359D01*
X155284110Y-89228332D01*
X155256403Y-89302617D01*
X155256401Y-89302627D01*
X155250000Y-89362155D01*
X155250000Y-89410000D01*
X155950000Y-89410000D01*
X155950000Y-88960000D01*
X155250000Y-88960000D01*
X155250000Y-89007844D01*
X144683869Y-89007844D01*
X144683869Y-87757844D01*
X146400000Y-87757844D01*
X146406401Y-87817372D01*
X146406403Y-87817382D01*
X146434110Y-87891668D01*
X146439094Y-87961359D01*
X146434110Y-87978332D01*
X146406403Y-88052617D01*
X146406401Y-88052627D01*
X146400000Y-88112155D01*
X146400000Y-88510000D01*
X147250000Y-88510000D01*
X147750000Y-88510000D01*
X148900000Y-88510000D01*
X148900000Y-87360000D01*
X149400000Y-87360000D01*
X149400000Y-88510000D01*
X150550000Y-88510000D01*
X150550000Y-87631362D01*
X150569685Y-87564323D01*
X150586319Y-87543681D01*
X150600000Y-87530000D01*
X151000000Y-87530000D01*
X151013681Y-87543681D01*
X151047166Y-87605004D01*
X151050000Y-87631362D01*
X151050000Y-88510000D01*
X151900000Y-88510000D01*
X151900000Y-88157844D01*
X155250000Y-88157844D01*
X155256401Y-88217372D01*
X155256403Y-88217382D01*
X155284110Y-88291668D01*
X155289094Y-88361359D01*
X155284110Y-88378332D01*
X155256403Y-88452617D01*
X155256401Y-88452627D01*
X155250000Y-88512155D01*
X155250000Y-88560000D01*
X155950000Y-88560000D01*
X155950000Y-88110000D01*
X155250000Y-88110000D01*
X155250000Y-88157844D01*
X151900000Y-88157844D01*
X151900000Y-88112172D01*
X151899999Y-88112157D01*
X151896798Y-88082386D01*
X151870163Y-87988654D01*
X151870426Y-87958485D01*
X151868275Y-87928403D01*
X151870759Y-87920470D01*
X151870774Y-87918787D01*
X151871756Y-87917287D01*
X151874888Y-87907288D01*
X151876554Y-87903267D01*
X151894544Y-87852271D01*
X151914999Y-87709998D01*
X151915000Y-87709997D01*
X151915000Y-87310000D01*
X151000000Y-87310000D01*
X151000000Y-87530000D01*
X150600000Y-87530000D01*
X150600000Y-87310000D01*
X150380000Y-87310000D01*
X150366319Y-87323681D01*
X150304996Y-87357166D01*
X150278638Y-87360000D01*
X149400000Y-87360000D01*
X148900000Y-87360000D01*
X147750000Y-87360000D01*
X147750000Y-88510000D01*
X147250000Y-88510000D01*
X147250000Y-87360000D01*
X146400000Y-87360000D01*
X146400000Y-87757844D01*
X144683869Y-87757844D01*
X144683869Y-87307844D01*
X155250000Y-87307844D01*
X155256401Y-87367372D01*
X155256403Y-87367382D01*
X155284110Y-87441668D01*
X155289094Y-87511359D01*
X155284110Y-87528332D01*
X155256403Y-87602617D01*
X155256401Y-87602627D01*
X155250000Y-87662155D01*
X155250000Y-87710000D01*
X155950000Y-87710000D01*
X155950000Y-87260000D01*
X155250000Y-87260000D01*
X155250000Y-87307844D01*
X144683869Y-87307844D01*
X144683869Y-86462155D01*
X146400000Y-86462155D01*
X146400000Y-86860000D01*
X147250000Y-86860000D01*
X147750000Y-86860000D01*
X148900000Y-86860000D01*
X148900000Y-86010000D01*
X149400000Y-86010000D01*
X149400000Y-86860000D01*
X150278638Y-86860000D01*
X150345677Y-86879685D01*
X150366319Y-86896319D01*
X150380000Y-86910000D01*
X150600000Y-86910000D01*
X151000000Y-86910000D01*
X151873766Y-86910000D01*
X151873766Y-86909999D01*
X151873632Y-86909677D01*
X151850298Y-86860907D01*
X151764160Y-86745841D01*
X151764150Y-86745829D01*
X151476164Y-86457844D01*
X155250000Y-86457844D01*
X155256401Y-86517372D01*
X155256403Y-86517382D01*
X155284110Y-86591668D01*
X155289094Y-86661359D01*
X155284110Y-86678332D01*
X155256403Y-86752617D01*
X155256401Y-86752627D01*
X155250000Y-86812155D01*
X155250000Y-86860000D01*
X155950000Y-86860000D01*
X155950000Y-86410000D01*
X155250000Y-86410000D01*
X155250000Y-86457844D01*
X151476164Y-86457844D01*
X151464639Y-86446319D01*
X151164173Y-86145853D01*
X151164139Y-86145820D01*
X151123945Y-86109717D01*
X151000332Y-86036372D01*
X151000320Y-86036366D01*
X151000000Y-86036233D01*
X151000000Y-86910000D01*
X150600000Y-86910000D01*
X150600000Y-85995000D01*
X150199998Y-85995000D01*
X150146011Y-85997893D01*
X150006737Y-86033443D01*
X150006733Y-86033444D01*
X150002686Y-86035121D01*
X149933217Y-86042587D01*
X149911906Y-86036740D01*
X149857380Y-86016403D01*
X149857372Y-86016401D01*
X149797844Y-86010000D01*
X149400000Y-86010000D01*
X148900000Y-86010000D01*
X148502155Y-86010000D01*
X148442627Y-86016401D01*
X148442617Y-86016403D01*
X148368332Y-86044110D01*
X148298641Y-86049094D01*
X148281668Y-86044110D01*
X148207382Y-86016403D01*
X148207372Y-86016401D01*
X148147844Y-86010000D01*
X147750000Y-86010000D01*
X147750000Y-86860000D01*
X147250000Y-86860000D01*
X147250000Y-86010000D01*
X146852155Y-86010000D01*
X146792627Y-86016401D01*
X146792620Y-86016403D01*
X146657913Y-86066645D01*
X146657906Y-86066649D01*
X146542812Y-86152809D01*
X146542809Y-86152812D01*
X146456649Y-86267906D01*
X146456645Y-86267913D01*
X146406403Y-86402620D01*
X146406401Y-86402627D01*
X146400000Y-86462155D01*
X144683869Y-86462155D01*
X144683869Y-85607844D01*
X155250000Y-85607844D01*
X155256401Y-85667372D01*
X155256403Y-85667382D01*
X155284110Y-85741668D01*
X155289094Y-85811359D01*
X155284110Y-85828332D01*
X155256403Y-85902617D01*
X155256401Y-85902627D01*
X155250000Y-85962155D01*
X155250000Y-86010000D01*
X155950000Y-86010000D01*
X155950000Y-85560000D01*
X155250000Y-85560000D01*
X155250000Y-85607844D01*
X144683869Y-85607844D01*
X144683869Y-85577107D01*
X144703554Y-85510068D01*
X144756358Y-85464313D01*
X144810840Y-85455238D01*
X144810840Y-85453400D01*
X144983069Y-85453400D01*
X144983070Y-85453399D01*
X145146011Y-85420989D01*
X145299500Y-85357412D01*
X145437636Y-85265112D01*
X145555112Y-85147636D01*
X145647412Y-85009500D01*
X145710989Y-84856011D01*
X145730515Y-84757844D01*
X155250000Y-84757844D01*
X155256401Y-84817372D01*
X155256403Y-84817382D01*
X155284110Y-84891668D01*
X155289094Y-84961359D01*
X155284110Y-84978332D01*
X155256403Y-85052617D01*
X155256401Y-85052627D01*
X155250000Y-85112155D01*
X155250000Y-85160000D01*
X155950000Y-85160000D01*
X155950000Y-84710000D01*
X155250000Y-84710000D01*
X155250000Y-84757844D01*
X145730515Y-84757844D01*
X145743400Y-84693068D01*
X145743400Y-84526932D01*
X145735944Y-84489450D01*
X145735533Y-84479961D01*
X145741726Y-84454898D01*
X145744027Y-84429189D01*
X145749970Y-84421537D01*
X145752295Y-84412132D01*
X145771051Y-84394399D01*
X145786889Y-84374011D01*
X145797503Y-84369390D01*
X145803066Y-84364132D01*
X145814556Y-84361968D01*
X145835226Y-84352971D01*
X145882718Y-84343524D01*
X145996011Y-84320989D01*
X146127820Y-84266392D01*
X146149493Y-84257415D01*
X146149493Y-84257414D01*
X146149500Y-84257412D01*
X146287636Y-84165112D01*
X146405112Y-84047636D01*
X146497412Y-83909500D01*
X146560989Y-83756011D01*
X146593400Y-83593068D01*
X146593400Y-83426932D01*
X146560989Y-83263989D01*
X146528271Y-83185000D01*
X146497415Y-83110506D01*
X146497408Y-83110493D01*
X146401728Y-82967299D01*
X146402888Y-82966523D01*
X146395941Y-82950165D01*
X146382523Y-82929285D01*
X146380192Y-82913078D01*
X146378333Y-82908699D01*
X146377500Y-82894350D01*
X146377500Y-82784499D01*
X146397185Y-82717460D01*
X146449989Y-82671705D01*
X146501500Y-82660499D01*
X146847871Y-82660499D01*
X146847872Y-82660499D01*
X146907483Y-82654091D01*
X146981667Y-82626421D01*
X147051358Y-82621438D01*
X147068327Y-82626420D01*
X147142517Y-82654091D01*
X147202127Y-82660500D01*
X147697872Y-82660499D01*
X147757483Y-82654091D01*
X147831667Y-82626421D01*
X147901358Y-82621438D01*
X147918327Y-82626420D01*
X147992517Y-82654091D01*
X148052127Y-82660500D01*
X148547872Y-82660499D01*
X148607483Y-82654091D01*
X148681667Y-82626421D01*
X148751358Y-82621438D01*
X148768327Y-82626420D01*
X148842517Y-82654091D01*
X148902127Y-82660500D01*
X149397872Y-82660499D01*
X149457483Y-82654091D01*
X149531667Y-82626421D01*
X149601358Y-82621438D01*
X149618327Y-82626420D01*
X149692517Y-82654091D01*
X149752127Y-82660500D01*
X150247872Y-82660499D01*
X150307483Y-82654091D01*
X150381667Y-82626421D01*
X150451358Y-82621438D01*
X150468327Y-82626420D01*
X150542517Y-82654091D01*
X150602127Y-82660500D01*
X151097872Y-82660499D01*
X151157483Y-82654091D01*
X151231667Y-82626421D01*
X151301358Y-82621438D01*
X151318327Y-82626420D01*
X151392517Y-82654091D01*
X151452127Y-82660500D01*
X151947872Y-82660499D01*
X152007483Y-82654091D01*
X152081667Y-82626421D01*
X152108026Y-82624536D01*
X152133848Y-82618920D01*
X152146890Y-82621757D01*
X152151358Y-82621438D01*
X152168335Y-82626423D01*
X152189008Y-82634134D01*
X152244941Y-82676006D01*
X152269357Y-82741471D01*
X152254504Y-82809744D01*
X152216921Y-82850841D01*
X152217072Y-82851024D01*
X152215800Y-82852067D01*
X152214570Y-82853413D01*
X152212367Y-82854885D01*
X152212360Y-82854890D01*
X152094890Y-82972360D01*
X152094887Y-82972364D01*
X152002591Y-83110493D01*
X152002584Y-83110506D01*
X151939012Y-83263984D01*
X151939009Y-83263996D01*
X151906600Y-83426927D01*
X151906600Y-83593072D01*
X151939009Y-83756003D01*
X151939012Y-83756015D01*
X152002584Y-83909493D01*
X152002591Y-83909506D01*
X152094887Y-84047635D01*
X152094890Y-84047639D01*
X152212360Y-84165109D01*
X152212364Y-84165112D01*
X152350493Y-84257408D01*
X152350506Y-84257415D01*
X152477459Y-84310000D01*
X152503989Y-84320989D01*
X152664775Y-84352971D01*
X152666927Y-84353399D01*
X152666931Y-84353400D01*
X152666932Y-84353400D01*
X152833069Y-84353400D01*
X152833070Y-84353399D01*
X152996011Y-84320989D01*
X153127820Y-84266392D01*
X153149493Y-84257415D01*
X153149493Y-84257414D01*
X153149500Y-84257412D01*
X153287636Y-84165112D01*
X153405112Y-84047636D01*
X153497412Y-83909500D01*
X153498098Y-83907844D01*
X155250000Y-83907844D01*
X155256401Y-83967372D01*
X155256403Y-83967382D01*
X155284110Y-84041668D01*
X155289094Y-84111359D01*
X155284110Y-84128332D01*
X155256403Y-84202617D01*
X155256401Y-84202627D01*
X155250000Y-84262155D01*
X155250000Y-84310000D01*
X155950000Y-84310000D01*
X155950000Y-83860000D01*
X155250000Y-83860000D01*
X155250000Y-83907844D01*
X153498098Y-83907844D01*
X153560989Y-83756011D01*
X153593400Y-83593068D01*
X153593400Y-83589773D01*
X153595461Y-83580134D01*
X153608900Y-83555311D01*
X153619470Y-83529128D01*
X153628676Y-83518785D01*
X153628727Y-83518692D01*
X153628790Y-83518656D01*
X153629021Y-83518397D01*
X153887411Y-83260008D01*
X153915701Y-83217669D01*
X153956083Y-83157233D01*
X153997239Y-83057873D01*
X153997251Y-83057844D01*
X155250000Y-83057844D01*
X155256401Y-83117372D01*
X155256403Y-83117382D01*
X155284110Y-83191668D01*
X155289094Y-83261359D01*
X155284110Y-83278332D01*
X155256403Y-83352617D01*
X155256401Y-83352627D01*
X155250000Y-83412155D01*
X155250000Y-83460000D01*
X155950000Y-83460000D01*
X155950000Y-83010000D01*
X155250000Y-83010000D01*
X155250000Y-83057844D01*
X153997251Y-83057844D01*
X154003386Y-83043034D01*
X154027500Y-82921803D01*
X154027500Y-82798197D01*
X154027500Y-82733862D01*
X154047185Y-82666823D01*
X154050000Y-82663329D01*
X154050000Y-82660000D01*
X154450000Y-82660000D01*
X154497828Y-82660000D01*
X154497844Y-82659999D01*
X154557371Y-82653598D01*
X154631666Y-82625888D01*
X154701358Y-82620904D01*
X154718334Y-82625888D01*
X154792628Y-82653598D01*
X154792627Y-82653598D01*
X154852155Y-82659999D01*
X154852172Y-82660000D01*
X154900000Y-82660000D01*
X154900000Y-82610000D01*
X155300000Y-82610000D01*
X155900000Y-82610000D01*
X155900000Y-82010000D01*
X155300000Y-82010000D01*
X155300000Y-82610000D01*
X154900000Y-82610000D01*
X154900000Y-81960000D01*
X154450000Y-81960000D01*
X154450000Y-82660000D01*
X154050000Y-82660000D01*
X154050000Y-82408068D01*
X154057817Y-82364737D01*
X154094091Y-82267483D01*
X154100500Y-82207873D01*
X154100499Y-81560000D01*
X154450000Y-81560000D01*
X154900000Y-81560000D01*
X154900000Y-81510000D01*
X155300000Y-81510000D01*
X155900000Y-81510000D01*
X155900000Y-80860000D01*
X155702155Y-80860000D01*
X155642627Y-80866401D01*
X155642617Y-80866403D01*
X155568332Y-80894110D01*
X155498641Y-80899094D01*
X155481668Y-80894110D01*
X155407382Y-80866403D01*
X155407372Y-80866401D01*
X155347844Y-80860000D01*
X155300000Y-80860000D01*
X155300000Y-81510000D01*
X154900000Y-81510000D01*
X154900000Y-80860000D01*
X154852155Y-80860000D01*
X154792627Y-80866401D01*
X154792617Y-80866403D01*
X154718332Y-80894110D01*
X154648641Y-80899094D01*
X154631668Y-80894110D01*
X154557382Y-80866403D01*
X154557372Y-80866401D01*
X154497844Y-80860000D01*
X154450000Y-80860000D01*
X154450000Y-81560000D01*
X154100499Y-81560000D01*
X154100499Y-81312128D01*
X154094091Y-81252517D01*
X154057818Y-81155263D01*
X154050000Y-81111930D01*
X154050000Y-80860000D01*
X154002155Y-80860000D01*
X153942627Y-80866401D01*
X153942623Y-80866402D01*
X153869046Y-80893844D01*
X153799354Y-80898827D01*
X153782382Y-80893843D01*
X153707488Y-80865910D01*
X153707484Y-80865909D01*
X153707483Y-80865909D01*
X153647873Y-80859500D01*
X153647863Y-80859500D01*
X153152129Y-80859500D01*
X153152123Y-80859501D01*
X153092516Y-80865908D01*
X153018332Y-80893577D01*
X152997702Y-80895052D01*
X152978002Y-80901359D01*
X152957549Y-80897923D01*
X152948640Y-80898561D01*
X152942955Y-80897183D01*
X152937224Y-80895650D01*
X152857483Y-80865909D01*
X152804924Y-80860258D01*
X152795668Y-80857782D01*
X152773682Y-80844393D01*
X152749907Y-80834545D01*
X152740032Y-80825675D01*
X152126538Y-80212181D01*
X152093053Y-80150858D01*
X152098037Y-80081166D01*
X152139909Y-80025233D01*
X152205373Y-80000816D01*
X152214219Y-80000500D01*
X167934108Y-80000500D01*
X167995572Y-80000500D01*
X168004418Y-80000816D01*
G37*
%TD.AperFunction*%
%TA.AperFunction,Conductor*%
G36*
X150295758Y-97707185D02*
G01*
X150316400Y-97723819D01*
X154513681Y-101921100D01*
X154547166Y-101982423D01*
X154550000Y-102008781D01*
X154550000Y-102800382D01*
X154499554Y-102749936D01*
X154425445Y-102707149D01*
X154342787Y-102685000D01*
X154257213Y-102685000D01*
X154174555Y-102707149D01*
X154100446Y-102749936D01*
X154050000Y-102800382D01*
X154050000Y-102014646D01*
X154049999Y-102014645D01*
X154007758Y-102023048D01*
X153938167Y-102016821D01*
X153884300Y-101975743D01*
X153837187Y-101912809D01*
X153722093Y-101826649D01*
X153722086Y-101826645D01*
X153587379Y-101776403D01*
X153587372Y-101776401D01*
X153527844Y-101770000D01*
X153430000Y-101770000D01*
X153430000Y-102552622D01*
X153426826Y-102563430D01*
X153428031Y-102574630D01*
X153417158Y-102596353D01*
X153410315Y-102619661D01*
X153401802Y-102627036D01*
X153396761Y-102637111D01*
X153375867Y-102649509D01*
X153357511Y-102665416D01*
X153346362Y-102667018D01*
X153336675Y-102672768D01*
X153312398Y-102671902D01*
X153288353Y-102675360D01*
X153278105Y-102670680D01*
X153266849Y-102670279D01*
X153246895Y-102656426D01*
X153224797Y-102646335D01*
X153217217Y-102635824D01*
X153209454Y-102630435D01*
X153191442Y-102600083D01*
X153189941Y-102596460D01*
X153180499Y-102548999D01*
X153180499Y-102222129D01*
X153180498Y-102222123D01*
X153179606Y-102213829D01*
X153174091Y-102162517D01*
X153171137Y-102154598D01*
X153123797Y-102027671D01*
X153123793Y-102027664D01*
X153037547Y-101912455D01*
X152979688Y-101869141D01*
X152937818Y-101813207D01*
X152930027Y-101770027D01*
X152930000Y-101770000D01*
X152832165Y-101770000D01*
X152795598Y-101773931D01*
X152769092Y-101773931D01*
X152727873Y-101769500D01*
X152032130Y-101769500D01*
X152032119Y-101769501D01*
X151993253Y-101773679D01*
X151966748Y-101773679D01*
X151927874Y-101769500D01*
X151532130Y-101769500D01*
X151532119Y-101769501D01*
X151493253Y-101773679D01*
X151476535Y-101774341D01*
X151471625Y-101774203D01*
X151427873Y-101769500D01*
X151303469Y-101769500D01*
X151301753Y-101769452D01*
X151270089Y-101759184D01*
X151238181Y-101749815D01*
X151236150Y-101748179D01*
X151235290Y-101747900D01*
X151234292Y-101746681D01*
X151217539Y-101733182D01*
X151174040Y-101689683D01*
X151130008Y-101645651D01*
X151023477Y-101539120D01*
X151013501Y-101532454D01*
X151013500Y-101532453D01*
X151013500Y-101532452D01*
X150920703Y-101470448D01*
X150920700Y-101470446D01*
X150893368Y-101459125D01*
X150893360Y-101459122D01*
X150887253Y-101456593D01*
X150806504Y-101423145D01*
X150697081Y-101401380D01*
X150691738Y-101399808D01*
X150666853Y-101383797D01*
X150640633Y-101370082D01*
X150637797Y-101365102D01*
X150632980Y-101362003D01*
X150620701Y-101335080D01*
X150606059Y-101309366D01*
X150605057Y-101300778D01*
X150603988Y-101298432D01*
X150604428Y-101295378D01*
X150602735Y-101280849D01*
X150602735Y-100432331D01*
X150602736Y-100432310D01*
X150602736Y-100275778D01*
X150573392Y-100128260D01*
X150573391Y-100128259D01*
X150573391Y-100128255D01*
X150550911Y-100073984D01*
X150515831Y-99989292D01*
X150515830Y-99989290D01*
X150486973Y-99946103D01*
X150432262Y-99864222D01*
X150432259Y-99864218D01*
X148467221Y-97899181D01*
X148433736Y-97837858D01*
X148438720Y-97768166D01*
X148480592Y-97712233D01*
X148546056Y-97687816D01*
X148554902Y-97687500D01*
X150228719Y-97687500D01*
X150295758Y-97707185D01*
G37*
%TD.AperFunction*%
%TA.AperFunction,Conductor*%
G36*
X141247462Y-80997185D02*
G01*
X141293217Y-81049989D01*
X141303161Y-81119147D01*
X141296605Y-81144833D01*
X141256403Y-81252620D01*
X141256401Y-81252627D01*
X141250000Y-81312155D01*
X141250000Y-81510000D01*
X142026000Y-81510000D01*
X142093039Y-81529685D01*
X142138794Y-81582489D01*
X142150000Y-81634000D01*
X142150000Y-81886000D01*
X142130315Y-81953039D01*
X142077511Y-81998794D01*
X142026000Y-82010000D01*
X141250000Y-82010000D01*
X141250000Y-82162759D01*
X141230315Y-82229798D01*
X141194891Y-82265861D01*
X141137938Y-82303915D01*
X141137937Y-82303917D01*
X141110715Y-82322105D01*
X141109986Y-82322593D01*
X140715121Y-82717460D01*
X140589992Y-82842589D01*
X140546289Y-82886292D01*
X140502586Y-82929994D01*
X140502585Y-82929996D01*
X140433923Y-83032756D01*
X140433915Y-83032771D01*
X140429664Y-83043035D01*
X140386614Y-83146964D01*
X140386612Y-83146972D01*
X140365655Y-83252329D01*
X140365656Y-83252330D01*
X140362499Y-83268199D01*
X140361903Y-83274257D01*
X140359156Y-83273986D01*
X140342815Y-83329639D01*
X140290011Y-83375394D01*
X140238500Y-83386600D01*
X140126927Y-83386600D01*
X139963996Y-83419009D01*
X139963984Y-83419012D01*
X139810506Y-83482584D01*
X139810493Y-83482591D01*
X139672364Y-83574887D01*
X139672360Y-83574890D01*
X139554890Y-83692360D01*
X139554887Y-83692364D01*
X139462591Y-83830493D01*
X139462584Y-83830506D01*
X139399012Y-83983984D01*
X139399009Y-83983996D01*
X139365411Y-84152907D01*
X139364044Y-84152635D01*
X139340513Y-84210891D01*
X139330960Y-84221620D01*
X137174270Y-86378311D01*
X135019992Y-88532589D01*
X134932589Y-88619992D01*
X134870888Y-88712335D01*
X134863916Y-88722769D01*
X134850061Y-88756214D01*
X134850062Y-88756215D01*
X134816614Y-88836964D01*
X134816612Y-88836972D01*
X134792500Y-88958192D01*
X134792500Y-89200500D01*
X134772815Y-89267539D01*
X134720011Y-89313294D01*
X134668500Y-89324500D01*
X133972235Y-89324500D01*
X133972210Y-89324501D01*
X133937684Y-89327218D01*
X133789869Y-89370162D01*
X133789866Y-89370163D01*
X133657368Y-89448521D01*
X133651648Y-89452959D01*
X133586611Y-89478491D01*
X133518094Y-89464808D01*
X133500166Y-89453352D01*
X133433251Y-89402007D01*
X133433252Y-89402007D01*
X133285169Y-89340670D01*
X133285165Y-89340669D01*
X133166157Y-89325000D01*
X133050000Y-89325000D01*
X133050000Y-91261000D01*
X133030315Y-91328039D01*
X132977511Y-91373794D01*
X132926000Y-91385000D01*
X132910000Y-91385000D01*
X132910000Y-92846880D01*
X132917166Y-92860004D01*
X132920000Y-92886362D01*
X132920000Y-94953638D01*
X132910000Y-94987693D01*
X132910000Y-96503638D01*
X132890315Y-96570677D01*
X132880000Y-96583477D01*
X132880000Y-98133638D01*
X132870000Y-98167693D01*
X132870000Y-99665000D01*
X132986143Y-99665000D01*
X132986157Y-99664999D01*
X133105165Y-99649330D01*
X133105169Y-99649329D01*
X133253249Y-99587993D01*
X133320165Y-99536647D01*
X133385334Y-99511453D01*
X133453779Y-99525491D01*
X133471653Y-99537044D01*
X133477370Y-99541479D01*
X133501850Y-99555956D01*
X133609865Y-99619836D01*
X133648847Y-99631161D01*
X133757680Y-99662781D01*
X133757683Y-99662781D01*
X133757685Y-99662782D01*
X133792223Y-99665500D01*
X134277719Y-99665499D01*
X134344757Y-99685183D01*
X134390512Y-99737987D01*
X134400456Y-99807146D01*
X134371431Y-99870702D01*
X134365399Y-99877180D01*
X132889399Y-101353181D01*
X132828076Y-101386666D01*
X132801718Y-101389500D01*
X131768018Y-101389500D01*
X131700979Y-101369815D01*
X131680337Y-101353181D01*
X131671700Y-101344544D01*
X131661789Y-101329711D01*
X131550289Y-101218211D01*
X131535456Y-101208300D01*
X131526818Y-101199662D01*
X131515690Y-101179283D01*
X131500801Y-101161466D01*
X131497621Y-101146192D01*
X131493333Y-101138339D01*
X131494011Y-101128852D01*
X131490499Y-101111981D01*
X131490499Y-100592129D01*
X131490498Y-100592123D01*
X131487851Y-100567500D01*
X131484091Y-100532517D01*
X131463264Y-100476678D01*
X131433797Y-100397671D01*
X131433793Y-100397664D01*
X131347547Y-100282455D01*
X131347544Y-100282452D01*
X131232335Y-100196206D01*
X131232328Y-100196202D01*
X131097482Y-100145908D01*
X131097483Y-100145908D01*
X131037883Y-100139501D01*
X131037881Y-100139500D01*
X131037873Y-100139500D01*
X131037865Y-100139500D01*
X130615591Y-100139500D01*
X130548552Y-100119815D01*
X130502797Y-100067011D01*
X130491591Y-100015411D01*
X130491934Y-99536647D01*
X130492250Y-99096157D01*
X131685000Y-99096157D01*
X131700669Y-99215165D01*
X131700670Y-99215169D01*
X131762007Y-99363251D01*
X131859584Y-99490415D01*
X131986748Y-99587992D01*
X131986747Y-99587992D01*
X132134830Y-99649329D01*
X132134834Y-99649330D01*
X132253842Y-99664999D01*
X132253857Y-99665000D01*
X132370000Y-99665000D01*
X132370000Y-98950000D01*
X131685000Y-98950000D01*
X131685000Y-99096157D01*
X130492250Y-99096157D01*
X130492817Y-98303842D01*
X131685000Y-98303842D01*
X131685000Y-98450000D01*
X132370000Y-98450000D01*
X132370000Y-97666362D01*
X132380000Y-97632306D01*
X132380000Y-97350000D01*
X131695000Y-97350000D01*
X131695000Y-97496157D01*
X131710669Y-97615165D01*
X131710670Y-97615169D01*
X131772007Y-97763251D01*
X131814015Y-97817997D01*
X131839209Y-97883166D01*
X131825171Y-97951611D01*
X131814016Y-97968968D01*
X131762007Y-98036748D01*
X131700670Y-98184830D01*
X131700669Y-98184834D01*
X131685000Y-98303842D01*
X130492817Y-98303842D01*
X130492832Y-98282224D01*
X130492991Y-98059932D01*
X130493962Y-96703842D01*
X131695000Y-96703842D01*
X131695000Y-96850000D01*
X132380000Y-96850000D01*
X132380000Y-96086362D01*
X132399685Y-96019323D01*
X132410000Y-96006522D01*
X132410000Y-95740000D01*
X131725000Y-95740000D01*
X131725000Y-95886157D01*
X131740669Y-96005165D01*
X131740670Y-96005169D01*
X131802006Y-96153249D01*
X131837852Y-96199964D01*
X131863046Y-96265134D01*
X131849008Y-96333578D01*
X131837852Y-96350937D01*
X131772007Y-96436747D01*
X131710670Y-96584830D01*
X131710669Y-96584834D01*
X131695000Y-96703842D01*
X130493962Y-96703842D01*
X130495114Y-95093842D01*
X131725000Y-95093842D01*
X131725000Y-95240000D01*
X132410000Y-95240000D01*
X132410000Y-94456362D01*
X132420000Y-94422306D01*
X132420000Y-94170000D01*
X131735000Y-94170000D01*
X131735000Y-94316157D01*
X131750669Y-94435165D01*
X131750670Y-94435169D01*
X131812007Y-94583251D01*
X131842505Y-94622997D01*
X131867699Y-94688166D01*
X131853661Y-94756611D01*
X131842506Y-94773968D01*
X131802007Y-94826748D01*
X131740670Y-94974830D01*
X131740669Y-94974834D01*
X131725000Y-95093842D01*
X130495114Y-95093842D01*
X130496816Y-92716157D01*
X131725000Y-92716157D01*
X131740669Y-92835165D01*
X131740670Y-92835169D01*
X131802007Y-92983252D01*
X131854015Y-93051030D01*
X131879209Y-93116199D01*
X131865170Y-93184644D01*
X131854015Y-93202002D01*
X131812007Y-93256747D01*
X131750670Y-93404830D01*
X131750669Y-93404834D01*
X131735000Y-93523842D01*
X131735000Y-93670000D01*
X132420000Y-93670000D01*
X132420000Y-93393119D01*
X132412834Y-93379996D01*
X132410000Y-93353638D01*
X132410000Y-92570000D01*
X131725000Y-92570000D01*
X131725000Y-92716157D01*
X130496816Y-92716157D01*
X130497318Y-92014706D01*
X130497383Y-91923842D01*
X131725000Y-91923842D01*
X131725000Y-92070000D01*
X132410000Y-92070000D01*
X132410000Y-91349000D01*
X132429685Y-91281961D01*
X132482489Y-91236206D01*
X132534000Y-91225000D01*
X132550000Y-91225000D01*
X132550000Y-90540000D01*
X131865000Y-90540000D01*
X131865000Y-90686157D01*
X131880669Y-90805165D01*
X131880670Y-90805169D01*
X131942007Y-90953251D01*
X132039584Y-91080415D01*
X132162263Y-91174550D01*
X132203466Y-91230978D01*
X132207621Y-91300724D01*
X132173409Y-91361644D01*
X132134230Y-91387487D01*
X132026747Y-91432008D01*
X131899584Y-91529584D01*
X131802007Y-91656748D01*
X131740670Y-91804830D01*
X131740669Y-91804834D01*
X131725000Y-91923842D01*
X130497383Y-91923842D01*
X130497386Y-91919702D01*
X130498836Y-89893842D01*
X131865000Y-89893842D01*
X131865000Y-90040000D01*
X132550000Y-90040000D01*
X132550000Y-89325000D01*
X132433842Y-89325000D01*
X132314834Y-89340669D01*
X132314830Y-89340670D01*
X132166748Y-89402007D01*
X132039584Y-89499584D01*
X131942007Y-89626748D01*
X131880670Y-89774830D01*
X131880669Y-89774834D01*
X131865000Y-89893842D01*
X130498836Y-89893842D01*
X130498839Y-89889702D01*
X130499086Y-89544313D01*
X130499408Y-89094408D01*
X130519141Y-89027385D01*
X130571977Y-88981668D01*
X130623408Y-88970499D01*
X131047871Y-88970499D01*
X131047872Y-88970499D01*
X131107483Y-88964091D01*
X131242331Y-88913796D01*
X131357546Y-88827546D01*
X131443796Y-88712331D01*
X131494091Y-88577483D01*
X131500500Y-88517873D01*
X131500499Y-87998017D01*
X131520183Y-87930979D01*
X131536771Y-87910384D01*
X131545425Y-87901720D01*
X131560289Y-87891789D01*
X131671789Y-87780289D01*
X131682015Y-87764983D01*
X131690624Y-87756366D01*
X131711019Y-87745214D01*
X131728858Y-87730306D01*
X131744088Y-87727134D01*
X131751929Y-87722848D01*
X131761434Y-87723522D01*
X131778352Y-87720000D01*
X132075000Y-87720000D01*
X132575000Y-87720000D01*
X133047828Y-87720000D01*
X133047844Y-87719999D01*
X133107372Y-87713598D01*
X133107379Y-87713596D01*
X133242086Y-87663354D01*
X133242093Y-87663350D01*
X133357187Y-87577190D01*
X133357190Y-87577187D01*
X133443350Y-87462093D01*
X133443354Y-87462086D01*
X133493596Y-87327379D01*
X133493598Y-87327372D01*
X133499999Y-87267844D01*
X133500000Y-87267827D01*
X133500000Y-87070000D01*
X132575000Y-87070000D01*
X132575000Y-87720000D01*
X132075000Y-87720000D01*
X132075000Y-86944000D01*
X132094685Y-86876961D01*
X132147489Y-86831206D01*
X132199000Y-86820000D01*
X132325000Y-86820000D01*
X132325000Y-86694499D01*
X132344685Y-86627460D01*
X132397489Y-86581705D01*
X132449000Y-86570499D01*
X133047871Y-86570499D01*
X133047872Y-86570499D01*
X133047872Y-86570498D01*
X133051196Y-86570321D01*
X133051201Y-86570426D01*
X133059163Y-86570000D01*
X133500000Y-86570000D01*
X133500000Y-86421500D01*
X133519685Y-86354461D01*
X133572489Y-86308706D01*
X133624000Y-86297500D01*
X134057447Y-86297500D01*
X134124486Y-86317185D01*
X134164178Y-86358377D01*
X134178522Y-86382631D01*
X134178524Y-86382633D01*
X134178526Y-86382636D01*
X134287363Y-86491473D01*
X134287372Y-86491480D01*
X134323981Y-86513130D01*
X134419865Y-86569836D01*
X134458847Y-86581161D01*
X134567680Y-86612781D01*
X134567683Y-86612781D01*
X134567685Y-86612782D01*
X134602223Y-86615500D01*
X135437776Y-86615499D01*
X135472315Y-86612782D01*
X135620135Y-86569836D01*
X135752631Y-86491478D01*
X135861478Y-86382631D01*
X135939836Y-86250135D01*
X135982782Y-86102315D01*
X135985500Y-86067777D01*
X135985499Y-85653279D01*
X136005183Y-85586241D01*
X136021813Y-85565604D01*
X140573600Y-81013819D01*
X140634923Y-80980334D01*
X140661281Y-80977500D01*
X141180423Y-80977500D01*
X141247462Y-80997185D01*
G37*
%TD.AperFunction*%
%TA.AperFunction,Conductor*%
G36*
X142343039Y-95779685D02*
G01*
X142388794Y-95832489D01*
X142400000Y-95884000D01*
X142400000Y-96660000D01*
X142448500Y-96660000D01*
X142515539Y-96679685D01*
X142561294Y-96732489D01*
X142570101Y-96759726D01*
X142572500Y-96771743D01*
X142572500Y-96801803D01*
X142596614Y-96923035D01*
X142603705Y-96940153D01*
X142608362Y-96951396D01*
X142608363Y-96951400D01*
X142643915Y-97037229D01*
X142643920Y-97037238D01*
X142679180Y-97090008D01*
X142679180Y-97090009D01*
X142712585Y-97140003D01*
X142712591Y-97140011D01*
X142799199Y-97226619D01*
X142832684Y-97287942D01*
X142827700Y-97357634D01*
X142785828Y-97413567D01*
X142720364Y-97437984D01*
X142711518Y-97438300D01*
X142237701Y-97438300D01*
X142170662Y-97418615D01*
X142150020Y-97401981D01*
X141619720Y-96871681D01*
X141586235Y-96810358D01*
X141591219Y-96740666D01*
X141633091Y-96684733D01*
X141698555Y-96660316D01*
X141707401Y-96660000D01*
X141900000Y-96660000D01*
X141900000Y-95884000D01*
X141919685Y-95816961D01*
X141972489Y-95771206D01*
X142024000Y-95760000D01*
X142276000Y-95760000D01*
X142343039Y-95779685D01*
G37*
%TD.AperFunction*%
%TA.AperFunction,Conductor*%
G36*
X139579758Y-80020185D02*
G01*
X139625513Y-80072989D01*
X139635457Y-80142147D01*
X139606432Y-80205703D01*
X139600400Y-80212181D01*
X136161598Y-83650981D01*
X136100275Y-83684466D01*
X136030583Y-83679482D01*
X135974650Y-83637610D01*
X135959356Y-83610752D01*
X135907992Y-83486748D01*
X135810415Y-83359584D01*
X135683251Y-83262007D01*
X135683252Y-83262007D01*
X135535169Y-83200670D01*
X135535165Y-83200669D01*
X135416157Y-83185000D01*
X135270000Y-83185000D01*
X135270000Y-83996000D01*
X135250315Y-84063039D01*
X135197511Y-84108794D01*
X135146000Y-84120000D01*
X135020000Y-84120000D01*
X135020000Y-84246000D01*
X135000315Y-84313039D01*
X134947511Y-84358794D01*
X134896000Y-84370000D01*
X134055000Y-84370000D01*
X134055000Y-84486157D01*
X134070669Y-84605165D01*
X134070670Y-84605169D01*
X134132007Y-84753252D01*
X134183352Y-84820166D01*
X134192262Y-84843215D01*
X134204975Y-84864407D01*
X134204640Y-84875233D01*
X134208546Y-84885335D01*
X134203580Y-84909541D01*
X134202818Y-84934244D01*
X134195804Y-84947453D01*
X134194507Y-84953780D01*
X134187172Y-84965880D01*
X134180935Y-84974955D01*
X134178522Y-84977369D01*
X134173862Y-84985248D01*
X134171471Y-84988728D01*
X134147514Y-85008224D01*
X134124937Y-85029305D01*
X134120244Y-85030417D01*
X134117279Y-85032831D01*
X134103558Y-85034373D01*
X134069275Y-85042500D01*
X133624000Y-85042500D01*
X133556961Y-85022815D01*
X133511206Y-84970011D01*
X133500000Y-84918500D01*
X133500000Y-84770000D01*
X133059167Y-84770000D01*
X133051188Y-84769572D01*
X133051183Y-84769678D01*
X133047879Y-84769500D01*
X133047873Y-84769500D01*
X133047866Y-84769500D01*
X132449000Y-84769500D01*
X132381961Y-84749815D01*
X132336206Y-84697011D01*
X132325000Y-84645500D01*
X132325000Y-84520000D01*
X132199000Y-84520000D01*
X132131961Y-84500315D01*
X132086206Y-84447511D01*
X132075000Y-84396000D01*
X132075000Y-84270000D01*
X132575000Y-84270000D01*
X133500000Y-84270000D01*
X133500000Y-84072172D01*
X133499999Y-84072155D01*
X133493598Y-84012627D01*
X133493596Y-84012620D01*
X133443354Y-83877913D01*
X133443352Y-83877910D01*
X133403072Y-83824103D01*
X133403071Y-83824101D01*
X133357190Y-83762812D01*
X133357187Y-83762809D01*
X133345209Y-83753842D01*
X134055000Y-83753842D01*
X134055000Y-83870000D01*
X134770000Y-83870000D01*
X134770000Y-83185000D01*
X134623842Y-83185000D01*
X134504834Y-83200669D01*
X134504830Y-83200670D01*
X134356748Y-83262007D01*
X134229584Y-83359584D01*
X134132007Y-83486748D01*
X134070670Y-83634830D01*
X134070669Y-83634834D01*
X134055000Y-83753842D01*
X133345209Y-83753842D01*
X133242093Y-83676649D01*
X133242086Y-83676645D01*
X133107379Y-83626403D01*
X133107372Y-83626401D01*
X133047844Y-83620000D01*
X132575000Y-83620000D01*
X132575000Y-84270000D01*
X132075000Y-84270000D01*
X132075000Y-83620000D01*
X131778352Y-83620000D01*
X131711313Y-83600315D01*
X131690623Y-83583634D01*
X131682017Y-83575019D01*
X131671789Y-83559711D01*
X131560289Y-83448211D01*
X131545424Y-83438279D01*
X131536770Y-83429615D01*
X131525668Y-83409256D01*
X131510801Y-83391466D01*
X131507611Y-83376145D01*
X131503319Y-83368274D01*
X131504001Y-83358804D01*
X131500499Y-83341981D01*
X131500499Y-82822129D01*
X131500498Y-82822123D01*
X131499167Y-82809744D01*
X131494091Y-82762517D01*
X131486241Y-82741471D01*
X131443797Y-82627671D01*
X131443793Y-82627664D01*
X131357547Y-82512455D01*
X131357544Y-82512452D01*
X131242335Y-82426206D01*
X131242328Y-82426202D01*
X131107482Y-82375908D01*
X131107483Y-82375908D01*
X131047883Y-82369501D01*
X131047881Y-82369500D01*
X131047873Y-82369500D01*
X131047865Y-82369500D01*
X130624500Y-82369500D01*
X130557461Y-82349815D01*
X130511706Y-82297011D01*
X130500500Y-82245500D01*
X130500500Y-81504427D01*
X130500816Y-81495581D01*
X130515130Y-81295443D01*
X130517648Y-81277932D01*
X130552721Y-81116702D01*
X130582130Y-81059655D01*
X131424523Y-80133023D01*
X131472941Y-80100255D01*
X131569236Y-80064338D01*
X131586199Y-80059356D01*
X131777938Y-80017646D01*
X131795436Y-80015130D01*
X131995582Y-80000816D01*
X132004428Y-80000500D01*
X132065892Y-80000500D01*
X139512719Y-80000500D01*
X139579758Y-80020185D01*
G37*
%TD.AperFunction*%
%TD*%
M02*
