%TF.GenerationSoftware,KiCad,Pcbnew,9.0.7*%
%TF.CreationDate,2026-02-16T08:00:12+01:00*%
%TF.ProjectId,misfits,6d697366-6974-4732-9e6b-696361645f70,1*%
%TF.SameCoordinates,Original*%
%TF.FileFunction,Profile,NP*%
%FSLAX46Y46*%
G04 Gerber Fmt 4.6, Leading zero omitted, Abs format (unit mm)*
G04 Created by KiCad (PCBNEW 9.0.7) date 2026-02-16 08:00:12*
%MOMM*%
%LPD*%
G01*
G04 APERTURE LIST*
%TA.AperFunction,Profile*%
%ADD10C,0.038100*%
%TD*%
%TA.AperFunction,Profile*%
%ADD11C,0.010000*%
%TD*%
G04 APERTURE END LIST*
D10*
X170000000Y-107500000D02*
X169990000Y-105360000D01*
X132000000Y-109500000D02*
X168000000Y-109500000D01*
X170000000Y-87600000D02*
X169990000Y-101560000D01*
X170000000Y-107500000D02*
G75*
G02*
X168000000Y-109500000I-2000000J0D01*
G01*
X129990000Y-101540000D02*
X130000000Y-87570000D01*
X132000000Y-109500000D02*
G75*
G02*
X130000000Y-107500000I0J2000000D01*
G01*
X130000000Y-107500000D02*
X129990000Y-105340000D01*
X168000000Y-79500000D02*
G75*
G02*
X170000000Y-81500000I0J-2000000D01*
G01*
X130000000Y-81500000D02*
X130000000Y-83770000D01*
X168000000Y-79500000D02*
X132000000Y-79500000D01*
X130000000Y-81500000D02*
G75*
G02*
X132000000Y-79500000I2000000J0D01*
G01*
X170000000Y-81500000D02*
X170000000Y-83800000D01*
D11*
%TO.C,S4*%
X168640000Y-105060000D02*
X168640000Y-101860000D01*
X168940000Y-101560000D02*
X169990000Y-101560000D01*
X168940000Y-105360000D02*
X169990000Y-105360000D01*
X168640000Y-101860000D02*
G75*
G02*
X168940000Y-101560000I300000J0D01*
G01*
X168940000Y-105360000D02*
G75*
G02*
X168640000Y-105060000I0J300000D01*
G01*
%TO.C,S3*%
X131040000Y-101540000D02*
X129990000Y-101540000D01*
X131040000Y-105340000D02*
X129990000Y-105340000D01*
X131340000Y-101840000D02*
X131340000Y-105040000D01*
X131040000Y-101540000D02*
G75*
G02*
X131340000Y-101840000I0J-300000D01*
G01*
X131340000Y-105040000D02*
G75*
G02*
X131040000Y-105340000I-300000J0D01*
G01*
%TO.C,S2*%
X131050000Y-83770000D02*
X130000000Y-83770000D01*
X131050000Y-87570000D02*
X130000000Y-87570000D01*
X131350000Y-84070000D02*
X131350000Y-87270000D01*
X131050000Y-83770000D02*
G75*
G02*
X131350000Y-84070000I0J-300000D01*
G01*
X131350000Y-87270000D02*
G75*
G02*
X131050000Y-87570000I-300000J0D01*
G01*
%TO.C,S1*%
X168650000Y-87300000D02*
X168650000Y-84100000D01*
X168950000Y-83800000D02*
X170000000Y-83800000D01*
X168950000Y-87600000D02*
X170000000Y-87600000D01*
X168650000Y-84100000D02*
G75*
G02*
X168950000Y-83800000I300000J0D01*
G01*
X168950000Y-87600000D02*
G75*
G02*
X168650000Y-87300000I0J300000D01*
G01*
%TD*%
M02*
