M48
; DRILL file {KiCad 9.0.7} date 2026-02-16T08:00:46+0100
; FORMAT={-:-/ absolute / metric / decimal}
; #@! TF.CreationDate,2026-02-16T08:00:46+01:00
; #@! TF.GenerationSoftware,Kicad,Pcbnew,9.0.7
; #@! TF.FileFunction,Plated,1,4,PTH
FMAT,2
METRIC
; #@! TA.AperFunction,Plated,PTH,ViaDrill
T1C0.330
; #@! TA.AperFunction,Plated,PTH,ComponentDrill
T2C0.650
; #@! TA.AperFunction,Plated,PTH,ComponentDrill
T3C0.800
%
G90
G05
T1
X132.31Y-104.59
X132.315Y-102.29
X134.1Y-107.2
X134.18Y-98.7
X134.19Y-97.1
X134.22Y-92.32
X134.22Y-95.49
X134.23Y-93.92
X134.36Y-90.29
X135.42Y-91.27
X136.57Y-102.19
X137.0Y-81.5
X138.22Y-93.05
X138.341Y-93.896
X138.384Y-94.696
X140.21Y-84.23
X140.29Y-87.91
X140.31Y-85.42
X140.694Y-96.006
X140.8Y-91.17
X140.99Y-87.16
X141.05Y-93.85
X142.15Y-93.01
X143.47Y-91.09
X144.9Y-84.61
X145.34Y-94.78
X145.75Y-83.51
X145.95Y-100.32
X149.22Y-104.3
X150.92Y-104.04
X151.0Y-92.0
X152.38Y-102.845
X152.75Y-83.51
X154.325Y-97.53
X165.2Y-107.6
X165.6Y-81.75
X167.42Y-90.48
X167.665Y-102.31
X167.665Y-104.61
T3
X158.45Y-100.567
X160.45Y-100.567
T2
X145.66Y-103.01G85X145.66Y-103.81
G05
X145.66Y-106.81G85X145.66Y-108.01
G05
X154.3Y-103.01G85X154.3Y-103.81
G05
X154.3Y-106.81G85X154.3Y-108.01
G05
M30
