%TF.GenerationSoftware,KiCad,Pcbnew,9.0.7*%
%TF.CreationDate,2026-02-16T08:00:12+01:00*%
%TF.ProjectId,misfits,6d697366-6974-4732-9e6b-696361645f70,1*%
%TF.SameCoordinates,Original*%
%TF.FileFunction,Copper,L4,Bot*%
%TF.FilePolarity,Positive*%
%FSLAX46Y46*%
G04 Gerber Fmt 4.6, Leading zero omitted, Abs format (unit mm)*
G04 Created by KiCad (PCBNEW 9.0.7) date 2026-02-16 08:00:12*
%MOMM*%
%LPD*%
G01*
G04 APERTURE LIST*
G04 Aperture macros list*
%AMRoundRect*
0 Rectangle with rounded corners*
0 $1 Rounding radius*
0 $2 $3 $4 $5 $6 $7 $8 $9 X,Y pos of 4 corners*
0 Add a 4 corners polygon primitive as box body*
4,1,4,$2,$3,$4,$5,$6,$7,$8,$9,$2,$3,0*
0 Add four circle primitives for the rounded corners*
1,1,$1+$1,$2,$3*
1,1,$1+$1,$4,$5*
1,1,$1+$1,$6,$7*
1,1,$1+$1,$8,$9*
0 Add four rect primitives between the rounded corners*
20,1,$1+$1,$2,$3,$4,$5,0*
20,1,$1+$1,$4,$5,$6,$7,0*
20,1,$1+$1,$6,$7,$8,$9,0*
20,1,$1+$1,$8,$9,$2,$3,0*%
%AMFreePoly0*
4,1,86,-1.639646,1.550354,-1.639564,1.550244,-1.502583,1.305278,-1.462593,1.255291,-1.412600,1.185300,-1.362624,1.125329,-1.292646,1.045354,-1.232654,0.985362,-1.162680,0.925384,-1.102692,0.875394,-1.022713,0.815409,-0.941746,0.764430,-0.871764,0.724441,-0.789774,0.680446,-0.642821,0.615467,-0.535850,0.579477,-0.425868,0.549482,-0.422863,0.548481,-0.414879,0.546485,-0.414842,0.546474,
-0.411863,0.545481,-0.399879,0.542485,-0.399842,0.542474,-0.396863,0.541481,-0.384879,0.538485,-0.384842,0.538474,-0.381863,0.537481,-0.373939,0.535500,-0.370000,0.535500,-0.369879,0.535485,-0.361879,0.533485,-0.361842,0.533474,-0.358920,0.532500,-0.355000,0.532500,-0.354879,0.532485,-0.342939,0.529500,-0.340000,0.529500,-0.339879,0.529485,-0.335939,0.528500,-0.332000,0.528500,
-0.331879,0.528485,-0.323939,0.526500,-0.320000,0.526500,-0.319879,0.526485,-0.315939,0.525500,-0.313000,0.525500,-0.312937,0.525496,-0.217937,0.513496,-0.217937,0.513495,-0.126970,0.502499,0.044989,0.500500,0.140962,0.503499,0.335911,0.530492,0.480871,0.562483,0.612819,0.604467,0.690810,0.636463,0.690810,0.636462,0.785773,0.678446,0.857776,0.718447,0.897752,0.738435,
0.971736,0.784425,1.032711,0.825408,1.116686,0.888389,1.222656,0.978364,1.309646,1.065354,1.415606,1.187309,1.465597,1.255296,1.523576,1.343265,1.573562,1.423242,1.639556,1.550231,1.639849,1.550477,1.640000,1.550500,2.650000,1.550500,2.650354,1.550354,2.650500,1.550000,2.650500,-0.450000,2.650354,-0.450354,2.650000,-0.450500,-2.650000,-0.450500,-2.650354,-0.450354,
-2.650500,-0.450000,-2.650500,1.550000,-2.650354,1.550354,-2.650000,1.550500,-1.640000,1.550500,-1.639646,1.550354,-1.639646,1.550354,$1*%
%AMFreePoly1*
4,1,87,2.650354,0.450354,2.650500,0.450000,2.650500,-1.550000,2.650354,-1.550354,2.650000,-1.550500,1.640000,-1.550500,1.639646,-1.550354,1.639564,-1.550244,1.502583,-1.305278,1.462593,-1.255291,1.412600,-1.185300,1.362616,-1.125319,1.292646,-1.045354,1.232654,-0.985362,1.162675,-0.925380,1.162675,-0.925379,1.102692,-0.875394,1.022713,-0.815409,0.941746,-0.764430,0.871764,-0.724441,
0.789774,-0.680446,0.642821,-0.615467,0.535850,-0.579477,0.425868,-0.549482,0.422863,-0.548481,0.414879,-0.546485,0.414842,-0.546474,0.411863,-0.545481,0.399879,-0.542485,0.399842,-0.542474,0.396863,-0.541481,0.384879,-0.538485,0.384842,-0.538474,0.381863,-0.537481,0.373939,-0.535500,0.370000,-0.535500,0.369879,-0.535485,0.361879,-0.533485,0.361842,-0.533474,0.358920,-0.532500,
0.355000,-0.532500,0.354879,-0.532485,0.342939,-0.529500,0.340000,-0.529500,0.339879,-0.529485,0.335939,-0.528500,0.332000,-0.528500,0.331879,-0.528485,0.323939,-0.526500,0.320000,-0.526500,0.319879,-0.526485,0.315939,-0.525500,0.313000,-0.525500,0.312937,-0.525496,0.217937,-0.513496,0.217937,-0.513495,0.126970,-0.502499,-0.044989,-0.500500,-0.140962,-0.503499,-0.335911,-0.530492,
-0.480871,-0.562483,-0.612819,-0.604467,-0.690810,-0.636463,-0.690810,-0.636462,-0.785773,-0.678446,-0.857776,-0.718447,-0.897752,-0.738435,-0.971736,-0.784425,-1.032711,-0.825408,-1.116686,-0.888389,-1.222656,-0.978364,-1.309646,-1.065354,-1.415606,-1.187309,-1.465597,-1.255296,-1.523576,-1.343265,-1.573562,-1.423242,-1.639556,-1.550231,-1.639849,-1.550477,-1.640000,-1.550500,-2.650000,-1.550500,
-2.650354,-1.550354,-2.650500,-1.550000,-2.650500,0.450000,-2.650354,0.450354,-2.650000,0.450500,2.650000,0.450500,2.650354,0.450354,2.650354,0.450354,$1*%
G04 Aperture macros list end*
%TA.AperFunction,ComponentPad*%
%ADD10O,1.050000X1.850000*%
%TD*%
%TA.AperFunction,ComponentPad*%
%ADD11O,1.050000X2.250000*%
%TD*%
%TA.AperFunction,SMDPad,CuDef*%
%ADD12R,1.040000X1.020000*%
%TD*%
%TA.AperFunction,SMDPad,CuDef*%
%ADD13RoundRect,0.108750X-0.356250X0.326250X-0.356250X-0.326250X0.356250X-0.326250X0.356250X0.326250X0*%
%TD*%
%TA.AperFunction,SMDPad,CuDef*%
%ADD14R,1.210000X0.720000*%
%TD*%
%TA.AperFunction,SMDPad,CuDef*%
%ADD15RoundRect,0.108750X-0.326250X-0.356250X0.326250X-0.356250X0.326250X0.356250X-0.326250X0.356250X0*%
%TD*%
%TA.AperFunction,SMDPad,CuDef*%
%ADD16FreePoly0,180.000000*%
%TD*%
%TA.AperFunction,SMDPad,CuDef*%
%ADD17FreePoly1,180.000000*%
%TD*%
%TA.AperFunction,SMDPad,CuDef*%
%ADD18R,0.800000X0.300000*%
%TD*%
%TA.AperFunction,SMDPad,CuDef*%
%ADD19R,0.800000X0.400000*%
%TD*%
%TA.AperFunction,SMDPad,CuDef*%
%ADD20R,0.250000X0.500000*%
%TD*%
%TA.AperFunction,SMDPad,CuDef*%
%ADD21R,0.450000X0.500000*%
%TD*%
%TA.AperFunction,SMDPad,CuDef*%
%ADD22R,0.930000X0.790000*%
%TD*%
%TA.AperFunction,SMDPad,CuDef*%
%ADD23RoundRect,0.108750X0.326250X0.356250X-0.326250X0.356250X-0.326250X-0.356250X0.326250X-0.356250X0*%
%TD*%
%TA.AperFunction,SMDPad,CuDef*%
%ADD24R,0.660000X0.320000*%
%TD*%
%TA.AperFunction,SMDPad,CuDef*%
%ADD25R,1.000000X1.600000*%
%TD*%
%TA.AperFunction,SMDPad,CuDef*%
%ADD26R,0.720000X1.210000*%
%TD*%
%TA.AperFunction,SMDPad,CuDef*%
%ADD27R,0.762000X0.939800*%
%TD*%
%TA.AperFunction,SMDPad,CuDef*%
%ADD28R,0.800000X0.800000*%
%TD*%
%TA.AperFunction,SMDPad,CuDef*%
%ADD29RoundRect,0.152500X0.437500X0.152500X-0.437500X0.152500X-0.437500X-0.152500X0.437500X-0.152500X0*%
%TD*%
%TA.AperFunction,SMDPad,CuDef*%
%ADD30R,0.760000X0.220000*%
%TD*%
%TA.AperFunction,SMDPad,CuDef*%
%ADD31R,0.900000X1.500000*%
%TD*%
%TA.AperFunction,ComponentPad*%
%ADD32R,1.308000X1.308000*%
%TD*%
%TA.AperFunction,ComponentPad*%
%ADD33C,1.308000*%
%TD*%
%TA.AperFunction,SMDPad,CuDef*%
%ADD34R,1.020000X1.040000*%
%TD*%
%TA.AperFunction,SMDPad,CuDef*%
%ADD35RoundRect,0.108750X0.356250X-0.326250X0.356250X0.326250X-0.356250X0.326250X-0.356250X-0.326250X0*%
%TD*%
%TA.AperFunction,SMDPad,CuDef*%
%ADD36RoundRect,0.111125X0.333375X-0.333375X0.333375X0.333375X-0.333375X0.333375X-0.333375X-0.333375X0*%
%TD*%
%TA.AperFunction,ViaPad*%
%ADD37C,0.685800*%
%TD*%
%TA.AperFunction,Conductor*%
%ADD38C,0.254000*%
%TD*%
%TA.AperFunction,Conductor*%
%ADD39C,0.115469*%
%TD*%
G04 APERTURE END LIST*
D10*
%TO.P,J1,SH1,SHIELD*%
%TO.N,GND*%
X145660000Y-103410000D03*
%TO.P,J1,SH2,SHIELD*%
X154300000Y-103410000D03*
D11*
%TO.P,J1,SH3,SHIELD*%
X145660000Y-107410000D03*
%TO.P,J1,SH4,SHIELD*%
X154300000Y-107410000D03*
%TD*%
D12*
%TO.P,R4,1*%
%TO.N,/3V3*%
X155795000Y-97530000D03*
%TO.P,R4,2*%
%TO.N,Net-(U1-EN)*%
X154325000Y-97530000D03*
%TD*%
D13*
%TO.P,C5,1*%
%TO.N,/3V3*%
X154430000Y-83510000D03*
%TO.P,C5,2*%
%TO.N,GND*%
X154430000Y-85070000D03*
%TD*%
D14*
%TO.P,D3,A*%
%TO.N,Net-(C11-Pad1)*%
X146590000Y-93880000D03*
%TO.P,D3,C*%
%TO.N,GND*%
X149950000Y-93880000D03*
%TD*%
D15*
%TO.P,C8,1*%
%TO.N,/3V3*%
X165140000Y-93610000D03*
%TO.P,C8,2*%
%TO.N,GND*%
X166700000Y-93610000D03*
%TD*%
%TO.P,C2,1*%
%TO.N,Net-(U2-OUT)*%
X153730000Y-100440000D03*
%TO.P,C2,2*%
%TO.N,GND*%
X155290000Y-100440000D03*
%TD*%
D13*
%TO.P,C3,1*%
%TO.N,Net-(U2-OUT)*%
X164090000Y-104090000D03*
%TO.P,C3,2*%
%TO.N,GND*%
X164090000Y-105650000D03*
%TD*%
D16*
%TO.P,L1,1*%
%TO.N,/3V3*%
X146410000Y-82170000D03*
D17*
%TO.P,L1,2*%
%TO.N,Net-(C11-Pad2)*%
X146410000Y-86770000D03*
%TD*%
D18*
%TO.P,J3,1,1*%
%TO.N,unconnected-(J3-Pad1)*%
X136570000Y-88290000D03*
%TO.P,J3,2,2*%
%TO.N,/GDR*%
X136570000Y-88790000D03*
%TO.P,J3,3,3*%
%TO.N,/RESE*%
X136570000Y-89290000D03*
%TO.P,J3,4,4*%
%TO.N,unconnected-(J3-Pad4)*%
X136570000Y-89790000D03*
%TO.P,J3,5,5*%
%TO.N,Net-(C12-Pad1)*%
X136570000Y-90290000D03*
%TO.P,J3,6,6*%
%TO.N,unconnected-(J3-Pad6)*%
X136570000Y-90790000D03*
%TO.P,J3,7,7*%
%TO.N,unconnected-(J3-Pad7)*%
X136570000Y-91290000D03*
%TO.P,J3,8,8*%
%TO.N,GND*%
X136570000Y-91790000D03*
%TO.P,J3,9,9*%
%TO.N,/BUSY*%
X136570000Y-92290000D03*
%TO.P,J3,10,10*%
%TO.N,/RES*%
X136570000Y-92790000D03*
%TO.P,J3,11,11*%
%TO.N,/DC*%
X136570000Y-93290000D03*
%TO.P,J3,12,12*%
%TO.N,/CS*%
X136570000Y-93790000D03*
%TO.P,J3,13,13*%
%TO.N,/SCLK*%
X136570000Y-94290000D03*
%TO.P,J3,14,14*%
%TO.N,/SDI*%
X136570000Y-94790000D03*
%TO.P,J3,15,15*%
%TO.N,Net-(C13-Pad1)*%
X136570000Y-95290000D03*
%TO.P,J3,16,16*%
X136570000Y-95790000D03*
%TO.P,J3,17,17*%
%TO.N,GND*%
X136570000Y-96290000D03*
%TO.P,J3,18,18*%
%TO.N,Net-(C14-Pad1)*%
X136570000Y-96790000D03*
%TO.P,J3,19,19*%
%TO.N,unconnected-(J3-Pad19)*%
X136570000Y-97290000D03*
%TO.P,J3,20,20*%
%TO.N,Net-(C15-Pad1)*%
X136570000Y-97790000D03*
%TO.P,J3,21,21*%
%TO.N,/PREVGH*%
X136570000Y-98290000D03*
%TO.P,J3,22,22*%
%TO.N,Net-(C16-Pad1)*%
X136570000Y-98790000D03*
%TO.P,J3,23,23*%
%TO.N,/PREVGL*%
X136570000Y-99290000D03*
%TO.P,J3,24,24*%
%TO.N,/VCOM*%
X136570000Y-99790000D03*
D19*
%TO.P,J3,S1,SHIELD*%
%TO.N,GND*%
X134070000Y-87290000D03*
%TO.P,J3,S2,SHIELD*%
X134070000Y-100790000D03*
%TD*%
D20*
%TO.P,U4,1,I/O_1*%
%TO.N,/USB_D_N*%
X150190000Y-104992500D03*
%TO.P,U4,2,I/O_2*%
%TO.N,/USB_D_P*%
X150690000Y-104992500D03*
D21*
%TO.P,U4,3,GND*%
%TO.N,GND*%
X151190000Y-104992500D03*
D20*
%TO.P,U4,4,I/O_4*%
%TO.N,/5V_IN*%
X151690000Y-104992500D03*
%TO.P,U4,5,I/O_5*%
%TO.N,unconnected-(U4-I{slash}O_5-Pad5)*%
X152190000Y-104992500D03*
%TO.P,U4,6*%
%TO.N,N/C*%
X152190000Y-105792500D03*
%TO.P,U4,7*%
X151690000Y-105792500D03*
D21*
%TO.P,U4,8,GND*%
%TO.N,GND*%
X151190000Y-105792500D03*
D20*
%TO.P,U4,9*%
%TO.N,N/C*%
X150690000Y-105792500D03*
%TO.P,U4,10*%
X150190000Y-105792500D03*
%TD*%
D13*
%TO.P,C9,1*%
%TO.N,/3V3*%
X150720000Y-83510000D03*
%TO.P,C9,2*%
%TO.N,GND*%
X150720000Y-85070000D03*
%TD*%
D22*
%TO.P,R8,1*%
%TO.N,GND*%
X138590000Y-90910000D03*
%TO.P,R8,2*%
%TO.N,/RESE*%
X138590000Y-89270000D03*
%TD*%
D14*
%TO.P,D4,A*%
%TO.N,/PREVGL*%
X138980000Y-99400000D03*
%TO.P,D4,C*%
%TO.N,Net-(C11-Pad1)*%
X142340000Y-99400000D03*
%TD*%
D23*
%TO.P,C10,1*%
%TO.N,/PREVGH*%
X153470000Y-93750000D03*
%TO.P,C10,2*%
%TO.N,GND*%
X151910000Y-93750000D03*
%TD*%
D24*
%TO.P,U3,1,OUT*%
%TO.N,/3V3*%
X166140000Y-100720000D03*
%TO.P,U3,2,FB*%
%TO.N,Net-(U3-FB)*%
X166140000Y-101370000D03*
%TO.P,U3,3,GND*%
%TO.N,GND*%
X166140000Y-102020000D03*
%TO.P,U3,4,EN*%
%TO.N,Net-(U2-OUT)*%
X164090000Y-102020000D03*
%TO.P,U3,5,DNC*%
%TO.N,unconnected-(U3-DNC-Pad5)*%
X164090000Y-101370000D03*
%TO.P,U3,6,IN*%
%TO.N,Net-(U2-OUT)*%
X164090000Y-100720000D03*
D25*
%TO.P,U3,7*%
%TO.N,N/C*%
X165115000Y-101370000D03*
%TD*%
D26*
%TO.P,D2,A*%
%TO.N,Net-(C11-Pad2)*%
X153470000Y-88190000D03*
%TO.P,D2,C*%
%TO.N,/PREVGH*%
X153470000Y-91550000D03*
%TD*%
D23*
%TO.P,C1,1*%
%TO.N,/5V_IN*%
X145950000Y-100320000D03*
%TO.P,C1,2*%
%TO.N,GND*%
X144390000Y-100320000D03*
%TD*%
D27*
%TO.P,R6,1*%
%TO.N,Net-(U3-FB)*%
X168118200Y-96600000D03*
%TO.P,R6,2*%
%TO.N,GND*%
X166441800Y-96600000D03*
%TD*%
D28*
%TO.P,D1,A*%
%TO.N,Net-(D1-PadA)*%
X164300000Y-96190000D03*
%TO.P,D1,C*%
%TO.N,Net-(U2-~{CHG})*%
X162800000Y-96190000D03*
%TD*%
D12*
%TO.P,R1,1*%
%TO.N,Net-(U2-ISET)*%
X145855000Y-98480000D03*
%TO.P,R1,2*%
%TO.N,GND*%
X144385000Y-98480000D03*
%TD*%
D29*
%TO.P,Q1,1*%
%TO.N,/GDR*%
X146015000Y-88585000D03*
%TO.P,Q1,2*%
%TO.N,/RESE*%
X146015000Y-90415000D03*
%TO.P,Q1,3*%
%TO.N,Net-(C11-Pad2)*%
X143965000Y-89500000D03*
%TD*%
D30*
%TO.P,U2,1,IN*%
%TO.N,/5V_IN*%
X149790000Y-99340000D03*
%TO.P,U2,2,ISET*%
%TO.N,Net-(U2-ISET)*%
X149790000Y-98940000D03*
%TO.P,U2,3,VSS*%
%TO.N,GND*%
X149790000Y-98540000D03*
%TO.P,U2,4,PRETERM*%
%TO.N,Net-(U2-PRETERM)*%
X149790000Y-98140000D03*
%TO.P,U2,5,~{PG}*%
%TO.N,unconnected-(U2-~{PG}-Pad5)*%
X149790000Y-97740000D03*
%TO.P,U2,6*%
%TO.N,N/C*%
X151760000Y-97740000D03*
%TO.P,U2,7,ISET2*%
%TO.N,GND*%
X151760000Y-98140000D03*
%TO.P,U2,8,~{CHG}*%
%TO.N,Net-(U2-~{CHG})*%
X151760000Y-98540000D03*
%TO.P,U2,9,TS*%
%TO.N,unconnected-(U2-TS-Pad9)*%
X151760000Y-98940000D03*
%TO.P,U2,10,OUT*%
%TO.N,Net-(U2-OUT)*%
X151760000Y-99340000D03*
D31*
%TO.P,U2,11,EXP*%
%TO.N,GND*%
X150775000Y-98540000D03*
%TD*%
D32*
%TO.P,J2,1,1*%
%TO.N,Net-(U2-OUT)*%
X160450000Y-100567500D03*
D33*
%TO.P,J2,2,2*%
%TO.N,GND*%
X158450000Y-100567500D03*
%TD*%
D34*
%TO.P,R7,1*%
%TO.N,/GDR*%
X138580000Y-87705000D03*
%TO.P,R7,2*%
%TO.N,GND*%
X138580000Y-86235000D03*
%TD*%
D35*
%TO.P,C11,1*%
%TO.N,Net-(C11-Pad1)*%
X143960000Y-93930000D03*
%TO.P,C11,2*%
%TO.N,Net-(C11-Pad2)*%
X143960000Y-92370000D03*
%TD*%
D36*
%TO.P,R2,1*%
%TO.N,Net-(U2-PRETERM)*%
X145722000Y-96950000D03*
%TO.P,R2,2*%
%TO.N,GND*%
X144198000Y-96950000D03*
%TD*%
D12*
%TO.P,R3,1*%
%TO.N,Net-(U2-OUT)*%
X162875000Y-97890000D03*
%TO.P,R3,2*%
%TO.N,Net-(D1-PadA)*%
X164345000Y-97890000D03*
%TD*%
%TO.P,R5,1*%
%TO.N,/3V3*%
X166645000Y-98300000D03*
%TO.P,R5,2*%
%TO.N,Net-(U3-FB)*%
X168115000Y-98300000D03*
%TD*%
D13*
%TO.P,C4,1*%
%TO.N,/3V3*%
X152750000Y-83510000D03*
%TO.P,C4,2*%
%TO.N,GND*%
X152750000Y-85070000D03*
%TD*%
D37*
%TO.N,GND*%
X165600000Y-81750000D03*
X137000000Y-81500000D03*
X165200000Y-107600000D03*
X151000000Y-92000000D03*
X167420000Y-90480000D03*
X134100000Y-107200000D03*
%TO.N,/5V_IN*%
X145950000Y-100320000D03*
X152380000Y-102845000D03*
%TO.N,/3V3*%
X152750000Y-83510000D03*
%TO.N,Net-(U1-EN)*%
X154325000Y-97530000D03*
%TO.N,Net-(C12-Pad1)*%
X134360000Y-90290000D03*
%TO.N,Net-(C13-Pad1)*%
X134220000Y-92320000D03*
%TO.N,Net-(C14-Pad1)*%
X134230000Y-93920000D03*
%TO.N,Net-(C15-Pad1)*%
X134220000Y-95490000D03*
%TO.N,Net-(C16-Pad1)*%
X134190000Y-97100000D03*
%TO.N,/PREVGL*%
X134180000Y-98700000D03*
%TO.N,/VCOM*%
X136570000Y-102190000D03*
%TO.N,/USB_D_N*%
X149220000Y-104300000D03*
%TO.N,/USB_D_P*%
X150920000Y-104040000D03*
%TO.N,/RES*%
X135420000Y-91270000D03*
X145750000Y-83510000D03*
X140210000Y-84230000D03*
%TO.N,/CS*%
X145340000Y-94780000D03*
%TO.N,/SCLK*%
X140800000Y-91170000D03*
X140990000Y-87160000D03*
X140694229Y-96005771D03*
%TO.N,/SDI*%
X143470000Y-91090000D03*
%TO.N,/DC*%
X138220000Y-93050000D03*
X144900000Y-84610000D03*
X140310000Y-85420000D03*
%TO.N,/BUSY*%
X140290000Y-87910000D03*
%TO.N,Net-(U1-IO33)*%
X138341252Y-93895946D03*
X142150000Y-93010000D03*
X132315000Y-102290000D03*
X132310000Y-104590000D03*
%TO.N,Net-(U1-IO34)*%
X138383919Y-94696081D03*
X141050000Y-93850000D03*
%TO.N,Net-(U1-IO35)*%
X167665000Y-102310000D03*
X167665000Y-104610000D03*
%TD*%
D38*
%TO.N,/5V_IN*%
X151690000Y-104992500D02*
X151690000Y-103535000D01*
D39*
X147390000Y-100320000D02*
X148370000Y-99340000D01*
D38*
X151690000Y-103535000D02*
X152380000Y-102845000D01*
D39*
X148370000Y-99340000D02*
X149790000Y-99340000D01*
X145950000Y-100320000D02*
X147390000Y-100320000D01*
D38*
%TO.N,Net-(U2-OUT)*%
X160450000Y-100567500D02*
X160450000Y-100315000D01*
X164090000Y-100720000D02*
X162880000Y-99510000D01*
X162880000Y-99060000D02*
X162875000Y-99055000D01*
X162880000Y-99510000D02*
X162880000Y-99060000D01*
X163763062Y-102020000D02*
X162880000Y-101136938D01*
X152630000Y-99340000D02*
X153730000Y-100440000D01*
X162880000Y-101136938D02*
X162880000Y-99510000D01*
X164090000Y-102020000D02*
X163763062Y-102020000D01*
X154860000Y-99310000D02*
X156680000Y-99310000D01*
X164090000Y-103300000D02*
X164090000Y-104090000D01*
X160450000Y-100315000D02*
X162875000Y-97890000D01*
X156680000Y-99310000D02*
X158100000Y-97890000D01*
X153730000Y-100440000D02*
X154860000Y-99310000D01*
X162880000Y-101136938D02*
X162880000Y-102090000D01*
X158100000Y-97890000D02*
X162875000Y-97890000D01*
X151760000Y-99340000D02*
X152630000Y-99340000D01*
X162880000Y-102090000D02*
X164090000Y-103300000D01*
X162875000Y-99055000D02*
X162875000Y-97890000D01*
%TO.N,/3V3*%
X166650000Y-98305000D02*
X166645000Y-98300000D01*
X150720000Y-83510000D02*
X147750000Y-83510000D01*
X152750000Y-83510000D02*
X150720000Y-83510000D01*
X156821980Y-80932000D02*
X161978020Y-80932000D01*
X165140000Y-93610000D02*
X165140000Y-95070000D01*
X166650000Y-99540000D02*
X166650000Y-98305000D01*
X165140000Y-95070000D02*
X165510000Y-95440000D01*
X165510000Y-97165000D02*
X166645000Y-98300000D01*
X165510000Y-95440000D02*
X165510000Y-97165000D01*
X147750000Y-83510000D02*
X146410000Y-82170000D01*
X166140000Y-100720000D02*
X166140000Y-100050000D01*
X165140000Y-84093980D02*
X165140000Y-93610000D01*
X166140000Y-100050000D02*
X166650000Y-99540000D01*
X154430000Y-83323980D02*
X156821980Y-80932000D01*
X152750000Y-83510000D02*
X154430000Y-83510000D01*
X161978020Y-80932000D02*
X165140000Y-84093980D01*
X154430000Y-83510000D02*
X154430000Y-83323980D01*
%TO.N,/PREVGH*%
X148940000Y-95140000D02*
X152940000Y-95140000D01*
X136570000Y-98290000D02*
X140310000Y-98290000D01*
X141960000Y-95290000D02*
X143040000Y-94210000D01*
X148480000Y-93930000D02*
X148480000Y-94680000D01*
X153470000Y-91550000D02*
X153470000Y-93750000D01*
X153470000Y-94610000D02*
X153470000Y-93750000D01*
X140310000Y-98290000D02*
X141960000Y-96640000D01*
X148480000Y-94680000D02*
X148940000Y-95140000D01*
X141960000Y-96640000D02*
X141960000Y-95290000D01*
X143040000Y-94210000D02*
X143040000Y-93530000D01*
X147700000Y-93150000D02*
X148480000Y-93930000D01*
X143420000Y-93150000D02*
X147700000Y-93150000D01*
X143040000Y-93530000D02*
X143420000Y-93150000D01*
X152940000Y-95140000D02*
X153470000Y-94610000D01*
%TO.N,Net-(C11-Pad1)*%
X146540000Y-93930000D02*
X146590000Y-93880000D01*
X143960000Y-93930000D02*
X142340000Y-95550000D01*
X142340000Y-95550000D02*
X142340000Y-99400000D01*
X143960000Y-93930000D02*
X146540000Y-93930000D01*
%TO.N,Net-(C11-Pad2)*%
X147320000Y-90264212D02*
X145214212Y-92370000D01*
X146410000Y-86770000D02*
X147320000Y-87680000D01*
X145214212Y-92370000D02*
X143960000Y-92370000D01*
X147320000Y-87680000D02*
X147320000Y-90264212D01*
X146410000Y-86770000D02*
X152050000Y-86770000D01*
X143965000Y-89500000D02*
X146600000Y-89500000D01*
X152050000Y-86770000D02*
X153470000Y-88190000D01*
X147320000Y-88780000D02*
X147320000Y-87680000D01*
X146600000Y-89500000D02*
X147320000Y-88780000D01*
%TO.N,Net-(C12-Pad1)*%
X136570000Y-90290000D02*
X134360000Y-90290000D01*
%TO.N,Net-(C13-Pad1)*%
X135720000Y-95290000D02*
X135510469Y-95080469D01*
X136570000Y-95790000D02*
X136220000Y-95790000D01*
X135100000Y-93200000D02*
X134220000Y-92320000D01*
X135510469Y-94116547D02*
X135100000Y-93706078D01*
X136220000Y-95790000D02*
X135720000Y-95290000D01*
X136570000Y-95290000D02*
X135720000Y-95290000D01*
X135510469Y-95080469D02*
X135510469Y-94116547D01*
X135100000Y-93706078D02*
X135100000Y-93200000D01*
%TO.N,Net-(C14-Pad1)*%
X135980000Y-96790000D02*
X135790000Y-96600000D01*
X136570000Y-96790000D02*
X135980000Y-96790000D01*
X135140000Y-94270000D02*
X134790000Y-93920000D01*
X134790000Y-93920000D02*
X134230000Y-93920000D01*
X136570000Y-96790000D02*
X136570000Y-96800000D01*
X135790000Y-96600000D02*
X135790000Y-95883922D01*
X135140000Y-95233922D02*
X135140000Y-94270000D01*
X135790000Y-95883922D02*
X135140000Y-95233922D01*
%TO.N,Net-(C15-Pad1)*%
X135910000Y-97790000D02*
X135410000Y-97290000D01*
X135410000Y-97290000D02*
X135410000Y-96027844D01*
X134872156Y-95490000D02*
X134220000Y-95490000D01*
X135410000Y-96027844D02*
X134872156Y-95490000D01*
X136570000Y-97790000D02*
X135910000Y-97790000D01*
%TO.N,Net-(C16-Pad1)*%
X135800000Y-98790000D02*
X134190000Y-97180000D01*
X134190000Y-97180000D02*
X134190000Y-97100000D01*
X136570000Y-98790000D02*
X135800000Y-98790000D01*
%TO.N,/PREVGL*%
X138870000Y-99290000D02*
X138980000Y-99400000D01*
X134770000Y-99290000D02*
X134180000Y-98700000D01*
X136570000Y-99290000D02*
X134770000Y-99290000D01*
X136570000Y-99290000D02*
X138870000Y-99290000D01*
%TO.N,/VCOM*%
X136570000Y-99790000D02*
X136570000Y-102190000D01*
%TO.N,Net-(U2-~{CHG})*%
X161570000Y-97420000D02*
X157590000Y-97420000D01*
X156470000Y-98540000D02*
X151760000Y-98540000D01*
X162800000Y-96190000D02*
X161570000Y-97420000D01*
X157590000Y-97420000D02*
X156470000Y-98540000D01*
%TO.N,Net-(D1-PadA)*%
X164345000Y-96235000D02*
X164300000Y-96190000D01*
X164345000Y-97890000D02*
X164345000Y-96235000D01*
%TO.N,/USB_D_N*%
X149342500Y-104992500D02*
X150190000Y-104992500D01*
X149220000Y-104300000D02*
X149220000Y-104870000D01*
X149220000Y-104870000D02*
X149342500Y-104992500D01*
%TO.N,/USB_D_P*%
X150690000Y-104270000D02*
X150690000Y-104992500D01*
X150920000Y-104040000D02*
X150690000Y-104270000D01*
%TO.N,/GDR*%
X138878453Y-87406547D02*
X139239531Y-87406547D01*
X140646078Y-86000000D02*
X141540000Y-86000000D01*
X136570000Y-88790000D02*
X137495000Y-88790000D01*
X141540000Y-86000000D02*
X144125000Y-88585000D01*
X138580000Y-87705000D02*
X138878453Y-87406547D01*
X137495000Y-88790000D02*
X138580000Y-87705000D01*
X139239531Y-87406547D02*
X140646078Y-86000000D01*
X144125000Y-88585000D02*
X146015000Y-88585000D01*
%TO.N,/RES*%
X140466031Y-83973969D02*
X145286031Y-83973969D01*
X135420000Y-92096078D02*
X135420000Y-91270000D01*
X140210000Y-84230000D02*
X140466031Y-83973969D01*
X136570000Y-92790000D02*
X136113922Y-92790000D01*
X145286031Y-83973969D02*
X145750000Y-83510000D01*
X136113922Y-92790000D02*
X135420000Y-92096078D01*
%TO.N,/CS*%
X143370000Y-95347838D02*
X143370000Y-100710000D01*
X143937838Y-94780000D02*
X143370000Y-95347838D01*
X135480000Y-93562156D02*
X135707844Y-93790000D01*
X145340000Y-94780000D02*
X143937838Y-94780000D01*
X143370000Y-100710000D02*
X140910000Y-103170000D01*
X135363062Y-103170000D02*
X130960000Y-98766938D01*
X135707844Y-93790000D02*
X136570000Y-93790000D01*
X130960000Y-98766938D02*
X130960000Y-92370000D01*
X131960000Y-91370000D02*
X134170000Y-91370000D01*
X130960000Y-92370000D02*
X131960000Y-91370000D01*
X134170000Y-91370000D02*
X135480000Y-92680000D01*
X140910000Y-103170000D02*
X135363062Y-103170000D01*
X135480000Y-92680000D02*
X135480000Y-93562156D01*
%TO.N,/SCLK*%
X138880000Y-96020000D02*
X137150000Y-94290000D01*
X137150000Y-94290000D02*
X136570000Y-94290000D01*
X140800000Y-91170000D02*
X140990000Y-90980000D01*
X140680000Y-96020000D02*
X138880000Y-96020000D01*
X140694229Y-96005771D02*
X140680000Y-96020000D01*
X140990000Y-90980000D02*
X140990000Y-87160000D01*
%TO.N,/RESE*%
X142970000Y-89890000D02*
X142970000Y-88060000D01*
X143495000Y-90415000D02*
X142970000Y-89890000D01*
X141320000Y-86410000D02*
X140760000Y-86410000D01*
X139610000Y-87560000D02*
X139610000Y-88250000D01*
X139610000Y-88250000D02*
X138590000Y-89270000D01*
X138570000Y-89290000D02*
X138590000Y-89270000D01*
X142970000Y-88060000D02*
X141320000Y-86410000D01*
X140760000Y-86410000D02*
X139610000Y-87560000D01*
X146015000Y-90415000D02*
X143495000Y-90415000D01*
X136570000Y-89290000D02*
X138570000Y-89290000D01*
%TO.N,/SDI*%
X142890000Y-91660000D02*
X143460000Y-91090000D01*
X142890000Y-93156078D02*
X142890000Y-91660000D01*
X137340000Y-95060000D02*
X137340000Y-96980000D01*
X136570000Y-94790000D02*
X137070000Y-94790000D01*
X137340000Y-96980000D02*
X138200000Y-97840000D01*
X137070000Y-94790000D02*
X137340000Y-95060000D01*
X141589531Y-96420469D02*
X141589531Y-95136547D01*
X138200000Y-97840000D02*
X140170000Y-97840000D01*
X142669531Y-94056547D02*
X142669531Y-93376547D01*
X143460000Y-91090000D02*
X143470000Y-91090000D01*
X140170000Y-97840000D02*
X141589531Y-96420469D01*
X141589531Y-95136547D02*
X142669531Y-94056547D01*
X142669531Y-93376547D02*
X142890000Y-93156078D01*
%TO.N,/DC*%
X137980000Y-93290000D02*
X138220000Y-93050000D01*
X141120000Y-84610000D02*
X144900000Y-84610000D01*
X136570000Y-93290000D02*
X137980000Y-93290000D01*
X140310000Y-85420000D02*
X141120000Y-84610000D01*
%TO.N,/BUSY*%
X136570000Y-92290000D02*
X138556938Y-92290000D01*
X138556938Y-92290000D02*
X140290000Y-90556938D01*
X140290000Y-90556938D02*
X140290000Y-87910000D01*
D39*
%TO.N,Net-(U2-ISET)*%
X149790000Y-98940000D02*
X146315000Y-98940000D01*
X146315000Y-98940000D02*
X145855000Y-98480000D01*
D38*
%TO.N,Net-(U2-PRETERM)*%
X149790000Y-98140000D02*
X148810000Y-98140000D01*
X147620000Y-96950000D02*
X145722000Y-96950000D01*
X148810000Y-98140000D02*
X147620000Y-96950000D01*
%TO.N,Net-(U3-FB)*%
X168115000Y-98300000D02*
X168115000Y-99979000D01*
X168115000Y-96603200D02*
X168118200Y-96600000D01*
X168115000Y-99979000D02*
X166724000Y-101370000D01*
X168115000Y-98300000D02*
X168115000Y-96603200D01*
X166724000Y-101370000D02*
X166140000Y-101370000D01*
%TO.N,Net-(U1-IO33)*%
X132310000Y-104590000D02*
X132310000Y-102295000D01*
X138341252Y-93895946D02*
X139227198Y-93010000D01*
X139227198Y-93010000D02*
X142150000Y-93010000D01*
X132310000Y-102295000D02*
X132315000Y-102290000D01*
%TO.N,Net-(U1-IO34)*%
X139220000Y-93860000D02*
X141040000Y-93860000D01*
X138383919Y-94696081D02*
X139220000Y-93860000D01*
X141040000Y-93860000D02*
X141050000Y-93850000D01*
%TO.N,Net-(U1-IO35)*%
X167665000Y-104610000D02*
X167665000Y-102310000D01*
%TD*%
%TA.AperFunction,Conductor*%
%TO.N,GND*%
G36*
X156794334Y-81949578D02*
G01*
X156850267Y-81991450D01*
X156874684Y-82056914D01*
X156875000Y-82065760D01*
X156875000Y-96460000D01*
X161343219Y-96460000D01*
X161364464Y-96466238D01*
X161386553Y-96467818D01*
X161397336Y-96475890D01*
X161410258Y-96479685D01*
X161424757Y-96496418D01*
X161442486Y-96509690D01*
X161447193Y-96522310D01*
X161456013Y-96532489D01*
X161459164Y-96554406D01*
X161466903Y-96575154D01*
X161464040Y-96588314D01*
X161465957Y-96601647D01*
X161456757Y-96621790D01*
X161452051Y-96643427D01*
X161438782Y-96661152D01*
X161436932Y-96665203D01*
X161430900Y-96671681D01*
X161346400Y-96756181D01*
X161285077Y-96789666D01*
X161258719Y-96792500D01*
X157528195Y-96792500D01*
X157406970Y-96816613D01*
X157406960Y-96816616D01*
X157292773Y-96863913D01*
X157292766Y-96863917D01*
X157261387Y-96884884D01*
X157230007Y-96905852D01*
X157230006Y-96905853D01*
X157189989Y-96932590D01*
X157189988Y-96932591D01*
X157027180Y-97095400D01*
X156965857Y-97128885D01*
X156896165Y-97123901D01*
X156840232Y-97082029D01*
X156815815Y-97016565D01*
X156815499Y-97007719D01*
X156815499Y-96972129D01*
X156815498Y-96972123D01*
X156815497Y-96972116D01*
X156809091Y-96912517D01*
X156806605Y-96905853D01*
X156758797Y-96777671D01*
X156758793Y-96777664D01*
X156672547Y-96662455D01*
X156672544Y-96662452D01*
X156557335Y-96576206D01*
X156557328Y-96576202D01*
X156422482Y-96525908D01*
X156422483Y-96525908D01*
X156362883Y-96519501D01*
X156362881Y-96519500D01*
X156362873Y-96519500D01*
X156362864Y-96519500D01*
X155227129Y-96519500D01*
X155227123Y-96519501D01*
X155167514Y-96525909D01*
X155103332Y-96549847D01*
X155033640Y-96554831D01*
X155016668Y-96549847D01*
X154952485Y-96525909D01*
X154952483Y-96525908D01*
X154892883Y-96519501D01*
X154892881Y-96519500D01*
X154892873Y-96519500D01*
X154892864Y-96519500D01*
X153757129Y-96519500D01*
X153757123Y-96519501D01*
X153697516Y-96525908D01*
X153562671Y-96576202D01*
X153562664Y-96576206D01*
X153447455Y-96662452D01*
X153447452Y-96662455D01*
X153361206Y-96777664D01*
X153361202Y-96777671D01*
X153310908Y-96912517D01*
X153304501Y-96972116D01*
X153304500Y-96972127D01*
X153304500Y-97432457D01*
X153304501Y-97788500D01*
X153284817Y-97855539D01*
X153232013Y-97901294D01*
X153180501Y-97912500D01*
X152764500Y-97912500D01*
X152697461Y-97892815D01*
X152651706Y-97840011D01*
X152640500Y-97788501D01*
X152640499Y-97582130D01*
X152640498Y-97582123D01*
X152640001Y-97577500D01*
X152634091Y-97522517D01*
X152628817Y-97508378D01*
X152583797Y-97387671D01*
X152583793Y-97387664D01*
X152497547Y-97272455D01*
X152497544Y-97272452D01*
X152382335Y-97186206D01*
X152382328Y-97186202D01*
X152247482Y-97135908D01*
X152247483Y-97135908D01*
X152187883Y-97129501D01*
X152187881Y-97129500D01*
X152187873Y-97129500D01*
X152187864Y-97129500D01*
X151332129Y-97129500D01*
X151332123Y-97129501D01*
X151272516Y-97135908D01*
X151137671Y-97186202D01*
X151137664Y-97186206D01*
X151022455Y-97272452D01*
X151022452Y-97272455D01*
X150936206Y-97387664D01*
X150936202Y-97387671D01*
X150891182Y-97508378D01*
X150849311Y-97564312D01*
X150783847Y-97588729D01*
X150715574Y-97573877D01*
X150666168Y-97524472D01*
X150658818Y-97508378D01*
X150613797Y-97387671D01*
X150613793Y-97387664D01*
X150527547Y-97272455D01*
X150527544Y-97272452D01*
X150412335Y-97186206D01*
X150412328Y-97186202D01*
X150277482Y-97135908D01*
X150277483Y-97135908D01*
X150217883Y-97129501D01*
X150217881Y-97129500D01*
X150217873Y-97129500D01*
X150217864Y-97129500D01*
X149362129Y-97129500D01*
X149362123Y-97129501D01*
X149302516Y-97135908D01*
X149167671Y-97186202D01*
X149167664Y-97186206D01*
X149052455Y-97272452D01*
X149052454Y-97272453D01*
X149042921Y-97285188D01*
X148986987Y-97327058D01*
X148917295Y-97332041D01*
X148855975Y-97298556D01*
X148020013Y-96462593D01*
X148020009Y-96462590D01*
X148020008Y-96462589D01*
X148016100Y-96459978D01*
X147917233Y-96393917D01*
X147875460Y-96376614D01*
X147867617Y-96373365D01*
X147867615Y-96373364D01*
X147803035Y-96346614D01*
X147803027Y-96346612D01*
X147681807Y-96322500D01*
X147681803Y-96322500D01*
X146662738Y-96322500D01*
X146595699Y-96302815D01*
X146556006Y-96261622D01*
X146542495Y-96238776D01*
X146542492Y-96238773D01*
X146542490Y-96238770D01*
X146433229Y-96129509D01*
X146433221Y-96129503D01*
X146300212Y-96050842D01*
X146300206Y-96050840D01*
X146151819Y-96007729D01*
X146151813Y-96007728D01*
X146117145Y-96005000D01*
X146117140Y-96005000D01*
X145326860Y-96005000D01*
X145326854Y-96005000D01*
X145292186Y-96007728D01*
X145292180Y-96007729D01*
X145143793Y-96050840D01*
X145143790Y-96050841D01*
X145022628Y-96122495D01*
X144954904Y-96139676D01*
X144896388Y-96122495D01*
X144776007Y-96051303D01*
X144627740Y-96008227D01*
X144627734Y-96008226D01*
X144593093Y-96005500D01*
X144448000Y-96005500D01*
X144448000Y-97340000D01*
X144511000Y-97340000D01*
X144578039Y-97359685D01*
X144623794Y-97412489D01*
X144635000Y-97464000D01*
X144635000Y-99251037D01*
X144637166Y-99255004D01*
X144640000Y-99281362D01*
X144640000Y-101285000D01*
X144756143Y-101285000D01*
X144756157Y-101284999D01*
X144875165Y-101269330D01*
X144875169Y-101269329D01*
X145023249Y-101207993D01*
X145090165Y-101156647D01*
X145155334Y-101131453D01*
X145223779Y-101145491D01*
X145241653Y-101157044D01*
X145247370Y-101161479D01*
X145293730Y-101188896D01*
X145379865Y-101239836D01*
X145382089Y-101240482D01*
X145527680Y-101282781D01*
X145527683Y-101282781D01*
X145527685Y-101282782D01*
X145562223Y-101285500D01*
X146337776Y-101285499D01*
X146372315Y-101282782D01*
X146520135Y-101239836D01*
X146652631Y-101161478D01*
X146761478Y-101052631D01*
X146828612Y-100939112D01*
X146879681Y-100891430D01*
X146935344Y-100878234D01*
X147463490Y-100878234D01*
X147463492Y-100878234D01*
X147463493Y-100878234D01*
X147605470Y-100840191D01*
X147732764Y-100766698D01*
X147836698Y-100662764D01*
X148564909Y-99934553D01*
X148626232Y-99901068D01*
X148652590Y-99898234D01*
X149157196Y-99898234D01*
X149200529Y-99906052D01*
X149302517Y-99944091D01*
X149302516Y-99944091D01*
X149309444Y-99944835D01*
X149362127Y-99950500D01*
X150217872Y-99950499D01*
X150277483Y-99944091D01*
X150412331Y-99893796D01*
X150527546Y-99807546D01*
X150613796Y-99692331D01*
X150651013Y-99592548D01*
X150658818Y-99571621D01*
X150700689Y-99515687D01*
X150766153Y-99491270D01*
X150834426Y-99506121D01*
X150883832Y-99555526D01*
X150891182Y-99571621D01*
X150936202Y-99692328D01*
X150936206Y-99692335D01*
X151022452Y-99807544D01*
X151022455Y-99807547D01*
X151137664Y-99893793D01*
X151137671Y-99893797D01*
X151157166Y-99901068D01*
X151272517Y-99944091D01*
X151332127Y-99950500D01*
X151600518Y-99950499D01*
X151624711Y-99952882D01*
X151698195Y-99967500D01*
X151698197Y-99967500D01*
X152318719Y-99967500D01*
X152385758Y-99987185D01*
X152406400Y-100003819D01*
X152758181Y-100355600D01*
X152791666Y-100416923D01*
X152794500Y-100443281D01*
X152794500Y-100857764D01*
X152794501Y-100857789D01*
X152797218Y-100892315D01*
X152840162Y-101040130D01*
X152840163Y-101040133D01*
X152840164Y-101040135D01*
X152857690Y-101069770D01*
X152918519Y-101172627D01*
X152918526Y-101172636D01*
X153027363Y-101281473D01*
X153027372Y-101281480D01*
X153033324Y-101285000D01*
X153159865Y-101359836D01*
X153198847Y-101371161D01*
X153307680Y-101402781D01*
X153307683Y-101402781D01*
X153307685Y-101402782D01*
X153342223Y-101405500D01*
X154117776Y-101405499D01*
X154152315Y-101402782D01*
X154300135Y-101359836D01*
X154432631Y-101281478D01*
X154432637Y-101281471D01*
X154438337Y-101277050D01*
X154503370Y-101251509D01*
X154571889Y-101265182D01*
X154589834Y-101276647D01*
X154656747Y-101327992D01*
X154804830Y-101389329D01*
X154804834Y-101389330D01*
X154923842Y-101404999D01*
X154923857Y-101405000D01*
X155040000Y-101405000D01*
X155540000Y-101405000D01*
X155656143Y-101405000D01*
X155656157Y-101404999D01*
X155775165Y-101389330D01*
X155775166Y-101389330D01*
X155796176Y-101380628D01*
X155796177Y-101380627D01*
X155923251Y-101327992D01*
X156050415Y-101230415D01*
X156147992Y-101103251D01*
X156209329Y-100955169D01*
X156209330Y-100955165D01*
X156224999Y-100836157D01*
X156225000Y-100836143D01*
X156225000Y-100690000D01*
X155540000Y-100690000D01*
X155540000Y-101405000D01*
X155040000Y-101405000D01*
X155040000Y-100564000D01*
X155059685Y-100496961D01*
X155112489Y-100451206D01*
X155164000Y-100440000D01*
X155290000Y-100440000D01*
X155290000Y-100314000D01*
X155309685Y-100246961D01*
X155362489Y-100201206D01*
X155414000Y-100190000D01*
X156225000Y-100190000D01*
X156225000Y-100061500D01*
X156244685Y-99994461D01*
X156297489Y-99948706D01*
X156349000Y-99937500D01*
X156741804Y-99937500D01*
X156741805Y-99937499D01*
X156863035Y-99913386D01*
X156943784Y-99879937D01*
X156977233Y-99866083D01*
X157080008Y-99797411D01*
X157167411Y-99710008D01*
X158323600Y-98553819D01*
X158384923Y-98520334D01*
X158411281Y-98517500D01*
X161060719Y-98517500D01*
X161127758Y-98537185D01*
X161173513Y-98589989D01*
X161183457Y-98659147D01*
X161154432Y-98722703D01*
X161148400Y-98729181D01*
X160500898Y-99376681D01*
X160439575Y-99410166D01*
X160413217Y-99413000D01*
X159748129Y-99413000D01*
X159748123Y-99413001D01*
X159688516Y-99419408D01*
X159553671Y-99469702D01*
X159553664Y-99469706D01*
X159438455Y-99555952D01*
X159438452Y-99555955D01*
X159352206Y-99671164D01*
X159352202Y-99671171D01*
X159301908Y-99806017D01*
X159295501Y-99865616D01*
X159295500Y-99865635D01*
X159295500Y-100024191D01*
X159275815Y-100091230D01*
X159259181Y-100111872D01*
X158850000Y-100521053D01*
X158850000Y-100514839D01*
X158822741Y-100413106D01*
X158770080Y-100321894D01*
X158695606Y-100247420D01*
X158604394Y-100194759D01*
X158502661Y-100167500D01*
X158496447Y-100167500D01*
X159071396Y-99592549D01*
X159071395Y-99592548D01*
X159054834Y-99580514D01*
X159054830Y-99580512D01*
X158892984Y-99498048D01*
X158720225Y-99441915D01*
X158540821Y-99413500D01*
X158359179Y-99413500D01*
X158179774Y-99441915D01*
X158007015Y-99498048D01*
X157845170Y-99580512D01*
X157845161Y-99580518D01*
X157828603Y-99592548D01*
X157828602Y-99592549D01*
X158403554Y-100167500D01*
X158397339Y-100167500D01*
X158295606Y-100194759D01*
X158204394Y-100247420D01*
X158129920Y-100321894D01*
X158077259Y-100413106D01*
X158050000Y-100514839D01*
X158050000Y-100521053D01*
X157475049Y-99946102D01*
X157475048Y-99946103D01*
X157463018Y-99962661D01*
X157463012Y-99962670D01*
X157380548Y-100124515D01*
X157324415Y-100297274D01*
X157296000Y-100476678D01*
X157296000Y-100658321D01*
X157324415Y-100837725D01*
X157380548Y-101010484D01*
X157463012Y-101172330D01*
X157463014Y-101172334D01*
X157475048Y-101188895D01*
X157475049Y-101188896D01*
X158050000Y-100613945D01*
X158050000Y-100620161D01*
X158077259Y-100721894D01*
X158129920Y-100813106D01*
X158204394Y-100887580D01*
X158295606Y-100940241D01*
X158397339Y-100967500D01*
X158403554Y-100967500D01*
X157828602Y-101542449D01*
X157828603Y-101542450D01*
X157845165Y-101554485D01*
X157845179Y-101554493D01*
X158007012Y-101636950D01*
X158179774Y-101693084D01*
X158359179Y-101721500D01*
X158540821Y-101721500D01*
X158720225Y-101693084D01*
X158892984Y-101636951D01*
X159054831Y-101554486D01*
X159071396Y-101542449D01*
X158496447Y-100967500D01*
X158502661Y-100967500D01*
X158604394Y-100940241D01*
X158695606Y-100887580D01*
X158770080Y-100813106D01*
X158822741Y-100721894D01*
X158850000Y-100620161D01*
X158850000Y-100613946D01*
X159259181Y-101023127D01*
X159292666Y-101084450D01*
X159295500Y-101110807D01*
X159295500Y-101269369D01*
X159295501Y-101269376D01*
X159301908Y-101328983D01*
X159352202Y-101463828D01*
X159352206Y-101463835D01*
X159438452Y-101579044D01*
X159438455Y-101579047D01*
X159553664Y-101665293D01*
X159553671Y-101665297D01*
X159688517Y-101715591D01*
X159688516Y-101715591D01*
X159695444Y-101716335D01*
X159748127Y-101722000D01*
X161151872Y-101721999D01*
X161211483Y-101715591D01*
X161346331Y-101665296D01*
X161461546Y-101579046D01*
X161547796Y-101463831D01*
X161598091Y-101328983D01*
X161604500Y-101269373D01*
X161604499Y-100099280D01*
X161624184Y-100032242D01*
X161640818Y-100011600D01*
X161899658Y-99752760D01*
X162040820Y-99611598D01*
X162102142Y-99578114D01*
X162171834Y-99583098D01*
X162227767Y-99624970D01*
X162252184Y-99690434D01*
X162252500Y-99699280D01*
X162252500Y-102151807D01*
X162276612Y-102273028D01*
X162276614Y-102273035D01*
X162304560Y-102340500D01*
X162323917Y-102387233D01*
X162390735Y-102487233D01*
X162392589Y-102490008D01*
X162392686Y-102490105D01*
X162392688Y-102490108D01*
X163195904Y-103293324D01*
X163229389Y-103354647D01*
X163224405Y-103424339D01*
X163214956Y-103444125D01*
X163170162Y-103519868D01*
X163170162Y-103519869D01*
X163127218Y-103667680D01*
X163127217Y-103667686D01*
X163124500Y-103702215D01*
X163124500Y-104477764D01*
X163124501Y-104477789D01*
X163127218Y-104512315D01*
X163170162Y-104660130D01*
X163170163Y-104660133D01*
X163248520Y-104792628D01*
X163252956Y-104798347D01*
X163278490Y-104863383D01*
X163264810Y-104931901D01*
X163253353Y-104949832D01*
X163202007Y-105016748D01*
X163140670Y-105164830D01*
X163140669Y-105164834D01*
X163125000Y-105283842D01*
X163125000Y-105400000D01*
X165055000Y-105400000D01*
X165055000Y-105283856D01*
X165054999Y-105283842D01*
X165039330Y-105164834D01*
X165039329Y-105164830D01*
X164977992Y-105016747D01*
X164926647Y-104949834D01*
X164901452Y-104884665D01*
X164915490Y-104816220D01*
X164927050Y-104798337D01*
X164931471Y-104792637D01*
X164931478Y-104792631D01*
X165009836Y-104660135D01*
X165052782Y-104512315D01*
X165055500Y-104477777D01*
X165055499Y-103702224D01*
X165052782Y-103667685D01*
X165009836Y-103519865D01*
X164931478Y-103387369D01*
X164931476Y-103387367D01*
X164931473Y-103387363D01*
X164822636Y-103278526D01*
X164822627Y-103278519D01*
X164760261Y-103241636D01*
X164712577Y-103190567D01*
X164701766Y-103159101D01*
X164693385Y-103116965D01*
X164664649Y-103047589D01*
X164646086Y-103002773D01*
X164646079Y-103002760D01*
X164577411Y-102899992D01*
X164577408Y-102899988D01*
X164559600Y-102882180D01*
X164526115Y-102820857D01*
X164531099Y-102751165D01*
X164572971Y-102695232D01*
X164638435Y-102670815D01*
X164647255Y-102670499D01*
X165662872Y-102670499D01*
X165666197Y-102670321D01*
X165666243Y-102671191D01*
X165694890Y-102672977D01*
X165694913Y-102672769D01*
X165699572Y-102673269D01*
X165701833Y-102673411D01*
X165702625Y-102673598D01*
X165762155Y-102679999D01*
X165762172Y-102680000D01*
X165980000Y-102680000D01*
X165980000Y-102558859D01*
X165985462Y-102540255D01*
X165985962Y-102520873D01*
X165997986Y-102497603D01*
X165999685Y-102491820D01*
X166001445Y-102489156D01*
X166003024Y-102486831D01*
X166058796Y-102412331D01*
X166065042Y-102395584D01*
X166073445Y-102383221D01*
X166089347Y-102370142D01*
X166101686Y-102353659D01*
X166115786Y-102348399D01*
X166127409Y-102338841D01*
X166147857Y-102336436D01*
X166167150Y-102329240D01*
X166181855Y-102332438D01*
X166196801Y-102330681D01*
X166215303Y-102339713D01*
X166235423Y-102344090D01*
X166246065Y-102354731D01*
X166259588Y-102361333D01*
X166270269Y-102378933D01*
X166284830Y-102393493D01*
X166288986Y-102409775D01*
X166295837Y-102421064D01*
X166295473Y-102435189D01*
X166300000Y-102452924D01*
X166300000Y-102680000D01*
X166517828Y-102680000D01*
X166517844Y-102679999D01*
X166577372Y-102673598D01*
X166577379Y-102673596D01*
X166712086Y-102623354D01*
X166713921Y-102621981D01*
X166716068Y-102621179D01*
X166719872Y-102619103D01*
X166720170Y-102619649D01*
X166779385Y-102597561D01*
X166847658Y-102612410D01*
X166893962Y-102656453D01*
X166899063Y-102664777D01*
X166917588Y-102709500D01*
X167009888Y-102847636D01*
X167013079Y-102850827D01*
X167019226Y-102860857D01*
X167026210Y-102886673D01*
X167036665Y-102911285D01*
X167037500Y-102925649D01*
X167037500Y-103994350D01*
X167017815Y-104061389D01*
X167010565Y-104071349D01*
X166917591Y-104210493D01*
X166917584Y-104210506D01*
X166854012Y-104363984D01*
X166854009Y-104363996D01*
X166821600Y-104526927D01*
X166821600Y-104693072D01*
X166854009Y-104856003D01*
X166854012Y-104856015D01*
X166917584Y-105009493D01*
X166917591Y-105009506D01*
X167009887Y-105147635D01*
X167009890Y-105147639D01*
X167127360Y-105265109D01*
X167127364Y-105265112D01*
X167265493Y-105357408D01*
X167265506Y-105357415D01*
X167414634Y-105419185D01*
X167418989Y-105420989D01*
X167510468Y-105439185D01*
X167581927Y-105453399D01*
X167581931Y-105453400D01*
X167581932Y-105453400D01*
X167748069Y-105453400D01*
X167748070Y-105453399D01*
X167911011Y-105420989D01*
X168062810Y-105358111D01*
X168132279Y-105350643D01*
X168194758Y-105381918D01*
X168224821Y-105425216D01*
X168230602Y-105439171D01*
X168230609Y-105439185D01*
X168318210Y-105570288D01*
X168318213Y-105570292D01*
X168429707Y-105681786D01*
X168429711Y-105681789D01*
X168560814Y-105769390D01*
X168560827Y-105769397D01*
X168693589Y-105824388D01*
X168706503Y-105829737D01*
X168861153Y-105860499D01*
X168861156Y-105860500D01*
X168861158Y-105860500D01*
X168874108Y-105860500D01*
X169368412Y-105860500D01*
X169435451Y-105880185D01*
X169481206Y-105932989D01*
X169492410Y-105983919D01*
X169494002Y-106324473D01*
X169499471Y-107495363D01*
X169499156Y-107504788D01*
X169484869Y-107704556D01*
X169482351Y-107722068D01*
X169440646Y-107913787D01*
X169435662Y-107930763D01*
X169367091Y-108114607D01*
X169359740Y-108130701D01*
X169356788Y-108136107D01*
X169335638Y-108164360D01*
X168664361Y-108835637D01*
X168636107Y-108856788D01*
X168630701Y-108859740D01*
X168614607Y-108867091D01*
X168430763Y-108935662D01*
X168413787Y-108940646D01*
X168222068Y-108982351D01*
X168204557Y-108984869D01*
X168023779Y-108997799D01*
X168004417Y-108999184D01*
X167995572Y-108999500D01*
X155059433Y-108999500D01*
X154992394Y-108979815D01*
X154946639Y-108927011D01*
X154936695Y-108857853D01*
X154965720Y-108794297D01*
X154971752Y-108787819D01*
X155096167Y-108663403D01*
X155096170Y-108663399D01*
X155208340Y-108495526D01*
X155208347Y-108495513D01*
X155285609Y-108308983D01*
X155285612Y-108308974D01*
X155324999Y-108110958D01*
X155325000Y-108110955D01*
X155325000Y-107660000D01*
X154625000Y-107660000D01*
X154625000Y-107160000D01*
X155325000Y-107160000D01*
X155325000Y-106709045D01*
X155324999Y-106709041D01*
X155285612Y-106511025D01*
X155285609Y-106511016D01*
X155208347Y-106324486D01*
X155208340Y-106324473D01*
X155096170Y-106156600D01*
X155096167Y-106156596D01*
X154955728Y-106016157D01*
X163125000Y-106016157D01*
X163140669Y-106135165D01*
X163140670Y-106135169D01*
X163202007Y-106283251D01*
X163299584Y-106410415D01*
X163426748Y-106507992D01*
X163426747Y-106507992D01*
X163574830Y-106569329D01*
X163574834Y-106569330D01*
X163693842Y-106584999D01*
X163693857Y-106585000D01*
X163840000Y-106585000D01*
X164340000Y-106585000D01*
X164486143Y-106585000D01*
X164486157Y-106584999D01*
X164605165Y-106569330D01*
X164605169Y-106569329D01*
X164753251Y-106507992D01*
X164880415Y-106410415D01*
X164977992Y-106283251D01*
X165039329Y-106135169D01*
X165039330Y-106135165D01*
X165054999Y-106016157D01*
X165055000Y-106016143D01*
X165055000Y-105900000D01*
X164340000Y-105900000D01*
X164340000Y-106585000D01*
X163840000Y-106585000D01*
X163840000Y-105900000D01*
X163125000Y-105900000D01*
X163125000Y-106016157D01*
X154955728Y-106016157D01*
X154953403Y-106013832D01*
X154953399Y-106013829D01*
X154860477Y-105951740D01*
X154785526Y-105901659D01*
X154785513Y-105901652D01*
X154598984Y-105824390D01*
X154598977Y-105824388D01*
X154550000Y-105814645D01*
X154550000Y-106600382D01*
X154499554Y-106549936D01*
X154425445Y-106507149D01*
X154342787Y-106485000D01*
X154257213Y-106485000D01*
X154174555Y-106507149D01*
X154100446Y-106549936D01*
X154050000Y-106600382D01*
X154050000Y-105814646D01*
X154049999Y-105814645D01*
X154001022Y-105824388D01*
X154001015Y-105824390D01*
X153814486Y-105901652D01*
X153814473Y-105901659D01*
X153646600Y-106013829D01*
X153646596Y-106013832D01*
X153503832Y-106156596D01*
X153503829Y-106156600D01*
X153391659Y-106324473D01*
X153391652Y-106324486D01*
X153314390Y-106511016D01*
X153314387Y-106511025D01*
X153275000Y-106709041D01*
X153275000Y-107160000D01*
X153975000Y-107160000D01*
X153975000Y-107660000D01*
X153275000Y-107660000D01*
X153275000Y-108110958D01*
X153314387Y-108308974D01*
X153314390Y-108308983D01*
X153391652Y-108495513D01*
X153391659Y-108495526D01*
X153503829Y-108663399D01*
X153503832Y-108663403D01*
X153628248Y-108787819D01*
X153661733Y-108849142D01*
X153656749Y-108918834D01*
X153614877Y-108974767D01*
X153549413Y-108999184D01*
X153540567Y-108999500D01*
X146419433Y-108999500D01*
X146352394Y-108979815D01*
X146306639Y-108927011D01*
X146296695Y-108857853D01*
X146325720Y-108794297D01*
X146331752Y-108787819D01*
X146456167Y-108663403D01*
X146456170Y-108663399D01*
X146568340Y-108495526D01*
X146568347Y-108495513D01*
X146645609Y-108308983D01*
X146645612Y-108308974D01*
X146684999Y-108110958D01*
X146685000Y-108110955D01*
X146685000Y-107660000D01*
X145985000Y-107660000D01*
X145985000Y-107160000D01*
X146685000Y-107160000D01*
X146685000Y-106709045D01*
X146684999Y-106709041D01*
X146645612Y-106511025D01*
X146645609Y-106511016D01*
X146568347Y-106324486D01*
X146568340Y-106324473D01*
X146456170Y-106156600D01*
X146456167Y-106156596D01*
X146313403Y-106013832D01*
X146313399Y-106013829D01*
X146145526Y-105901659D01*
X146145513Y-105901652D01*
X145958984Y-105824390D01*
X145958977Y-105824388D01*
X145910000Y-105814645D01*
X145910000Y-106600382D01*
X145859554Y-106549936D01*
X145785445Y-106507149D01*
X145702787Y-106485000D01*
X145617213Y-106485000D01*
X145534555Y-106507149D01*
X145460446Y-106549936D01*
X145410000Y-106600382D01*
X145410000Y-105814646D01*
X145409999Y-105814645D01*
X145361022Y-105824388D01*
X145361015Y-105824390D01*
X145174486Y-105901652D01*
X145174473Y-105901659D01*
X145006600Y-106013829D01*
X145006596Y-106013832D01*
X144863832Y-106156596D01*
X144863829Y-106156600D01*
X144751659Y-106324473D01*
X144751652Y-106324486D01*
X144674390Y-106511016D01*
X144674387Y-106511025D01*
X144635000Y-106709041D01*
X144635000Y-107160000D01*
X145335000Y-107160000D01*
X145335000Y-107660000D01*
X144635000Y-107660000D01*
X144635000Y-108110958D01*
X144674387Y-108308974D01*
X144674390Y-108308983D01*
X144751652Y-108495513D01*
X144751659Y-108495526D01*
X144863829Y-108663399D01*
X144863832Y-108663403D01*
X144988248Y-108787819D01*
X145021733Y-108849142D01*
X145016749Y-108918834D01*
X144974877Y-108974767D01*
X144909413Y-108999184D01*
X144900567Y-108999500D01*
X132004428Y-108999500D01*
X131995582Y-108999184D01*
X131973622Y-108997613D01*
X131795442Y-108984869D01*
X131777931Y-108982351D01*
X131586212Y-108940646D01*
X131569236Y-108935662D01*
X131430510Y-108883919D01*
X131384051Y-108853254D01*
X131327901Y-108794297D01*
X130619734Y-108050721D01*
X130614893Y-108042982D01*
X130610261Y-108039515D01*
X130593348Y-108008543D01*
X130564334Y-107930755D01*
X130559355Y-107913797D01*
X130517647Y-107722063D01*
X130515130Y-107704556D01*
X130511943Y-107660000D01*
X130500816Y-107504418D01*
X130500500Y-107495572D01*
X130500500Y-107429010D01*
X130500153Y-107423905D01*
X130496818Y-106703528D01*
X130496269Y-106585000D01*
X130495064Y-106324486D01*
X130493400Y-105965074D01*
X130512774Y-105897944D01*
X130565366Y-105851945D01*
X130617399Y-105840500D01*
X131118844Y-105840500D01*
X131118845Y-105840499D01*
X131273497Y-105809737D01*
X131419179Y-105749394D01*
X131550289Y-105661789D01*
X131661789Y-105550289D01*
X131749394Y-105419179D01*
X131754442Y-105406991D01*
X131798278Y-105352588D01*
X131864571Y-105330519D01*
X131916455Y-105339878D01*
X132063989Y-105400989D01*
X132185788Y-105425216D01*
X132226927Y-105433399D01*
X132226931Y-105433400D01*
X132226932Y-105433400D01*
X132393069Y-105433400D01*
X132393070Y-105433399D01*
X132556011Y-105400989D01*
X132709500Y-105337412D01*
X132847636Y-105245112D01*
X132965112Y-105127636D01*
X133057412Y-104989500D01*
X133120989Y-104836011D01*
X133153400Y-104673068D01*
X133153400Y-104506932D01*
X133120989Y-104343989D01*
X133102232Y-104298706D01*
X133057415Y-104190506D01*
X133057408Y-104190493D01*
X132961728Y-104047299D01*
X132962888Y-104046523D01*
X132938333Y-103988699D01*
X132937500Y-103974350D01*
X132937500Y-102911610D01*
X132957185Y-102844571D01*
X132966726Y-102832739D01*
X132966247Y-102832346D01*
X132970107Y-102827640D01*
X132970112Y-102827636D01*
X133062412Y-102689500D01*
X133066348Y-102679999D01*
X133091571Y-102619103D01*
X133125989Y-102536011D01*
X133158400Y-102373068D01*
X133158400Y-102206932D01*
X133150205Y-102165732D01*
X133156432Y-102096141D01*
X133199295Y-102040964D01*
X133265184Y-102017719D01*
X133333181Y-102033786D01*
X133359503Y-102053860D01*
X134875651Y-103570008D01*
X134946136Y-103640493D01*
X134963056Y-103657413D01*
X134963058Y-103657414D01*
X135012656Y-103690554D01*
X135065829Y-103726083D01*
X135099277Y-103739937D01*
X135180027Y-103773386D01*
X135247747Y-103786856D01*
X135301254Y-103797499D01*
X135301258Y-103797500D01*
X135301259Y-103797500D01*
X140971804Y-103797500D01*
X140971805Y-103797499D01*
X141093035Y-103773386D01*
X141173784Y-103739937D01*
X141207233Y-103726083D01*
X141310008Y-103657411D01*
X141397411Y-103570008D01*
X142058378Y-102909041D01*
X144635000Y-102909041D01*
X144635000Y-103160000D01*
X145335000Y-103160000D01*
X145335000Y-103660000D01*
X144635000Y-103660000D01*
X144635000Y-103910958D01*
X144674387Y-104108974D01*
X144674390Y-104108983D01*
X144751652Y-104295513D01*
X144751659Y-104295526D01*
X144863829Y-104463399D01*
X144863832Y-104463403D01*
X145006596Y-104606167D01*
X145006600Y-104606170D01*
X145174473Y-104718340D01*
X145174486Y-104718347D01*
X145361016Y-104795609D01*
X145361025Y-104795612D01*
X145410000Y-104805353D01*
X145410000Y-104019618D01*
X145460446Y-104070064D01*
X145534555Y-104112851D01*
X145617213Y-104135000D01*
X145702787Y-104135000D01*
X145785445Y-104112851D01*
X145859554Y-104070064D01*
X145910000Y-104019618D01*
X145910000Y-104805352D01*
X145958974Y-104795612D01*
X145958983Y-104795609D01*
X146145513Y-104718347D01*
X146145526Y-104718340D01*
X146313399Y-104606170D01*
X146313403Y-104606167D01*
X146456167Y-104463403D01*
X146456170Y-104463399D01*
X146568340Y-104295526D01*
X146568347Y-104295513D01*
X146600898Y-104216927D01*
X148376600Y-104216927D01*
X148376600Y-104383072D01*
X148409009Y-104546003D01*
X148409012Y-104546015D01*
X148472584Y-104699493D01*
X148472591Y-104699506D01*
X148568272Y-104842701D01*
X148567108Y-104843478D01*
X148591665Y-104901285D01*
X148592500Y-104915649D01*
X148592500Y-104931807D01*
X148616612Y-105053027D01*
X148616614Y-105053035D01*
X148650062Y-105133785D01*
X148662923Y-105164834D01*
X148663917Y-105167233D01*
X148710868Y-105237500D01*
X148732589Y-105270008D01*
X148855089Y-105392508D01*
X148901752Y-105439171D01*
X148942493Y-105479912D01*
X149045260Y-105548579D01*
X149045273Y-105548586D01*
X149159460Y-105595883D01*
X149159465Y-105595885D01*
X149159469Y-105595885D01*
X149159470Y-105595886D01*
X149280694Y-105620000D01*
X149280697Y-105620000D01*
X149404303Y-105620000D01*
X149440500Y-105620000D01*
X149507539Y-105639685D01*
X149553294Y-105692489D01*
X149564500Y-105744000D01*
X149564500Y-106090369D01*
X149564501Y-106090376D01*
X149570908Y-106149983D01*
X149621202Y-106284828D01*
X149621206Y-106284835D01*
X149707452Y-106400044D01*
X149707455Y-106400047D01*
X149822664Y-106486293D01*
X149822671Y-106486297D01*
X149850357Y-106496623D01*
X149957517Y-106536591D01*
X150017127Y-106543000D01*
X150362872Y-106542999D01*
X150422483Y-106536591D01*
X150422486Y-106536589D01*
X150426744Y-106536132D01*
X150453254Y-106536132D01*
X150457514Y-106536589D01*
X150457517Y-106536591D01*
X150517127Y-106543000D01*
X150862872Y-106542999D01*
X150922483Y-106536591D01*
X151057331Y-106486296D01*
X151115689Y-106442608D01*
X151134580Y-106435562D01*
X151151176Y-106424110D01*
X151166649Y-106423601D01*
X151181153Y-106418192D01*
X151200856Y-106422477D01*
X151221008Y-106421816D01*
X151240217Y-106431039D01*
X151249426Y-106433043D01*
X151253577Y-106435415D01*
X151259133Y-106438733D01*
X151322669Y-106486296D01*
X151365576Y-106502299D01*
X151375256Y-106508080D01*
X151382772Y-106516199D01*
X151399360Y-106526860D01*
X151415000Y-106542500D01*
X151462819Y-106542500D01*
X151462831Y-106542499D01*
X151474394Y-106541256D01*
X151500906Y-106541256D01*
X151517127Y-106543000D01*
X151862872Y-106542999D01*
X151922483Y-106536591D01*
X151922486Y-106536589D01*
X151926744Y-106536132D01*
X151953254Y-106536132D01*
X151957514Y-106536589D01*
X151957517Y-106536591D01*
X152017127Y-106543000D01*
X152362872Y-106542999D01*
X152422483Y-106536591D01*
X152557331Y-106486296D01*
X152672546Y-106400046D01*
X152758796Y-106284831D01*
X152809091Y-106149983D01*
X152815500Y-106090373D01*
X152815499Y-105494628D01*
X152809091Y-105435017D01*
X152809090Y-105435015D01*
X152809090Y-105435012D01*
X152807308Y-105427469D01*
X152808773Y-105427122D01*
X152804409Y-105366151D01*
X152808819Y-105351133D01*
X152809089Y-105349988D01*
X152809088Y-105349988D01*
X152809091Y-105349983D01*
X152815500Y-105290373D01*
X152815499Y-104694628D01*
X152809091Y-104635017D01*
X152775895Y-104546015D01*
X152758797Y-104500171D01*
X152758793Y-104500164D01*
X152672547Y-104384955D01*
X152672544Y-104384952D01*
X152557335Y-104298706D01*
X152557328Y-104298702D01*
X152422482Y-104248408D01*
X152414938Y-104246626D01*
X152415606Y-104243796D01*
X152363682Y-104222281D01*
X152323841Y-104164883D01*
X152317500Y-104125739D01*
X152317500Y-103846281D01*
X152326144Y-103816841D01*
X152332667Y-103786856D01*
X152336422Y-103781838D01*
X152337185Y-103779242D01*
X152353812Y-103758606D01*
X152388381Y-103724037D01*
X152449700Y-103690554D01*
X152461880Y-103688636D01*
X152463066Y-103688400D01*
X152463068Y-103688400D01*
X152626011Y-103655989D01*
X152779500Y-103592412D01*
X152839107Y-103552584D01*
X152909519Y-103505536D01*
X152912391Y-103503616D01*
X152917636Y-103500112D01*
X153035112Y-103382636D01*
X153127412Y-103244500D01*
X153130705Y-103236550D01*
X153174544Y-103182146D01*
X153240838Y-103160079D01*
X153245267Y-103160000D01*
X153975000Y-103160000D01*
X153975000Y-103660000D01*
X153275000Y-103660000D01*
X153275000Y-103910958D01*
X153314387Y-104108974D01*
X153314390Y-104108983D01*
X153391652Y-104295513D01*
X153391659Y-104295526D01*
X153503829Y-104463399D01*
X153503832Y-104463403D01*
X153646596Y-104606167D01*
X153646600Y-104606170D01*
X153814473Y-104718340D01*
X153814486Y-104718347D01*
X154001016Y-104795609D01*
X154001025Y-104795612D01*
X154050000Y-104805353D01*
X154050000Y-104019618D01*
X154100446Y-104070064D01*
X154174555Y-104112851D01*
X154257213Y-104135000D01*
X154342787Y-104135000D01*
X154425445Y-104112851D01*
X154499554Y-104070064D01*
X154550000Y-104019618D01*
X154550000Y-104805352D01*
X154598974Y-104795612D01*
X154598983Y-104795609D01*
X154785513Y-104718347D01*
X154785526Y-104718340D01*
X154953399Y-104606170D01*
X154953403Y-104606167D01*
X155096167Y-104463403D01*
X155096170Y-104463399D01*
X155208340Y-104295526D01*
X155208347Y-104295513D01*
X155285609Y-104108983D01*
X155285612Y-104108974D01*
X155324999Y-103910958D01*
X155325000Y-103910955D01*
X155325000Y-103660000D01*
X154625000Y-103660000D01*
X154625000Y-103160000D01*
X155325000Y-103160000D01*
X155325000Y-102909045D01*
X155324999Y-102909041D01*
X155285612Y-102711025D01*
X155285609Y-102711016D01*
X155208347Y-102524486D01*
X155208340Y-102524473D01*
X155096170Y-102356600D01*
X155096167Y-102356596D01*
X154953403Y-102213832D01*
X154953399Y-102213829D01*
X154785526Y-102101659D01*
X154785513Y-102101652D01*
X154598984Y-102024390D01*
X154598977Y-102024388D01*
X154550000Y-102014645D01*
X154550000Y-102800382D01*
X154499554Y-102749936D01*
X154425445Y-102707149D01*
X154342787Y-102685000D01*
X154257213Y-102685000D01*
X154174555Y-102707149D01*
X154100446Y-102749936D01*
X154050000Y-102800382D01*
X154050000Y-102014646D01*
X154049999Y-102014645D01*
X154001022Y-102024388D01*
X154001015Y-102024390D01*
X153814486Y-102101652D01*
X153814473Y-102101659D01*
X153646600Y-102213829D01*
X153646596Y-102213832D01*
X153503832Y-102356596D01*
X153503829Y-102356600D01*
X153391659Y-102524473D01*
X153391656Y-102524480D01*
X153390452Y-102527387D01*
X153389413Y-102528675D01*
X153388786Y-102529850D01*
X153388563Y-102529730D01*
X153346610Y-102581790D01*
X153280316Y-102603854D01*
X153212616Y-102586574D01*
X153165007Y-102535436D01*
X153161330Y-102527385D01*
X153127415Y-102445506D01*
X153127408Y-102445493D01*
X153035112Y-102307364D01*
X153035109Y-102307360D01*
X152917639Y-102189890D01*
X152917635Y-102189887D01*
X152779506Y-102097591D01*
X152779493Y-102097584D01*
X152626015Y-102034012D01*
X152626003Y-102034009D01*
X152463072Y-102001600D01*
X152463068Y-102001600D01*
X152296932Y-102001600D01*
X152296927Y-102001600D01*
X152133996Y-102034009D01*
X152133984Y-102034012D01*
X151980506Y-102097584D01*
X151980493Y-102097591D01*
X151842364Y-102189887D01*
X151842360Y-102189890D01*
X151724890Y-102307360D01*
X151724887Y-102307364D01*
X151632591Y-102445493D01*
X151632584Y-102445506D01*
X151569012Y-102598984D01*
X151569009Y-102598996D01*
X151535411Y-102767907D01*
X151534044Y-102767635D01*
X151510513Y-102825891D01*
X151500960Y-102836620D01*
X151291829Y-103045751D01*
X151291817Y-103045763D01*
X151289992Y-103047589D01*
X151202589Y-103134992D01*
X151183547Y-103163489D01*
X151177044Y-103170561D01*
X151154999Y-103183824D01*
X151135261Y-103200319D01*
X151125556Y-103201537D01*
X151117174Y-103206581D01*
X151091457Y-103205819D01*
X151065936Y-103209025D01*
X151061583Y-103208239D01*
X151003071Y-103196600D01*
X151003068Y-103196600D01*
X150836932Y-103196600D01*
X150836927Y-103196600D01*
X150673996Y-103229009D01*
X150673984Y-103229012D01*
X150520506Y-103292584D01*
X150520493Y-103292591D01*
X150382364Y-103384887D01*
X150382360Y-103384890D01*
X150264890Y-103502360D01*
X150264887Y-103502364D01*
X150172591Y-103640493D01*
X150172586Y-103640502D01*
X150116366Y-103776232D01*
X150072525Y-103830635D01*
X150006231Y-103852700D01*
X149938532Y-103835421D01*
X149898703Y-103797670D01*
X149875112Y-103762363D01*
X149757639Y-103644890D01*
X149757635Y-103644887D01*
X149619506Y-103552591D01*
X149619493Y-103552584D01*
X149466015Y-103489012D01*
X149466003Y-103489009D01*
X149303072Y-103456600D01*
X149303068Y-103456600D01*
X149136932Y-103456600D01*
X149136927Y-103456600D01*
X148973996Y-103489009D01*
X148973984Y-103489012D01*
X148820506Y-103552584D01*
X148820493Y-103552591D01*
X148682364Y-103644887D01*
X148682360Y-103644890D01*
X148564890Y-103762360D01*
X148564887Y-103762364D01*
X148472591Y-103900493D01*
X148472584Y-103900506D01*
X148409012Y-104053984D01*
X148409009Y-104053996D01*
X148376600Y-104216927D01*
X146600898Y-104216927D01*
X146623072Y-104163393D01*
X146623074Y-104163389D01*
X146645610Y-104108978D01*
X146645612Y-104108974D01*
X146684999Y-103910958D01*
X146685000Y-103910955D01*
X146685000Y-103660000D01*
X145985000Y-103660000D01*
X145985000Y-103160000D01*
X146685000Y-103160000D01*
X146685000Y-102909045D01*
X146684999Y-102909041D01*
X146645612Y-102711025D01*
X146645609Y-102711016D01*
X146568347Y-102524486D01*
X146568340Y-102524473D01*
X146456170Y-102356600D01*
X146456167Y-102356596D01*
X146313403Y-102213832D01*
X146313399Y-102213829D01*
X146145526Y-102101659D01*
X146145513Y-102101652D01*
X145958984Y-102024390D01*
X145958977Y-102024388D01*
X145910000Y-102014645D01*
X145910000Y-102800382D01*
X145859554Y-102749936D01*
X145785445Y-102707149D01*
X145702787Y-102685000D01*
X145617213Y-102685000D01*
X145534555Y-102707149D01*
X145460446Y-102749936D01*
X145410000Y-102800382D01*
X145410000Y-102014646D01*
X145409999Y-102014645D01*
X145361022Y-102024388D01*
X145361015Y-102024390D01*
X145174486Y-102101652D01*
X145174473Y-102101659D01*
X145006600Y-102213829D01*
X145006596Y-102213832D01*
X144863832Y-102356596D01*
X144863829Y-102356600D01*
X144751659Y-102524473D01*
X144751652Y-102524486D01*
X144674390Y-102711016D01*
X144674387Y-102711025D01*
X144635000Y-102909041D01*
X142058378Y-102909041D01*
X143700059Y-101267359D01*
X143761378Y-101233877D01*
X143831070Y-101238861D01*
X143835190Y-101240482D01*
X143904836Y-101269331D01*
X144023842Y-101284999D01*
X144023857Y-101285000D01*
X144140000Y-101285000D01*
X144140000Y-99593962D01*
X144137834Y-99589996D01*
X144135000Y-99563638D01*
X144135000Y-98024500D01*
X144121500Y-98024500D01*
X144054461Y-98004815D01*
X144008706Y-97952011D01*
X143997500Y-97900500D01*
X143997500Y-95659119D01*
X144006144Y-95629678D01*
X144012668Y-95599692D01*
X144016422Y-95594676D01*
X144017185Y-95592080D01*
X144033819Y-95571438D01*
X144161438Y-95443819D01*
X144222761Y-95410334D01*
X144249119Y-95407500D01*
X144724350Y-95407500D01*
X144791389Y-95427185D01*
X144801349Y-95434434D01*
X144940493Y-95527408D01*
X144940506Y-95527415D01*
X145093984Y-95590987D01*
X145093989Y-95590989D01*
X145256927Y-95623399D01*
X145256931Y-95623400D01*
X145256932Y-95623400D01*
X145423069Y-95623400D01*
X145423070Y-95623399D01*
X145586011Y-95590989D01*
X145739500Y-95527412D01*
X145877636Y-95435112D01*
X145995112Y-95317636D01*
X146087412Y-95179500D01*
X146091268Y-95170192D01*
X146145198Y-95039992D01*
X146150989Y-95026011D01*
X146183400Y-94863068D01*
X146183400Y-94863061D01*
X146183997Y-94857007D01*
X146185554Y-94857160D01*
X146203085Y-94797460D01*
X146255889Y-94751705D01*
X146307400Y-94740499D01*
X147242871Y-94740499D01*
X147242872Y-94740499D01*
X147302483Y-94734091D01*
X147437331Y-94683796D01*
X147552546Y-94597546D01*
X147629233Y-94495104D01*
X147685167Y-94453234D01*
X147754859Y-94448250D01*
X147816182Y-94481735D01*
X147849666Y-94543059D01*
X147852500Y-94569416D01*
X147852500Y-94741807D01*
X147876612Y-94863028D01*
X147876613Y-94863032D01*
X147876614Y-94863035D01*
X147894922Y-94907233D01*
X147923917Y-94977233D01*
X147960857Y-95032517D01*
X147964430Y-95037865D01*
X147964432Y-95037868D01*
X147992590Y-95080010D01*
X148539988Y-95627408D01*
X148539992Y-95627411D01*
X148642760Y-95696079D01*
X148642773Y-95696086D01*
X148739143Y-95736003D01*
X148756965Y-95743385D01*
X148756969Y-95743385D01*
X148756970Y-95743386D01*
X148878194Y-95767500D01*
X148878197Y-95767500D01*
X153001804Y-95767500D01*
X153001805Y-95767499D01*
X153123035Y-95743386D01*
X153208537Y-95707969D01*
X153237233Y-95696083D01*
X153340008Y-95627411D01*
X153427411Y-95540008D01*
X153957411Y-95010008D01*
X153972202Y-94987872D01*
X154026083Y-94907233D01*
X154073385Y-94793035D01*
X154092605Y-94696412D01*
X154094783Y-94685463D01*
X154127168Y-94623552D01*
X154153277Y-94602923D01*
X154172631Y-94591478D01*
X154281478Y-94482631D01*
X154359836Y-94350135D01*
X154402782Y-94202315D01*
X154405500Y-94167777D01*
X154405499Y-93332224D01*
X154402782Y-93297685D01*
X154359836Y-93149865D01*
X154281478Y-93017369D01*
X154281476Y-93017367D01*
X154281473Y-93017363D01*
X154172633Y-92908523D01*
X154158377Y-92900092D01*
X154150627Y-92891791D01*
X154140297Y-92887074D01*
X154127212Y-92866713D01*
X154110694Y-92849022D01*
X154107685Y-92836328D01*
X154102523Y-92828296D01*
X154097500Y-92793361D01*
X154097500Y-92642023D01*
X154117185Y-92574984D01*
X154147190Y-92542756D01*
X154174249Y-92522500D01*
X154187546Y-92512546D01*
X154273796Y-92397331D01*
X154324091Y-92262483D01*
X154330500Y-92202873D01*
X154330499Y-90897128D01*
X154324091Y-90837517D01*
X154307400Y-90792767D01*
X154273797Y-90702671D01*
X154273793Y-90702664D01*
X154187547Y-90587455D01*
X154187544Y-90587452D01*
X154072335Y-90501206D01*
X154072328Y-90501202D01*
X153937482Y-90450908D01*
X153937483Y-90450908D01*
X153877883Y-90444501D01*
X153877881Y-90444500D01*
X153877873Y-90444500D01*
X153877864Y-90444500D01*
X153062129Y-90444500D01*
X153062123Y-90444501D01*
X153002516Y-90450908D01*
X152867671Y-90501202D01*
X152867664Y-90501206D01*
X152752455Y-90587452D01*
X152752452Y-90587455D01*
X152666206Y-90702664D01*
X152666202Y-90702671D01*
X152615908Y-90837517D01*
X152609501Y-90897116D01*
X152609501Y-90897123D01*
X152609500Y-90897135D01*
X152609500Y-92202870D01*
X152609501Y-92202876D01*
X152615908Y-92262483D01*
X152666202Y-92397328D01*
X152666203Y-92397329D01*
X152666204Y-92397331D01*
X152752452Y-92512543D01*
X152752455Y-92512547D01*
X152792810Y-92542756D01*
X152795546Y-92546411D01*
X152799703Y-92548310D01*
X152816293Y-92574125D01*
X152834682Y-92598689D01*
X152835697Y-92604319D01*
X152837477Y-92607088D01*
X152842500Y-92642023D01*
X152842500Y-92793360D01*
X152822815Y-92860399D01*
X152781625Y-92900089D01*
X152767374Y-92908517D01*
X152761648Y-92912959D01*
X152696611Y-92938491D01*
X152628094Y-92924808D01*
X152610166Y-92913352D01*
X152543251Y-92862007D01*
X152543252Y-92862007D01*
X152395169Y-92800670D01*
X152395165Y-92800669D01*
X152276157Y-92785000D01*
X152160000Y-92785000D01*
X152160000Y-93626000D01*
X152140315Y-93693039D01*
X152087511Y-93738794D01*
X152036000Y-93750000D01*
X151910000Y-93750000D01*
X151910000Y-93876000D01*
X151890315Y-93943039D01*
X151837511Y-93988794D01*
X151786000Y-94000000D01*
X151185000Y-94000000D01*
X151185000Y-94006000D01*
X151165315Y-94073039D01*
X151112511Y-94118794D01*
X151061000Y-94130000D01*
X150074000Y-94130000D01*
X150006961Y-94110315D01*
X149961206Y-94057511D01*
X149950000Y-94006000D01*
X149950000Y-93880000D01*
X149824000Y-93880000D01*
X149756961Y-93860315D01*
X149711206Y-93807511D01*
X149700000Y-93756000D01*
X149700000Y-93020000D01*
X150200000Y-93020000D01*
X150200000Y-93630000D01*
X150845000Y-93630000D01*
X150845000Y-93624000D01*
X150864685Y-93556961D01*
X150917489Y-93511206D01*
X150969000Y-93500000D01*
X151660000Y-93500000D01*
X151660000Y-92785000D01*
X151543842Y-92785000D01*
X151424834Y-92800669D01*
X151424830Y-92800670D01*
X151276748Y-92862007D01*
X151149584Y-92959584D01*
X151052007Y-93086748D01*
X151049004Y-93091950D01*
X150998435Y-93140163D01*
X150929828Y-93153384D01*
X150867308Y-93129213D01*
X150797088Y-93076647D01*
X150797086Y-93076645D01*
X150662379Y-93026403D01*
X150662372Y-93026401D01*
X150602844Y-93020000D01*
X150200000Y-93020000D01*
X149700000Y-93020000D01*
X149297155Y-93020000D01*
X149237627Y-93026401D01*
X149237620Y-93026403D01*
X149102913Y-93076645D01*
X149102906Y-93076649D01*
X148987812Y-93162809D01*
X148907640Y-93269905D01*
X148851706Y-93311775D01*
X148782015Y-93316759D01*
X148720693Y-93283274D01*
X148100010Y-92662590D01*
X148100007Y-92662588D01*
X148099840Y-92662476D01*
X148099840Y-92662475D01*
X147997235Y-92593917D01*
X147997231Y-92593915D01*
X147963785Y-92580062D01*
X147883035Y-92546614D01*
X147883027Y-92546612D01*
X147761807Y-92522500D01*
X147761803Y-92522500D01*
X146248493Y-92522500D01*
X146181454Y-92502815D01*
X146135699Y-92450011D01*
X146125755Y-92380853D01*
X146154780Y-92317297D01*
X146160812Y-92310819D01*
X147807409Y-90664222D01*
X147807411Y-90664220D01*
X147823928Y-90639500D01*
X147876083Y-90561445D01*
X147886618Y-90536011D01*
X147892178Y-90522589D01*
X147906558Y-90487873D01*
X147923386Y-90447247D01*
X147947500Y-90326015D01*
X147947500Y-90202409D01*
X147947500Y-87855000D01*
X147967185Y-87787961D01*
X148019989Y-87742206D01*
X148071500Y-87731000D01*
X149060002Y-87731000D01*
X149075442Y-87730172D01*
X149114049Y-87728102D01*
X149253459Y-87692516D01*
X149257348Y-87690905D01*
X149352176Y-87639125D01*
X149457484Y-87541085D01*
X149506651Y-87458222D01*
X149557790Y-87410614D01*
X149613291Y-87397500D01*
X151738719Y-87397500D01*
X151805758Y-87417185D01*
X151826400Y-87433819D01*
X152573181Y-88180600D01*
X152606666Y-88241923D01*
X152609500Y-88268281D01*
X152609500Y-88842870D01*
X152609501Y-88842876D01*
X152615908Y-88902483D01*
X152666202Y-89037328D01*
X152666206Y-89037335D01*
X152752452Y-89152544D01*
X152752455Y-89152547D01*
X152867664Y-89238793D01*
X152867671Y-89238797D01*
X153002517Y-89289091D01*
X153002516Y-89289091D01*
X153009444Y-89289835D01*
X153062127Y-89295500D01*
X153877872Y-89295499D01*
X153937483Y-89289091D01*
X154072331Y-89238796D01*
X154187546Y-89152546D01*
X154273796Y-89037331D01*
X154324091Y-88902483D01*
X154330500Y-88842873D01*
X154330499Y-87537128D01*
X154324091Y-87477517D01*
X154321486Y-87470533D01*
X154273797Y-87342671D01*
X154273793Y-87342664D01*
X154187547Y-87227455D01*
X154187544Y-87227452D01*
X154072335Y-87141206D01*
X154072328Y-87141202D01*
X153937482Y-87090908D01*
X153937483Y-87090908D01*
X153877883Y-87084501D01*
X153877881Y-87084500D01*
X153877873Y-87084500D01*
X153877865Y-87084500D01*
X153303281Y-87084500D01*
X153236242Y-87064815D01*
X153215600Y-87048181D01*
X152450011Y-86282591D01*
X152450007Y-86282588D01*
X152374450Y-86232102D01*
X152329645Y-86178490D01*
X152320938Y-86109165D01*
X152351093Y-86046137D01*
X152410536Y-86009418D01*
X152443341Y-86005000D01*
X152500000Y-86005000D01*
X153000000Y-86005000D01*
X153146143Y-86005000D01*
X153146157Y-86004999D01*
X153265165Y-85989330D01*
X153265169Y-85989329D01*
X153413249Y-85927993D01*
X153514513Y-85850291D01*
X153579683Y-85825097D01*
X153648127Y-85839135D01*
X153665487Y-85850291D01*
X153766750Y-85927993D01*
X153914830Y-85989329D01*
X153914834Y-85989330D01*
X154033842Y-86004999D01*
X154033857Y-86005000D01*
X154180000Y-86005000D01*
X154680000Y-86005000D01*
X154826143Y-86005000D01*
X154826157Y-86004999D01*
X154945165Y-85989330D01*
X154945169Y-85989329D01*
X155093251Y-85927992D01*
X155220415Y-85830415D01*
X155317992Y-85703251D01*
X155379329Y-85555169D01*
X155379330Y-85555165D01*
X155394999Y-85436157D01*
X155395000Y-85436143D01*
X155395000Y-85320000D01*
X154680000Y-85320000D01*
X154680000Y-86005000D01*
X154180000Y-86005000D01*
X154180000Y-85320000D01*
X153000000Y-85320000D01*
X153000000Y-86005000D01*
X152500000Y-86005000D01*
X152500000Y-85320000D01*
X149732494Y-85320000D01*
X149720739Y-85326418D01*
X149651047Y-85321429D01*
X149595116Y-85279555D01*
X149570702Y-85214089D01*
X149570565Y-85211888D01*
X149570269Y-85206361D01*
X149568102Y-85165951D01*
X149532516Y-85026541D01*
X149530905Y-85022652D01*
X149479125Y-84927824D01*
X149381085Y-84822516D01*
X149345793Y-84801575D01*
X149257349Y-84749095D01*
X149257344Y-84749093D01*
X149253450Y-84747480D01*
X149253440Y-84747476D01*
X149202418Y-84729476D01*
X149131208Y-84719238D01*
X149060000Y-84709000D01*
X148050000Y-84709000D01*
X148049986Y-84709000D01*
X147972874Y-84714918D01*
X147972863Y-84714919D01*
X147971211Y-84715174D01*
X147971192Y-84715178D01*
X147845300Y-84751824D01*
X147723099Y-84827783D01*
X147719885Y-84830484D01*
X147680417Y-84867433D01*
X147680413Y-84867437D01*
X147596574Y-84984361D01*
X147542194Y-85089001D01*
X147537316Y-85097539D01*
X147504760Y-85149628D01*
X147503144Y-85152146D01*
X147458291Y-85220200D01*
X147454665Y-85225406D01*
X147429615Y-85259476D01*
X147423321Y-85267342D01*
X147386269Y-85309989D01*
X147348840Y-85353067D01*
X147342917Y-85359419D01*
X147289982Y-85412354D01*
X147282557Y-85419198D01*
X147210889Y-85480048D01*
X147205034Y-85484722D01*
X147149539Y-85526344D01*
X147144319Y-85530052D01*
X147138905Y-85533692D01*
X147106320Y-85555593D01*
X147102614Y-85557989D01*
X147063189Y-85582497D01*
X147053182Y-85588093D01*
X147039545Y-85594911D01*
X147030166Y-85599722D01*
X147029970Y-85599825D01*
X147019844Y-85605300D01*
X146973043Y-85631299D01*
X146962968Y-85636311D01*
X146902192Y-85663181D01*
X146899116Y-85664492D01*
X146852944Y-85683434D01*
X146843478Y-85686876D01*
X146763559Y-85712305D01*
X146752684Y-85715228D01*
X146660579Y-85735555D01*
X146650863Y-85737297D01*
X146514390Y-85756193D01*
X146501258Y-85757304D01*
X146452674Y-85758823D01*
X146447357Y-85758876D01*
X146323465Y-85757435D01*
X146310027Y-85756547D01*
X146255126Y-85749911D01*
X146254466Y-85749829D01*
X146159096Y-85737782D01*
X146159125Y-85737548D01*
X146142506Y-85734574D01*
X146142109Y-85734468D01*
X146133936Y-85732257D01*
X146131412Y-85731626D01*
X146130475Y-85731377D01*
X146130462Y-85731369D01*
X146129927Y-85731230D01*
X146126668Y-85730348D01*
X146124860Y-85729844D01*
X146118472Y-85728011D01*
X146026323Y-85702880D01*
X146019406Y-85700775D01*
X145957586Y-85679975D01*
X145946983Y-85675857D01*
X145848770Y-85632430D01*
X145840287Y-85628286D01*
X145787082Y-85599737D01*
X145784188Y-85598134D01*
X145733293Y-85569050D01*
X145728748Y-85566322D01*
X145681208Y-85536390D01*
X145672876Y-85530657D01*
X145626608Y-85495956D01*
X145621637Y-85492025D01*
X145577463Y-85455213D01*
X145576229Y-85454170D01*
X145555198Y-85436143D01*
X145528062Y-85412884D01*
X145521079Y-85406417D01*
X145496386Y-85381724D01*
X145462901Y-85320401D01*
X145467885Y-85250709D01*
X145496384Y-85206363D01*
X145555112Y-85147636D01*
X145647412Y-85009500D01*
X145710989Y-84856011D01*
X145743400Y-84693068D01*
X145743400Y-84526932D01*
X145737800Y-84498780D01*
X145744026Y-84429190D01*
X145786888Y-84374012D01*
X145835226Y-84352971D01*
X145882718Y-84343524D01*
X145996011Y-84320989D01*
X146149500Y-84257412D01*
X146287636Y-84165112D01*
X146405112Y-84047636D01*
X146497412Y-83909500D01*
X146560989Y-83756011D01*
X146593400Y-83593068D01*
X146593400Y-83540181D01*
X146613085Y-83473142D01*
X146665889Y-83427387D01*
X146735047Y-83417443D01*
X146798603Y-83446468D01*
X146805081Y-83452500D01*
X147262589Y-83910008D01*
X147315767Y-83963186D01*
X147349993Y-83997412D01*
X147452760Y-84066079D01*
X147452772Y-84066086D01*
X147503228Y-84086984D01*
X147534281Y-84099847D01*
X147566965Y-84113385D01*
X147688197Y-84137500D01*
X147740590Y-84137500D01*
X147752333Y-84139787D01*
X147769637Y-84148750D01*
X147791904Y-84154859D01*
X147852652Y-84190905D01*
X147856541Y-84192516D01*
X147856546Y-84192517D01*
X147856549Y-84192519D01*
X147856559Y-84192523D01*
X147907581Y-84210523D01*
X147907584Y-84210524D01*
X148050000Y-84231000D01*
X148050003Y-84231000D01*
X149060002Y-84231000D01*
X149075442Y-84230172D01*
X149114049Y-84228102D01*
X149253459Y-84192516D01*
X149257348Y-84190905D01*
X149320779Y-84156269D01*
X149327374Y-84152668D01*
X149386801Y-84137500D01*
X149763361Y-84137500D01*
X149771398Y-84139860D01*
X149779680Y-84138578D01*
X149804430Y-84149559D01*
X149830400Y-84157185D01*
X149837543Y-84164251D01*
X149843545Y-84166914D01*
X149860254Y-84186717D01*
X149866945Y-84193336D01*
X149868584Y-84195827D01*
X149878522Y-84212631D01*
X149881797Y-84215906D01*
X149888560Y-84226183D01*
X149897413Y-84255169D01*
X149908490Y-84283383D01*
X149907517Y-84288253D01*
X149908969Y-84293006D01*
X149900743Y-84322181D01*
X149894810Y-84351901D01*
X149890434Y-84358749D01*
X149890010Y-84360254D01*
X149888772Y-84361349D01*
X149883353Y-84369832D01*
X149832007Y-84436748D01*
X149770670Y-84584830D01*
X149770669Y-84584834D01*
X149755000Y-84703842D01*
X149755000Y-84820000D01*
X155395000Y-84820000D01*
X155395000Y-84703856D01*
X155394999Y-84703842D01*
X155379330Y-84584834D01*
X155379329Y-84584830D01*
X155317992Y-84436747D01*
X155266647Y-84369834D01*
X155241452Y-84304665D01*
X155255490Y-84236220D01*
X155267050Y-84218337D01*
X155271471Y-84212637D01*
X155271478Y-84212631D01*
X155349836Y-84080135D01*
X155392782Y-83932315D01*
X155395500Y-83897777D01*
X155395499Y-83297259D01*
X155415183Y-83230221D01*
X155431813Y-83209584D01*
X156663320Y-81978077D01*
X156724642Y-81944594D01*
X156794334Y-81949578D01*
G37*
%TD.AperFunction*%
%TA.AperFunction,Conductor*%
G36*
X133340170Y-92017185D02*
G01*
X133385925Y-92069989D01*
X133395869Y-92139147D01*
X133394748Y-92145691D01*
X133376600Y-92236927D01*
X133376600Y-92403072D01*
X133409009Y-92566003D01*
X133409012Y-92566015D01*
X133472584Y-92719493D01*
X133472591Y-92719506D01*
X133564887Y-92857635D01*
X133564890Y-92857639D01*
X133682361Y-92975110D01*
X133682364Y-92975112D01*
X133749900Y-93020238D01*
X133794705Y-93073850D01*
X133803412Y-93143174D01*
X133773258Y-93206202D01*
X133749901Y-93226441D01*
X133692366Y-93264885D01*
X133692360Y-93264890D01*
X133574890Y-93382360D01*
X133574887Y-93382364D01*
X133482591Y-93520493D01*
X133482584Y-93520506D01*
X133419012Y-93673984D01*
X133419009Y-93673996D01*
X133386600Y-93836927D01*
X133386600Y-94003072D01*
X133419009Y-94166003D01*
X133419012Y-94166015D01*
X133482584Y-94319493D01*
X133482591Y-94319506D01*
X133574887Y-94457635D01*
X133574890Y-94457639D01*
X133692360Y-94575109D01*
X133692364Y-94575112D01*
X133727451Y-94598557D01*
X133772256Y-94652170D01*
X133780963Y-94721495D01*
X133750808Y-94784522D01*
X133727451Y-94804761D01*
X133682364Y-94834887D01*
X133682360Y-94834890D01*
X133564890Y-94952360D01*
X133564887Y-94952364D01*
X133472591Y-95090493D01*
X133472584Y-95090506D01*
X133409012Y-95243984D01*
X133409009Y-95243996D01*
X133376600Y-95406927D01*
X133376600Y-95573072D01*
X133409009Y-95736003D01*
X133409012Y-95736015D01*
X133472584Y-95889493D01*
X133472591Y-95889506D01*
X133564887Y-96027635D01*
X133564890Y-96027639D01*
X133682360Y-96145109D01*
X133682364Y-96145112D01*
X133737383Y-96181875D01*
X133782188Y-96235487D01*
X133790895Y-96304812D01*
X133760740Y-96367840D01*
X133737383Y-96388079D01*
X133652364Y-96444887D01*
X133652360Y-96444890D01*
X133534890Y-96562360D01*
X133534887Y-96562364D01*
X133442591Y-96700493D01*
X133442584Y-96700506D01*
X133379012Y-96853984D01*
X133379009Y-96853996D01*
X133346600Y-97016927D01*
X133346600Y-97183072D01*
X133379009Y-97346003D01*
X133379012Y-97346015D01*
X133442584Y-97499493D01*
X133442591Y-97499506D01*
X133534887Y-97637635D01*
X133534890Y-97637639D01*
X133652360Y-97755109D01*
X133652364Y-97755112D01*
X133709900Y-97793557D01*
X133754705Y-97847169D01*
X133763412Y-97916494D01*
X133733257Y-97979522D01*
X133709900Y-97999761D01*
X133642364Y-98044887D01*
X133642360Y-98044890D01*
X133524890Y-98162360D01*
X133524887Y-98162364D01*
X133432591Y-98300493D01*
X133432584Y-98300506D01*
X133369012Y-98453984D01*
X133369009Y-98453996D01*
X133336600Y-98616927D01*
X133336600Y-98783072D01*
X133369009Y-98946003D01*
X133369012Y-98946015D01*
X133432584Y-99099493D01*
X133432591Y-99099506D01*
X133524887Y-99237635D01*
X133524890Y-99237639D01*
X133642360Y-99355109D01*
X133642364Y-99355112D01*
X133780493Y-99447408D01*
X133780506Y-99447415D01*
X133933984Y-99510987D01*
X133933989Y-99510989D01*
X134007242Y-99525559D01*
X134102907Y-99544589D01*
X134102634Y-99545960D01*
X134119106Y-99552610D01*
X134143366Y-99557888D01*
X134156460Y-99567690D01*
X134160873Y-99569472D01*
X134171620Y-99579039D01*
X134282589Y-99690008D01*
X134345341Y-99752760D01*
X134369992Y-99777411D01*
X134369996Y-99777414D01*
X134459522Y-99837233D01*
X134472767Y-99846083D01*
X134472769Y-99846083D01*
X134472771Y-99846085D01*
X134485695Y-99851438D01*
X134540099Y-99895277D01*
X134562166Y-99961571D01*
X134544888Y-100029271D01*
X134493752Y-100076883D01*
X134438245Y-100090000D01*
X134270000Y-100090000D01*
X134270000Y-100590000D01*
X134970000Y-100590000D01*
X134970000Y-100542172D01*
X134969999Y-100542155D01*
X134963598Y-100482627D01*
X134963596Y-100482620D01*
X134913354Y-100347913D01*
X134913350Y-100347906D01*
X134827190Y-100232812D01*
X134827187Y-100232809D01*
X134704989Y-100141331D01*
X134707065Y-100138556D01*
X134669440Y-100100939D01*
X134654580Y-100032668D01*
X134678989Y-99967201D01*
X134734918Y-99925323D01*
X134778265Y-99917500D01*
X135550551Y-99917500D01*
X135617590Y-99937185D01*
X135663345Y-99989989D01*
X135673841Y-100028246D01*
X135675909Y-100047483D01*
X135726202Y-100182328D01*
X135726206Y-100182335D01*
X135812451Y-100297543D01*
X135812452Y-100297544D01*
X135812454Y-100297546D01*
X135892813Y-100357702D01*
X135934682Y-100413634D01*
X135942500Y-100456967D01*
X135942500Y-101574350D01*
X135922815Y-101641389D01*
X135915565Y-101651349D01*
X135822591Y-101790493D01*
X135822584Y-101790506D01*
X135759012Y-101943984D01*
X135759009Y-101943996D01*
X135726600Y-102106927D01*
X135726600Y-102106931D01*
X135726600Y-102106932D01*
X135726600Y-102273068D01*
X135733421Y-102307360D01*
X135739482Y-102337831D01*
X135733254Y-102407422D01*
X135690390Y-102462599D01*
X135624500Y-102485843D01*
X135556503Y-102469775D01*
X135530183Y-102449702D01*
X134699898Y-101619417D01*
X134666413Y-101558094D01*
X134671397Y-101488402D01*
X134713268Y-101432469D01*
X134827191Y-101347186D01*
X134913350Y-101232093D01*
X134913354Y-101232086D01*
X134963596Y-101097379D01*
X134963598Y-101097372D01*
X134969999Y-101037844D01*
X134970000Y-101037827D01*
X134970000Y-100990000D01*
X134194000Y-100990000D01*
X134126961Y-100970315D01*
X134081206Y-100917511D01*
X134070000Y-100866000D01*
X134070000Y-100790000D01*
X133994000Y-100790000D01*
X133926961Y-100770315D01*
X133881206Y-100717511D01*
X133870000Y-100666000D01*
X133870000Y-100090000D01*
X133622155Y-100090000D01*
X133562627Y-100096401D01*
X133562620Y-100096403D01*
X133427913Y-100146645D01*
X133427910Y-100146647D01*
X133399101Y-100168214D01*
X133333636Y-100192631D01*
X133265363Y-100177779D01*
X133237109Y-100156628D01*
X131623819Y-98543338D01*
X131590334Y-98482015D01*
X131587500Y-98455657D01*
X131587500Y-92681281D01*
X131607185Y-92614242D01*
X131623819Y-92593600D01*
X132183600Y-92033819D01*
X132244923Y-92000334D01*
X132271281Y-91997500D01*
X133273131Y-91997500D01*
X133340170Y-92017185D01*
G37*
%TD.AperFunction*%
%TA.AperFunction,Conductor*%
G36*
X168004418Y-80000816D02*
G01*
X168204561Y-80015130D01*
X168222063Y-80017647D01*
X168413797Y-80059355D01*
X168430755Y-80064334D01*
X168527059Y-80100254D01*
X168575476Y-80133024D01*
X169417865Y-81059653D01*
X169447278Y-81116706D01*
X169482351Y-81277932D01*
X169484869Y-81295443D01*
X169499184Y-81495580D01*
X169499500Y-81504427D01*
X169499500Y-83175500D01*
X169479815Y-83242539D01*
X169427011Y-83288294D01*
X169375500Y-83299500D01*
X168871155Y-83299500D01*
X168716510Y-83330261D01*
X168716498Y-83330264D01*
X168570827Y-83390602D01*
X168570814Y-83390609D01*
X168439711Y-83478210D01*
X168439707Y-83478213D01*
X168328213Y-83589707D01*
X168328210Y-83589711D01*
X168240609Y-83720814D01*
X168240602Y-83720827D01*
X168180264Y-83866498D01*
X168180261Y-83866510D01*
X168149500Y-84021153D01*
X168149500Y-87378846D01*
X168180261Y-87533489D01*
X168180264Y-87533501D01*
X168240602Y-87679172D01*
X168240609Y-87679185D01*
X168328210Y-87810288D01*
X168328213Y-87810292D01*
X168439707Y-87921786D01*
X168439711Y-87921789D01*
X168570814Y-88009390D01*
X168570827Y-88009397D01*
X168644078Y-88039738D01*
X168716503Y-88069737D01*
X168829105Y-88092135D01*
X168871153Y-88100499D01*
X168871156Y-88100500D01*
X168871158Y-88100500D01*
X168884108Y-88100500D01*
X169375052Y-88100500D01*
X169442091Y-88120185D01*
X169487846Y-88172989D01*
X169499052Y-88224589D01*
X169496672Y-91547483D01*
X169489979Y-100891430D01*
X169489947Y-100935589D01*
X169470214Y-101002614D01*
X169417378Y-101048331D01*
X169365947Y-101059500D01*
X168861155Y-101059500D01*
X168706510Y-101090261D01*
X168706498Y-101090264D01*
X168560827Y-101150602D01*
X168560814Y-101150609D01*
X168429711Y-101238210D01*
X168429707Y-101238213D01*
X168318213Y-101349707D01*
X168318210Y-101349711D01*
X168230609Y-101480814D01*
X168230605Y-101480822D01*
X168224821Y-101494785D01*
X168180977Y-101549186D01*
X168114681Y-101571247D01*
X168062810Y-101561887D01*
X167911015Y-101499012D01*
X167911003Y-101499009D01*
X167781047Y-101473159D01*
X167719136Y-101440774D01*
X167684562Y-101380059D01*
X167688301Y-101310289D01*
X167717557Y-101263861D01*
X168060365Y-100921054D01*
X168602411Y-100379008D01*
X168623643Y-100347232D01*
X168671083Y-100276233D01*
X168718385Y-100162035D01*
X168735323Y-100076883D01*
X168742500Y-100040805D01*
X168742500Y-99390179D01*
X168762185Y-99323140D01*
X168814989Y-99277385D01*
X168823138Y-99274008D01*
X168877331Y-99253796D01*
X168992546Y-99167546D01*
X169078796Y-99052331D01*
X169129091Y-98917483D01*
X169135500Y-98857873D01*
X169135499Y-97742128D01*
X169129091Y-97682517D01*
X169121149Y-97661224D01*
X169078797Y-97547671D01*
X169078793Y-97547664D01*
X168992548Y-97432457D01*
X168992546Y-97432454D01*
X168992542Y-97432451D01*
X168986272Y-97426180D01*
X168987305Y-97425146D01*
X168951196Y-97376910D01*
X168946212Y-97307219D01*
X168951192Y-97290255D01*
X168993291Y-97177383D01*
X168999700Y-97117773D01*
X168999699Y-96082228D01*
X168993291Y-96022617D01*
X168987738Y-96007729D01*
X168942997Y-95887771D01*
X168942993Y-95887764D01*
X168856747Y-95772555D01*
X168856744Y-95772552D01*
X168741535Y-95686306D01*
X168741528Y-95686302D01*
X168606682Y-95636008D01*
X168606683Y-95636008D01*
X168547083Y-95629601D01*
X168547081Y-95629600D01*
X168547073Y-95629600D01*
X168547064Y-95629600D01*
X167689329Y-95629600D01*
X167689323Y-95629601D01*
X167629716Y-95636008D01*
X167494871Y-95686302D01*
X167494864Y-95686306D01*
X167379655Y-95772552D01*
X167379651Y-95772556D01*
X167378945Y-95773500D01*
X167378003Y-95774204D01*
X167373383Y-95778825D01*
X167372718Y-95778160D01*
X167323006Y-95815364D01*
X167253314Y-95820340D01*
X167191995Y-95786847D01*
X167180419Y-95773486D01*
X167179987Y-95772909D01*
X167064893Y-95686749D01*
X167064886Y-95686745D01*
X166930179Y-95636503D01*
X166930172Y-95636501D01*
X166870644Y-95630100D01*
X166691800Y-95630100D01*
X166691800Y-96476000D01*
X166672115Y-96543039D01*
X166619311Y-96588794D01*
X166567800Y-96600000D01*
X166315800Y-96600000D01*
X166248761Y-96580315D01*
X166203006Y-96527511D01*
X166191800Y-96476000D01*
X166191800Y-95630100D01*
X166173819Y-95612119D01*
X166160220Y-95587215D01*
X166143966Y-95563957D01*
X166142445Y-95554662D01*
X166140334Y-95550796D01*
X166137593Y-95529243D01*
X166137500Y-95526845D01*
X166137500Y-95378197D01*
X166132250Y-95351803D01*
X166113386Y-95256965D01*
X166075741Y-95166083D01*
X166066083Y-95142767D01*
X166066082Y-95142766D01*
X166066079Y-95142760D01*
X165997412Y-95039993D01*
X165965616Y-95008197D01*
X165910008Y-94952589D01*
X165803819Y-94846400D01*
X165770334Y-94785077D01*
X165767500Y-94758719D01*
X165767500Y-94566638D01*
X165787185Y-94499599D01*
X165828379Y-94459905D01*
X165842631Y-94451478D01*
X165842639Y-94451469D01*
X165848337Y-94447050D01*
X165913370Y-94421509D01*
X165981889Y-94435182D01*
X165999834Y-94446647D01*
X166066747Y-94497992D01*
X166214830Y-94559329D01*
X166214834Y-94559330D01*
X166333842Y-94574999D01*
X166333857Y-94575000D01*
X166450000Y-94575000D01*
X166950000Y-94575000D01*
X167066143Y-94575000D01*
X167066157Y-94574999D01*
X167185165Y-94559330D01*
X167185169Y-94559329D01*
X167333251Y-94497992D01*
X167460415Y-94400415D01*
X167557992Y-94273251D01*
X167619329Y-94125169D01*
X167619330Y-94125165D01*
X167634999Y-94006157D01*
X167635000Y-94006143D01*
X167635000Y-93860000D01*
X166950000Y-93860000D01*
X166950000Y-94575000D01*
X166450000Y-94575000D01*
X166450000Y-93360000D01*
X166950000Y-93360000D01*
X167635000Y-93360000D01*
X167635000Y-93213856D01*
X167634999Y-93213842D01*
X167619330Y-93094834D01*
X167619329Y-93094830D01*
X167557992Y-92946748D01*
X167460415Y-92819584D01*
X167333251Y-92722007D01*
X167333252Y-92722007D01*
X167185169Y-92660670D01*
X167185165Y-92660669D01*
X167066157Y-92645000D01*
X166950000Y-92645000D01*
X166950000Y-93360000D01*
X166450000Y-93360000D01*
X166450000Y-92645000D01*
X166333842Y-92645000D01*
X166214834Y-92660669D01*
X166214830Y-92660670D01*
X166066748Y-92722007D01*
X165999832Y-92773353D01*
X165977905Y-92781829D01*
X165957993Y-92794324D01*
X165945922Y-92794193D01*
X165934663Y-92798546D01*
X165911633Y-92793822D01*
X165888127Y-92793568D01*
X165873537Y-92786008D01*
X165866218Y-92784507D01*
X165856183Y-92778560D01*
X165845906Y-92771797D01*
X165842631Y-92768522D01*
X165825823Y-92758582D01*
X165823336Y-92756945D01*
X165802590Y-92732473D01*
X165780694Y-92709022D01*
X165779911Y-92705722D01*
X165778155Y-92703650D01*
X165776543Y-92691513D01*
X165767500Y-92653361D01*
X165767500Y-84032172D01*
X165766201Y-84025646D01*
X165766200Y-84025643D01*
X165765108Y-84020153D01*
X165743386Y-83910945D01*
X165707902Y-83825280D01*
X165696083Y-83796747D01*
X165696081Y-83796744D01*
X165696079Y-83796740D01*
X165627412Y-83693973D01*
X165624253Y-83690814D01*
X165540008Y-83606569D01*
X163990353Y-82056914D01*
X162378031Y-80444591D01*
X162378027Y-80444588D01*
X162275259Y-80375920D01*
X162275246Y-80375913D01*
X162241805Y-80362062D01*
X162161055Y-80328614D01*
X162161047Y-80328612D01*
X162039827Y-80304500D01*
X162039823Y-80304500D01*
X156883784Y-80304500D01*
X156760177Y-80304500D01*
X156760172Y-80304500D01*
X156638953Y-80328611D01*
X156638953Y-80328612D01*
X156638950Y-80328613D01*
X156638946Y-80328614D01*
X156572050Y-80356323D01*
X156572048Y-80356323D01*
X156524750Y-80375915D01*
X156421969Y-80444590D01*
X154328378Y-82538181D01*
X154267055Y-82571666D01*
X154240698Y-82574500D01*
X154012236Y-82574500D01*
X154012210Y-82574501D01*
X153977684Y-82577218D01*
X153829869Y-82620162D01*
X153829866Y-82620163D01*
X153697372Y-82698519D01*
X153697363Y-82698526D01*
X153677681Y-82718209D01*
X153616358Y-82751694D01*
X153546666Y-82746710D01*
X153502319Y-82718209D01*
X153482636Y-82698526D01*
X153482627Y-82698519D01*
X153350133Y-82620163D01*
X153350130Y-82620162D01*
X153202319Y-82577218D01*
X153202313Y-82577217D01*
X153167777Y-82574500D01*
X152332235Y-82574500D01*
X152332210Y-82574501D01*
X152297684Y-82577218D01*
X152149869Y-82620162D01*
X152149866Y-82620163D01*
X152017372Y-82698519D01*
X152017363Y-82698526D01*
X151908526Y-82807363D01*
X151908522Y-82807369D01*
X151900093Y-82821622D01*
X151891791Y-82829372D01*
X151887074Y-82839703D01*
X151866713Y-82852787D01*
X151849023Y-82869305D01*
X151836329Y-82872313D01*
X151828296Y-82877477D01*
X151793361Y-82882500D01*
X151676639Y-82882500D01*
X151609600Y-82862815D01*
X151569907Y-82821622D01*
X151563040Y-82810011D01*
X151561478Y-82807369D01*
X151561475Y-82807366D01*
X151561473Y-82807363D01*
X151452636Y-82698526D01*
X151452627Y-82698519D01*
X151320133Y-82620163D01*
X151320130Y-82620162D01*
X151172319Y-82577218D01*
X151172313Y-82577217D01*
X151137777Y-82574500D01*
X150302235Y-82574500D01*
X150302210Y-82574501D01*
X150267684Y-82577218D01*
X150119869Y-82620162D01*
X150119866Y-82620163D01*
X149987372Y-82698519D01*
X149987363Y-82698526D01*
X149878526Y-82807363D01*
X149878522Y-82807369D01*
X149870093Y-82821622D01*
X149861791Y-82829372D01*
X149857074Y-82839703D01*
X149836713Y-82852787D01*
X149819023Y-82869305D01*
X149806329Y-82872313D01*
X149798296Y-82877477D01*
X149763361Y-82882500D01*
X149695000Y-82882500D01*
X149627961Y-82862815D01*
X149582206Y-82810011D01*
X149571000Y-82758500D01*
X149571000Y-81719998D01*
X149568102Y-81665955D01*
X149568102Y-81665951D01*
X149532516Y-81526541D01*
X149530905Y-81522652D01*
X149479125Y-81427824D01*
X149381085Y-81322516D01*
X149257349Y-81249095D01*
X149257344Y-81249093D01*
X149253450Y-81247480D01*
X149253440Y-81247476D01*
X149202418Y-81229476D01*
X149131208Y-81219238D01*
X149060000Y-81209000D01*
X143760000Y-81209000D01*
X143759998Y-81209000D01*
X143705955Y-81211897D01*
X143705946Y-81211899D01*
X143566547Y-81247482D01*
X143566537Y-81247485D01*
X143562658Y-81249092D01*
X143562647Y-81249097D01*
X143467824Y-81300874D01*
X143362516Y-81398914D01*
X143289095Y-81522650D01*
X143289093Y-81522655D01*
X143287480Y-81526549D01*
X143287476Y-81526559D01*
X143269476Y-81577580D01*
X143269476Y-81577582D01*
X143249000Y-81720001D01*
X143249000Y-83222469D01*
X143229315Y-83289508D01*
X143176511Y-83335263D01*
X143125000Y-83346469D01*
X140404223Y-83346469D01*
X140283004Y-83370581D01*
X140282996Y-83370583D01*
X140272469Y-83374943D01*
X140267116Y-83377161D01*
X140219664Y-83386600D01*
X140126927Y-83386600D01*
X139963996Y-83419009D01*
X139963984Y-83419012D01*
X139810506Y-83482584D01*
X139810493Y-83482591D01*
X139672364Y-83574887D01*
X139672360Y-83574890D01*
X139554890Y-83692360D01*
X139554887Y-83692364D01*
X139462591Y-83830493D01*
X139462584Y-83830506D01*
X139399012Y-83983984D01*
X139399009Y-83983996D01*
X139366600Y-84146927D01*
X139366600Y-84313072D01*
X139399009Y-84476003D01*
X139399012Y-84476015D01*
X139462584Y-84629493D01*
X139462591Y-84629506D01*
X139554887Y-84767635D01*
X139554890Y-84767639D01*
X139588827Y-84801575D01*
X139622313Y-84862897D01*
X139617329Y-84932589D01*
X139604250Y-84958147D01*
X139562590Y-85020495D01*
X139562584Y-85020506D01*
X139499012Y-85173984D01*
X139499009Y-85173993D01*
X139497825Y-85179950D01*
X139465439Y-85241861D01*
X139404723Y-85276434D01*
X139334953Y-85272693D01*
X139332875Y-85271939D01*
X139197380Y-85221403D01*
X139197372Y-85221401D01*
X139137844Y-85215000D01*
X138830000Y-85215000D01*
X138830000Y-86111000D01*
X138810315Y-86178039D01*
X138757511Y-86223794D01*
X138706000Y-86235000D01*
X138580000Y-86235000D01*
X138580000Y-86361000D01*
X138560315Y-86428039D01*
X138507511Y-86473794D01*
X138456000Y-86485000D01*
X137570000Y-86485000D01*
X137570000Y-86802844D01*
X137576401Y-86862372D01*
X137576403Y-86862379D01*
X137600114Y-86925952D01*
X137605098Y-86995644D01*
X137600114Y-87012617D01*
X137575909Y-87077514D01*
X137575908Y-87077516D01*
X137569501Y-87137116D01*
X137569500Y-87137135D01*
X137569500Y-87733106D01*
X137549815Y-87800145D01*
X137497011Y-87845900D01*
X137427853Y-87855844D01*
X137364297Y-87826819D01*
X137346234Y-87807418D01*
X137340789Y-87800145D01*
X137327546Y-87782454D01*
X137327544Y-87782453D01*
X137327544Y-87782452D01*
X137212335Y-87696206D01*
X137212328Y-87696202D01*
X137077482Y-87645908D01*
X137077483Y-87645908D01*
X137017883Y-87639501D01*
X137017881Y-87639500D01*
X137017873Y-87639500D01*
X137017864Y-87639500D01*
X136122129Y-87639500D01*
X136122123Y-87639501D01*
X136062516Y-87645908D01*
X135927671Y-87696202D01*
X135927664Y-87696206D01*
X135812455Y-87782452D01*
X135812452Y-87782455D01*
X135726206Y-87897664D01*
X135726202Y-87897671D01*
X135684533Y-88009394D01*
X135675909Y-88032517D01*
X135669500Y-88092127D01*
X135669500Y-88092134D01*
X135669500Y-88092135D01*
X135669500Y-88487869D01*
X135669501Y-88487878D01*
X135673679Y-88526745D01*
X135673679Y-88553250D01*
X135669500Y-88592122D01*
X135669500Y-88987869D01*
X135669501Y-88987878D01*
X135673679Y-89026745D01*
X135673679Y-89053250D01*
X135669500Y-89092122D01*
X135669500Y-89487869D01*
X135669501Y-89487880D01*
X135673518Y-89525249D01*
X135661110Y-89594008D01*
X135613498Y-89645144D01*
X135550228Y-89662500D01*
X134975650Y-89662500D01*
X134908611Y-89642815D01*
X134898650Y-89635565D01*
X134759506Y-89542591D01*
X134759493Y-89542584D01*
X134606015Y-89479012D01*
X134606003Y-89479009D01*
X134443072Y-89446600D01*
X134443068Y-89446600D01*
X134276932Y-89446600D01*
X134276927Y-89446600D01*
X134113996Y-89479009D01*
X134113984Y-89479012D01*
X133960506Y-89542584D01*
X133960493Y-89542591D01*
X133822364Y-89634887D01*
X133822360Y-89634890D01*
X133704890Y-89752360D01*
X133704887Y-89752364D01*
X133612591Y-89890493D01*
X133612584Y-89890506D01*
X133549012Y-90043984D01*
X133549009Y-90043996D01*
X133516600Y-90206927D01*
X133516600Y-90373072D01*
X133546290Y-90522333D01*
X133549011Y-90536011D01*
X133559419Y-90561140D01*
X133563524Y-90571049D01*
X133570992Y-90640518D01*
X133539716Y-90702997D01*
X133479627Y-90738649D01*
X133448962Y-90742500D01*
X131898192Y-90742500D01*
X131776973Y-90766612D01*
X131776965Y-90766614D01*
X131721000Y-90789795D01*
X131720992Y-90789799D01*
X131713828Y-90792767D01*
X131662767Y-90813917D01*
X131574690Y-90872768D01*
X131571022Y-90875218D01*
X131571013Y-90875224D01*
X131559989Y-90882590D01*
X131559988Y-90882591D01*
X130709263Y-91733317D01*
X130647940Y-91766802D01*
X130578248Y-91761818D01*
X130522315Y-91719946D01*
X130497898Y-91654482D01*
X130497582Y-91645561D01*
X130500053Y-88194410D01*
X130519786Y-88127386D01*
X130572622Y-88081669D01*
X130624053Y-88070500D01*
X131128844Y-88070500D01*
X131128845Y-88070499D01*
X131283497Y-88039737D01*
X131419030Y-87983598D01*
X131429172Y-87979397D01*
X131429172Y-87979396D01*
X131429179Y-87979394D01*
X131560289Y-87891789D01*
X131671789Y-87780289D01*
X131759394Y-87649179D01*
X131760749Y-87645909D01*
X131792435Y-87569410D01*
X131805510Y-87537844D01*
X133170000Y-87537844D01*
X133176401Y-87597372D01*
X133176403Y-87597379D01*
X133226645Y-87732086D01*
X133226649Y-87732093D01*
X133312809Y-87847187D01*
X133312812Y-87847190D01*
X133427906Y-87933350D01*
X133427913Y-87933354D01*
X133562620Y-87983596D01*
X133562627Y-87983598D01*
X133622155Y-87989999D01*
X133622172Y-87990000D01*
X133870000Y-87990000D01*
X134270000Y-87990000D01*
X134517828Y-87990000D01*
X134517844Y-87989999D01*
X134577372Y-87983598D01*
X134577379Y-87983596D01*
X134712086Y-87933354D01*
X134712093Y-87933350D01*
X134827187Y-87847190D01*
X134827190Y-87847187D01*
X134913350Y-87732093D01*
X134913354Y-87732086D01*
X134963596Y-87597379D01*
X134963598Y-87597372D01*
X134969999Y-87537844D01*
X134970000Y-87537827D01*
X134970000Y-87490000D01*
X134270000Y-87490000D01*
X134270000Y-87990000D01*
X133870000Y-87990000D01*
X133870000Y-87490000D01*
X133170000Y-87490000D01*
X133170000Y-87537844D01*
X131805510Y-87537844D01*
X131819737Y-87503497D01*
X131833597Y-87433819D01*
X131837451Y-87414446D01*
X131837451Y-87414445D01*
X131850499Y-87348846D01*
X131850500Y-87348844D01*
X131850500Y-87042155D01*
X133170000Y-87042155D01*
X133170000Y-87090000D01*
X133870000Y-87090000D01*
X134270000Y-87090000D01*
X134970000Y-87090000D01*
X134970000Y-87042172D01*
X134969999Y-87042155D01*
X134963598Y-86982627D01*
X134963596Y-86982620D01*
X134913354Y-86847913D01*
X134913350Y-86847906D01*
X134827190Y-86732812D01*
X134827187Y-86732809D01*
X134712093Y-86646649D01*
X134712086Y-86646645D01*
X134577379Y-86596403D01*
X134577372Y-86596401D01*
X134517844Y-86590000D01*
X134270000Y-86590000D01*
X134270000Y-87090000D01*
X133870000Y-87090000D01*
X133870000Y-86590000D01*
X133622155Y-86590000D01*
X133562627Y-86596401D01*
X133562620Y-86596403D01*
X133427913Y-86646645D01*
X133427906Y-86646649D01*
X133312812Y-86732809D01*
X133312809Y-86732812D01*
X133226649Y-86847906D01*
X133226645Y-86847913D01*
X133176403Y-86982620D01*
X133176401Y-86982627D01*
X133170000Y-87042155D01*
X131850500Y-87042155D01*
X131850500Y-85667155D01*
X137570000Y-85667155D01*
X137570000Y-85985000D01*
X138330000Y-85985000D01*
X138330000Y-85215000D01*
X138022155Y-85215000D01*
X137962627Y-85221401D01*
X137962620Y-85221403D01*
X137827913Y-85271645D01*
X137827906Y-85271649D01*
X137712812Y-85357809D01*
X137712809Y-85357812D01*
X137626649Y-85472906D01*
X137626645Y-85472913D01*
X137576403Y-85607620D01*
X137576401Y-85607627D01*
X137570000Y-85667155D01*
X131850500Y-85667155D01*
X131850500Y-83991155D01*
X131850499Y-83991153D01*
X131838795Y-83932313D01*
X131819737Y-83836503D01*
X131817253Y-83830506D01*
X131759397Y-83690827D01*
X131759390Y-83690814D01*
X131671789Y-83559711D01*
X131671786Y-83559707D01*
X131560292Y-83448213D01*
X131560288Y-83448210D01*
X131429185Y-83360609D01*
X131429172Y-83360602D01*
X131283501Y-83300264D01*
X131283489Y-83300261D01*
X131128845Y-83269500D01*
X131128842Y-83269500D01*
X131115892Y-83269500D01*
X130624500Y-83269500D01*
X130557461Y-83249815D01*
X130511706Y-83197011D01*
X130500500Y-83145500D01*
X130500500Y-81504427D01*
X130500816Y-81495581D01*
X130513194Y-81322516D01*
X130515130Y-81295436D01*
X130517648Y-81277932D01*
X130552721Y-81116702D01*
X130582130Y-81059655D01*
X131424523Y-80133023D01*
X131472941Y-80100255D01*
X131569236Y-80064338D01*
X131586199Y-80059356D01*
X131777938Y-80017646D01*
X131795436Y-80015130D01*
X131995582Y-80000816D01*
X132004428Y-80000500D01*
X132065892Y-80000500D01*
X167934108Y-80000500D01*
X167995572Y-80000500D01*
X168004418Y-80000816D01*
G37*
%TD.AperFunction*%
%TD*%
M02*
