%TF.GenerationSoftware,KiCad,Pcbnew,9.0.7*%
%TF.CreationDate,2026-02-16T08:00:11+01:00*%
%TF.ProjectId,misfits,6d697366-6974-4732-9e6b-696361645f70,1*%
%TF.SameCoordinates,Original*%
%TF.FileFunction,Copper,L3,Inr*%
%TF.FilePolarity,Positive*%
%FSLAX46Y46*%
G04 Gerber Fmt 4.6, Leading zero omitted, Abs format (unit mm)*
G04 Created by KiCad (PCBNEW 9.0.7) date 2026-02-16 08:00:11*
%MOMM*%
%LPD*%
G01*
G04 APERTURE LIST*
%TA.AperFunction,ComponentPad*%
%ADD10O,1.050000X1.850000*%
%TD*%
%TA.AperFunction,ComponentPad*%
%ADD11O,1.050000X2.250000*%
%TD*%
%TA.AperFunction,ComponentPad*%
%ADD12R,1.308000X1.308000*%
%TD*%
%TA.AperFunction,ComponentPad*%
%ADD13C,1.308000*%
%TD*%
%TA.AperFunction,ViaPad*%
%ADD14C,0.685800*%
%TD*%
G04 APERTURE END LIST*
D10*
%TO.N,GND*%
%TO.C,J1*%
X145660000Y-103410000D03*
X154300000Y-103410000D03*
D11*
X145660000Y-107410000D03*
X154300000Y-107410000D03*
%TD*%
D12*
%TO.N,Net-(U2-OUT)*%
%TO.C,J2*%
X160450000Y-100567500D03*
D13*
%TO.N,GND*%
X158450000Y-100567500D03*
%TD*%
D14*
%TO.N,GND*%
X165600000Y-81750000D03*
X137000000Y-81500000D03*
X165200000Y-107600000D03*
X151000000Y-92000000D03*
X167420000Y-90480000D03*
X134100000Y-107200000D03*
%TO.N,/5V_IN*%
X145950000Y-100320000D03*
X152380000Y-102845000D03*
%TO.N,/3V3*%
X152750000Y-83510000D03*
%TO.N,Net-(U1-EN)*%
X154325000Y-97530000D03*
%TO.N,Net-(C12-Pad1)*%
X134360000Y-90290000D03*
%TO.N,Net-(C13-Pad1)*%
X134220000Y-92320000D03*
%TO.N,Net-(C14-Pad1)*%
X134230000Y-93920000D03*
%TO.N,Net-(C15-Pad1)*%
X134220000Y-95490000D03*
%TO.N,Net-(C16-Pad1)*%
X134190000Y-97100000D03*
%TO.N,/PREVGL*%
X134180000Y-98700000D03*
%TO.N,/VCOM*%
X136570000Y-102190000D03*
%TO.N,/USB_D_N*%
X149220000Y-104300000D03*
%TO.N,/USB_D_P*%
X150920000Y-104040000D03*
%TO.N,/RES*%
X135420000Y-91270000D03*
X145750000Y-83510000D03*
X140210000Y-84230000D03*
%TO.N,/CS*%
X145340000Y-94780000D03*
%TO.N,/SCLK*%
X140800000Y-91170000D03*
X140990000Y-87160000D03*
X140694229Y-96005771D03*
%TO.N,/SDI*%
X143470000Y-91090000D03*
%TO.N,/DC*%
X138220000Y-93050000D03*
X144900000Y-84610000D03*
X140310000Y-85420000D03*
%TO.N,/BUSY*%
X140290000Y-87910000D03*
%TO.N,Net-(U1-IO33)*%
X138341252Y-93895946D03*
X142150000Y-93010000D03*
X132315000Y-102290000D03*
X132310000Y-104590000D03*
%TO.N,Net-(U1-IO34)*%
X138383919Y-94696081D03*
X141050000Y-93850000D03*
%TO.N,Net-(U1-IO35)*%
X167665000Y-102310000D03*
X167665000Y-104610000D03*
%TD*%
%TA.AperFunction,Conductor*%
%TO.N,GND*%
G36*
X168004418Y-80000816D02*
G01*
X168204561Y-80015130D01*
X168222063Y-80017647D01*
X168413797Y-80059355D01*
X168430755Y-80064334D01*
X168527059Y-80100254D01*
X168575476Y-80133024D01*
X169417865Y-81059653D01*
X169447278Y-81116706D01*
X169482351Y-81277932D01*
X169484869Y-81295443D01*
X169499184Y-81495580D01*
X169499500Y-81504427D01*
X169499500Y-83175500D01*
X169479815Y-83242539D01*
X169427011Y-83288294D01*
X169375500Y-83299500D01*
X168871155Y-83299500D01*
X168716510Y-83330261D01*
X168716498Y-83330264D01*
X168570827Y-83390602D01*
X168570814Y-83390609D01*
X168439711Y-83478210D01*
X168439707Y-83478213D01*
X168328213Y-83589707D01*
X168328210Y-83589711D01*
X168240609Y-83720814D01*
X168240602Y-83720827D01*
X168180264Y-83866498D01*
X168180261Y-83866510D01*
X168149500Y-84021153D01*
X168149500Y-87378846D01*
X168180261Y-87533489D01*
X168180264Y-87533501D01*
X168240602Y-87679172D01*
X168240609Y-87679185D01*
X168328210Y-87810288D01*
X168328213Y-87810292D01*
X168439707Y-87921786D01*
X168439711Y-87921789D01*
X168570814Y-88009390D01*
X168570827Y-88009397D01*
X168644078Y-88039738D01*
X168716503Y-88069737D01*
X168871153Y-88100499D01*
X168871156Y-88100500D01*
X168871158Y-88100500D01*
X168884108Y-88100500D01*
X169375052Y-88100500D01*
X169442091Y-88120185D01*
X169487846Y-88172989D01*
X169499052Y-88224589D01*
X169496180Y-92233680D01*
X169490146Y-100658321D01*
X169489947Y-100935589D01*
X169470214Y-101002614D01*
X169417378Y-101048331D01*
X169365947Y-101059500D01*
X168861155Y-101059500D01*
X168706510Y-101090261D01*
X168706498Y-101090264D01*
X168560827Y-101150602D01*
X168560814Y-101150609D01*
X168429711Y-101238210D01*
X168429707Y-101238213D01*
X168318213Y-101349707D01*
X168318210Y-101349711D01*
X168230609Y-101480814D01*
X168230605Y-101480822D01*
X168224821Y-101494785D01*
X168180977Y-101549186D01*
X168114681Y-101571247D01*
X168062810Y-101561887D01*
X167911015Y-101499012D01*
X167911003Y-101499009D01*
X167748072Y-101466600D01*
X167748068Y-101466600D01*
X167581932Y-101466600D01*
X167581927Y-101466600D01*
X167418996Y-101499009D01*
X167418984Y-101499012D01*
X167265506Y-101562584D01*
X167265493Y-101562591D01*
X167127364Y-101654887D01*
X167127360Y-101654890D01*
X167009890Y-101772360D01*
X167009887Y-101772364D01*
X166917591Y-101910493D01*
X166917584Y-101910506D01*
X166854012Y-102063984D01*
X166854009Y-102063996D01*
X166821600Y-102226927D01*
X166821600Y-102393072D01*
X166854009Y-102556003D01*
X166854012Y-102556015D01*
X166917584Y-102709493D01*
X166917591Y-102709506D01*
X167009887Y-102847635D01*
X167009890Y-102847639D01*
X167127360Y-102965109D01*
X167127364Y-102965112D01*
X167265493Y-103057408D01*
X167265506Y-103057415D01*
X167418984Y-103120987D01*
X167418989Y-103120989D01*
X167581927Y-103153399D01*
X167581931Y-103153400D01*
X167581932Y-103153400D01*
X167748069Y-103153400D01*
X167748070Y-103153399D01*
X167911011Y-103120989D01*
X167968050Y-103097362D01*
X168037515Y-103089894D01*
X168099995Y-103121168D01*
X168135648Y-103181257D01*
X168139500Y-103211924D01*
X168139500Y-103708075D01*
X168119815Y-103775114D01*
X168067011Y-103820869D01*
X167997853Y-103830813D01*
X167968048Y-103822636D01*
X167911015Y-103799012D01*
X167911003Y-103799009D01*
X167748072Y-103766600D01*
X167748068Y-103766600D01*
X167581932Y-103766600D01*
X167581927Y-103766600D01*
X167418996Y-103799009D01*
X167418984Y-103799012D01*
X167265506Y-103862584D01*
X167265493Y-103862591D01*
X167127364Y-103954887D01*
X167127360Y-103954890D01*
X167009890Y-104072360D01*
X167009887Y-104072364D01*
X166917591Y-104210493D01*
X166917584Y-104210506D01*
X166854012Y-104363984D01*
X166854009Y-104363996D01*
X166821600Y-104526927D01*
X166821600Y-104693072D01*
X166854009Y-104856003D01*
X166854012Y-104856015D01*
X166917584Y-105009493D01*
X166917591Y-105009506D01*
X167009887Y-105147635D01*
X167009890Y-105147639D01*
X167127360Y-105265109D01*
X167127364Y-105265112D01*
X167265493Y-105357408D01*
X167265506Y-105357415D01*
X167414634Y-105419185D01*
X167418989Y-105420989D01*
X167510468Y-105439185D01*
X167581927Y-105453399D01*
X167581931Y-105453400D01*
X167581932Y-105453400D01*
X167748069Y-105453400D01*
X167748070Y-105453399D01*
X167911011Y-105420989D01*
X168062810Y-105358111D01*
X168132279Y-105350643D01*
X168194758Y-105381918D01*
X168224821Y-105425216D01*
X168230602Y-105439171D01*
X168230609Y-105439185D01*
X168318210Y-105570288D01*
X168318213Y-105570292D01*
X168429707Y-105681786D01*
X168429711Y-105681789D01*
X168560814Y-105769390D01*
X168560827Y-105769397D01*
X168693589Y-105824388D01*
X168706503Y-105829737D01*
X168861153Y-105860499D01*
X168861156Y-105860500D01*
X168861158Y-105860500D01*
X168874108Y-105860500D01*
X169368412Y-105860500D01*
X169435451Y-105880185D01*
X169481206Y-105932989D01*
X169492410Y-105983919D01*
X169494002Y-106324473D01*
X169499471Y-107495363D01*
X169499156Y-107504788D01*
X169484869Y-107704556D01*
X169482351Y-107722068D01*
X169440646Y-107913787D01*
X169435662Y-107930763D01*
X169367091Y-108114607D01*
X169359740Y-108130701D01*
X169356788Y-108136107D01*
X169335638Y-108164360D01*
X168664361Y-108835637D01*
X168636107Y-108856788D01*
X168630701Y-108859740D01*
X168614607Y-108867091D01*
X168430763Y-108935662D01*
X168413787Y-108940646D01*
X168222068Y-108982351D01*
X168204557Y-108984869D01*
X168023779Y-108997799D01*
X168004417Y-108999184D01*
X167995572Y-108999500D01*
X155059433Y-108999500D01*
X154992394Y-108979815D01*
X154946639Y-108927011D01*
X154936695Y-108857853D01*
X154965720Y-108794297D01*
X154971752Y-108787819D01*
X155096167Y-108663403D01*
X155096170Y-108663399D01*
X155208340Y-108495526D01*
X155208347Y-108495513D01*
X155285609Y-108308983D01*
X155285612Y-108308974D01*
X155324999Y-108110958D01*
X155325000Y-108110955D01*
X155325000Y-107660000D01*
X154625000Y-107660000D01*
X154625000Y-107160000D01*
X155325000Y-107160000D01*
X155325000Y-106709045D01*
X155324999Y-106709041D01*
X155285612Y-106511025D01*
X155285609Y-106511016D01*
X155208347Y-106324486D01*
X155208340Y-106324473D01*
X155096170Y-106156600D01*
X155096167Y-106156596D01*
X154953403Y-106013832D01*
X154953399Y-106013829D01*
X154785526Y-105901659D01*
X154785513Y-105901652D01*
X154598984Y-105824390D01*
X154598977Y-105824388D01*
X154550000Y-105814645D01*
X154550000Y-106600382D01*
X154499554Y-106549936D01*
X154425445Y-106507149D01*
X154342787Y-106485000D01*
X154257213Y-106485000D01*
X154174555Y-106507149D01*
X154100446Y-106549936D01*
X154050000Y-106600382D01*
X154050000Y-105814646D01*
X154049999Y-105814645D01*
X154001022Y-105824388D01*
X154001015Y-105824390D01*
X153814486Y-105901652D01*
X153814473Y-105901659D01*
X153646600Y-106013829D01*
X153646596Y-106013832D01*
X153503832Y-106156596D01*
X153503829Y-106156600D01*
X153391659Y-106324473D01*
X153391652Y-106324486D01*
X153314390Y-106511016D01*
X153314387Y-106511025D01*
X153275000Y-106709041D01*
X153275000Y-107160000D01*
X153975000Y-107160000D01*
X153975000Y-107660000D01*
X153275000Y-107660000D01*
X153275000Y-108110958D01*
X153314387Y-108308974D01*
X153314390Y-108308983D01*
X153391652Y-108495513D01*
X153391659Y-108495526D01*
X153503829Y-108663399D01*
X153503832Y-108663403D01*
X153628248Y-108787819D01*
X153661733Y-108849142D01*
X153656749Y-108918834D01*
X153614877Y-108974767D01*
X153549413Y-108999184D01*
X153540567Y-108999500D01*
X146419433Y-108999500D01*
X146352394Y-108979815D01*
X146306639Y-108927011D01*
X146296695Y-108857853D01*
X146325720Y-108794297D01*
X146331752Y-108787819D01*
X146456167Y-108663403D01*
X146456170Y-108663399D01*
X146568340Y-108495526D01*
X146568347Y-108495513D01*
X146645609Y-108308983D01*
X146645612Y-108308974D01*
X146684999Y-108110958D01*
X146685000Y-108110955D01*
X146685000Y-107660000D01*
X145985000Y-107660000D01*
X145985000Y-107160000D01*
X146685000Y-107160000D01*
X146685000Y-106709045D01*
X146684999Y-106709041D01*
X146645612Y-106511025D01*
X146645609Y-106511016D01*
X146568347Y-106324486D01*
X146568340Y-106324473D01*
X146456170Y-106156600D01*
X146456167Y-106156596D01*
X146313403Y-106013832D01*
X146313399Y-106013829D01*
X146145526Y-105901659D01*
X146145513Y-105901652D01*
X145958984Y-105824390D01*
X145958977Y-105824388D01*
X145910000Y-105814645D01*
X145910000Y-106600382D01*
X145859554Y-106549936D01*
X145785445Y-106507149D01*
X145702787Y-106485000D01*
X145617213Y-106485000D01*
X145534555Y-106507149D01*
X145460446Y-106549936D01*
X145410000Y-106600382D01*
X145410000Y-105814646D01*
X145409999Y-105814645D01*
X145361022Y-105824388D01*
X145361015Y-105824390D01*
X145174486Y-105901652D01*
X145174473Y-105901659D01*
X145006600Y-106013829D01*
X145006596Y-106013832D01*
X144863832Y-106156596D01*
X144863829Y-106156600D01*
X144751659Y-106324473D01*
X144751652Y-106324486D01*
X144674390Y-106511016D01*
X144674387Y-106511025D01*
X144635000Y-106709041D01*
X144635000Y-107160000D01*
X145335000Y-107160000D01*
X145335000Y-107660000D01*
X144635000Y-107660000D01*
X144635000Y-108110958D01*
X144674387Y-108308974D01*
X144674390Y-108308983D01*
X144751652Y-108495513D01*
X144751659Y-108495526D01*
X144863829Y-108663399D01*
X144863832Y-108663403D01*
X144988248Y-108787819D01*
X145021733Y-108849142D01*
X145016749Y-108918834D01*
X144974877Y-108974767D01*
X144909413Y-108999184D01*
X144900567Y-108999500D01*
X132004428Y-108999500D01*
X131995582Y-108999184D01*
X131973622Y-108997613D01*
X131795442Y-108984869D01*
X131777931Y-108982351D01*
X131586212Y-108940646D01*
X131569236Y-108935662D01*
X131430510Y-108883919D01*
X131384051Y-108853254D01*
X131327901Y-108794297D01*
X130619734Y-108050721D01*
X130614893Y-108042982D01*
X130610261Y-108039515D01*
X130593348Y-108008543D01*
X130564334Y-107930755D01*
X130559355Y-107913797D01*
X130517647Y-107722063D01*
X130515130Y-107704556D01*
X130511943Y-107660000D01*
X130500816Y-107504418D01*
X130500500Y-107495572D01*
X130500500Y-107429010D01*
X130500153Y-107423905D01*
X130496818Y-106703528D01*
X130493400Y-105965074D01*
X130512774Y-105897944D01*
X130565366Y-105851945D01*
X130617399Y-105840500D01*
X131118844Y-105840500D01*
X131118845Y-105840499D01*
X131273497Y-105809737D01*
X131419179Y-105749394D01*
X131550289Y-105661789D01*
X131661789Y-105550289D01*
X131749394Y-105419179D01*
X131754442Y-105406991D01*
X131798278Y-105352588D01*
X131864571Y-105330519D01*
X131916455Y-105339878D01*
X132063989Y-105400989D01*
X132185788Y-105425216D01*
X132226927Y-105433399D01*
X132226931Y-105433400D01*
X132226932Y-105433400D01*
X132393069Y-105433400D01*
X132393070Y-105433399D01*
X132556011Y-105400989D01*
X132709500Y-105337412D01*
X132847636Y-105245112D01*
X132965112Y-105127636D01*
X133057412Y-104989500D01*
X133120989Y-104836011D01*
X133153400Y-104673068D01*
X133153400Y-104506932D01*
X133120989Y-104343989D01*
X133100910Y-104295513D01*
X133057415Y-104190506D01*
X133057408Y-104190493D01*
X132965112Y-104052364D01*
X132965109Y-104052360D01*
X132847639Y-103934890D01*
X132847635Y-103934887D01*
X132709506Y-103842591D01*
X132709493Y-103842584D01*
X132556015Y-103779012D01*
X132556003Y-103779009D01*
X132393072Y-103746600D01*
X132393068Y-103746600D01*
X132226932Y-103746600D01*
X132226927Y-103746600D01*
X132063996Y-103779009D01*
X132063988Y-103779011D01*
X132011951Y-103800565D01*
X131942481Y-103808032D01*
X131880003Y-103776756D01*
X131844351Y-103716667D01*
X131840500Y-103686003D01*
X131840500Y-103191924D01*
X131860185Y-103124885D01*
X131912989Y-103079130D01*
X131982147Y-103069186D01*
X132011943Y-103077360D01*
X132068989Y-103100989D01*
X132189124Y-103124885D01*
X132231927Y-103133399D01*
X132231931Y-103133400D01*
X132231932Y-103133400D01*
X132398069Y-103133400D01*
X132398070Y-103133399D01*
X132561011Y-103100989D01*
X132714500Y-103037412D01*
X132852636Y-102945112D01*
X132970112Y-102827636D01*
X133062412Y-102689500D01*
X133125989Y-102536011D01*
X133158400Y-102373068D01*
X133158400Y-102206932D01*
X133142109Y-102125030D01*
X133142109Y-102125027D01*
X133138509Y-102106927D01*
X135726600Y-102106927D01*
X135726600Y-102273072D01*
X135759009Y-102436003D01*
X135759012Y-102436015D01*
X135822584Y-102589493D01*
X135822591Y-102589506D01*
X135914887Y-102727635D01*
X135914890Y-102727639D01*
X136032360Y-102845109D01*
X136032364Y-102845112D01*
X136170493Y-102937408D01*
X136170506Y-102937415D01*
X136323984Y-103000987D01*
X136323989Y-103000989D01*
X136486927Y-103033399D01*
X136486931Y-103033400D01*
X136486932Y-103033400D01*
X136653069Y-103033400D01*
X136653070Y-103033399D01*
X136816011Y-103000989D01*
X136934721Y-102951817D01*
X136969493Y-102937415D01*
X136969493Y-102937414D01*
X136969500Y-102937412D01*
X137011960Y-102909041D01*
X144635000Y-102909041D01*
X144635000Y-103160000D01*
X145335000Y-103160000D01*
X145335000Y-103660000D01*
X144635000Y-103660000D01*
X144635000Y-103910958D01*
X144674387Y-104108974D01*
X144674390Y-104108983D01*
X144751652Y-104295513D01*
X144751659Y-104295526D01*
X144863829Y-104463399D01*
X144863832Y-104463403D01*
X145006596Y-104606167D01*
X145006600Y-104606170D01*
X145174473Y-104718340D01*
X145174486Y-104718347D01*
X145361016Y-104795609D01*
X145361025Y-104795612D01*
X145410000Y-104805353D01*
X145410000Y-104019618D01*
X145460446Y-104070064D01*
X145534555Y-104112851D01*
X145617213Y-104135000D01*
X145702787Y-104135000D01*
X145785445Y-104112851D01*
X145859554Y-104070064D01*
X145910000Y-104019618D01*
X145910000Y-104805352D01*
X145958974Y-104795612D01*
X145958983Y-104795609D01*
X146145513Y-104718347D01*
X146145526Y-104718340D01*
X146313399Y-104606170D01*
X146313403Y-104606167D01*
X146456167Y-104463403D01*
X146456170Y-104463399D01*
X146568340Y-104295526D01*
X146568347Y-104295513D01*
X146600898Y-104216927D01*
X148376600Y-104216927D01*
X148376600Y-104383072D01*
X148409009Y-104546003D01*
X148409012Y-104546015D01*
X148472584Y-104699493D01*
X148472591Y-104699506D01*
X148564887Y-104837635D01*
X148564890Y-104837639D01*
X148682360Y-104955109D01*
X148682364Y-104955112D01*
X148820493Y-105047408D01*
X148820506Y-105047415D01*
X148968552Y-105108737D01*
X148973989Y-105110989D01*
X149136927Y-105143399D01*
X149136931Y-105143400D01*
X149136932Y-105143400D01*
X149303069Y-105143400D01*
X149303070Y-105143399D01*
X149466011Y-105110989D01*
X149584721Y-105061817D01*
X149619493Y-105047415D01*
X149619493Y-105047414D01*
X149619500Y-105047412D01*
X149757636Y-104955112D01*
X149875112Y-104837636D01*
X149967412Y-104699500D01*
X150023635Y-104563763D01*
X150067473Y-104509365D01*
X150133767Y-104487299D01*
X150201466Y-104504578D01*
X150241296Y-104542329D01*
X150264887Y-104577635D01*
X150264890Y-104577639D01*
X150382360Y-104695109D01*
X150382364Y-104695112D01*
X150520493Y-104787408D01*
X150520506Y-104787415D01*
X150646252Y-104839500D01*
X150673989Y-104850989D01*
X150800961Y-104876245D01*
X150836927Y-104883399D01*
X150836931Y-104883400D01*
X150836932Y-104883400D01*
X151003069Y-104883400D01*
X151003070Y-104883399D01*
X151166011Y-104850989D01*
X151319500Y-104787412D01*
X151457636Y-104695112D01*
X151575112Y-104577636D01*
X151667412Y-104439500D01*
X151730989Y-104286011D01*
X151763400Y-104123068D01*
X151763400Y-103956932D01*
X151730989Y-103793989D01*
X151711360Y-103746600D01*
X151676488Y-103662410D01*
X151669019Y-103592941D01*
X151700294Y-103530462D01*
X151760383Y-103494810D01*
X151830209Y-103497304D01*
X151859940Y-103511856D01*
X151980500Y-103592412D01*
X151980502Y-103592413D01*
X151980506Y-103592415D01*
X152133984Y-103655987D01*
X152133989Y-103655989D01*
X152284881Y-103686003D01*
X152296927Y-103688399D01*
X152296931Y-103688400D01*
X152296932Y-103688400D01*
X152463069Y-103688400D01*
X152463070Y-103688399D01*
X152626011Y-103655989D01*
X152779500Y-103592412D01*
X152839107Y-103552584D01*
X152909519Y-103505536D01*
X152912391Y-103503616D01*
X152917636Y-103500112D01*
X153035112Y-103382636D01*
X153127412Y-103244500D01*
X153130705Y-103236550D01*
X153174544Y-103182146D01*
X153240838Y-103160079D01*
X153245267Y-103160000D01*
X153975000Y-103160000D01*
X153975000Y-103660000D01*
X153275000Y-103660000D01*
X153275000Y-103910958D01*
X153314387Y-104108974D01*
X153314390Y-104108983D01*
X153391652Y-104295513D01*
X153391659Y-104295526D01*
X153503829Y-104463399D01*
X153503832Y-104463403D01*
X153646596Y-104606167D01*
X153646600Y-104606170D01*
X153814473Y-104718340D01*
X153814486Y-104718347D01*
X154001016Y-104795609D01*
X154001025Y-104795612D01*
X154050000Y-104805353D01*
X154050000Y-104019618D01*
X154100446Y-104070064D01*
X154174555Y-104112851D01*
X154257213Y-104135000D01*
X154342787Y-104135000D01*
X154425445Y-104112851D01*
X154499554Y-104070064D01*
X154550000Y-104019618D01*
X154550000Y-104805352D01*
X154598974Y-104795612D01*
X154598983Y-104795609D01*
X154785513Y-104718347D01*
X154785526Y-104718340D01*
X154953399Y-104606170D01*
X154953403Y-104606167D01*
X155096167Y-104463403D01*
X155096170Y-104463399D01*
X155208340Y-104295526D01*
X155208347Y-104295513D01*
X155285609Y-104108983D01*
X155285612Y-104108974D01*
X155324999Y-103910958D01*
X155325000Y-103910955D01*
X155325000Y-103660000D01*
X154625000Y-103660000D01*
X154625000Y-103160000D01*
X155325000Y-103160000D01*
X155325000Y-102909045D01*
X155324999Y-102909041D01*
X155285612Y-102711025D01*
X155285609Y-102711016D01*
X155208347Y-102524486D01*
X155208340Y-102524473D01*
X155096170Y-102356600D01*
X155096167Y-102356596D01*
X154953403Y-102213832D01*
X154953399Y-102213829D01*
X154785526Y-102101659D01*
X154785513Y-102101652D01*
X154598984Y-102024390D01*
X154598977Y-102024388D01*
X154550000Y-102014645D01*
X154550000Y-102800382D01*
X154499554Y-102749936D01*
X154425445Y-102707149D01*
X154342787Y-102685000D01*
X154257213Y-102685000D01*
X154174555Y-102707149D01*
X154100446Y-102749936D01*
X154050000Y-102800382D01*
X154050000Y-102014646D01*
X154049999Y-102014645D01*
X154001022Y-102024388D01*
X154001015Y-102024390D01*
X153814486Y-102101652D01*
X153814473Y-102101659D01*
X153646600Y-102213829D01*
X153646596Y-102213832D01*
X153503832Y-102356596D01*
X153503829Y-102356600D01*
X153391659Y-102524473D01*
X153391656Y-102524480D01*
X153390452Y-102527387D01*
X153389413Y-102528675D01*
X153388786Y-102529850D01*
X153388563Y-102529730D01*
X153346610Y-102581790D01*
X153280316Y-102603854D01*
X153212616Y-102586574D01*
X153165007Y-102535436D01*
X153161330Y-102527385D01*
X153127415Y-102445506D01*
X153127408Y-102445493D01*
X153035112Y-102307364D01*
X153035109Y-102307360D01*
X152917639Y-102189890D01*
X152917635Y-102189887D01*
X152779506Y-102097591D01*
X152779493Y-102097584D01*
X152626015Y-102034012D01*
X152626003Y-102034009D01*
X152463072Y-102001600D01*
X152463068Y-102001600D01*
X152296932Y-102001600D01*
X152296927Y-102001600D01*
X152133996Y-102034009D01*
X152133984Y-102034012D01*
X151980506Y-102097584D01*
X151980493Y-102097591D01*
X151842364Y-102189887D01*
X151842360Y-102189890D01*
X151724890Y-102307360D01*
X151724887Y-102307364D01*
X151632591Y-102445493D01*
X151632584Y-102445506D01*
X151569012Y-102598984D01*
X151569009Y-102598996D01*
X151536600Y-102761927D01*
X151536600Y-102928072D01*
X151569009Y-103091003D01*
X151569012Y-103091015D01*
X151623511Y-103222589D01*
X151630980Y-103292058D01*
X151599704Y-103354537D01*
X151539615Y-103390189D01*
X151469790Y-103387695D01*
X151440059Y-103373143D01*
X151319506Y-103292591D01*
X151319493Y-103292584D01*
X151166015Y-103229012D01*
X151166003Y-103229009D01*
X151003072Y-103196600D01*
X151003068Y-103196600D01*
X150836932Y-103196600D01*
X150836927Y-103196600D01*
X150673996Y-103229009D01*
X150673984Y-103229012D01*
X150520506Y-103292584D01*
X150520493Y-103292591D01*
X150382364Y-103384887D01*
X150382360Y-103384890D01*
X150264890Y-103502360D01*
X150264887Y-103502364D01*
X150172591Y-103640493D01*
X150172586Y-103640502D01*
X150116366Y-103776232D01*
X150072525Y-103830635D01*
X150006231Y-103852700D01*
X149938532Y-103835421D01*
X149898703Y-103797670D01*
X149875112Y-103762363D01*
X149757639Y-103644890D01*
X149757635Y-103644887D01*
X149619506Y-103552591D01*
X149619493Y-103552584D01*
X149466015Y-103489012D01*
X149466003Y-103489009D01*
X149303072Y-103456600D01*
X149303068Y-103456600D01*
X149136932Y-103456600D01*
X149136927Y-103456600D01*
X148973996Y-103489009D01*
X148973984Y-103489012D01*
X148820506Y-103552584D01*
X148820493Y-103552591D01*
X148682364Y-103644887D01*
X148682360Y-103644890D01*
X148564890Y-103762360D01*
X148564887Y-103762364D01*
X148472591Y-103900493D01*
X148472584Y-103900506D01*
X148409012Y-104053984D01*
X148409009Y-104053996D01*
X148376600Y-104216927D01*
X146600898Y-104216927D01*
X146623072Y-104163393D01*
X146623074Y-104163389D01*
X146645610Y-104108978D01*
X146645612Y-104108974D01*
X146684999Y-103910958D01*
X146685000Y-103910955D01*
X146685000Y-103660000D01*
X145985000Y-103660000D01*
X145985000Y-103160000D01*
X146685000Y-103160000D01*
X146685000Y-102909045D01*
X146684999Y-102909041D01*
X146645612Y-102711025D01*
X146645609Y-102711016D01*
X146568347Y-102524486D01*
X146568340Y-102524473D01*
X146456170Y-102356600D01*
X146456167Y-102356596D01*
X146313403Y-102213832D01*
X146313399Y-102213829D01*
X146145526Y-102101659D01*
X146145513Y-102101652D01*
X145958984Y-102024390D01*
X145958977Y-102024388D01*
X145910000Y-102014645D01*
X145910000Y-102800382D01*
X145859554Y-102749936D01*
X145785445Y-102707149D01*
X145702787Y-102685000D01*
X145617213Y-102685000D01*
X145534555Y-102707149D01*
X145460446Y-102749936D01*
X145410000Y-102800382D01*
X145410000Y-102014646D01*
X145409999Y-102014645D01*
X145361022Y-102024388D01*
X145361015Y-102024390D01*
X145174486Y-102101652D01*
X145174473Y-102101659D01*
X145006600Y-102213829D01*
X145006596Y-102213832D01*
X144863832Y-102356596D01*
X144863829Y-102356600D01*
X144751659Y-102524473D01*
X144751652Y-102524486D01*
X144674390Y-102711016D01*
X144674387Y-102711025D01*
X144635000Y-102909041D01*
X137011960Y-102909041D01*
X137107636Y-102845112D01*
X137107639Y-102845109D01*
X137137476Y-102815273D01*
X137225109Y-102727639D01*
X137225112Y-102727636D01*
X137317412Y-102589500D01*
X137380989Y-102436011D01*
X137413400Y-102273068D01*
X137413400Y-102106932D01*
X137380989Y-101943989D01*
X137379453Y-101940280D01*
X137317415Y-101790506D01*
X137317408Y-101790493D01*
X137225112Y-101652364D01*
X137225109Y-101652360D01*
X137107639Y-101534890D01*
X137107635Y-101534887D01*
X136969506Y-101442591D01*
X136969493Y-101442584D01*
X136816015Y-101379012D01*
X136816003Y-101379009D01*
X136653072Y-101346600D01*
X136653068Y-101346600D01*
X136486932Y-101346600D01*
X136486927Y-101346600D01*
X136323996Y-101379009D01*
X136323984Y-101379012D01*
X136170506Y-101442584D01*
X136170493Y-101442591D01*
X136032364Y-101534887D01*
X136032360Y-101534890D01*
X135914890Y-101652360D01*
X135914887Y-101652364D01*
X135822591Y-101790493D01*
X135822584Y-101790506D01*
X135759012Y-101943984D01*
X135759009Y-101943996D01*
X135726600Y-102106927D01*
X133138509Y-102106927D01*
X133125990Y-102043994D01*
X133125989Y-102043993D01*
X133125989Y-102043989D01*
X133125987Y-102043984D01*
X133062415Y-101890506D01*
X133062408Y-101890493D01*
X132970112Y-101752364D01*
X132970109Y-101752360D01*
X132852639Y-101634890D01*
X132852635Y-101634887D01*
X132714506Y-101542591D01*
X132714493Y-101542584D01*
X132561015Y-101479012D01*
X132561003Y-101479009D01*
X132398072Y-101446600D01*
X132398068Y-101446600D01*
X132231932Y-101446600D01*
X132231927Y-101446600D01*
X132068996Y-101479009D01*
X132068984Y-101479012D01*
X131917189Y-101541887D01*
X131847719Y-101549356D01*
X131785240Y-101518080D01*
X131755176Y-101474780D01*
X131754824Y-101473931D01*
X131749394Y-101460821D01*
X131749391Y-101460816D01*
X131749390Y-101460814D01*
X131661789Y-101329711D01*
X131661786Y-101329707D01*
X131550292Y-101218213D01*
X131550288Y-101218210D01*
X131419185Y-101130609D01*
X131419172Y-101130602D01*
X131273501Y-101070264D01*
X131273489Y-101070261D01*
X131118845Y-101039500D01*
X131118842Y-101039500D01*
X131105892Y-101039500D01*
X130614948Y-101039500D01*
X130547909Y-101019815D01*
X130502154Y-100967011D01*
X130490948Y-100915411D01*
X130491434Y-100236927D01*
X145106600Y-100236927D01*
X145106600Y-100403072D01*
X145139009Y-100566003D01*
X145139012Y-100566015D01*
X145202584Y-100719493D01*
X145202591Y-100719506D01*
X145294887Y-100857635D01*
X145294890Y-100857639D01*
X145412360Y-100975109D01*
X145412364Y-100975112D01*
X145550493Y-101067408D01*
X145550506Y-101067415D01*
X145703984Y-101130987D01*
X145703989Y-101130989D01*
X145802627Y-101150609D01*
X145866927Y-101163399D01*
X145866931Y-101163400D01*
X145866932Y-101163400D01*
X146033069Y-101163400D01*
X146033070Y-101163399D01*
X146196011Y-101130989D01*
X146349500Y-101067412D01*
X146487636Y-100975112D01*
X146605112Y-100857636D01*
X146697412Y-100719500D01*
X146760989Y-100566011D01*
X146772537Y-100507954D01*
X146778758Y-100476678D01*
X157296000Y-100476678D01*
X157296000Y-100658321D01*
X157324415Y-100837725D01*
X157380548Y-101010484D01*
X157463012Y-101172330D01*
X157463014Y-101172334D01*
X157475048Y-101188895D01*
X157475049Y-101188896D01*
X158050000Y-100613945D01*
X158050000Y-100620161D01*
X158077259Y-100721894D01*
X158129920Y-100813106D01*
X158204394Y-100887580D01*
X158295606Y-100940241D01*
X158397339Y-100967500D01*
X158403554Y-100967500D01*
X157828602Y-101542449D01*
X157828603Y-101542450D01*
X157845165Y-101554485D01*
X157845179Y-101554493D01*
X158007012Y-101636950D01*
X158179774Y-101693084D01*
X158359179Y-101721500D01*
X158540821Y-101721500D01*
X158720225Y-101693084D01*
X158892984Y-101636951D01*
X159054831Y-101554486D01*
X159071396Y-101542449D01*
X158496447Y-100967500D01*
X158502661Y-100967500D01*
X158604394Y-100940241D01*
X158695606Y-100887580D01*
X158770080Y-100813106D01*
X158822741Y-100721894D01*
X158850000Y-100620161D01*
X158850000Y-100613946D01*
X159259181Y-101023127D01*
X159292666Y-101084450D01*
X159295500Y-101110807D01*
X159295500Y-101269369D01*
X159295501Y-101269376D01*
X159301908Y-101328983D01*
X159352202Y-101463828D01*
X159352206Y-101463835D01*
X159438452Y-101579044D01*
X159438455Y-101579047D01*
X159553664Y-101665293D01*
X159553671Y-101665297D01*
X159688517Y-101715591D01*
X159688516Y-101715591D01*
X159695444Y-101716335D01*
X159748127Y-101722000D01*
X161151872Y-101721999D01*
X161211483Y-101715591D01*
X161346331Y-101665296D01*
X161461546Y-101579046D01*
X161547796Y-101463831D01*
X161598091Y-101328983D01*
X161604500Y-101269373D01*
X161604499Y-99865628D01*
X161598091Y-99806017D01*
X161547796Y-99671169D01*
X161547795Y-99671168D01*
X161547793Y-99671164D01*
X161461547Y-99555955D01*
X161461544Y-99555952D01*
X161346335Y-99469706D01*
X161346328Y-99469702D01*
X161211482Y-99419408D01*
X161211483Y-99419408D01*
X161151883Y-99413001D01*
X161151881Y-99413000D01*
X161151873Y-99413000D01*
X161151864Y-99413000D01*
X159748129Y-99413000D01*
X159748123Y-99413001D01*
X159688516Y-99419408D01*
X159553671Y-99469702D01*
X159553664Y-99469706D01*
X159438455Y-99555952D01*
X159438452Y-99555955D01*
X159352206Y-99671164D01*
X159352202Y-99671171D01*
X159301908Y-99806017D01*
X159295501Y-99865616D01*
X159295501Y-99865623D01*
X159295500Y-99865635D01*
X159295500Y-100024191D01*
X159275815Y-100091230D01*
X159259181Y-100111872D01*
X158850000Y-100521053D01*
X158850000Y-100514839D01*
X158822741Y-100413106D01*
X158770080Y-100321894D01*
X158695606Y-100247420D01*
X158604394Y-100194759D01*
X158502661Y-100167500D01*
X158496447Y-100167500D01*
X159071396Y-99592549D01*
X159071395Y-99592548D01*
X159054834Y-99580514D01*
X159054830Y-99580512D01*
X158892984Y-99498048D01*
X158720225Y-99441915D01*
X158540821Y-99413500D01*
X158359179Y-99413500D01*
X158179774Y-99441915D01*
X158007015Y-99498048D01*
X157845170Y-99580512D01*
X157845161Y-99580518D01*
X157828603Y-99592548D01*
X157828602Y-99592549D01*
X158403554Y-100167500D01*
X158397339Y-100167500D01*
X158295606Y-100194759D01*
X158204394Y-100247420D01*
X158129920Y-100321894D01*
X158077259Y-100413106D01*
X158050000Y-100514839D01*
X158050000Y-100521053D01*
X157475049Y-99946102D01*
X157475048Y-99946103D01*
X157463018Y-99962661D01*
X157463012Y-99962670D01*
X157380548Y-100124515D01*
X157324415Y-100297274D01*
X157296000Y-100476678D01*
X146778758Y-100476678D01*
X146784534Y-100447644D01*
X146784539Y-100447616D01*
X146793400Y-100403066D01*
X146793400Y-100236931D01*
X146793399Y-100236927D01*
X146760990Y-100073996D01*
X146760989Y-100073989D01*
X146740362Y-100024191D01*
X146697415Y-99920506D01*
X146697408Y-99920493D01*
X146605112Y-99782364D01*
X146605109Y-99782360D01*
X146487639Y-99664890D01*
X146487635Y-99664887D01*
X146349506Y-99572591D01*
X146349493Y-99572584D01*
X146196015Y-99509012D01*
X146196003Y-99509009D01*
X146033072Y-99476600D01*
X146033068Y-99476600D01*
X145866932Y-99476600D01*
X145866927Y-99476600D01*
X145703996Y-99509009D01*
X145703984Y-99509012D01*
X145550506Y-99572584D01*
X145550493Y-99572591D01*
X145412364Y-99664887D01*
X145412360Y-99664890D01*
X145294890Y-99782360D01*
X145294887Y-99782364D01*
X145202591Y-99920493D01*
X145202584Y-99920506D01*
X145139012Y-100073984D01*
X145139009Y-100073996D01*
X145106600Y-100236927D01*
X130491434Y-100236927D01*
X130491438Y-100230751D01*
X130492594Y-98616927D01*
X133336600Y-98616927D01*
X133336600Y-98783072D01*
X133369009Y-98946003D01*
X133369012Y-98946015D01*
X133432584Y-99099493D01*
X133432591Y-99099506D01*
X133524887Y-99237635D01*
X133524890Y-99237639D01*
X133642360Y-99355109D01*
X133642364Y-99355112D01*
X133780493Y-99447408D01*
X133780506Y-99447415D01*
X133929216Y-99509012D01*
X133933989Y-99510989D01*
X134096927Y-99543399D01*
X134096931Y-99543400D01*
X134096932Y-99543400D01*
X134263069Y-99543400D01*
X134263070Y-99543399D01*
X134426011Y-99510989D01*
X134579500Y-99447412D01*
X134717636Y-99355112D01*
X134835112Y-99237636D01*
X134927412Y-99099500D01*
X134990989Y-98946011D01*
X135023400Y-98783068D01*
X135023400Y-98616932D01*
X134990989Y-98453989D01*
X134957608Y-98373399D01*
X134927415Y-98300506D01*
X134927408Y-98300493D01*
X134835112Y-98162364D01*
X134835109Y-98162360D01*
X134717639Y-98044890D01*
X134717635Y-98044887D01*
X134660099Y-98006442D01*
X134615294Y-97952829D01*
X134606587Y-97883504D01*
X134636742Y-97820477D01*
X134660093Y-97800242D01*
X134727636Y-97755112D01*
X134845112Y-97637636D01*
X134937412Y-97499500D01*
X134959188Y-97446927D01*
X153481600Y-97446927D01*
X153481600Y-97613072D01*
X153514009Y-97776003D01*
X153514012Y-97776015D01*
X153577584Y-97929493D01*
X153577591Y-97929506D01*
X153669887Y-98067635D01*
X153669890Y-98067639D01*
X153787360Y-98185109D01*
X153787364Y-98185112D01*
X153925493Y-98277408D01*
X153925506Y-98277415D01*
X154078984Y-98340987D01*
X154078989Y-98340989D01*
X154241927Y-98373399D01*
X154241931Y-98373400D01*
X154241932Y-98373400D01*
X154408069Y-98373400D01*
X154408070Y-98373399D01*
X154571011Y-98340989D01*
X154724500Y-98277412D01*
X154862636Y-98185112D01*
X154980112Y-98067636D01*
X155072412Y-97929500D01*
X155135989Y-97776011D01*
X155168400Y-97613068D01*
X155168400Y-97446932D01*
X155135989Y-97283989D01*
X155094187Y-97183069D01*
X155072415Y-97130506D01*
X155072408Y-97130493D01*
X154980112Y-96992364D01*
X154980109Y-96992360D01*
X154862639Y-96874890D01*
X154862635Y-96874887D01*
X154724506Y-96782591D01*
X154724493Y-96782584D01*
X154571015Y-96719012D01*
X154571003Y-96719009D01*
X154408072Y-96686600D01*
X154408068Y-96686600D01*
X154241932Y-96686600D01*
X154241927Y-96686600D01*
X154078996Y-96719009D01*
X154078984Y-96719012D01*
X153925506Y-96782584D01*
X153925493Y-96782591D01*
X153787364Y-96874887D01*
X153787360Y-96874890D01*
X153669890Y-96992360D01*
X153669887Y-96992364D01*
X153577591Y-97130493D01*
X153577584Y-97130506D01*
X153514012Y-97283984D01*
X153514009Y-97283996D01*
X153481600Y-97446927D01*
X134959188Y-97446927D01*
X135000989Y-97346011D01*
X135033400Y-97183068D01*
X135033400Y-97016932D01*
X135000989Y-96853989D01*
X134985568Y-96816760D01*
X134937415Y-96700506D01*
X134937408Y-96700493D01*
X134845112Y-96562364D01*
X134845109Y-96562360D01*
X134727639Y-96444890D01*
X134727635Y-96444887D01*
X134672616Y-96408124D01*
X134627811Y-96354511D01*
X134619104Y-96285186D01*
X134649259Y-96222159D01*
X134672611Y-96201924D01*
X134757636Y-96145112D01*
X134875112Y-96027636D01*
X134945230Y-95922698D01*
X139850829Y-95922698D01*
X139850829Y-96088843D01*
X139883238Y-96251774D01*
X139883241Y-96251786D01*
X139946813Y-96405264D01*
X139946820Y-96405277D01*
X140039116Y-96543406D01*
X140039119Y-96543410D01*
X140156589Y-96660880D01*
X140156593Y-96660883D01*
X140294722Y-96753179D01*
X140294735Y-96753186D01*
X140365726Y-96782591D01*
X140448218Y-96816760D01*
X140611156Y-96849170D01*
X140611160Y-96849171D01*
X140611161Y-96849171D01*
X140777298Y-96849171D01*
X140777299Y-96849170D01*
X140940240Y-96816760D01*
X141093729Y-96753183D01*
X141231865Y-96660883D01*
X141349341Y-96543407D01*
X141441641Y-96405271D01*
X141505218Y-96251782D01*
X141537629Y-96088839D01*
X141537629Y-95922703D01*
X141505218Y-95759760D01*
X141495378Y-95736003D01*
X141441644Y-95606277D01*
X141441637Y-95606264D01*
X141349341Y-95468135D01*
X141349338Y-95468131D01*
X141231868Y-95350661D01*
X141231864Y-95350658D01*
X141093735Y-95258362D01*
X141093722Y-95258355D01*
X140940244Y-95194783D01*
X140940232Y-95194780D01*
X140777301Y-95162371D01*
X140777297Y-95162371D01*
X140611161Y-95162371D01*
X140611156Y-95162371D01*
X140448225Y-95194780D01*
X140448213Y-95194783D01*
X140294735Y-95258355D01*
X140294722Y-95258362D01*
X140156593Y-95350658D01*
X140156589Y-95350661D01*
X140039119Y-95468131D01*
X140039116Y-95468135D01*
X139946820Y-95606264D01*
X139946813Y-95606277D01*
X139883241Y-95759755D01*
X139883238Y-95759767D01*
X139850829Y-95922698D01*
X134945230Y-95922698D01*
X134967412Y-95889500D01*
X134967415Y-95889493D01*
X134975838Y-95869159D01*
X135030987Y-95736015D01*
X135030989Y-95736011D01*
X135063400Y-95573068D01*
X135063400Y-95406932D01*
X135030989Y-95243989D01*
X135030987Y-95243984D01*
X134967415Y-95090506D01*
X134967408Y-95090493D01*
X134875112Y-94952364D01*
X134875109Y-94952360D01*
X134757639Y-94834890D01*
X134757633Y-94834885D01*
X134722547Y-94811441D01*
X134677743Y-94757829D01*
X134669036Y-94688504D01*
X134699191Y-94625477D01*
X134722546Y-94605239D01*
X134767636Y-94575112D01*
X134885112Y-94457636D01*
X134977412Y-94319500D01*
X135040989Y-94166011D01*
X135073400Y-94003068D01*
X135073400Y-93836932D01*
X135040989Y-93673989D01*
X135031024Y-93649932D01*
X134977415Y-93520506D01*
X134977408Y-93520493D01*
X134885112Y-93382364D01*
X134885109Y-93382360D01*
X134767636Y-93264887D01*
X134700099Y-93219761D01*
X134684000Y-93200498D01*
X134664962Y-93184143D01*
X134661981Y-93174151D01*
X134655294Y-93166149D01*
X134652165Y-93141242D01*
X134644991Y-93117188D01*
X134647886Y-93107169D01*
X134646587Y-93096824D01*
X134657419Y-93074182D01*
X134664389Y-93050066D01*
X134673331Y-93040923D01*
X134676741Y-93033797D01*
X134687388Y-93023294D01*
X134693429Y-93018013D01*
X134757636Y-92975112D01*
X134765821Y-92966927D01*
X137376600Y-92966927D01*
X137376600Y-93133072D01*
X137409009Y-93296003D01*
X137409012Y-93296015D01*
X137472584Y-93449493D01*
X137472591Y-93449505D01*
X137522620Y-93524378D01*
X137543498Y-93591055D01*
X137534081Y-93640717D01*
X137530264Y-93649932D01*
X137530261Y-93649943D01*
X137497852Y-93812873D01*
X137497852Y-93979018D01*
X137530261Y-94141949D01*
X137530264Y-94141961D01*
X137595752Y-94300065D01*
X137603221Y-94369534D01*
X137595753Y-94394967D01*
X137572930Y-94450068D01*
X137572927Y-94450077D01*
X137540519Y-94613008D01*
X137540519Y-94779153D01*
X137572928Y-94942084D01*
X137572931Y-94942096D01*
X137636503Y-95095574D01*
X137636510Y-95095587D01*
X137728806Y-95233716D01*
X137728809Y-95233720D01*
X137846279Y-95351190D01*
X137846283Y-95351193D01*
X137984412Y-95443489D01*
X137984425Y-95443496D01*
X138137903Y-95507068D01*
X138137908Y-95507070D01*
X138300846Y-95539480D01*
X138300850Y-95539481D01*
X138300851Y-95539481D01*
X138466988Y-95539481D01*
X138466989Y-95539480D01*
X138629930Y-95507070D01*
X138783419Y-95443493D01*
X138921555Y-95351193D01*
X139039031Y-95233717D01*
X139131331Y-95095581D01*
X139194908Y-94942092D01*
X139227319Y-94779149D01*
X139227319Y-94696927D01*
X144496600Y-94696927D01*
X144496600Y-94863072D01*
X144529009Y-95026003D01*
X144529012Y-95026015D01*
X144592584Y-95179493D01*
X144592591Y-95179506D01*
X144684887Y-95317635D01*
X144684890Y-95317639D01*
X144802360Y-95435109D01*
X144802364Y-95435112D01*
X144940493Y-95527408D01*
X144940506Y-95527415D01*
X145050726Y-95573069D01*
X145093989Y-95590989D01*
X145256927Y-95623399D01*
X145256931Y-95623400D01*
X145256932Y-95623400D01*
X145423069Y-95623400D01*
X145423070Y-95623399D01*
X145586011Y-95590989D01*
X145739500Y-95527412D01*
X145877636Y-95435112D01*
X145995112Y-95317636D01*
X146087412Y-95179500D01*
X146150989Y-95026011D01*
X146183400Y-94863068D01*
X146183400Y-94696932D01*
X146150989Y-94533989D01*
X146119363Y-94457636D01*
X146087415Y-94380506D01*
X146087408Y-94380493D01*
X145995112Y-94242364D01*
X145995109Y-94242360D01*
X145877639Y-94124890D01*
X145877635Y-94124887D01*
X145739506Y-94032591D01*
X145739493Y-94032584D01*
X145586015Y-93969012D01*
X145586003Y-93969009D01*
X145423072Y-93936600D01*
X145423068Y-93936600D01*
X145256932Y-93936600D01*
X145256927Y-93936600D01*
X145093996Y-93969009D01*
X145093984Y-93969012D01*
X144940506Y-94032584D01*
X144940493Y-94032591D01*
X144802364Y-94124887D01*
X144802360Y-94124890D01*
X144684890Y-94242360D01*
X144684887Y-94242364D01*
X144592591Y-94380493D01*
X144592584Y-94380506D01*
X144529012Y-94533984D01*
X144529009Y-94533996D01*
X144496600Y-94696927D01*
X139227319Y-94696927D01*
X139227319Y-94613013D01*
X139194908Y-94450070D01*
X139131331Y-94296581D01*
X139131330Y-94296579D01*
X139129417Y-94291961D01*
X139121948Y-94222491D01*
X139129415Y-94197062D01*
X139152241Y-94141957D01*
X139184652Y-93979014D01*
X139184652Y-93812878D01*
X139175512Y-93766927D01*
X140206600Y-93766927D01*
X140206600Y-93933072D01*
X140239009Y-94096003D01*
X140239012Y-94096015D01*
X140302584Y-94249493D01*
X140302591Y-94249506D01*
X140394887Y-94387635D01*
X140394890Y-94387639D01*
X140512360Y-94505109D01*
X140512364Y-94505112D01*
X140650493Y-94597408D01*
X140650506Y-94597415D01*
X140782698Y-94652170D01*
X140803989Y-94660989D01*
X140942318Y-94688504D01*
X140966927Y-94693399D01*
X140966931Y-94693400D01*
X140966932Y-94693400D01*
X141133069Y-94693400D01*
X141133070Y-94693399D01*
X141296011Y-94660989D01*
X141449500Y-94597412D01*
X141449506Y-94597408D01*
X141463979Y-94587738D01*
X141544408Y-94533996D01*
X141587636Y-94505112D01*
X141705112Y-94387636D01*
X141797412Y-94249500D01*
X141800370Y-94242360D01*
X141841956Y-94141961D01*
X141860989Y-94096011D01*
X141891057Y-93944843D01*
X141923441Y-93882935D01*
X141984157Y-93848361D01*
X142036863Y-93847419D01*
X142066932Y-93853400D01*
X142066934Y-93853400D01*
X142233069Y-93853400D01*
X142233070Y-93853399D01*
X142396011Y-93820989D01*
X142549500Y-93757412D01*
X142687636Y-93665112D01*
X142805112Y-93547636D01*
X142897412Y-93409500D01*
X142960989Y-93256011D01*
X142993400Y-93093068D01*
X142993400Y-92926932D01*
X142960989Y-92763989D01*
X142913983Y-92650506D01*
X142897415Y-92610506D01*
X142897408Y-92610493D01*
X142805112Y-92472364D01*
X142805109Y-92472360D01*
X142687639Y-92354890D01*
X142687635Y-92354887D01*
X142549506Y-92262591D01*
X142549493Y-92262584D01*
X142396015Y-92199012D01*
X142396003Y-92199009D01*
X142233072Y-92166600D01*
X142233068Y-92166600D01*
X142066932Y-92166600D01*
X142066927Y-92166600D01*
X141903996Y-92199009D01*
X141903984Y-92199012D01*
X141750506Y-92262584D01*
X141750493Y-92262591D01*
X141612364Y-92354887D01*
X141612360Y-92354890D01*
X141494890Y-92472360D01*
X141494887Y-92472364D01*
X141402591Y-92610493D01*
X141402584Y-92610506D01*
X141339012Y-92763984D01*
X141339009Y-92763996D01*
X141308942Y-92915154D01*
X141276557Y-92977065D01*
X141215842Y-93011639D01*
X141163134Y-93012580D01*
X141133071Y-93006600D01*
X141133068Y-93006600D01*
X140966932Y-93006600D01*
X140966927Y-93006600D01*
X140803996Y-93039009D01*
X140803984Y-93039012D01*
X140650506Y-93102584D01*
X140650493Y-93102591D01*
X140512364Y-93194887D01*
X140512360Y-93194890D01*
X140394890Y-93312360D01*
X140394887Y-93312364D01*
X140302591Y-93450493D01*
X140302584Y-93450506D01*
X140239012Y-93603984D01*
X140239009Y-93603996D01*
X140206600Y-93766927D01*
X139175512Y-93766927D01*
X139152241Y-93649935D01*
X139098630Y-93520506D01*
X139088666Y-93496450D01*
X139088665Y-93496449D01*
X139088664Y-93496446D01*
X139038630Y-93421566D01*
X139017753Y-93354891D01*
X139027174Y-93305219D01*
X139030989Y-93296011D01*
X139063400Y-93133068D01*
X139063400Y-92966932D01*
X139030989Y-92803989D01*
X139030987Y-92803984D01*
X138967415Y-92650506D01*
X138967408Y-92650493D01*
X138875112Y-92512364D01*
X138875109Y-92512360D01*
X138757639Y-92394890D01*
X138757635Y-92394887D01*
X138619506Y-92302591D01*
X138619493Y-92302584D01*
X138466015Y-92239012D01*
X138466003Y-92239009D01*
X138303072Y-92206600D01*
X138303068Y-92206600D01*
X138136932Y-92206600D01*
X138136927Y-92206600D01*
X137973996Y-92239009D01*
X137973984Y-92239012D01*
X137820506Y-92302584D01*
X137820493Y-92302591D01*
X137682364Y-92394887D01*
X137682360Y-92394890D01*
X137564890Y-92512360D01*
X137564887Y-92512364D01*
X137472591Y-92650493D01*
X137472584Y-92650506D01*
X137409012Y-92803984D01*
X137409009Y-92803996D01*
X137376600Y-92966927D01*
X134765821Y-92966927D01*
X134875112Y-92857636D01*
X134967412Y-92719500D01*
X135030989Y-92566011D01*
X135063400Y-92403068D01*
X135063400Y-92236932D01*
X135062753Y-92233679D01*
X135062908Y-92231940D01*
X135062803Y-92230869D01*
X135063006Y-92230848D01*
X135068977Y-92164088D01*
X135111838Y-92108909D01*
X135177726Y-92085661D01*
X135208560Y-92087866D01*
X135336927Y-92113399D01*
X135336931Y-92113400D01*
X135336932Y-92113400D01*
X135503069Y-92113400D01*
X135503070Y-92113399D01*
X135666011Y-92080989D01*
X135819500Y-92017412D01*
X135957636Y-91925112D01*
X136075112Y-91807636D01*
X136167412Y-91669500D01*
X136230989Y-91516011D01*
X136263400Y-91353068D01*
X136263400Y-91186932D01*
X136247109Y-91105030D01*
X136247109Y-91105027D01*
X136243509Y-91086927D01*
X139956600Y-91086927D01*
X139956600Y-91253072D01*
X139989009Y-91416003D01*
X139989012Y-91416015D01*
X140052584Y-91569493D01*
X140052591Y-91569506D01*
X140144887Y-91707635D01*
X140144890Y-91707639D01*
X140262360Y-91825109D01*
X140262364Y-91825112D01*
X140400493Y-91917408D01*
X140400506Y-91917415D01*
X140553984Y-91980987D01*
X140553989Y-91980989D01*
X140716927Y-92013399D01*
X140716931Y-92013400D01*
X140716932Y-92013400D01*
X140883069Y-92013400D01*
X140883070Y-92013399D01*
X141046011Y-91980989D01*
X141164721Y-91931817D01*
X141199493Y-91917415D01*
X141199493Y-91917414D01*
X141199500Y-91917412D01*
X141337636Y-91825112D01*
X141455112Y-91707636D01*
X141547412Y-91569500D01*
X141610989Y-91416011D01*
X141643400Y-91253068D01*
X141643400Y-91086932D01*
X141631087Y-91025029D01*
X141631087Y-91025027D01*
X141627487Y-91006927D01*
X142626600Y-91006927D01*
X142626600Y-91173072D01*
X142659009Y-91336003D01*
X142659012Y-91336015D01*
X142722584Y-91489493D01*
X142722591Y-91489506D01*
X142814887Y-91627635D01*
X142814890Y-91627639D01*
X142932360Y-91745109D01*
X142932364Y-91745112D01*
X143070493Y-91837408D01*
X143070506Y-91837415D01*
X143223984Y-91900987D01*
X143223989Y-91900989D01*
X143345250Y-91925109D01*
X143386927Y-91933399D01*
X143386931Y-91933400D01*
X143386932Y-91933400D01*
X143553069Y-91933400D01*
X143553070Y-91933399D01*
X143716011Y-91900989D01*
X143869500Y-91837412D01*
X144007636Y-91745112D01*
X144125112Y-91627636D01*
X144217412Y-91489500D01*
X144280989Y-91336011D01*
X144313400Y-91173068D01*
X144313400Y-91006932D01*
X144280989Y-90843989D01*
X144274217Y-90827639D01*
X144217415Y-90690506D01*
X144217408Y-90690493D01*
X144125112Y-90552364D01*
X144125109Y-90552360D01*
X144007639Y-90434890D01*
X144007635Y-90434887D01*
X143869506Y-90342591D01*
X143869493Y-90342584D01*
X143716015Y-90279012D01*
X143716003Y-90279009D01*
X143553072Y-90246600D01*
X143553068Y-90246600D01*
X143386932Y-90246600D01*
X143386927Y-90246600D01*
X143223996Y-90279009D01*
X143223984Y-90279012D01*
X143070506Y-90342584D01*
X143070493Y-90342591D01*
X142932364Y-90434887D01*
X142932360Y-90434890D01*
X142814890Y-90552360D01*
X142814887Y-90552364D01*
X142722591Y-90690493D01*
X142722584Y-90690506D01*
X142659012Y-90843984D01*
X142659009Y-90843996D01*
X142626600Y-91006927D01*
X141627487Y-91006927D01*
X141619571Y-90967135D01*
X141610989Y-90923989D01*
X141588833Y-90870500D01*
X141547415Y-90770506D01*
X141547408Y-90770493D01*
X141455112Y-90632364D01*
X141455109Y-90632360D01*
X141337639Y-90514890D01*
X141337635Y-90514887D01*
X141199506Y-90422591D01*
X141199493Y-90422584D01*
X141046015Y-90359012D01*
X141046003Y-90359009D01*
X140883072Y-90326600D01*
X140883068Y-90326600D01*
X140716932Y-90326600D01*
X140716927Y-90326600D01*
X140553996Y-90359009D01*
X140553984Y-90359012D01*
X140400506Y-90422584D01*
X140400493Y-90422591D01*
X140262364Y-90514887D01*
X140262360Y-90514890D01*
X140144890Y-90632360D01*
X140144887Y-90632364D01*
X140052591Y-90770493D01*
X140052584Y-90770506D01*
X139989012Y-90923984D01*
X139989009Y-90923996D01*
X139956600Y-91086927D01*
X136243509Y-91086927D01*
X136230990Y-91023994D01*
X136230989Y-91023993D01*
X136230989Y-91023989D01*
X136189566Y-90923984D01*
X136167415Y-90870506D01*
X136167408Y-90870493D01*
X136075112Y-90732364D01*
X136075109Y-90732360D01*
X135957639Y-90614890D01*
X135957635Y-90614887D01*
X135819506Y-90522591D01*
X135819493Y-90522584D01*
X135666015Y-90459012D01*
X135666003Y-90459009D01*
X135503072Y-90426600D01*
X135503068Y-90426600D01*
X135336932Y-90426600D01*
X135330840Y-90426600D01*
X135330840Y-90424694D01*
X135270882Y-90413309D01*
X135220183Y-90365232D01*
X135203400Y-90302938D01*
X135203400Y-90206931D01*
X135203399Y-90206927D01*
X135170990Y-90043996D01*
X135170989Y-90043989D01*
X135170987Y-90043984D01*
X135107415Y-89890506D01*
X135107408Y-89890493D01*
X135015112Y-89752364D01*
X135015109Y-89752360D01*
X134897639Y-89634890D01*
X134897635Y-89634887D01*
X134759506Y-89542591D01*
X134759493Y-89542584D01*
X134606015Y-89479012D01*
X134606003Y-89479009D01*
X134443072Y-89446600D01*
X134443068Y-89446600D01*
X134276932Y-89446600D01*
X134276927Y-89446600D01*
X134113996Y-89479009D01*
X134113984Y-89479012D01*
X133960506Y-89542584D01*
X133960493Y-89542591D01*
X133822364Y-89634887D01*
X133822360Y-89634890D01*
X133704890Y-89752360D01*
X133704887Y-89752364D01*
X133612591Y-89890493D01*
X133612584Y-89890506D01*
X133549012Y-90043984D01*
X133549009Y-90043996D01*
X133516600Y-90206927D01*
X133516600Y-90373072D01*
X133549009Y-90536003D01*
X133549012Y-90536015D01*
X133612584Y-90689493D01*
X133612591Y-90689506D01*
X133704887Y-90827635D01*
X133704890Y-90827639D01*
X133822360Y-90945109D01*
X133822364Y-90945112D01*
X133960493Y-91037408D01*
X133960506Y-91037415D01*
X134080040Y-91086927D01*
X134113989Y-91100989D01*
X134276927Y-91133399D01*
X134276931Y-91133400D01*
X134449160Y-91133400D01*
X134449160Y-91135312D01*
X134453809Y-91136193D01*
X134467230Y-91133927D01*
X134487466Y-91142575D01*
X134509086Y-91146674D01*
X134518964Y-91156035D01*
X134531479Y-91161384D01*
X134543826Y-91179598D01*
X134559799Y-91194736D01*
X134563886Y-91209188D01*
X134570684Y-91219217D01*
X134575582Y-91250550D01*
X134576563Y-91254019D01*
X134576600Y-91255526D01*
X134576600Y-91353068D01*
X134579330Y-91366797D01*
X134579593Y-91377474D01*
X134573219Y-91401330D01*
X134571018Y-91425921D01*
X134564360Y-91434490D01*
X134561559Y-91444976D01*
X134543299Y-91461599D01*
X134528153Y-91481096D01*
X134517919Y-91484706D01*
X134509893Y-91492013D01*
X134485546Y-91496125D01*
X134462262Y-91504339D01*
X134444460Y-91503065D01*
X134441000Y-91503650D01*
X134438661Y-91502650D01*
X134431440Y-91502134D01*
X134325671Y-91481096D01*
X134303068Y-91476600D01*
X134136932Y-91476600D01*
X134136927Y-91476600D01*
X133973996Y-91509009D01*
X133973984Y-91509012D01*
X133820506Y-91572584D01*
X133820493Y-91572591D01*
X133682364Y-91664887D01*
X133682360Y-91664890D01*
X133564890Y-91782360D01*
X133564887Y-91782364D01*
X133472591Y-91920493D01*
X133472584Y-91920506D01*
X133409012Y-92073984D01*
X133409009Y-92073996D01*
X133376600Y-92236927D01*
X133376600Y-92403072D01*
X133409009Y-92566003D01*
X133409012Y-92566015D01*
X133472584Y-92719493D01*
X133472591Y-92719506D01*
X133564887Y-92857635D01*
X133564890Y-92857639D01*
X133682361Y-92975110D01*
X133682364Y-92975112D01*
X133749900Y-93020238D01*
X133794705Y-93073850D01*
X133803412Y-93143174D01*
X133773258Y-93206202D01*
X133749901Y-93226441D01*
X133692366Y-93264885D01*
X133692360Y-93264890D01*
X133574890Y-93382360D01*
X133574887Y-93382364D01*
X133482591Y-93520493D01*
X133482584Y-93520506D01*
X133419012Y-93673984D01*
X133419009Y-93673996D01*
X133386600Y-93836927D01*
X133386600Y-94003072D01*
X133419009Y-94166003D01*
X133419012Y-94166015D01*
X133482584Y-94319493D01*
X133482591Y-94319506D01*
X133574887Y-94457635D01*
X133574890Y-94457639D01*
X133692360Y-94575109D01*
X133692364Y-94575112D01*
X133727451Y-94598557D01*
X133772256Y-94652170D01*
X133780963Y-94721495D01*
X133750808Y-94784522D01*
X133727451Y-94804761D01*
X133682364Y-94834887D01*
X133682360Y-94834890D01*
X133564890Y-94952360D01*
X133564887Y-94952364D01*
X133472591Y-95090493D01*
X133472584Y-95090506D01*
X133409012Y-95243984D01*
X133409009Y-95243996D01*
X133376600Y-95406927D01*
X133376600Y-95573072D01*
X133409009Y-95736003D01*
X133409012Y-95736015D01*
X133472584Y-95889493D01*
X133472591Y-95889506D01*
X133564887Y-96027635D01*
X133564890Y-96027639D01*
X133682360Y-96145109D01*
X133682364Y-96145112D01*
X133737383Y-96181875D01*
X133782188Y-96235487D01*
X133790895Y-96304812D01*
X133760740Y-96367840D01*
X133737383Y-96388079D01*
X133652364Y-96444887D01*
X133652360Y-96444890D01*
X133534890Y-96562360D01*
X133534887Y-96562364D01*
X133442591Y-96700493D01*
X133442584Y-96700506D01*
X133379012Y-96853984D01*
X133379009Y-96853996D01*
X133346600Y-97016927D01*
X133346600Y-97183072D01*
X133379009Y-97346003D01*
X133379012Y-97346015D01*
X133442584Y-97499493D01*
X133442591Y-97499506D01*
X133534887Y-97637635D01*
X133534890Y-97637639D01*
X133652360Y-97755109D01*
X133652364Y-97755112D01*
X133709900Y-97793557D01*
X133754705Y-97847169D01*
X133763412Y-97916494D01*
X133733257Y-97979522D01*
X133709900Y-97999761D01*
X133642364Y-98044887D01*
X133642360Y-98044890D01*
X133524890Y-98162360D01*
X133524887Y-98162364D01*
X133432591Y-98300493D01*
X133432584Y-98300506D01*
X133369012Y-98453984D01*
X133369009Y-98453996D01*
X133336600Y-98616927D01*
X130492594Y-98616927D01*
X130492598Y-98610751D01*
X130497446Y-91837408D01*
X130500053Y-88194409D01*
X130519786Y-88127386D01*
X130572622Y-88081669D01*
X130624053Y-88070500D01*
X131128844Y-88070500D01*
X131128845Y-88070499D01*
X131283497Y-88039737D01*
X131429179Y-87979394D01*
X131560289Y-87891789D01*
X131671789Y-87780289D01*
X131759394Y-87649179D01*
X131819737Y-87503497D01*
X131850500Y-87348842D01*
X131850500Y-87270000D01*
X131850500Y-87204108D01*
X131850500Y-84146927D01*
X139366600Y-84146927D01*
X139366600Y-84313072D01*
X139399009Y-84476003D01*
X139399012Y-84476015D01*
X139462584Y-84629493D01*
X139462591Y-84629506D01*
X139554887Y-84767635D01*
X139554890Y-84767639D01*
X139588827Y-84801575D01*
X139622313Y-84862897D01*
X139617329Y-84932589D01*
X139604250Y-84958147D01*
X139562590Y-85020495D01*
X139562584Y-85020506D01*
X139499012Y-85173984D01*
X139499009Y-85173996D01*
X139466600Y-85336927D01*
X139466600Y-85503072D01*
X139499009Y-85666003D01*
X139499012Y-85666015D01*
X139562584Y-85819493D01*
X139562591Y-85819506D01*
X139654887Y-85957635D01*
X139654890Y-85957639D01*
X139772360Y-86075109D01*
X139772364Y-86075112D01*
X139910493Y-86167408D01*
X139910506Y-86167415D01*
X140063984Y-86230987D01*
X140063989Y-86230989D01*
X140187608Y-86255578D01*
X140226927Y-86263399D01*
X140226931Y-86263400D01*
X140226932Y-86263400D01*
X140393063Y-86263400D01*
X140393068Y-86263400D01*
X140393072Y-86263399D01*
X140393855Y-86263322D01*
X140394266Y-86263400D01*
X140399160Y-86263400D01*
X140399160Y-86264328D01*
X140462502Y-86276340D01*
X140513213Y-86324404D01*
X140529889Y-86392254D01*
X140507234Y-86458349D01*
X140474904Y-86489826D01*
X140452366Y-86504885D01*
X140452360Y-86504890D01*
X140334890Y-86622360D01*
X140334887Y-86622364D01*
X140242591Y-86760493D01*
X140242584Y-86760506D01*
X140179012Y-86913984D01*
X140179009Y-86913994D01*
X140162417Y-86997407D01*
X140130032Y-87059318D01*
X140069316Y-87093892D01*
X140064995Y-87094832D01*
X140043990Y-87099010D01*
X140043984Y-87099012D01*
X139890506Y-87162584D01*
X139890493Y-87162591D01*
X139752364Y-87254887D01*
X139752360Y-87254890D01*
X139634890Y-87372360D01*
X139634887Y-87372364D01*
X139542591Y-87510493D01*
X139542584Y-87510506D01*
X139479012Y-87663984D01*
X139479009Y-87663996D01*
X139446600Y-87826927D01*
X139446600Y-87993072D01*
X139479009Y-88156003D01*
X139479012Y-88156015D01*
X139542584Y-88309493D01*
X139542591Y-88309506D01*
X139634887Y-88447635D01*
X139634890Y-88447639D01*
X139752360Y-88565109D01*
X139752364Y-88565112D01*
X139890493Y-88657408D01*
X139890506Y-88657415D01*
X140043984Y-88720987D01*
X140043989Y-88720989D01*
X140206927Y-88753399D01*
X140206931Y-88753400D01*
X140206932Y-88753400D01*
X140373069Y-88753400D01*
X140373070Y-88753399D01*
X140536011Y-88720989D01*
X140689500Y-88657412D01*
X140827636Y-88565112D01*
X140945112Y-88447636D01*
X141037412Y-88309500D01*
X141100989Y-88156011D01*
X141112031Y-88100499D01*
X141117582Y-88072593D01*
X141149966Y-88010682D01*
X141210682Y-87976108D01*
X141215008Y-87975167D01*
X141221650Y-87973845D01*
X141236011Y-87970989D01*
X141389500Y-87907412D01*
X141527636Y-87815112D01*
X141645112Y-87697636D01*
X141737412Y-87559500D01*
X141800989Y-87406011D01*
X141833400Y-87243068D01*
X141833400Y-87076932D01*
X141800989Y-86913989D01*
X141800987Y-86913984D01*
X141737415Y-86760506D01*
X141737408Y-86760493D01*
X141645112Y-86622364D01*
X141645109Y-86622360D01*
X141527639Y-86504890D01*
X141527635Y-86504887D01*
X141389506Y-86412591D01*
X141389493Y-86412584D01*
X141236015Y-86349012D01*
X141236003Y-86349009D01*
X141073072Y-86316600D01*
X141073068Y-86316600D01*
X140906932Y-86316600D01*
X140906927Y-86316600D01*
X140906124Y-86316679D01*
X140905708Y-86316600D01*
X140900840Y-86316600D01*
X140900840Y-86315676D01*
X140837480Y-86303650D01*
X140786776Y-86255578D01*
X140770111Y-86187725D01*
X140792776Y-86121634D01*
X140825096Y-86090172D01*
X140847636Y-86075112D01*
X140965112Y-85957636D01*
X141057412Y-85819500D01*
X141120989Y-85666011D01*
X141153400Y-85503068D01*
X141153400Y-85336932D01*
X141120989Y-85173989D01*
X141110073Y-85147635D01*
X141057415Y-85020506D01*
X141057408Y-85020493D01*
X140965112Y-84882364D01*
X140965109Y-84882360D01*
X140931172Y-84848424D01*
X140897686Y-84787102D01*
X140902670Y-84717410D01*
X140915751Y-84691850D01*
X140957407Y-84629508D01*
X140957408Y-84629505D01*
X140957412Y-84629500D01*
X140999899Y-84526927D01*
X144056600Y-84526927D01*
X144056600Y-84693072D01*
X144089009Y-84856003D01*
X144089012Y-84856015D01*
X144152584Y-85009493D01*
X144152591Y-85009506D01*
X144244887Y-85147635D01*
X144244890Y-85147639D01*
X144362360Y-85265109D01*
X144362364Y-85265112D01*
X144500493Y-85357408D01*
X144500506Y-85357415D01*
X144653984Y-85420987D01*
X144653989Y-85420989D01*
X144816927Y-85453399D01*
X144816931Y-85453400D01*
X144816932Y-85453400D01*
X144983069Y-85453400D01*
X144983070Y-85453399D01*
X145146011Y-85420989D01*
X145299500Y-85357412D01*
X145437636Y-85265112D01*
X145555112Y-85147636D01*
X145647412Y-85009500D01*
X145710989Y-84856011D01*
X145743400Y-84693068D01*
X145743400Y-84526932D01*
X145737800Y-84498779D01*
X145744027Y-84429189D01*
X145786889Y-84374011D01*
X145835226Y-84352971D01*
X145882718Y-84343524D01*
X145996011Y-84320989D01*
X146149500Y-84257412D01*
X146287636Y-84165112D01*
X146405112Y-84047636D01*
X146497412Y-83909500D01*
X146560989Y-83756011D01*
X146593400Y-83593068D01*
X146593400Y-83426932D01*
X146593399Y-83426927D01*
X151906600Y-83426927D01*
X151906600Y-83593072D01*
X151939009Y-83756003D01*
X151939012Y-83756015D01*
X152002584Y-83909493D01*
X152002591Y-83909506D01*
X152094887Y-84047635D01*
X152094890Y-84047639D01*
X152212360Y-84165109D01*
X152212364Y-84165112D01*
X152350493Y-84257408D01*
X152350506Y-84257415D01*
X152503984Y-84320987D01*
X152503989Y-84320989D01*
X152664775Y-84352971D01*
X152666927Y-84353399D01*
X152666931Y-84353400D01*
X152666932Y-84353400D01*
X152833069Y-84353400D01*
X152833070Y-84353399D01*
X152996011Y-84320989D01*
X153149500Y-84257412D01*
X153287636Y-84165112D01*
X153405112Y-84047636D01*
X153497412Y-83909500D01*
X153560989Y-83756011D01*
X153593400Y-83593068D01*
X153593400Y-83426932D01*
X153560989Y-83263989D01*
X153524336Y-83175500D01*
X153497415Y-83110506D01*
X153497408Y-83110493D01*
X153405112Y-82972364D01*
X153405109Y-82972360D01*
X153287639Y-82854890D01*
X153287635Y-82854887D01*
X153149506Y-82762591D01*
X153149493Y-82762584D01*
X152996015Y-82699012D01*
X152996003Y-82699009D01*
X152833072Y-82666600D01*
X152833068Y-82666600D01*
X152666932Y-82666600D01*
X152666927Y-82666600D01*
X152503996Y-82699009D01*
X152503984Y-82699012D01*
X152350506Y-82762584D01*
X152350493Y-82762591D01*
X152212364Y-82854887D01*
X152212360Y-82854890D01*
X152094890Y-82972360D01*
X152094887Y-82972364D01*
X152002591Y-83110493D01*
X152002584Y-83110506D01*
X151939012Y-83263984D01*
X151939009Y-83263996D01*
X151906600Y-83426927D01*
X146593399Y-83426927D01*
X146560989Y-83263989D01*
X146524336Y-83175500D01*
X146497415Y-83110506D01*
X146497408Y-83110493D01*
X146405112Y-82972364D01*
X146405109Y-82972360D01*
X146287639Y-82854890D01*
X146287635Y-82854887D01*
X146149506Y-82762591D01*
X146149493Y-82762584D01*
X145996015Y-82699012D01*
X145996003Y-82699009D01*
X145833072Y-82666600D01*
X145833068Y-82666600D01*
X145666932Y-82666600D01*
X145666927Y-82666600D01*
X145503996Y-82699009D01*
X145503984Y-82699012D01*
X145350506Y-82762584D01*
X145350493Y-82762591D01*
X145212364Y-82854887D01*
X145212360Y-82854890D01*
X145094890Y-82972360D01*
X145094887Y-82972364D01*
X145002591Y-83110493D01*
X145002584Y-83110506D01*
X144939012Y-83263984D01*
X144939009Y-83263996D01*
X144906600Y-83426927D01*
X144906600Y-83426931D01*
X144906600Y-83426932D01*
X144906600Y-83593068D01*
X144906601Y-83593072D01*
X144912200Y-83621221D01*
X144905971Y-83690812D01*
X144863108Y-83745989D01*
X144814774Y-83767028D01*
X144653994Y-83799009D01*
X144653984Y-83799012D01*
X144500506Y-83862584D01*
X144500493Y-83862591D01*
X144362364Y-83954887D01*
X144362360Y-83954890D01*
X144244890Y-84072360D01*
X144244887Y-84072364D01*
X144152591Y-84210493D01*
X144152584Y-84210506D01*
X144089012Y-84363984D01*
X144089009Y-84363996D01*
X144056600Y-84526927D01*
X140999899Y-84526927D01*
X141020989Y-84476011D01*
X141053400Y-84313068D01*
X141053400Y-84146932D01*
X141020989Y-83983989D01*
X141008935Y-83954887D01*
X140957415Y-83830506D01*
X140957408Y-83830493D01*
X140865112Y-83692364D01*
X140865109Y-83692360D01*
X140747639Y-83574890D01*
X140747635Y-83574887D01*
X140609506Y-83482591D01*
X140609493Y-83482584D01*
X140456015Y-83419012D01*
X140456003Y-83419009D01*
X140293072Y-83386600D01*
X140293068Y-83386600D01*
X140126932Y-83386600D01*
X140126927Y-83386600D01*
X139963996Y-83419009D01*
X139963984Y-83419012D01*
X139810506Y-83482584D01*
X139810493Y-83482591D01*
X139672364Y-83574887D01*
X139672360Y-83574890D01*
X139554890Y-83692360D01*
X139554887Y-83692364D01*
X139462591Y-83830493D01*
X139462584Y-83830506D01*
X139399012Y-83983984D01*
X139399009Y-83983996D01*
X139366600Y-84146927D01*
X131850500Y-84146927D01*
X131850500Y-84004108D01*
X131850500Y-83991158D01*
X131850500Y-83991155D01*
X131850499Y-83991153D01*
X131834256Y-83909493D01*
X131819737Y-83836503D01*
X131817253Y-83830506D01*
X131759397Y-83690827D01*
X131759389Y-83690812D01*
X131671789Y-83559711D01*
X131671786Y-83559707D01*
X131560292Y-83448213D01*
X131560288Y-83448210D01*
X131429185Y-83360609D01*
X131429172Y-83360602D01*
X131283501Y-83300264D01*
X131283489Y-83300261D01*
X131128845Y-83269500D01*
X131128842Y-83269500D01*
X131115892Y-83269500D01*
X130624500Y-83269500D01*
X130557461Y-83249815D01*
X130511706Y-83197011D01*
X130500500Y-83145500D01*
X130500500Y-81504427D01*
X130500816Y-81495581D01*
X130515130Y-81295443D01*
X130517648Y-81277932D01*
X130552721Y-81116702D01*
X130582130Y-81059655D01*
X131424523Y-80133023D01*
X131472941Y-80100255D01*
X131569236Y-80064338D01*
X131586199Y-80059356D01*
X131777938Y-80017646D01*
X131795436Y-80015130D01*
X131995582Y-80000816D01*
X132004428Y-80000500D01*
X132065892Y-80000500D01*
X167934108Y-80000500D01*
X167995572Y-80000500D01*
X168004418Y-80000816D01*
G37*
%TD.AperFunction*%
%TD*%
M02*
