%TF.GenerationSoftware,KiCad,Pcbnew,9.0.7*%
%TF.CreationDate,2026-02-16T08:00:12+01:00*%
%TF.ProjectId,misfits,6d697366-6974-4732-9e6b-696361645f70,1*%
%TF.SameCoordinates,Original*%
%TF.FileFunction,Soldermask,Bot*%
%TF.FilePolarity,Negative*%
%FSLAX46Y46*%
G04 Gerber Fmt 4.6, Leading zero omitted, Abs format (unit mm)*
G04 Created by KiCad (PCBNEW 9.0.7) date 2026-02-16 08:00:12*
%MOMM*%
%LPD*%
G01*
G04 APERTURE LIST*
G04 APERTURE END LIST*
G36*
X145842008Y-106209998D02*
G01*
X145955566Y-106257035D01*
X146057765Y-106325322D01*
X146144678Y-106412235D01*
X146212965Y-106514434D01*
X146260002Y-106627992D01*
X146283981Y-106748543D01*
X146287000Y-106810000D01*
X146287000Y-108010000D01*
X146283981Y-108071457D01*
X146260002Y-108192008D01*
X146212965Y-108305566D01*
X146144678Y-108407765D01*
X146057765Y-108494678D01*
X145955566Y-108562965D01*
X145842008Y-108610002D01*
X145721457Y-108633981D01*
X145598543Y-108633981D01*
X145477992Y-108610002D01*
X145364434Y-108562965D01*
X145262235Y-108494678D01*
X145175322Y-108407765D01*
X145107035Y-108305566D01*
X145059998Y-108192008D01*
X145036019Y-108071457D01*
X145033000Y-108010000D01*
X145033000Y-106810000D01*
X145036019Y-106748543D01*
X145059998Y-106627992D01*
X145107035Y-106514434D01*
X145175322Y-106412235D01*
X145262235Y-106325322D01*
X145364434Y-106257035D01*
X145477992Y-106209998D01*
X145598543Y-106186019D01*
X145721457Y-106186019D01*
X145842008Y-106209998D01*
G37*
G36*
X154482008Y-106209998D02*
G01*
X154595566Y-106257035D01*
X154697765Y-106325322D01*
X154784678Y-106412235D01*
X154852965Y-106514434D01*
X154900002Y-106627992D01*
X154923981Y-106748543D01*
X154927000Y-106810000D01*
X154927000Y-108010000D01*
X154923981Y-108071457D01*
X154900002Y-108192008D01*
X154852965Y-108305566D01*
X154784678Y-108407765D01*
X154697765Y-108494678D01*
X154595566Y-108562965D01*
X154482008Y-108610002D01*
X154361457Y-108633981D01*
X154238543Y-108633981D01*
X154117992Y-108610002D01*
X154004434Y-108562965D01*
X153902235Y-108494678D01*
X153815322Y-108407765D01*
X153747035Y-108305566D01*
X153699998Y-108192008D01*
X153676019Y-108071457D01*
X153673000Y-108010000D01*
X153673000Y-106810000D01*
X153676019Y-106748543D01*
X153699998Y-106627992D01*
X153747035Y-106514434D01*
X153815322Y-106412235D01*
X153902235Y-106325322D01*
X154004434Y-106257035D01*
X154117992Y-106209998D01*
X154238543Y-106186019D01*
X154361457Y-106186019D01*
X154482008Y-106209998D01*
G37*
G36*
X164526901Y-105129042D02*
G01*
X164595273Y-105174727D01*
X164640958Y-105243099D01*
X164657000Y-105323750D01*
X164657000Y-105976250D01*
X164640958Y-106056901D01*
X164595273Y-106125273D01*
X164526901Y-106170958D01*
X164446250Y-106187000D01*
X163733750Y-106187000D01*
X163653099Y-106170958D01*
X163584727Y-106125273D01*
X163539042Y-106056901D01*
X163523000Y-105976250D01*
X163523000Y-105323750D01*
X163539042Y-105243099D01*
X163584727Y-105174727D01*
X163653099Y-105129042D01*
X163733750Y-105113000D01*
X164446250Y-105113000D01*
X164526901Y-105129042D01*
G37*
G36*
X150372071Y-105485429D02*
G01*
X150375000Y-105492500D01*
X150375000Y-106092500D01*
X150372071Y-106099571D01*
X150365000Y-106102500D01*
X150354895Y-106102500D01*
X150025105Y-106102500D01*
X150015000Y-106102500D01*
X150007929Y-106099571D01*
X150005000Y-106092500D01*
X150005000Y-105492500D01*
X150007929Y-105485429D01*
X150015000Y-105482500D01*
X150365000Y-105482500D01*
X150372071Y-105485429D01*
G37*
G36*
X150872071Y-105485429D02*
G01*
X150874163Y-105490480D01*
X150879896Y-105492855D01*
X150900104Y-105492855D01*
X150905836Y-105490480D01*
X150907929Y-105485429D01*
X150915000Y-105482500D01*
X151465000Y-105482500D01*
X151472071Y-105485429D01*
X151474163Y-105490480D01*
X151479896Y-105492855D01*
X151500104Y-105492855D01*
X151505836Y-105490480D01*
X151507929Y-105485429D01*
X151515000Y-105482500D01*
X151865000Y-105482500D01*
X151872071Y-105485429D01*
X151875000Y-105492500D01*
X151875000Y-106092500D01*
X151872071Y-106099571D01*
X151865000Y-106102500D01*
X151854895Y-106102500D01*
X151525106Y-106102500D01*
X151515000Y-106102500D01*
X151507929Y-106099571D01*
X151505835Y-106094517D01*
X151500105Y-106092144D01*
X151479895Y-106092144D01*
X151474164Y-106094517D01*
X151472071Y-106099571D01*
X151465000Y-106102500D01*
X151454894Y-106102500D01*
X150925106Y-106102500D01*
X150915000Y-106102500D01*
X150907929Y-106099571D01*
X150905835Y-106094517D01*
X150900105Y-106092144D01*
X150879895Y-106092144D01*
X150874164Y-106094517D01*
X150872071Y-106099571D01*
X150865000Y-106102500D01*
X150854894Y-106102500D01*
X150525105Y-106102500D01*
X150515000Y-106102500D01*
X150507929Y-106099571D01*
X150505000Y-106092500D01*
X150505000Y-105492500D01*
X150507929Y-105485429D01*
X150515000Y-105482500D01*
X150865000Y-105482500D01*
X150872071Y-105485429D01*
G37*
G36*
X152372071Y-105485429D02*
G01*
X152375000Y-105492500D01*
X152375000Y-106092500D01*
X152372071Y-106099571D01*
X152365000Y-106102500D01*
X152354895Y-106102500D01*
X152025105Y-106102500D01*
X152015000Y-106102500D01*
X152007929Y-106099571D01*
X152005000Y-106092500D01*
X152005000Y-105492500D01*
X152007929Y-105485429D01*
X152015000Y-105482500D01*
X152365000Y-105482500D01*
X152372071Y-105485429D01*
G37*
G36*
X150372071Y-104685429D02*
G01*
X150375000Y-104692500D01*
X150375000Y-105292500D01*
X150372071Y-105299571D01*
X150365000Y-105302500D01*
X150354895Y-105302500D01*
X150025105Y-105302500D01*
X150015000Y-105302500D01*
X150007929Y-105299571D01*
X150005000Y-105292500D01*
X150005000Y-104692500D01*
X150007929Y-104685429D01*
X150015000Y-104682500D01*
X150365000Y-104682500D01*
X150372071Y-104685429D01*
G37*
G36*
X150872071Y-104685429D02*
G01*
X150874163Y-104690480D01*
X150879896Y-104692855D01*
X150900104Y-104692855D01*
X150905836Y-104690480D01*
X150907929Y-104685429D01*
X150915000Y-104682500D01*
X151465000Y-104682500D01*
X151472071Y-104685429D01*
X151474163Y-104690480D01*
X151479896Y-104692855D01*
X151500104Y-104692855D01*
X151505836Y-104690480D01*
X151507929Y-104685429D01*
X151515000Y-104682500D01*
X151865000Y-104682500D01*
X151872071Y-104685429D01*
X151875000Y-104692500D01*
X151875000Y-105292500D01*
X151872071Y-105299571D01*
X151865000Y-105302500D01*
X151854895Y-105302500D01*
X151525106Y-105302500D01*
X151515000Y-105302500D01*
X151507929Y-105299571D01*
X151505835Y-105294517D01*
X151500105Y-105292144D01*
X151479895Y-105292144D01*
X151474164Y-105294517D01*
X151472071Y-105299571D01*
X151465000Y-105302500D01*
X151454894Y-105302500D01*
X150925106Y-105302500D01*
X150915000Y-105302500D01*
X150907929Y-105299571D01*
X150905835Y-105294517D01*
X150900105Y-105292144D01*
X150879895Y-105292144D01*
X150874164Y-105294517D01*
X150872071Y-105299571D01*
X150865000Y-105302500D01*
X150854894Y-105302500D01*
X150525105Y-105302500D01*
X150515000Y-105302500D01*
X150507929Y-105299571D01*
X150505000Y-105292500D01*
X150505000Y-104692500D01*
X150507929Y-104685429D01*
X150515000Y-104682500D01*
X150865000Y-104682500D01*
X150872071Y-104685429D01*
G37*
G36*
X152372071Y-104685429D02*
G01*
X152375000Y-104692500D01*
X152375000Y-105292500D01*
X152372071Y-105299571D01*
X152365000Y-105302500D01*
X152354895Y-105302500D01*
X152025105Y-105302500D01*
X152015000Y-105302500D01*
X152007929Y-105299571D01*
X152005000Y-105292500D01*
X152005000Y-104692500D01*
X152007929Y-104685429D01*
X152015000Y-104682500D01*
X152365000Y-104682500D01*
X152372071Y-104685429D01*
G37*
G36*
X164526901Y-103569042D02*
G01*
X164595273Y-103614727D01*
X164640958Y-103683099D01*
X164657000Y-103763750D01*
X164657000Y-104416250D01*
X164640958Y-104496901D01*
X164595273Y-104565273D01*
X164526901Y-104610958D01*
X164446250Y-104627000D01*
X163733750Y-104627000D01*
X163653099Y-104610958D01*
X163584727Y-104565273D01*
X163539042Y-104496901D01*
X163523000Y-104416250D01*
X163523000Y-103763750D01*
X163539042Y-103683099D01*
X163584727Y-103614727D01*
X163653099Y-103569042D01*
X163733750Y-103553000D01*
X164446250Y-103553000D01*
X164526901Y-103569042D01*
G37*
G36*
X145842008Y-102409998D02*
G01*
X145955566Y-102457035D01*
X146057765Y-102525322D01*
X146144678Y-102612235D01*
X146212965Y-102714434D01*
X146260002Y-102827992D01*
X146283981Y-102948543D01*
X146287000Y-103010000D01*
X146287000Y-103810000D01*
X146283981Y-103871457D01*
X146260002Y-103992008D01*
X146212965Y-104105566D01*
X146144678Y-104207765D01*
X146057765Y-104294678D01*
X145955566Y-104362965D01*
X145842008Y-104410002D01*
X145721457Y-104433981D01*
X145598543Y-104433981D01*
X145477992Y-104410002D01*
X145364434Y-104362965D01*
X145262235Y-104294678D01*
X145175322Y-104207765D01*
X145107035Y-104105566D01*
X145059998Y-103992008D01*
X145036019Y-103871457D01*
X145033000Y-103810000D01*
X145033000Y-103010000D01*
X145036019Y-102948543D01*
X145059998Y-102827992D01*
X145107035Y-102714434D01*
X145175322Y-102612235D01*
X145262235Y-102525322D01*
X145364434Y-102457035D01*
X145477992Y-102409998D01*
X145598543Y-102386019D01*
X145721457Y-102386019D01*
X145842008Y-102409998D01*
G37*
G36*
X154482008Y-102409998D02*
G01*
X154595566Y-102457035D01*
X154697765Y-102525322D01*
X154784678Y-102612235D01*
X154852965Y-102714434D01*
X154900002Y-102827992D01*
X154923981Y-102948543D01*
X154927000Y-103010000D01*
X154927000Y-103810000D01*
X154923981Y-103871457D01*
X154900002Y-103992008D01*
X154852965Y-104105566D01*
X154784678Y-104207765D01*
X154697765Y-104294678D01*
X154595566Y-104362965D01*
X154482008Y-104410002D01*
X154361457Y-104433981D01*
X154238543Y-104433981D01*
X154117992Y-104410002D01*
X154004434Y-104362965D01*
X153902235Y-104294678D01*
X153815322Y-104207765D01*
X153747035Y-104105566D01*
X153699998Y-103992008D01*
X153676019Y-103871457D01*
X153673000Y-103810000D01*
X153673000Y-103010000D01*
X153676019Y-102948543D01*
X153699998Y-102827992D01*
X153747035Y-102714434D01*
X153815322Y-102612235D01*
X153902235Y-102525322D01*
X154004434Y-102457035D01*
X154117992Y-102409998D01*
X154238543Y-102386019D01*
X154361457Y-102386019D01*
X154482008Y-102409998D01*
G37*
G36*
X164459034Y-100465764D02*
G01*
X164492125Y-100487875D01*
X164493542Y-100489996D01*
X164509572Y-100500707D01*
X164540391Y-100500707D01*
X164541459Y-100499992D01*
X164542875Y-100497875D01*
X164575966Y-100475764D01*
X164615000Y-100468000D01*
X165615000Y-100468000D01*
X165654034Y-100475764D01*
X165687125Y-100497875D01*
X165688540Y-100499993D01*
X165689608Y-100500707D01*
X165720427Y-100500707D01*
X165736458Y-100489994D01*
X165737875Y-100487875D01*
X165770966Y-100465764D01*
X165810000Y-100458000D01*
X166470000Y-100458000D01*
X166509034Y-100465764D01*
X166542125Y-100487875D01*
X166564236Y-100520966D01*
X166572000Y-100560000D01*
X166572000Y-100880000D01*
X166564236Y-100919034D01*
X166542125Y-100952125D01*
X166509034Y-100974236D01*
X166470000Y-100982000D01*
X165810000Y-100982000D01*
X165770966Y-100974236D01*
X165768843Y-100972817D01*
X165754144Y-100969894D01*
X165717000Y-101000377D01*
X165717000Y-101089621D01*
X165754142Y-101120105D01*
X165768846Y-101117180D01*
X165770966Y-101115764D01*
X165810000Y-101108000D01*
X166470000Y-101108000D01*
X166509034Y-101115764D01*
X166542125Y-101137875D01*
X166564236Y-101170966D01*
X166572000Y-101210000D01*
X166572000Y-101530000D01*
X166564236Y-101569034D01*
X166542125Y-101602125D01*
X166509034Y-101624236D01*
X166470000Y-101632000D01*
X165810000Y-101632000D01*
X165770966Y-101624236D01*
X165768843Y-101622817D01*
X165754144Y-101619894D01*
X165717000Y-101650377D01*
X165717000Y-101739621D01*
X165754142Y-101770105D01*
X165768846Y-101767180D01*
X165770966Y-101765764D01*
X165810000Y-101758000D01*
X166470000Y-101758000D01*
X166509034Y-101765764D01*
X166542125Y-101787875D01*
X166564236Y-101820966D01*
X166572000Y-101860000D01*
X166572000Y-102180000D01*
X166564236Y-102219034D01*
X166542125Y-102252125D01*
X166509034Y-102274236D01*
X166470000Y-102282000D01*
X165810000Y-102282000D01*
X165770966Y-102274236D01*
X165737875Y-102252125D01*
X165736457Y-102250003D01*
X165720427Y-102239292D01*
X165689607Y-102239292D01*
X165688542Y-102240003D01*
X165687125Y-102242125D01*
X165654034Y-102264236D01*
X165615000Y-102272000D01*
X164615000Y-102272000D01*
X164575966Y-102264236D01*
X164542875Y-102242125D01*
X164541458Y-102240005D01*
X164540391Y-102239292D01*
X164509571Y-102239292D01*
X164493543Y-102250001D01*
X164492125Y-102252125D01*
X164459034Y-102274236D01*
X164420000Y-102282000D01*
X163760000Y-102282000D01*
X163720966Y-102274236D01*
X163687875Y-102252125D01*
X163665764Y-102219034D01*
X163658000Y-102180000D01*
X163658000Y-101860000D01*
X163665764Y-101820966D01*
X163687875Y-101787875D01*
X163720966Y-101765764D01*
X163760000Y-101758000D01*
X164420000Y-101758000D01*
X164459034Y-101765764D01*
X164461154Y-101767181D01*
X164475855Y-101770105D01*
X164513000Y-101739621D01*
X164513000Y-101650378D01*
X164475856Y-101619894D01*
X164461156Y-101622817D01*
X164459034Y-101624236D01*
X164420000Y-101632000D01*
X163760000Y-101632000D01*
X163720966Y-101624236D01*
X163687875Y-101602125D01*
X163665764Y-101569034D01*
X163658000Y-101530000D01*
X163658000Y-101210000D01*
X163665764Y-101170966D01*
X163687875Y-101137875D01*
X163720966Y-101115764D01*
X163760000Y-101108000D01*
X164420000Y-101108000D01*
X164459034Y-101115764D01*
X164461154Y-101117181D01*
X164475855Y-101120105D01*
X164513000Y-101089621D01*
X164513000Y-101000378D01*
X164475856Y-100969894D01*
X164461156Y-100972817D01*
X164459034Y-100974236D01*
X164420000Y-100982000D01*
X163760000Y-100982000D01*
X163720966Y-100974236D01*
X163687875Y-100952125D01*
X163665764Y-100919034D01*
X163658000Y-100880000D01*
X163658000Y-100560000D01*
X163665764Y-100520966D01*
X163687875Y-100487875D01*
X163720966Y-100465764D01*
X163760000Y-100458000D01*
X164420000Y-100458000D01*
X164459034Y-100465764D01*
G37*
G36*
X161143034Y-99819264D02*
G01*
X161176125Y-99841375D01*
X161198236Y-99874466D01*
X161206000Y-99913500D01*
X161206000Y-101221500D01*
X161198236Y-101260534D01*
X161176125Y-101293625D01*
X161143034Y-101315736D01*
X161104000Y-101323500D01*
X159796000Y-101323500D01*
X159756966Y-101315736D01*
X159723875Y-101293625D01*
X159701764Y-101260534D01*
X159694000Y-101221500D01*
X159694000Y-99913500D01*
X159701764Y-99874466D01*
X159723875Y-99841375D01*
X159756966Y-99819264D01*
X159796000Y-99811500D01*
X161104000Y-99811500D01*
X161143034Y-99819264D01*
G37*
G36*
X158669455Y-99844053D02*
G01*
X158806376Y-99900768D01*
X158929601Y-99983104D01*
X159034396Y-100087899D01*
X159116732Y-100211124D01*
X159173447Y-100348045D01*
X159202360Y-100493399D01*
X159202360Y-100641601D01*
X159173447Y-100786955D01*
X159116732Y-100923876D01*
X159034396Y-101047101D01*
X158929601Y-101151896D01*
X158806376Y-101234232D01*
X158669455Y-101290947D01*
X158524101Y-101319860D01*
X158375899Y-101319860D01*
X158230545Y-101290947D01*
X158093624Y-101234232D01*
X157970399Y-101151896D01*
X157865604Y-101047101D01*
X157783268Y-100923876D01*
X157726553Y-100786955D01*
X157697640Y-100641601D01*
X157697640Y-100493399D01*
X157726553Y-100348045D01*
X157783268Y-100211124D01*
X157865604Y-100087899D01*
X157970399Y-99983104D01*
X158093624Y-99900768D01*
X158230545Y-99844053D01*
X158375899Y-99815140D01*
X158524101Y-99815140D01*
X158669455Y-99844053D01*
G37*
G36*
X134509034Y-100495764D02*
G01*
X134542125Y-100517875D01*
X134564236Y-100550966D01*
X134572000Y-100590000D01*
X134572000Y-100990000D01*
X134564236Y-101029034D01*
X134542125Y-101062125D01*
X134509034Y-101084236D01*
X134470000Y-101092000D01*
X133670000Y-101092000D01*
X133630966Y-101084236D01*
X133597875Y-101062125D01*
X133575764Y-101029034D01*
X133568000Y-100990000D01*
X133568000Y-100590000D01*
X133575764Y-100550966D01*
X133597875Y-100517875D01*
X133630966Y-100495764D01*
X133670000Y-100488000D01*
X134470000Y-100488000D01*
X134509034Y-100495764D01*
G37*
G36*
X154136901Y-99889042D02*
G01*
X154205273Y-99934727D01*
X154250958Y-100003099D01*
X154267000Y-100083750D01*
X154267000Y-100796250D01*
X154250958Y-100876901D01*
X154205273Y-100945273D01*
X154136901Y-100990958D01*
X154056250Y-101007000D01*
X153403750Y-101007000D01*
X153323099Y-100990958D01*
X153254727Y-100945273D01*
X153209042Y-100876901D01*
X153193000Y-100796250D01*
X153193000Y-100083750D01*
X153209042Y-100003099D01*
X153254727Y-99934727D01*
X153323099Y-99889042D01*
X153403750Y-99873000D01*
X154056250Y-99873000D01*
X154136901Y-99889042D01*
G37*
G36*
X155696901Y-99889042D02*
G01*
X155765273Y-99934727D01*
X155810958Y-100003099D01*
X155827000Y-100083750D01*
X155827000Y-100796250D01*
X155810958Y-100876901D01*
X155765273Y-100945273D01*
X155696901Y-100990958D01*
X155616250Y-101007000D01*
X154963750Y-101007000D01*
X154883099Y-100990958D01*
X154814727Y-100945273D01*
X154769042Y-100876901D01*
X154753000Y-100796250D01*
X154753000Y-100083750D01*
X154769042Y-100003099D01*
X154814727Y-99934727D01*
X154883099Y-99889042D01*
X154963750Y-99873000D01*
X155616250Y-99873000D01*
X155696901Y-99889042D01*
G37*
G36*
X144796901Y-99769042D02*
G01*
X144865273Y-99814727D01*
X144910958Y-99883099D01*
X144927000Y-99963750D01*
X144927000Y-100676250D01*
X144910958Y-100756901D01*
X144865273Y-100825273D01*
X144796901Y-100870958D01*
X144716250Y-100887000D01*
X144063750Y-100887000D01*
X143983099Y-100870958D01*
X143914727Y-100825273D01*
X143869042Y-100756901D01*
X143853000Y-100676250D01*
X143853000Y-99963750D01*
X143869042Y-99883099D01*
X143914727Y-99814727D01*
X143983099Y-99769042D01*
X144063750Y-99753000D01*
X144716250Y-99753000D01*
X144796901Y-99769042D01*
G37*
G36*
X146356901Y-99769042D02*
G01*
X146425273Y-99814727D01*
X146470958Y-99883099D01*
X146487000Y-99963750D01*
X146487000Y-100676250D01*
X146470958Y-100756901D01*
X146425273Y-100825273D01*
X146356901Y-100870958D01*
X146276250Y-100887000D01*
X145623750Y-100887000D01*
X145543099Y-100870958D01*
X145474727Y-100825273D01*
X145429042Y-100756901D01*
X145413000Y-100676250D01*
X145413000Y-99963750D01*
X145429042Y-99883099D01*
X145474727Y-99814727D01*
X145543099Y-99769042D01*
X145623750Y-99753000D01*
X146276250Y-99753000D01*
X146356901Y-99769042D01*
G37*
G36*
X137009034Y-88045764D02*
G01*
X137042125Y-88067875D01*
X137064236Y-88100966D01*
X137072000Y-88140000D01*
X137072000Y-88440000D01*
X137064236Y-88479034D01*
X137042125Y-88512125D01*
X137040002Y-88513543D01*
X137032621Y-88524590D01*
X137032621Y-88555410D01*
X137040002Y-88566456D01*
X137042125Y-88567875D01*
X137064236Y-88600966D01*
X137072000Y-88640000D01*
X137072000Y-88940000D01*
X137064236Y-88979034D01*
X137042125Y-89012125D01*
X137040002Y-89013543D01*
X137032621Y-89024590D01*
X137032621Y-89055410D01*
X137040002Y-89066456D01*
X137042125Y-89067875D01*
X137064236Y-89100966D01*
X137072000Y-89140000D01*
X137072000Y-89440000D01*
X137064236Y-89479034D01*
X137042125Y-89512125D01*
X137040002Y-89513543D01*
X137032621Y-89524590D01*
X137032621Y-89555410D01*
X137040002Y-89566456D01*
X137042125Y-89567875D01*
X137064236Y-89600966D01*
X137072000Y-89640000D01*
X137072000Y-89940000D01*
X137064236Y-89979034D01*
X137042125Y-90012125D01*
X137040002Y-90013543D01*
X137032621Y-90024590D01*
X137032621Y-90055410D01*
X137040002Y-90066456D01*
X137042125Y-90067875D01*
X137064236Y-90100966D01*
X137072000Y-90140000D01*
X137072000Y-90440000D01*
X137064236Y-90479034D01*
X137042125Y-90512125D01*
X137040002Y-90513543D01*
X137032621Y-90524590D01*
X137032621Y-90555410D01*
X137040002Y-90566456D01*
X137042125Y-90567875D01*
X137064236Y-90600966D01*
X137072000Y-90640000D01*
X137072000Y-90940000D01*
X137064236Y-90979034D01*
X137042125Y-91012125D01*
X137040002Y-91013543D01*
X137032621Y-91024590D01*
X137032621Y-91055410D01*
X137040002Y-91066456D01*
X137042125Y-91067875D01*
X137064236Y-91100966D01*
X137072000Y-91140000D01*
X137072000Y-91440000D01*
X137064236Y-91479034D01*
X137042125Y-91512125D01*
X137040002Y-91513543D01*
X137032621Y-91524590D01*
X137032621Y-91555410D01*
X137040002Y-91566456D01*
X137042125Y-91567875D01*
X137064236Y-91600966D01*
X137072000Y-91640000D01*
X137072000Y-91940000D01*
X137064236Y-91979034D01*
X137042125Y-92012125D01*
X137040002Y-92013543D01*
X137032621Y-92024590D01*
X137032621Y-92055410D01*
X137040002Y-92066456D01*
X137042125Y-92067875D01*
X137064236Y-92100966D01*
X137072000Y-92140000D01*
X137072000Y-92440000D01*
X137064236Y-92479034D01*
X137042125Y-92512125D01*
X137040002Y-92513543D01*
X137032621Y-92524590D01*
X137032621Y-92555410D01*
X137040002Y-92566456D01*
X137042125Y-92567875D01*
X137064236Y-92600966D01*
X137072000Y-92640000D01*
X137072000Y-92940000D01*
X137064236Y-92979034D01*
X137042125Y-93012125D01*
X137040002Y-93013543D01*
X137032621Y-93024590D01*
X137032621Y-93055410D01*
X137040002Y-93066456D01*
X137042125Y-93067875D01*
X137064236Y-93100966D01*
X137072000Y-93140000D01*
X137072000Y-93440000D01*
X137064236Y-93479034D01*
X137042125Y-93512125D01*
X137040002Y-93513543D01*
X137032621Y-93524590D01*
X137032621Y-93555410D01*
X137040002Y-93566456D01*
X137042125Y-93567875D01*
X137064236Y-93600966D01*
X137072000Y-93640000D01*
X137072000Y-93940000D01*
X137064236Y-93979034D01*
X137042125Y-94012125D01*
X137040002Y-94013543D01*
X137032621Y-94024590D01*
X137032621Y-94055410D01*
X137040002Y-94066456D01*
X137042125Y-94067875D01*
X137064236Y-94100966D01*
X137072000Y-94140000D01*
X137072000Y-94440000D01*
X137064236Y-94479034D01*
X137042125Y-94512125D01*
X137040002Y-94513543D01*
X137032621Y-94524590D01*
X137032621Y-94555410D01*
X137040002Y-94566456D01*
X137042125Y-94567875D01*
X137064236Y-94600966D01*
X137072000Y-94640000D01*
X137072000Y-94940000D01*
X137064236Y-94979034D01*
X137042125Y-95012125D01*
X137040002Y-95013543D01*
X137032621Y-95024590D01*
X137032621Y-95055410D01*
X137040002Y-95066456D01*
X137042125Y-95067875D01*
X137064236Y-95100966D01*
X137072000Y-95140000D01*
X137072000Y-95440000D01*
X137064236Y-95479034D01*
X137042125Y-95512125D01*
X137040002Y-95513543D01*
X137032621Y-95524590D01*
X137032621Y-95555410D01*
X137040002Y-95566456D01*
X137042125Y-95567875D01*
X137064236Y-95600966D01*
X137072000Y-95640000D01*
X137072000Y-95940000D01*
X137064236Y-95979034D01*
X137042125Y-96012125D01*
X137040002Y-96013543D01*
X137032621Y-96024590D01*
X137032621Y-96055410D01*
X137040002Y-96066456D01*
X137042125Y-96067875D01*
X137064236Y-96100966D01*
X137072000Y-96140000D01*
X137072000Y-96440000D01*
X137064236Y-96479034D01*
X137042125Y-96512125D01*
X137040002Y-96513543D01*
X137032621Y-96524590D01*
X137032621Y-96555410D01*
X137040002Y-96566456D01*
X137042125Y-96567875D01*
X137064236Y-96600966D01*
X137072000Y-96640000D01*
X137072000Y-96940000D01*
X137064236Y-96979034D01*
X137042125Y-97012125D01*
X137040002Y-97013543D01*
X137032621Y-97024590D01*
X137032621Y-97055410D01*
X137040002Y-97066456D01*
X137042125Y-97067875D01*
X137064236Y-97100966D01*
X137072000Y-97140000D01*
X137072000Y-97440000D01*
X137064236Y-97479034D01*
X137042125Y-97512125D01*
X137040002Y-97513543D01*
X137032621Y-97524590D01*
X137032621Y-97555410D01*
X137040002Y-97566456D01*
X137042125Y-97567875D01*
X137064236Y-97600966D01*
X137072000Y-97640000D01*
X137072000Y-97940000D01*
X137064236Y-97979034D01*
X137042125Y-98012125D01*
X137040002Y-98013543D01*
X137032621Y-98024590D01*
X137032621Y-98055410D01*
X137040002Y-98066456D01*
X137042125Y-98067875D01*
X137064236Y-98100966D01*
X137072000Y-98140000D01*
X137072000Y-98440000D01*
X137064236Y-98479034D01*
X137042125Y-98512125D01*
X137040002Y-98513543D01*
X137032621Y-98524590D01*
X137032621Y-98555410D01*
X137040002Y-98566456D01*
X137042125Y-98567875D01*
X137064236Y-98600966D01*
X137072000Y-98640000D01*
X137072000Y-98940000D01*
X137064236Y-98979034D01*
X137042125Y-99012125D01*
X137040002Y-99013543D01*
X137032621Y-99024590D01*
X137032621Y-99055410D01*
X137040002Y-99066456D01*
X137042125Y-99067875D01*
X137064236Y-99100966D01*
X137072000Y-99140000D01*
X137072000Y-99440000D01*
X137064236Y-99479034D01*
X137042125Y-99512125D01*
X137040002Y-99513543D01*
X137032621Y-99524590D01*
X137032621Y-99555410D01*
X137040002Y-99566456D01*
X137042125Y-99567875D01*
X137064236Y-99600966D01*
X137072000Y-99640000D01*
X137072000Y-99940000D01*
X137064236Y-99979034D01*
X137042125Y-100012125D01*
X137009034Y-100034236D01*
X136970000Y-100042000D01*
X136170000Y-100042000D01*
X136130966Y-100034236D01*
X136097875Y-100012125D01*
X136075764Y-99979034D01*
X136068000Y-99940000D01*
X136068000Y-99640000D01*
X136075764Y-99600966D01*
X136097875Y-99567875D01*
X136099995Y-99566457D01*
X136107378Y-99555410D01*
X136107378Y-99524590D01*
X136099996Y-99513542D01*
X136097875Y-99512125D01*
X136075764Y-99479034D01*
X136068000Y-99440000D01*
X136068000Y-99140000D01*
X136075764Y-99100966D01*
X136097875Y-99067875D01*
X136099995Y-99066457D01*
X136107378Y-99055410D01*
X136107378Y-99024590D01*
X136099996Y-99013542D01*
X136097875Y-99012125D01*
X136075764Y-98979034D01*
X136068000Y-98940000D01*
X136068000Y-98640000D01*
X136075764Y-98600966D01*
X136097875Y-98567875D01*
X136099995Y-98566457D01*
X136107378Y-98555410D01*
X136107378Y-98524590D01*
X136099996Y-98513542D01*
X136097875Y-98512125D01*
X136075764Y-98479034D01*
X136068000Y-98440000D01*
X136068000Y-98140000D01*
X136075764Y-98100966D01*
X136097875Y-98067875D01*
X136099995Y-98066457D01*
X136107378Y-98055410D01*
X136107378Y-98024590D01*
X136099996Y-98013542D01*
X136097875Y-98012125D01*
X136075764Y-97979034D01*
X136068000Y-97940000D01*
X136068000Y-97640000D01*
X136075764Y-97600966D01*
X136097875Y-97567875D01*
X136099995Y-97566457D01*
X136107378Y-97555410D01*
X136107378Y-97524590D01*
X136099996Y-97513542D01*
X136097875Y-97512125D01*
X136075764Y-97479034D01*
X136068000Y-97440000D01*
X136068000Y-97140000D01*
X136075764Y-97100966D01*
X136097875Y-97067875D01*
X136099995Y-97066457D01*
X136107378Y-97055410D01*
X136107378Y-97024590D01*
X136099996Y-97013542D01*
X136097875Y-97012125D01*
X136075764Y-96979034D01*
X136068000Y-96940000D01*
X136068000Y-96640000D01*
X136075764Y-96600966D01*
X136097875Y-96567875D01*
X136099995Y-96566457D01*
X136107378Y-96555410D01*
X136107378Y-96524590D01*
X136099996Y-96513542D01*
X136097875Y-96512125D01*
X136075764Y-96479034D01*
X136068000Y-96440000D01*
X136068000Y-96140000D01*
X136075764Y-96100966D01*
X136097875Y-96067875D01*
X136099995Y-96066457D01*
X136107378Y-96055410D01*
X136107378Y-96024590D01*
X136099996Y-96013542D01*
X136097875Y-96012125D01*
X136075764Y-95979034D01*
X136068000Y-95940000D01*
X136068000Y-95640000D01*
X136075764Y-95600966D01*
X136097875Y-95567875D01*
X136099995Y-95566457D01*
X136107378Y-95555410D01*
X136107378Y-95524590D01*
X136099996Y-95513542D01*
X136097875Y-95512125D01*
X136075764Y-95479034D01*
X136068000Y-95440000D01*
X136068000Y-95140000D01*
X136075764Y-95100966D01*
X136097875Y-95067875D01*
X136099995Y-95066457D01*
X136107378Y-95055410D01*
X136107378Y-95024590D01*
X136099996Y-95013542D01*
X136097875Y-95012125D01*
X136075764Y-94979034D01*
X136068000Y-94940000D01*
X136068000Y-94640000D01*
X136075764Y-94600966D01*
X136097875Y-94567875D01*
X136099995Y-94566457D01*
X136107378Y-94555410D01*
X136107378Y-94524590D01*
X136099996Y-94513542D01*
X136097875Y-94512125D01*
X136075764Y-94479034D01*
X136068000Y-94440000D01*
X136068000Y-94140000D01*
X136075764Y-94100966D01*
X136097875Y-94067875D01*
X136099995Y-94066457D01*
X136107378Y-94055410D01*
X136107378Y-94024590D01*
X136099996Y-94013542D01*
X136097875Y-94012125D01*
X136075764Y-93979034D01*
X136068000Y-93940000D01*
X136068000Y-93640000D01*
X136075764Y-93600966D01*
X136097875Y-93567875D01*
X136099995Y-93566457D01*
X136107378Y-93555410D01*
X136107378Y-93524590D01*
X136099996Y-93513542D01*
X136097875Y-93512125D01*
X136075764Y-93479034D01*
X136068000Y-93440000D01*
X136068000Y-93140000D01*
X136075764Y-93100966D01*
X136097875Y-93067875D01*
X136099995Y-93066457D01*
X136107378Y-93055410D01*
X136107378Y-93024590D01*
X136099996Y-93013542D01*
X136097875Y-93012125D01*
X136075764Y-92979034D01*
X136068000Y-92940000D01*
X136068000Y-92640000D01*
X136075764Y-92600966D01*
X136097875Y-92567875D01*
X136099995Y-92566457D01*
X136107378Y-92555410D01*
X136107378Y-92524590D01*
X136099996Y-92513542D01*
X136097875Y-92512125D01*
X136075764Y-92479034D01*
X136068000Y-92440000D01*
X136068000Y-92140000D01*
X136075764Y-92100966D01*
X136097875Y-92067875D01*
X136099995Y-92066457D01*
X136107378Y-92055410D01*
X136107378Y-92024590D01*
X136099996Y-92013542D01*
X136097875Y-92012125D01*
X136075764Y-91979034D01*
X136068000Y-91940000D01*
X136068000Y-91640000D01*
X136075764Y-91600966D01*
X136097875Y-91567875D01*
X136099995Y-91566457D01*
X136107378Y-91555410D01*
X136107378Y-91524590D01*
X136099996Y-91513542D01*
X136097875Y-91512125D01*
X136075764Y-91479034D01*
X136068000Y-91440000D01*
X136068000Y-91140000D01*
X136075764Y-91100966D01*
X136097875Y-91067875D01*
X136099995Y-91066457D01*
X136107378Y-91055410D01*
X136107378Y-91024590D01*
X136099996Y-91013542D01*
X136097875Y-91012125D01*
X136075764Y-90979034D01*
X136068000Y-90940000D01*
X136068000Y-90640000D01*
X136075764Y-90600966D01*
X136097875Y-90567875D01*
X136099995Y-90566457D01*
X136107378Y-90555410D01*
X136107378Y-90524590D01*
X136099996Y-90513542D01*
X136097875Y-90512125D01*
X136075764Y-90479034D01*
X136068000Y-90440000D01*
X136068000Y-90140000D01*
X136075764Y-90100966D01*
X136097875Y-90067875D01*
X136099995Y-90066457D01*
X136107378Y-90055410D01*
X136107378Y-90024590D01*
X136099996Y-90013542D01*
X136097875Y-90012125D01*
X136075764Y-89979034D01*
X136068000Y-89940000D01*
X136068000Y-89640000D01*
X136075764Y-89600966D01*
X136097875Y-89567875D01*
X136099995Y-89566457D01*
X136107378Y-89555410D01*
X136107378Y-89524590D01*
X136099996Y-89513542D01*
X136097875Y-89512125D01*
X136075764Y-89479034D01*
X136068000Y-89440000D01*
X136068000Y-89140000D01*
X136075764Y-89100966D01*
X136097875Y-89067875D01*
X136099995Y-89066457D01*
X136107378Y-89055410D01*
X136107378Y-89024590D01*
X136099996Y-89013542D01*
X136097875Y-89012125D01*
X136075764Y-88979034D01*
X136068000Y-88940000D01*
X136068000Y-88640000D01*
X136075764Y-88600966D01*
X136097875Y-88567875D01*
X136099995Y-88566457D01*
X136107378Y-88555410D01*
X136107378Y-88524590D01*
X136099996Y-88513542D01*
X136097875Y-88512125D01*
X136075764Y-88479034D01*
X136068000Y-88440000D01*
X136068000Y-88140000D01*
X136075764Y-88100966D01*
X136097875Y-88067875D01*
X136130966Y-88045764D01*
X136170000Y-88038000D01*
X136970000Y-88038000D01*
X137009034Y-88045764D01*
G37*
G36*
X139624034Y-98945764D02*
G01*
X139657125Y-98967875D01*
X139679236Y-99000966D01*
X139687000Y-99040000D01*
X139687000Y-99760000D01*
X139679236Y-99799034D01*
X139657125Y-99832125D01*
X139624034Y-99854236D01*
X139585000Y-99862000D01*
X138375000Y-99862000D01*
X138335966Y-99854236D01*
X138302875Y-99832125D01*
X138280764Y-99799034D01*
X138273000Y-99760000D01*
X138273000Y-99040000D01*
X138280764Y-99000966D01*
X138302875Y-98967875D01*
X138335966Y-98945764D01*
X138375000Y-98938000D01*
X139585000Y-98938000D01*
X139624034Y-98945764D01*
G37*
G36*
X142984034Y-98945764D02*
G01*
X143017125Y-98967875D01*
X143039236Y-99000966D01*
X143047000Y-99040000D01*
X143047000Y-99760000D01*
X143039236Y-99799034D01*
X143017125Y-99832125D01*
X142984034Y-99854236D01*
X142945000Y-99862000D01*
X141735000Y-99862000D01*
X141695966Y-99854236D01*
X141662875Y-99832125D01*
X141640764Y-99799034D01*
X141633000Y-99760000D01*
X141633000Y-99040000D01*
X141640764Y-99000966D01*
X141662875Y-98967875D01*
X141695966Y-98945764D01*
X141735000Y-98938000D01*
X142945000Y-98938000D01*
X142984034Y-98945764D01*
G37*
G36*
X150209034Y-97535764D02*
G01*
X150242125Y-97557875D01*
X150264236Y-97590966D01*
X150272000Y-97630000D01*
X150272000Y-97661665D01*
X150308164Y-97691348D01*
X150325000Y-97688000D01*
X151225000Y-97688000D01*
X151241835Y-97691348D01*
X151278000Y-97661659D01*
X151278000Y-97635003D01*
X151278000Y-97635002D01*
X151278000Y-97630000D01*
X151285764Y-97590966D01*
X151307875Y-97557875D01*
X151340966Y-97535764D01*
X151380000Y-97528000D01*
X152140000Y-97528000D01*
X152179034Y-97535764D01*
X152212125Y-97557875D01*
X152234236Y-97590966D01*
X152242000Y-97630000D01*
X152242000Y-97850000D01*
X152234236Y-97889034D01*
X152212125Y-97922125D01*
X152210002Y-97923543D01*
X152209303Y-97924590D01*
X152209303Y-97955410D01*
X152210002Y-97956456D01*
X152212125Y-97957875D01*
X152234236Y-97990966D01*
X152242000Y-98030000D01*
X152242000Y-98250000D01*
X152234236Y-98289034D01*
X152212125Y-98322125D01*
X152210002Y-98323543D01*
X152209303Y-98324590D01*
X152209303Y-98355410D01*
X152210002Y-98356456D01*
X152212125Y-98357875D01*
X152234236Y-98390966D01*
X152242000Y-98430000D01*
X152242000Y-98650000D01*
X152234236Y-98689034D01*
X152212125Y-98722125D01*
X152210002Y-98723543D01*
X152209303Y-98724590D01*
X152209303Y-98755410D01*
X152210002Y-98756456D01*
X152212125Y-98757875D01*
X152234236Y-98790966D01*
X152242000Y-98830000D01*
X152242000Y-99050000D01*
X152234236Y-99089034D01*
X152212125Y-99122125D01*
X152210002Y-99123543D01*
X152209303Y-99124590D01*
X152209303Y-99155410D01*
X152210002Y-99156456D01*
X152212125Y-99157875D01*
X152234236Y-99190966D01*
X152242000Y-99230000D01*
X152242000Y-99450000D01*
X152234236Y-99489034D01*
X152212125Y-99522125D01*
X152179034Y-99544236D01*
X152140000Y-99552000D01*
X151380000Y-99552000D01*
X151340966Y-99544236D01*
X151307875Y-99522125D01*
X151285764Y-99489034D01*
X151278000Y-99450000D01*
X151278000Y-99444994D01*
X151277997Y-99418321D01*
X151241825Y-99388653D01*
X151225000Y-99392000D01*
X150325000Y-99392000D01*
X150308165Y-99388651D01*
X150272000Y-99418336D01*
X150272000Y-99450000D01*
X150264236Y-99489034D01*
X150242125Y-99522125D01*
X150209034Y-99544236D01*
X150170000Y-99552000D01*
X149410000Y-99552000D01*
X149370966Y-99544236D01*
X149337875Y-99522125D01*
X149315764Y-99489034D01*
X149308000Y-99450000D01*
X149308000Y-99230000D01*
X149315764Y-99190966D01*
X149337875Y-99157875D01*
X149339995Y-99156457D01*
X149340696Y-99155410D01*
X149340696Y-99124590D01*
X149339995Y-99123542D01*
X149337875Y-99122125D01*
X149315764Y-99089034D01*
X149308000Y-99050000D01*
X149308000Y-98830000D01*
X149315764Y-98790966D01*
X149337875Y-98757875D01*
X149339995Y-98756457D01*
X149340696Y-98755410D01*
X149340696Y-98724590D01*
X149339995Y-98723542D01*
X149337875Y-98722125D01*
X149315764Y-98689034D01*
X149308000Y-98650000D01*
X149308000Y-98430000D01*
X149315764Y-98390966D01*
X149337875Y-98357875D01*
X149339995Y-98356457D01*
X149340696Y-98355410D01*
X149340696Y-98324590D01*
X149339995Y-98323542D01*
X149337875Y-98322125D01*
X149315764Y-98289034D01*
X149308000Y-98250000D01*
X149308000Y-98030000D01*
X149315764Y-97990966D01*
X149337875Y-97957875D01*
X149339995Y-97956457D01*
X149340696Y-97955410D01*
X149340696Y-97924590D01*
X149339995Y-97923542D01*
X149337875Y-97922125D01*
X149315764Y-97889034D01*
X149308000Y-97850000D01*
X149308000Y-97630000D01*
X149315764Y-97590966D01*
X149337875Y-97557875D01*
X149370966Y-97535764D01*
X149410000Y-97528000D01*
X150170000Y-97528000D01*
X150209034Y-97535764D01*
G37*
G36*
X144944034Y-97875764D02*
G01*
X144977125Y-97897875D01*
X144999236Y-97930966D01*
X145007000Y-97970000D01*
X145007000Y-98990000D01*
X144999236Y-99029034D01*
X144977125Y-99062125D01*
X144944034Y-99084236D01*
X144905000Y-99092000D01*
X143865000Y-99092000D01*
X143825966Y-99084236D01*
X143792875Y-99062125D01*
X143770764Y-99029034D01*
X143763000Y-98990000D01*
X143763000Y-97970000D01*
X143770764Y-97930966D01*
X143792875Y-97897875D01*
X143825966Y-97875764D01*
X143865000Y-97868000D01*
X144905000Y-97868000D01*
X144944034Y-97875764D01*
G37*
G36*
X146414034Y-97875764D02*
G01*
X146447125Y-97897875D01*
X146469236Y-97930966D01*
X146477000Y-97970000D01*
X146477000Y-98990000D01*
X146469236Y-99029034D01*
X146447125Y-99062125D01*
X146414034Y-99084236D01*
X146375000Y-99092000D01*
X145335000Y-99092000D01*
X145295966Y-99084236D01*
X145262875Y-99062125D01*
X145240764Y-99029034D01*
X145233000Y-98990000D01*
X145233000Y-97970000D01*
X145240764Y-97930966D01*
X145262875Y-97897875D01*
X145295966Y-97875764D01*
X145335000Y-97868000D01*
X146375000Y-97868000D01*
X146414034Y-97875764D01*
G37*
G36*
X167204034Y-97695764D02*
G01*
X167237125Y-97717875D01*
X167259236Y-97750966D01*
X167267000Y-97790000D01*
X167267000Y-98810000D01*
X167259236Y-98849034D01*
X167237125Y-98882125D01*
X167204034Y-98904236D01*
X167165000Y-98912000D01*
X166125000Y-98912000D01*
X166085966Y-98904236D01*
X166052875Y-98882125D01*
X166030764Y-98849034D01*
X166023000Y-98810000D01*
X166023000Y-97790000D01*
X166030764Y-97750966D01*
X166052875Y-97717875D01*
X166085966Y-97695764D01*
X166125000Y-97688000D01*
X167165000Y-97688000D01*
X167204034Y-97695764D01*
G37*
G36*
X168674034Y-97695764D02*
G01*
X168707125Y-97717875D01*
X168729236Y-97750966D01*
X168737000Y-97790000D01*
X168737000Y-98810000D01*
X168729236Y-98849034D01*
X168707125Y-98882125D01*
X168674034Y-98904236D01*
X168635000Y-98912000D01*
X167595000Y-98912000D01*
X167555966Y-98904236D01*
X167522875Y-98882125D01*
X167500764Y-98849034D01*
X167493000Y-98810000D01*
X167493000Y-97790000D01*
X167500764Y-97750966D01*
X167522875Y-97717875D01*
X167555966Y-97695764D01*
X167595000Y-97688000D01*
X168635000Y-97688000D01*
X168674034Y-97695764D01*
G37*
G36*
X163434034Y-97285764D02*
G01*
X163467125Y-97307875D01*
X163489236Y-97340966D01*
X163497000Y-97380000D01*
X163497000Y-98400000D01*
X163489236Y-98439034D01*
X163467125Y-98472125D01*
X163434034Y-98494236D01*
X163395000Y-98502000D01*
X162355000Y-98502000D01*
X162315966Y-98494236D01*
X162282875Y-98472125D01*
X162260764Y-98439034D01*
X162253000Y-98400000D01*
X162253000Y-97380000D01*
X162260764Y-97340966D01*
X162282875Y-97307875D01*
X162315966Y-97285764D01*
X162355000Y-97278000D01*
X163395000Y-97278000D01*
X163434034Y-97285764D01*
G37*
G36*
X164904034Y-97285764D02*
G01*
X164937125Y-97307875D01*
X164959236Y-97340966D01*
X164967000Y-97380000D01*
X164967000Y-98400000D01*
X164959236Y-98439034D01*
X164937125Y-98472125D01*
X164904034Y-98494236D01*
X164865000Y-98502000D01*
X163825000Y-98502000D01*
X163785966Y-98494236D01*
X163752875Y-98472125D01*
X163730764Y-98439034D01*
X163723000Y-98400000D01*
X163723000Y-97380000D01*
X163730764Y-97340966D01*
X163752875Y-97307875D01*
X163785966Y-97285764D01*
X163825000Y-97278000D01*
X164865000Y-97278000D01*
X164904034Y-97285764D01*
G37*
G36*
X154884034Y-96925764D02*
G01*
X154917125Y-96947875D01*
X154939236Y-96980966D01*
X154947000Y-97020000D01*
X154947000Y-98040000D01*
X154939236Y-98079034D01*
X154917125Y-98112125D01*
X154884034Y-98134236D01*
X154845000Y-98142000D01*
X153805000Y-98142000D01*
X153765966Y-98134236D01*
X153732875Y-98112125D01*
X153710764Y-98079034D01*
X153703000Y-98040000D01*
X153703000Y-97020000D01*
X153710764Y-96980966D01*
X153732875Y-96947875D01*
X153765966Y-96925764D01*
X153805000Y-96918000D01*
X154845000Y-96918000D01*
X154884034Y-96925764D01*
G37*
G36*
X156354034Y-96925764D02*
G01*
X156387125Y-96947875D01*
X156409236Y-96980966D01*
X156417000Y-97020000D01*
X156417000Y-98040000D01*
X156409236Y-98079034D01*
X156387125Y-98112125D01*
X156354034Y-98134236D01*
X156315000Y-98142000D01*
X155275000Y-98142000D01*
X155235966Y-98134236D01*
X155202875Y-98112125D01*
X155180764Y-98079034D01*
X155173000Y-98040000D01*
X155173000Y-97020000D01*
X155180764Y-96980966D01*
X155202875Y-96947875D01*
X155235966Y-96925764D01*
X155275000Y-96918000D01*
X156315000Y-96918000D01*
X156354034Y-96925764D01*
G37*
G36*
X144612934Y-96419723D02*
G01*
X144682077Y-96465923D01*
X144728277Y-96535066D01*
X144744499Y-96616626D01*
X144744499Y-96621623D01*
X144744500Y-96621628D01*
X144744500Y-96978652D01*
X144744500Y-97283375D01*
X144728277Y-97364934D01*
X144682077Y-97434077D01*
X144612934Y-97480277D01*
X144531374Y-97496499D01*
X144526376Y-97496499D01*
X144526372Y-97496500D01*
X143869628Y-97496500D01*
X143869627Y-97496499D01*
X143864625Y-97496500D01*
X143783066Y-97480277D01*
X143713923Y-97434077D01*
X143667723Y-97364934D01*
X143651501Y-97283374D01*
X143651500Y-97278375D01*
X143651500Y-97278371D01*
X143651500Y-96621628D01*
X143651500Y-96621627D01*
X143651500Y-96616625D01*
X143667723Y-96535066D01*
X143713923Y-96465923D01*
X143783066Y-96419723D01*
X143864626Y-96403501D01*
X143869623Y-96403500D01*
X143869628Y-96403500D01*
X144526372Y-96403500D01*
X144531375Y-96403500D01*
X144612934Y-96419723D01*
G37*
G36*
X146136934Y-96419723D02*
G01*
X146206077Y-96465923D01*
X146252277Y-96535066D01*
X146268499Y-96616626D01*
X146268499Y-96621623D01*
X146268500Y-96621628D01*
X146268500Y-96978652D01*
X146268500Y-97283375D01*
X146252277Y-97364934D01*
X146206077Y-97434077D01*
X146136934Y-97480277D01*
X146055374Y-97496499D01*
X146050376Y-97496499D01*
X146050372Y-97496500D01*
X145393628Y-97496500D01*
X145393627Y-97496499D01*
X145388625Y-97496500D01*
X145307066Y-97480277D01*
X145237923Y-97434077D01*
X145191723Y-97364934D01*
X145175501Y-97283374D01*
X145175500Y-97278375D01*
X145175500Y-97278371D01*
X145175500Y-96621628D01*
X145175500Y-96621627D01*
X145175500Y-96616625D01*
X145191723Y-96535066D01*
X145237923Y-96465923D01*
X145307066Y-96419723D01*
X145388626Y-96403501D01*
X145393623Y-96403500D01*
X145393628Y-96403500D01*
X146050372Y-96403500D01*
X146055375Y-96403500D01*
X146136934Y-96419723D01*
G37*
G36*
X166861834Y-96035864D02*
G01*
X166894925Y-96057975D01*
X166917036Y-96091066D01*
X166924800Y-96130100D01*
X166924800Y-97069900D01*
X166917036Y-97108934D01*
X166894925Y-97142025D01*
X166861834Y-97164136D01*
X166822800Y-97171900D01*
X166060800Y-97171900D01*
X166021766Y-97164136D01*
X165988675Y-97142025D01*
X165966564Y-97108934D01*
X165958800Y-97069900D01*
X165958800Y-96130100D01*
X165966564Y-96091066D01*
X165988675Y-96057975D01*
X166021766Y-96035864D01*
X166060800Y-96028100D01*
X166822800Y-96028100D01*
X166861834Y-96035864D01*
G37*
G36*
X168538234Y-96035864D02*
G01*
X168571325Y-96057975D01*
X168593436Y-96091066D01*
X168601200Y-96130100D01*
X168601200Y-97069900D01*
X168593436Y-97108934D01*
X168571325Y-97142025D01*
X168538234Y-97164136D01*
X168499200Y-97171900D01*
X167737200Y-97171900D01*
X167698166Y-97164136D01*
X167665075Y-97142025D01*
X167642964Y-97108934D01*
X167635200Y-97069900D01*
X167635200Y-96130100D01*
X167642964Y-96091066D01*
X167665075Y-96057975D01*
X167698166Y-96035864D01*
X167737200Y-96028100D01*
X168499200Y-96028100D01*
X168538234Y-96035864D01*
G37*
G36*
X163239034Y-95695764D02*
G01*
X163272125Y-95717875D01*
X163294236Y-95750966D01*
X163302000Y-95790000D01*
X163302000Y-96590000D01*
X163294236Y-96629034D01*
X163272125Y-96662125D01*
X163239034Y-96684236D01*
X163200000Y-96692000D01*
X162400000Y-96692000D01*
X162360966Y-96684236D01*
X162327875Y-96662125D01*
X162305764Y-96629034D01*
X162298000Y-96590000D01*
X162298000Y-95790000D01*
X162305764Y-95750966D01*
X162327875Y-95717875D01*
X162360966Y-95695764D01*
X162400000Y-95688000D01*
X163200000Y-95688000D01*
X163239034Y-95695764D01*
G37*
G36*
X164739034Y-95695764D02*
G01*
X164772125Y-95717875D01*
X164794236Y-95750966D01*
X164802000Y-95790000D01*
X164802000Y-96590000D01*
X164794236Y-96629034D01*
X164772125Y-96662125D01*
X164739034Y-96684236D01*
X164700000Y-96692000D01*
X163900000Y-96692000D01*
X163860966Y-96684236D01*
X163827875Y-96662125D01*
X163805764Y-96629034D01*
X163798000Y-96590000D01*
X163798000Y-95790000D01*
X163805764Y-95750966D01*
X163827875Y-95717875D01*
X163860966Y-95695764D01*
X163900000Y-95688000D01*
X164700000Y-95688000D01*
X164739034Y-95695764D01*
G37*
G36*
X144396901Y-93409042D02*
G01*
X144465273Y-93454727D01*
X144510958Y-93523099D01*
X144527000Y-93603750D01*
X144527000Y-94256250D01*
X144510958Y-94336901D01*
X144465273Y-94405273D01*
X144396901Y-94450958D01*
X144316250Y-94467000D01*
X143603750Y-94467000D01*
X143523099Y-94450958D01*
X143454727Y-94405273D01*
X143409042Y-94336901D01*
X143393000Y-94256250D01*
X143393000Y-93603750D01*
X143409042Y-93523099D01*
X143454727Y-93454727D01*
X143523099Y-93409042D01*
X143603750Y-93393000D01*
X144316250Y-93393000D01*
X144396901Y-93409042D01*
G37*
G36*
X147234034Y-93425764D02*
G01*
X147267125Y-93447875D01*
X147289236Y-93480966D01*
X147297000Y-93520000D01*
X147297000Y-94240000D01*
X147289236Y-94279034D01*
X147267125Y-94312125D01*
X147234034Y-94334236D01*
X147195000Y-94342000D01*
X145985000Y-94342000D01*
X145945966Y-94334236D01*
X145912875Y-94312125D01*
X145890764Y-94279034D01*
X145883000Y-94240000D01*
X145883000Y-93520000D01*
X145890764Y-93480966D01*
X145912875Y-93447875D01*
X145945966Y-93425764D01*
X145985000Y-93418000D01*
X147195000Y-93418000D01*
X147234034Y-93425764D01*
G37*
G36*
X150594034Y-93425764D02*
G01*
X150627125Y-93447875D01*
X150649236Y-93480966D01*
X150657000Y-93520000D01*
X150657000Y-94240000D01*
X150649236Y-94279034D01*
X150627125Y-94312125D01*
X150594034Y-94334236D01*
X150555000Y-94342000D01*
X149345000Y-94342000D01*
X149305966Y-94334236D01*
X149272875Y-94312125D01*
X149250764Y-94279034D01*
X149243000Y-94240000D01*
X149243000Y-93520000D01*
X149250764Y-93480966D01*
X149272875Y-93447875D01*
X149305966Y-93425764D01*
X149345000Y-93418000D01*
X150555000Y-93418000D01*
X150594034Y-93425764D01*
G37*
G36*
X152316901Y-93199042D02*
G01*
X152385273Y-93244727D01*
X152430958Y-93313099D01*
X152447000Y-93393750D01*
X152447000Y-94106250D01*
X152430958Y-94186901D01*
X152385273Y-94255273D01*
X152316901Y-94300958D01*
X152236250Y-94317000D01*
X151583750Y-94317000D01*
X151503099Y-94300958D01*
X151434727Y-94255273D01*
X151389042Y-94186901D01*
X151373000Y-94106250D01*
X151373000Y-93393750D01*
X151389042Y-93313099D01*
X151434727Y-93244727D01*
X151503099Y-93199042D01*
X151583750Y-93183000D01*
X152236250Y-93183000D01*
X152316901Y-93199042D01*
G37*
G36*
X153876901Y-93199042D02*
G01*
X153945273Y-93244727D01*
X153990958Y-93313099D01*
X154007000Y-93393750D01*
X154007000Y-94106250D01*
X153990958Y-94186901D01*
X153945273Y-94255273D01*
X153876901Y-94300958D01*
X153796250Y-94317000D01*
X153143750Y-94317000D01*
X153063099Y-94300958D01*
X152994727Y-94255273D01*
X152949042Y-94186901D01*
X152933000Y-94106250D01*
X152933000Y-93393750D01*
X152949042Y-93313099D01*
X152994727Y-93244727D01*
X153063099Y-93199042D01*
X153143750Y-93183000D01*
X153796250Y-93183000D01*
X153876901Y-93199042D01*
G37*
G36*
X165546901Y-93059042D02*
G01*
X165615273Y-93104727D01*
X165660958Y-93173099D01*
X165677000Y-93253750D01*
X165677000Y-93966250D01*
X165660958Y-94046901D01*
X165615273Y-94115273D01*
X165546901Y-94160958D01*
X165466250Y-94177000D01*
X164813750Y-94177000D01*
X164733099Y-94160958D01*
X164664727Y-94115273D01*
X164619042Y-94046901D01*
X164603000Y-93966250D01*
X164603000Y-93253750D01*
X164619042Y-93173099D01*
X164664727Y-93104727D01*
X164733099Y-93059042D01*
X164813750Y-93043000D01*
X165466250Y-93043000D01*
X165546901Y-93059042D01*
G37*
G36*
X167106901Y-93059042D02*
G01*
X167175273Y-93104727D01*
X167220958Y-93173099D01*
X167237000Y-93253750D01*
X167237000Y-93966250D01*
X167220958Y-94046901D01*
X167175273Y-94115273D01*
X167106901Y-94160958D01*
X167026250Y-94177000D01*
X166373750Y-94177000D01*
X166293099Y-94160958D01*
X166224727Y-94115273D01*
X166179042Y-94046901D01*
X166163000Y-93966250D01*
X166163000Y-93253750D01*
X166179042Y-93173099D01*
X166224727Y-93104727D01*
X166293099Y-93059042D01*
X166373750Y-93043000D01*
X167026250Y-93043000D01*
X167106901Y-93059042D01*
G37*
G36*
X144396901Y-91849042D02*
G01*
X144465273Y-91894727D01*
X144510958Y-91963099D01*
X144527000Y-92043750D01*
X144527000Y-92696250D01*
X144510958Y-92776901D01*
X144465273Y-92845273D01*
X144396901Y-92890958D01*
X144316250Y-92907000D01*
X143603750Y-92907000D01*
X143523099Y-92890958D01*
X143454727Y-92845273D01*
X143409042Y-92776901D01*
X143393000Y-92696250D01*
X143393000Y-92043750D01*
X143409042Y-91963099D01*
X143454727Y-91894727D01*
X143523099Y-91849042D01*
X143603750Y-91833000D01*
X144316250Y-91833000D01*
X144396901Y-91849042D01*
G37*
G36*
X153869034Y-90850764D02*
G01*
X153902125Y-90872875D01*
X153924236Y-90905966D01*
X153932000Y-90945000D01*
X153932000Y-92155000D01*
X153924236Y-92194034D01*
X153902125Y-92227125D01*
X153869034Y-92249236D01*
X153830000Y-92257000D01*
X153110000Y-92257000D01*
X153070966Y-92249236D01*
X153037875Y-92227125D01*
X153015764Y-92194034D01*
X153008000Y-92155000D01*
X153008000Y-90945000D01*
X153015764Y-90905966D01*
X153037875Y-90872875D01*
X153070966Y-90850764D01*
X153110000Y-90843000D01*
X153830000Y-90843000D01*
X153869034Y-90850764D01*
G37*
G36*
X139094034Y-90420764D02*
G01*
X139127125Y-90442875D01*
X139149236Y-90475966D01*
X139157000Y-90515000D01*
X139157000Y-91305000D01*
X139149236Y-91344034D01*
X139127125Y-91377125D01*
X139094034Y-91399236D01*
X139055000Y-91407000D01*
X138125000Y-91407000D01*
X138085966Y-91399236D01*
X138052875Y-91377125D01*
X138030764Y-91344034D01*
X138023000Y-91305000D01*
X138023000Y-90515000D01*
X138030764Y-90475966D01*
X138052875Y-90442875D01*
X138085966Y-90420764D01*
X138125000Y-90413000D01*
X139055000Y-90413000D01*
X139094034Y-90420764D01*
G37*
G36*
X146456615Y-90008818D02*
G01*
X146508909Y-90014885D01*
X146526778Y-90022775D01*
X146549893Y-90027373D01*
X146574638Y-90043907D01*
X146595832Y-90053265D01*
X146610306Y-90067739D01*
X146632459Y-90082541D01*
X146647260Y-90104693D01*
X146661734Y-90119167D01*
X146671091Y-90140358D01*
X146687627Y-90165107D01*
X146692225Y-90188223D01*
X146700114Y-90206090D01*
X146706179Y-90258374D01*
X146707000Y-90262500D01*
X146707000Y-90567500D01*
X146706179Y-90571627D01*
X146700114Y-90623909D01*
X146692225Y-90641774D01*
X146687627Y-90664893D01*
X146671089Y-90689643D01*
X146661734Y-90710832D01*
X146647262Y-90725303D01*
X146632459Y-90747459D01*
X146610303Y-90762262D01*
X146595832Y-90776734D01*
X146574643Y-90786089D01*
X146549893Y-90802627D01*
X146526774Y-90807225D01*
X146508909Y-90815114D01*
X146456627Y-90821179D01*
X146452500Y-90822000D01*
X145577500Y-90822000D01*
X145573374Y-90821179D01*
X145521090Y-90815114D01*
X145503223Y-90807225D01*
X145480107Y-90802627D01*
X145455358Y-90786091D01*
X145434167Y-90776734D01*
X145419693Y-90762260D01*
X145397541Y-90747459D01*
X145382739Y-90725306D01*
X145368265Y-90710832D01*
X145358907Y-90689638D01*
X145342373Y-90664893D01*
X145337775Y-90641778D01*
X145329885Y-90623909D01*
X145323818Y-90571615D01*
X145323000Y-90567500D01*
X145323000Y-90262500D01*
X145323818Y-90258386D01*
X145329885Y-90206090D01*
X145337775Y-90188219D01*
X145342373Y-90165107D01*
X145358906Y-90140363D01*
X145368265Y-90119167D01*
X145382741Y-90104690D01*
X145397541Y-90082541D01*
X145419690Y-90067741D01*
X145434167Y-90053265D01*
X145455363Y-90043906D01*
X145480107Y-90027373D01*
X145503219Y-90022775D01*
X145521090Y-90014885D01*
X145573386Y-90008818D01*
X145577500Y-90008000D01*
X146452500Y-90008000D01*
X146456615Y-90008818D01*
G37*
G36*
X144406615Y-89093818D02*
G01*
X144458909Y-89099885D01*
X144476778Y-89107775D01*
X144499893Y-89112373D01*
X144524638Y-89128907D01*
X144545832Y-89138265D01*
X144560306Y-89152739D01*
X144582459Y-89167541D01*
X144597260Y-89189693D01*
X144611734Y-89204167D01*
X144621091Y-89225358D01*
X144637627Y-89250107D01*
X144642225Y-89273223D01*
X144650114Y-89291090D01*
X144656179Y-89343374D01*
X144657000Y-89347500D01*
X144657000Y-89652500D01*
X144656179Y-89656627D01*
X144650114Y-89708909D01*
X144642225Y-89726774D01*
X144637627Y-89749893D01*
X144621089Y-89774643D01*
X144611734Y-89795832D01*
X144597262Y-89810303D01*
X144582459Y-89832459D01*
X144560303Y-89847262D01*
X144545832Y-89861734D01*
X144524643Y-89871089D01*
X144499893Y-89887627D01*
X144476774Y-89892225D01*
X144458909Y-89900114D01*
X144406627Y-89906179D01*
X144402500Y-89907000D01*
X143527500Y-89907000D01*
X143523374Y-89906179D01*
X143471090Y-89900114D01*
X143453223Y-89892225D01*
X143430107Y-89887627D01*
X143405358Y-89871091D01*
X143384167Y-89861734D01*
X143369693Y-89847260D01*
X143347541Y-89832459D01*
X143332739Y-89810306D01*
X143318265Y-89795832D01*
X143308907Y-89774638D01*
X143292373Y-89749893D01*
X143287775Y-89726778D01*
X143279885Y-89708909D01*
X143273818Y-89656615D01*
X143273000Y-89652500D01*
X143273000Y-89347500D01*
X143273818Y-89343386D01*
X143279885Y-89291090D01*
X143287775Y-89273219D01*
X143292373Y-89250107D01*
X143308906Y-89225363D01*
X143318265Y-89204167D01*
X143332741Y-89189690D01*
X143347541Y-89167541D01*
X143369690Y-89152741D01*
X143384167Y-89138265D01*
X143405363Y-89128906D01*
X143430107Y-89112373D01*
X143453219Y-89107775D01*
X143471090Y-89099885D01*
X143523386Y-89093818D01*
X143527500Y-89093000D01*
X144402500Y-89093000D01*
X144406615Y-89093818D01*
G37*
G36*
X139094034Y-88780764D02*
G01*
X139127125Y-88802875D01*
X139149236Y-88835966D01*
X139157000Y-88875000D01*
X139157000Y-89665000D01*
X139149236Y-89704034D01*
X139127125Y-89737125D01*
X139094034Y-89759236D01*
X139055000Y-89767000D01*
X138125000Y-89767000D01*
X138085966Y-89759236D01*
X138052875Y-89737125D01*
X138030764Y-89704034D01*
X138023000Y-89665000D01*
X138023000Y-88875000D01*
X138030764Y-88835966D01*
X138052875Y-88802875D01*
X138085966Y-88780764D01*
X138125000Y-88773000D01*
X139055000Y-88773000D01*
X139094034Y-88780764D01*
G37*
G36*
X146456615Y-88178818D02*
G01*
X146508909Y-88184885D01*
X146526778Y-88192775D01*
X146549893Y-88197373D01*
X146574638Y-88213907D01*
X146595832Y-88223265D01*
X146610306Y-88237739D01*
X146632459Y-88252541D01*
X146647260Y-88274693D01*
X146661734Y-88289167D01*
X146671091Y-88310358D01*
X146687627Y-88335107D01*
X146692225Y-88358223D01*
X146700114Y-88376090D01*
X146706179Y-88428374D01*
X146707000Y-88432500D01*
X146707000Y-88737500D01*
X146706179Y-88741627D01*
X146700114Y-88793909D01*
X146692225Y-88811774D01*
X146687627Y-88834893D01*
X146671089Y-88859643D01*
X146661734Y-88880832D01*
X146647262Y-88895303D01*
X146632459Y-88917459D01*
X146610303Y-88932262D01*
X146595832Y-88946734D01*
X146574643Y-88956089D01*
X146549893Y-88972627D01*
X146526774Y-88977225D01*
X146508909Y-88985114D01*
X146456627Y-88991179D01*
X146452500Y-88992000D01*
X145577500Y-88992000D01*
X145573374Y-88991179D01*
X145521090Y-88985114D01*
X145503223Y-88977225D01*
X145480107Y-88972627D01*
X145455358Y-88956091D01*
X145434167Y-88946734D01*
X145419693Y-88932260D01*
X145397541Y-88917459D01*
X145382739Y-88895306D01*
X145368265Y-88880832D01*
X145358907Y-88859638D01*
X145342373Y-88834893D01*
X145337775Y-88811778D01*
X145329885Y-88793909D01*
X145323818Y-88741615D01*
X145323000Y-88737500D01*
X145323000Y-88432500D01*
X145323818Y-88428386D01*
X145329885Y-88376090D01*
X145337775Y-88358219D01*
X145342373Y-88335107D01*
X145358906Y-88310363D01*
X145368265Y-88289167D01*
X145382741Y-88274690D01*
X145397541Y-88252541D01*
X145419690Y-88237741D01*
X145434167Y-88223265D01*
X145455363Y-88213906D01*
X145480107Y-88197373D01*
X145503219Y-88192775D01*
X145521090Y-88184885D01*
X145573386Y-88178818D01*
X145577500Y-88178000D01*
X146452500Y-88178000D01*
X146456615Y-88178818D01*
G37*
G36*
X153869034Y-87490764D02*
G01*
X153902125Y-87512875D01*
X153924236Y-87545966D01*
X153932000Y-87585000D01*
X153932000Y-88795000D01*
X153924236Y-88834034D01*
X153902125Y-88867125D01*
X153869034Y-88889236D01*
X153830000Y-88897000D01*
X153110000Y-88897000D01*
X153070966Y-88889236D01*
X153037875Y-88867125D01*
X153015764Y-88834034D01*
X153008000Y-88795000D01*
X153008000Y-87585000D01*
X153015764Y-87545966D01*
X153037875Y-87512875D01*
X153070966Y-87490764D01*
X153110000Y-87483000D01*
X153830000Y-87483000D01*
X153869034Y-87490764D01*
G37*
G36*
X139129034Y-87090764D02*
G01*
X139162125Y-87112875D01*
X139184236Y-87145966D01*
X139192000Y-87185000D01*
X139192000Y-88225000D01*
X139184236Y-88264034D01*
X139162125Y-88297125D01*
X139129034Y-88319236D01*
X139090000Y-88327000D01*
X138070000Y-88327000D01*
X138030966Y-88319236D01*
X137997875Y-88297125D01*
X137975764Y-88264034D01*
X137968000Y-88225000D01*
X137968000Y-87185000D01*
X137975764Y-87145966D01*
X137997875Y-87112875D01*
X138030966Y-87090764D01*
X138070000Y-87083000D01*
X139090000Y-87083000D01*
X139129034Y-87090764D01*
G37*
G36*
X134509034Y-86995764D02*
G01*
X134542125Y-87017875D01*
X134564236Y-87050966D01*
X134572000Y-87090000D01*
X134572000Y-87490000D01*
X134564236Y-87529034D01*
X134542125Y-87562125D01*
X134509034Y-87584236D01*
X134470000Y-87592000D01*
X133670000Y-87592000D01*
X133630966Y-87584236D01*
X133597875Y-87562125D01*
X133575764Y-87529034D01*
X133568000Y-87490000D01*
X133568000Y-87090000D01*
X133575764Y-87050966D01*
X133597875Y-87017875D01*
X133630966Y-86995764D01*
X133670000Y-86988000D01*
X134470000Y-86988000D01*
X134509034Y-86995764D01*
G37*
G36*
X144842889Y-85116111D02*
G01*
X144844115Y-85117978D01*
X144861074Y-85160874D01*
X144878523Y-85200643D01*
X144903106Y-85256668D01*
X144904892Y-85260030D01*
X145022626Y-85446441D01*
X145024461Y-85448985D01*
X145139205Y-85588800D01*
X145141566Y-85591676D01*
X145142730Y-85592998D01*
X145258611Y-85715754D01*
X145261037Y-85718009D01*
X145382474Y-85816922D01*
X145384156Y-85818179D01*
X145475020Y-85880402D01*
X145611778Y-85966982D01*
X145615496Y-85968926D01*
X145835471Y-86061651D01*
X145836582Y-86062088D01*
X145964366Y-86108910D01*
X145968613Y-86110061D01*
X146164926Y-86145397D01*
X146166671Y-86145649D01*
X146198124Y-86149080D01*
X146329049Y-86163362D01*
X146331604Y-86163509D01*
X146441630Y-86164248D01*
X146477429Y-86164489D01*
X146480065Y-86164369D01*
X146671682Y-86145699D01*
X146674587Y-86145244D01*
X146764604Y-86125770D01*
X146878912Y-86101040D01*
X146882016Y-86100159D01*
X147090483Y-86026409D01*
X147093186Y-86025272D01*
X147243222Y-85951725D01*
X147245391Y-85950529D01*
X147344961Y-85889029D01*
X147346777Y-85887795D01*
X147391759Y-85854288D01*
X147442829Y-85816247D01*
X147444239Y-85815115D01*
X147552571Y-85721556D01*
X147553911Y-85720310D01*
X147559221Y-85715000D01*
X147664840Y-85609380D01*
X147666804Y-85607172D01*
X147666940Y-85607000D01*
X147769913Y-85476519D01*
X147810574Y-85424996D01*
X147812256Y-85422591D01*
X147884780Y-85304984D01*
X147885614Y-85303526D01*
X147939509Y-85201617D01*
X147940452Y-85199626D01*
X147958155Y-85157647D01*
X147971005Y-85127174D01*
X147971006Y-85127173D01*
X147974932Y-85117863D01*
X147977928Y-85114905D01*
X147980000Y-85114500D01*
X149160000Y-85114500D01*
X149163889Y-85116111D01*
X149165500Y-85120000D01*
X149165500Y-87320000D01*
X149163889Y-87323889D01*
X149160000Y-87325500D01*
X149149894Y-87325500D01*
X143670106Y-87325500D01*
X143660000Y-87325500D01*
X143656111Y-87323889D01*
X143654500Y-87320000D01*
X143654500Y-85120000D01*
X143656111Y-85116111D01*
X143660000Y-85114500D01*
X144839000Y-85114500D01*
X144842889Y-85116111D01*
G37*
G36*
X139129034Y-85620764D02*
G01*
X139162125Y-85642875D01*
X139184236Y-85675966D01*
X139192000Y-85715000D01*
X139192000Y-86755000D01*
X139184236Y-86794034D01*
X139162125Y-86827125D01*
X139129034Y-86849236D01*
X139090000Y-86857000D01*
X138070000Y-86857000D01*
X138030966Y-86849236D01*
X137997875Y-86827125D01*
X137975764Y-86794034D01*
X137968000Y-86755000D01*
X137968000Y-85715000D01*
X137975764Y-85675966D01*
X137997875Y-85642875D01*
X138030966Y-85620764D01*
X138070000Y-85613000D01*
X139090000Y-85613000D01*
X139129034Y-85620764D01*
G37*
G36*
X151156901Y-84549042D02*
G01*
X151225273Y-84594727D01*
X151270958Y-84663099D01*
X151287000Y-84743750D01*
X151287000Y-85396250D01*
X151270958Y-85476901D01*
X151225273Y-85545273D01*
X151156901Y-85590958D01*
X151076250Y-85607000D01*
X150363750Y-85607000D01*
X150283099Y-85590958D01*
X150214727Y-85545273D01*
X150169042Y-85476901D01*
X150153000Y-85396250D01*
X150153000Y-84743750D01*
X150169042Y-84663099D01*
X150214727Y-84594727D01*
X150283099Y-84549042D01*
X150363750Y-84533000D01*
X151076250Y-84533000D01*
X151156901Y-84549042D01*
G37*
G36*
X153186901Y-84549042D02*
G01*
X153255273Y-84594727D01*
X153300958Y-84663099D01*
X153317000Y-84743750D01*
X153317000Y-85396250D01*
X153300958Y-85476901D01*
X153255273Y-85545273D01*
X153186901Y-85590958D01*
X153106250Y-85607000D01*
X152393750Y-85607000D01*
X152313099Y-85590958D01*
X152244727Y-85545273D01*
X152199042Y-85476901D01*
X152183000Y-85396250D01*
X152183000Y-84743750D01*
X152199042Y-84663099D01*
X152244727Y-84594727D01*
X152313099Y-84549042D01*
X152393750Y-84533000D01*
X153106250Y-84533000D01*
X153186901Y-84549042D01*
G37*
G36*
X154866901Y-84549042D02*
G01*
X154935273Y-84594727D01*
X154980958Y-84663099D01*
X154997000Y-84743750D01*
X154997000Y-85396250D01*
X154980958Y-85476901D01*
X154935273Y-85545273D01*
X154866901Y-85590958D01*
X154786250Y-85607000D01*
X154073750Y-85607000D01*
X153993099Y-85590958D01*
X153924727Y-85545273D01*
X153879042Y-85476901D01*
X153863000Y-85396250D01*
X153863000Y-84743750D01*
X153879042Y-84663099D01*
X153924727Y-84594727D01*
X153993099Y-84549042D01*
X154073750Y-84533000D01*
X154786250Y-84533000D01*
X154866901Y-84549042D01*
G37*
G36*
X151156901Y-82989042D02*
G01*
X151225273Y-83034727D01*
X151270958Y-83103099D01*
X151287000Y-83183750D01*
X151287000Y-83836250D01*
X151270958Y-83916901D01*
X151225273Y-83985273D01*
X151156901Y-84030958D01*
X151076250Y-84047000D01*
X150363750Y-84047000D01*
X150283099Y-84030958D01*
X150214727Y-83985273D01*
X150169042Y-83916901D01*
X150153000Y-83836250D01*
X150153000Y-83183750D01*
X150169042Y-83103099D01*
X150214727Y-83034727D01*
X150283099Y-82989042D01*
X150363750Y-82973000D01*
X151076250Y-82973000D01*
X151156901Y-82989042D01*
G37*
G36*
X153186901Y-82989042D02*
G01*
X153255273Y-83034727D01*
X153300958Y-83103099D01*
X153317000Y-83183750D01*
X153317000Y-83836250D01*
X153300958Y-83916901D01*
X153255273Y-83985273D01*
X153186901Y-84030958D01*
X153106250Y-84047000D01*
X152393750Y-84047000D01*
X152313099Y-84030958D01*
X152244727Y-83985273D01*
X152199042Y-83916901D01*
X152183000Y-83836250D01*
X152183000Y-83183750D01*
X152199042Y-83103099D01*
X152244727Y-83034727D01*
X152313099Y-82989042D01*
X152393750Y-82973000D01*
X153106250Y-82973000D01*
X153186901Y-82989042D01*
G37*
G36*
X154866901Y-82989042D02*
G01*
X154935273Y-83034727D01*
X154980958Y-83103099D01*
X154997000Y-83183750D01*
X154997000Y-83836250D01*
X154980958Y-83916901D01*
X154935273Y-83985273D01*
X154866901Y-84030958D01*
X154786250Y-84047000D01*
X154073750Y-84047000D01*
X153993099Y-84030958D01*
X153924727Y-83985273D01*
X153879042Y-83916901D01*
X153863000Y-83836250D01*
X153863000Y-83183750D01*
X153879042Y-83103099D01*
X153924727Y-83034727D01*
X153993099Y-82989042D01*
X154073750Y-82973000D01*
X154786250Y-82973000D01*
X154866901Y-82989042D01*
G37*
G36*
X149163889Y-81616111D02*
G01*
X149165500Y-81620000D01*
X149165500Y-83820000D01*
X149163889Y-83823889D01*
X149160000Y-83825500D01*
X149149894Y-83825500D01*
X147991106Y-83825500D01*
X147981000Y-83825500D01*
X147977111Y-83823889D01*
X147975885Y-83822022D01*
X147973969Y-83817177D01*
X147973968Y-83817175D01*
X147968575Y-83803534D01*
X147958925Y-83779125D01*
X147928959Y-83710829D01*
X147916893Y-83683331D01*
X147915107Y-83679969D01*
X147797373Y-83493558D01*
X147795537Y-83491013D01*
X147678433Y-83348323D01*
X147677269Y-83347001D01*
X147561388Y-83224245D01*
X147558961Y-83221989D01*
X147437522Y-83123074D01*
X147435842Y-83121819D01*
X147344974Y-83059594D01*
X147208221Y-82973017D01*
X147204502Y-82971072D01*
X146984527Y-82878347D01*
X146983417Y-82877911D01*
X146855633Y-82831089D01*
X146851386Y-82829938D01*
X146655073Y-82794602D01*
X146653328Y-82794350D01*
X146621874Y-82790918D01*
X146490949Y-82776636D01*
X146488394Y-82776489D01*
X146378368Y-82775750D01*
X146342570Y-82775510D01*
X146339934Y-82775630D01*
X146148317Y-82794300D01*
X146145411Y-82794754D01*
X146055394Y-82814228D01*
X145941087Y-82838959D01*
X145937983Y-82839840D01*
X145729516Y-82913590D01*
X145726812Y-82914726D01*
X145611875Y-82971068D01*
X145576777Y-82988273D01*
X145574608Y-82989470D01*
X145475038Y-83050970D01*
X145473221Y-83052203D01*
X145463296Y-83059597D01*
X145377170Y-83123752D01*
X145375759Y-83124883D01*
X145307598Y-83183750D01*
X145267447Y-83218426D01*
X145266088Y-83219689D01*
X145155176Y-83330601D01*
X145153196Y-83332828D01*
X145009425Y-83515003D01*
X145007743Y-83517408D01*
X144935219Y-83635015D01*
X144934385Y-83636473D01*
X144880490Y-83738382D01*
X144879546Y-83740372D01*
X144845068Y-83822137D01*
X144842072Y-83825095D01*
X144840000Y-83825500D01*
X144835081Y-83825500D01*
X143670106Y-83825500D01*
X143660000Y-83825500D01*
X143656111Y-83823889D01*
X143654500Y-83820000D01*
X143654500Y-81620000D01*
X143656111Y-81616111D01*
X143660000Y-81614500D01*
X149160000Y-81614500D01*
X149163889Y-81616111D01*
G37*
M02*
